<svg viewBox="0 0 512 512" xmlns="http://www.w3.org/2000/svg" xmlns:xlink="http://www.w3.org/1999/xlink"><linearGradient id="a" gradientUnits="userSpaceOnUse" x1="412.6" x2="99.4" y1="-15.2" y2="527.2"><stop offset="0" stop-color="#7be9d5"/><stop offset="1" stop-color="#429489"/></linearGradient><rect fill="url(#a)" height="512" rx="100" width="512"/><g fill="#fff"><path d="m159.5 335.3c-12.1 0-22.7-1.8-31.7-5.4s-16.1-8.7-21.3-15.4-8.1-14.7-8.7-24.2v-1.7c-.1 0 30.2 0 30.2 0l.2 1.2c.7 4 2.5 7.4 5.4 10.2 2.9 2.9 6.6 5.1 11.2 6.7s9.8 2.4 15.6 2.4 11.1-.8 15.3-2.4c4.3-1.6 7.6-3.9 9.9-6.8s3.5-6.4 3.5-10.2c0-5.3-2-9.3-6.1-12.3-4.1-2.9-10.9-5.4-20.3-7.3l-16.1-3.3c-15.1-3-26.5-8.1-34.1-15.3-7.7-7.3-11.5-16.7-11.5-28.2 0-9.5 2.6-17.6 7.6-24.5s11.9-12.4 20.7-16.2c8.8-3.9 18.8-5.8 30.2-5.8s22 1.9 30.6 5.6 15.3 8.9 20.1 15.6 7.5 14.5 8 23.5v1.9h-30.2l-.2-1.3c-.5-4-2-7.5-4.5-10.3s-5.8-5-9.8-6.6-8.7-2.3-14-2.3-10.2.8-14.1 2.3c-4 1.6-7 3.7-9.1 6.5s-3.1 6-3.1 9.6c0 5 2.1 8.9 6.2 11.8s10.5 5.3 19.3 7.1l16.2 3.3c10.7 2.1 19.5 5.1 26.3 8.8 6.9 3.8 11.9 8.5 15.2 14.2s4.9 12.5 4.9 20.5c0 9.9-2.5 18.5-7.4 25.6-4.9 7.2-12 12.7-21.2 16.7-9.2 3.9-20.3 5.9-33.2 5.9z"/><path d="m240.8 332.6v-153.2h58.5c15.4 0 28.5 2.9 39.3 8.8 10.9 5.9 19.2 14.5 25 25.8s8.7 25 8.7 41.3v.2c0 16.2-2.9 30.1-8.7 41.6s-14.1 20.4-25 26.4c-10.9 6.1-24 9.1-39.4 9.1h-58.5zm32.1-26.5h22.6c9.6 0 17.6-1.9 24.2-5.7 6.5-3.8 11.5-9.5 14.9-17s5.1-16.8 5.1-27.8v-.2c0-10.6-1.7-19.6-5.2-27s-8.5-12.9-15.1-16.7-14.5-5.7-23.9-5.7h-22.6z"/><path d="m402.8 203.5c-3.2 0-5.9-1.1-8.2-3.4s-3.4-5-3.4-8.2 1.1-6 3.4-8.2 5-3.3 8.2-3.3 6 1.1 8.2 3.3 3.3 5 3.3 8.2-1.1 5.9-3.3 8.2-5 3.4-8.2 3.4zm-9.3 129.1v-110.4h18.5v110.4z"/></g></svg>