<svg xmlns="http://www.w3.org/2000/svg" viewBox="-5 -10 87.5 84.375"><path fill-rule="evenodd" d="M5.938 15h-9.375C-4.301 15-5 14.3-5 13.438V-8.439C-5-9.3-4.3-10-3.437-10h84.375c.863 0 1.562.7 1.562 1.563v21.874c0 .864-.7 1.563-1.562 1.563h-9.376v3.125h9.376c.863 0 1.562.7 1.562 1.563v21.875c0 .863-.7 1.562-1.562 1.562H66.363q.076.55.075 1.125c0 4.93-4.008 8.934-8.934 8.934a8.934 8.934 0 0 1-8.933-8.934q0-.575.062-1.125h-52.07c-.863 0-1.562-.7-1.562-1.562V19.687c0-.863.699-1.562 1.562-1.562h9.375zm64.061-3.125h9.376v-18.75h-81.25v18.75zm-1.562 6.25V15H9.062v3.125zM65.359 40h14.016V21.25h-81.25V40h51.508a8.96 8.96 0 0 1 7.871-4.687A8.93 8.93 0 0 1 65.36 40zm-13.562 3.125a5.6 5.6 0 0 0-.106 1.125 5.813 5.813 0 0 0 5.813 5.809 5.81 5.81 0 0 0 5.809-5.809q-.002-.58-.114-1.125A5.76 5.76 0 0 0 61.47 40a5.82 5.82 0 0 0-7.934 0 5.82 5.82 0 0 0-1.738 3.125M41.87 32.187a1.564 1.564 0 0 1 0-3.125h6.254c.867 0 1.563.7 1.563 1.562a1.56 1.56 0 0 1-1.563 1.563zm12.5 0c-.855 0-1.562-.7-1.562-1.562 0-.864.707-1.563 1.562-1.563h6.254c.863 0 1.559.7 1.559 1.562 0 .864-.696 1.563-1.559 1.563zm12.508 0a1.562 1.562 0 1 1 0-3.125h6.242c.867 0 1.563.7 1.563 1.562a1.56 1.56 0 0 1-1.563 1.563zm-62.5 0a1.56 1.56 0 0 1-1.562-1.562 1.56 1.56 0 0 1 1.562-1.563h26.555c.867 0 1.563.7 1.563 1.562a1.56 1.56 0 0 1-1.563 1.563zM54.371 4.062A1.57 1.57 0 0 1 52.81 2.5c0-.86.707-1.563 1.562-1.563h6.254c.863 0 1.559.703 1.559 1.563 0 .859-.696 1.562-1.559 1.562zm-49.992 0a1.562 1.562 0 1 1 0-3.125h26.555a1.562 1.562 0 1 1 0 3.125zm37.492 0A1.566 1.566 0 0 1 40.312 2.5c0-.86.704-1.563 1.56-1.563h6.253a1.562 1.562 0 1 1 0 3.125zm25.008 0A1.565 1.565 0 0 1 65.317 2.5c0-.86.699-1.563 1.562-1.563h6.242a1.562 1.562 0 1 1 0 3.125zm-4.695 50c6.043 0 10.938 4.898 10.938 10.938v4.688a4.685 4.685 0 0 1-4.684 4.687h-21.87a4.69 4.69 0 0 1-4.696-4.687V65c0-6.04 4.906-10.938 10.938-10.938zm0 3.125h-9.375A7.806 7.806 0 0 0 45.004 65v4.687a1.56 1.56 0 0 0 1.563 1.563h21.87c.868 0 1.563-.7 1.563-1.563V65c0-4.317-3.5-7.813-7.816-7.813z"/></svg>