<svg viewBox="0 0 50 58" xmlns="http://www.w3.org/2000/svg"><path d="m37.4 14.4h-24.8c-.6 0-1-.4-1-1v-12.4c0-.6.4-1 1-1h24.9c.6 0 1 .4 1 1v12.4c0 .6-.4 1-1 1m-23.9-2h22.9v-10.4h-22.9zm23.8 23.8h-24.8c-.6 0-1-.4-1-1v-12.4c0-.6.4-1 1-1h24.9c.6 0 1 .4 1 1v12.4c0 .6-.4 1-1 1m-23.9-2h22.9v-10.4h-22.9zm23.8 23.8h-24.8c-.6 0-1-.4-1-1v-12.4c0-.6.4-1 1-1h24.9c.6 0 1 .4 1 1v12.4c0 .6-.4 1-1 1m-23.9-2h22.9v-10.4h-22.9zm35.4-26h-8c-.6 0-1-.4-1-1s.4-1 1-1h7v-20h-7c-.6 0-1-.4-1-1s.4-1 1-1h8c.6 0 1 .4 1 1v22c0 .6-.4 1-1 1"/><path d="m45 34c-.3 0-.5-.1-.7-.3l-4-4c-.4-.4-.4-1 0-1.4l4-4c.4-.4 1-.4 1.4 0s.4 1 0 1.4l-3.3 3.3 3.3 3.3c.4.4.4 1 0 1.4-.2.2-.4.3-.7.3m-39.9 21.8c-.6 0-1-.4-1-1 0-.3.1-.5.3-.7l3.3-3.3-3.3-3.3c-.4-.4-.4-1 0-1.4s1-.4 1.4 0l4 4c.4.4.4 1 0 1.4l-4 4c-.2.2-.4.3-.7.3"/><path d="m9 51.8h-8c-.6 0-1-.4-1-1v-21.8c0-.6.4-1 1-1h7.8c.6 0 1 .4 1 1s-.4 1-1 1h-6.8v19.8h7c.6 0 1 .4 1 1s-.4 1-1 1"/></svg>