<svg xmlns="http://www.w3.org/2000/svg" viewBox="-5 -10 92.001 92"><path d="M82.712 37.63c-2.04 0-3.75 1.44-4.18 3.35h-10.59v-9.96h6.828c.43 1.91 2.14 3.351 4.18 3.351 2.37 0 4.289-1.93 4.289-4.289 0-2.37-1.93-4.289-4.29-4.289-2.038 0-3.75 1.442-4.18 3.352h-6.827v-8.078h6.07c.52 0 .942-.422.942-.942v-7.3c1.91-.43 3.351-2.141 3.351-4.18 0-2.371-1.93-4.29-4.289-4.29a4.294 4.294 0 0 0-4.29 4.29c0 2.039 1.442 3.75 3.353 4.18v6.37h-5.141v-5.351c0-2.629-2.14-4.77-4.77-4.77h-5.351L57.809-1.71H78.52c.43 1.91 2.14 3.352 4.18 3.352 2.37 0 4.289-1.93 4.289-4.289 0-2.371-1.93-4.29-4.29-4.29-2.038 0-3.75 1.442-4.179 3.352l-21.641-.003a.94.94 0 0 0-.941.941V9.063H47.86V-1.531c1.91-.43 3.351-2.14 3.351-4.18a4.289 4.289 0 1 0-8.578 0c0 2.04 1.441 3.75 3.352 4.18v10.59h-9.961V2.231c1.91-.43 3.351-2.14 3.351-4.18a4.289 4.289 0 1 0-8.578 0c0 2.04 1.441 3.75 3.352 4.18v6.828H26.07v-6.07a.94.94 0 0 0-.942-.942h-7.3c-.43-1.91-2.141-3.351-4.18-3.351a4.289 4.289 0 1 0 0 8.578c2.039 0 3.75-1.442 4.18-3.352h6.37v5.14h-5.351a4.776 4.776 0 0 0-4.77 4.77v5.352l-10.789.008V-1.531c1.91-.43 3.352-2.14 3.352-4.18A4.29 4.29 0 0 0 2.35-10 4.3 4.3 0 0 0-1.94-5.71c0 2.038 1.441 3.75 3.351 4.179v21.648c0 .52.422.941.942.941h11.71v8.078L3.47 29.14c-.43-1.91-2.14-3.351-4.18-3.351A4.296 4.296 0 0 0-5 30.078c0 2.37 1.93 4.289 4.29 4.289 2.038 0 3.75-1.442 4.179-3.352h10.59v9.961H7.23c-.43-1.91-2.14-3.351-4.18-3.351a4.294 4.294 0 0 0-4.29 4.289c0 2.37 1.93 4.289 4.29 4.289 2.04 0 3.75-1.442 4.18-3.352h6.828v8.078h-6.07a.94.94 0 0 0-.942.942v7.3c-1.91.43-3.351 2.141-3.351 4.18a4.289 4.289 0 1 0 8.578 0c0-2.039-1.442-3.75-3.352-4.18v-6.37h5.14v5.35c0 2.63 2.141 4.77 4.77 4.77h5.352v10.77L3.469 73.7c-.43-1.91-2.14-3.351-4.18-3.351C-3.07 70.359-5 72.28-5 74.648c0 2.372 1.93 4.29 4.29 4.29 2.038 0 3.75-1.442 4.179-3.352h21.648c.52 0 .941-.422.941-.941V62.942h8.078v10.59c-1.91.43-3.351 2.14-3.351 4.18 0 2.37 1.93 4.288 4.289 4.288 2.37 0 4.289-1.93 4.289-4.289 0-2.039-1.441-3.75-3.352-4.18l.008-10.59h9.961v6.829c-1.91.43-3.352 2.14-3.352 4.18a4.289 4.289 0 0 0 8.578 0c0-2.04-1.44-3.75-3.351-4.18v-6.828h8.078v6.07c0 .52.422.941.942.941h7.3c.43 1.91 2.14 3.352 4.18 3.352 2.371 0 4.29-1.93 4.29-4.29 0-2.37-1.93-4.288-4.29-4.288-2.04 0-3.75 1.441-4.18 3.351h-6.37v-5.14h5.35c2.63 0 4.77-2.141 4.77-4.77v-5.351h10.77v20.71c-1.91.43-3.351 2.141-3.351 4.18a4.289 4.289 0 1 0 8.578 0c0-2.039-1.441-3.75-3.352-4.18l.008-21.647a.94.94 0 0 0-.941-.942l-11.695.004v-8.078h10.59c.43 1.91 2.14 3.352 4.18 3.352A4.29 4.29 0 0 0 87 41.926a4.3 4.3 0 0 0-4.29-4.296zm-3.762-9.958a2.41 2.41 0 0 1 2.41 2.41 2.41 2.41 0 0 1-2.41 2.41 2.411 2.411 0 0 1 0-4.82m-7.348-19.03a2.41 2.41 0 0 1 2.41-2.411 2.41 2.41 0 0 1 2.41 2.41 2.41 2.41 0 0 1-2.41 2.41 2.42 2.42 0 0 1-2.41-2.41m11.11-13.7a2.41 2.41 0 0 1 2.41 2.41 2.41 2.41 0 0 1-2.41 2.41 2.41 2.41 0 0 1-2.411-2.41c-.012-1.332 1.078-2.41 2.41-2.41m-38.2-.652a2.41 2.41 0 0 1 2.41-2.41 2.41 2.41 0 0 1 2.41 2.41 2.41 2.41 0 0 1-2.41 2.41 2.41 2.41 0 0 1-2.41-2.41M32.672-1.95a2.41 2.41 0 0 1 2.41-2.41 2.41 2.41 0 0 1 2.41 2.41 2.411 2.411 0 0 1-4.82 0M13.642 5.4a2.41 2.41 0 0 1-2.411-2.41 2.41 2.41 0 0 1 2.41-2.41 2.41 2.41 0 0 1 2.41 2.41c0 1.32-1.082 2.41-2.41 2.41M-.059-5.71a2.41 2.41 0 0 1 2.41-2.41 2.41 2.41 0 0 1 2.41 2.41 2.409 2.409 0 1 1-4.82 0m-.652 38.2a2.41 2.41 0 0 1-2.41-2.411 2.41 2.41 0 0 1 2.41-2.41 2.41 2.41 0 0 1 2.41 2.41c.012 1.332-1.078 2.41-2.41 2.41M3.05 44.33a2.41 2.41 0 0 1-2.41-2.411 2.41 2.41 0 0 1 2.41-2.41 2.411 2.411 0 0 1 0 4.82M10.4 63.36a2.41 2.41 0 0 1-2.41 2.41 2.41 2.41 0 0 1-2.41-2.41 2.411 2.411 0 0 1 4.82 0M-.71 77.06a2.41 2.41 0 0 1-2.41-2.411 2.41 2.41 0 0 1 2.41-2.41 2.41 2.41 0 0 1 2.41 2.41c.012 1.332-1.078 2.41-2.41 2.41m38.2.652a2.41 2.41 0 0 1-2.411 2.41 2.41 2.41 0 0 1-2.41-2.41 2.41 2.41 0 0 1 2.41-2.41 2.41 2.41 0 0 1 2.41 2.41m11.84-3.762a2.41 2.41 0 0 1-2.411 2.41 2.41 2.41 0 0 1-2.41-2.41 2.411 2.411 0 0 1 4.82 0m19.03-7.348a2.41 2.41 0 0 1 2.41 2.41 2.41 2.41 0 0 1-2.41 2.41 2.41 2.41 0 0 1-2.41-2.41c0-1.32 1.082-2.41 2.41-2.41m-2.3-8.43a2.9 2.9 0 0 1-2.891 2.891l-44.34-.004a2.9 2.9 0 0 1-2.89-2.89l.003-44.34a2.9 2.9 0 0 1 2.89-2.891h44.34a2.9 2.9 0 0 1 2.891 2.89zm16 19.54a2.41 2.41 0 0 1-2.41 2.41 2.41 2.41 0 0 1-2.411-2.41 2.41 2.41 0 0 1 2.41-2.41c1.332-.013 2.41 1.077 2.41 2.41m.652-33.384a2.41 2.41 0 0 1-2.41-2.41 2.41 2.41 0 0 1 2.41-2.41 2.411 2.411 0 0 1 0 4.82m-20.84-30.137H20.13a.94.94 0 0 0-.942.942V56.87c0 .52.422.941.942.941h41.738c.52 0 .941-.422.941-.941V15.129a.935.935 0 0 0-.937-.938M60.93 55.93H21.071V16.07h39.86zM24.141 38.601c.422 1.641 1.47 3 2.961 3.82.309.173.63.31.969.43a4.99 4.99 0 0 0 1.09 4.16 4.96 4.96 0 0 0 3.3 1.762 4.76 4.76 0 0 0 4.731 4.262c1.57 0 2.95-.77 3.82-1.95.871 1.173 2.25 1.95 3.82 1.95a4.76 4.76 0 0 0 4.731-4.262 4.9 4.9 0 0 0 3.301-1.761 5 5 0 0 0 1.09-4.16 6 6 0 0 0 .969-.43 6.04 6.04 0 0 0 2.96-3.82 6.08 6.08 0 0 0-2.488-6.57 5.57 5.57 0 0 0 .188-5.34 5.6 5.6 0 0 0-4.399-3.052 5.585 5.585 0 0 0-10.16-2.191 5.58 5.58 0 0 0-4.648-2.488 5.6 5.6 0 0 0-5.512 4.68 5.59 5.59 0 0 0-4.398 3.05 5.57 5.57 0 0 0 .187 5.34 6.05 6.05 0 0 0-2.512 6.57m21.508-17.75c2.04 0 3.711 1.66 3.711 3.711 0 .73-.21 1.442-.62 2.051a.935.935 0 0 0 .26 1.3.935.935 0 0 0 1.302-.26c.43-.641.71-1.352.84-2.102a3.71 3.71 0 0 1 2.73 2c.512 1.02.52 2.199.031 3.238a3.67 3.67 0 0 1-2.52 2.031.938.938 0 1 0 .41 1.832c.88-.2 1.68-.601 2.352-1.16a4.19 4.19 0 0 1 1.891 4.648 4.16 4.16 0 0 1-2.05 2.64 4.14 4.14 0 0 1-3.34.321.937.937 0 0 0-.579 1.781 6 6 0 0 0 2.012.29c.191.921-.05 1.87-.68 2.628a3.05 3.05 0 0 1-2.039 1.09c-.12-.398-.3-.789-.52-1.148a.94.94 0 0 0-1.288-.3.94.94 0 0 0-.301 1.288 2.88 2.88 0 1 1-5.316 1.531V46c0-1.39.359-2.47 1.039-3.121.52-.5 1.238-.75 2.03-.72.512.02.962-.378.981-.89a.94.94 0 0 0-.89-.98 4.56 4.56 0 0 0-3.16 1.039l-.012-11.156c.761.601 1.699.941 2.73.941h.09a.945.945 0 0 0 .922-.96.943.943 0 0 0-.942-.923h-.019c-.711.012-1.36-.23-1.828-.691-.621-.61-.95-1.621-.95-2.898v-1.078a3.73 3.73 0 0 1 3.723-3.711zm-17.797 12.63c.672.558 1.47.96 2.352 1.16a.933.933 0 0 0 1.121-.711.933.933 0 0 0-.71-1.121 3.66 3.66 0 0 1-2.52-2.032 3.68 3.68 0 0 1 .03-3.238 3.73 3.73 0 0 1 2.731-2c.13.75.422 1.461.84 2.102a.939.939 0 0 0 1.563-1.04 3.75 3.75 0 0 1-.621-2.05c0-2.04 1.66-3.711 3.71-3.711 2.04 0 3.711 1.66 3.711 3.71v17.532a4.37 4.37 0 0 0-2.82-.942.945.945 0 0 0-.922.961c.012.52.442.93.961.922.711-.02 1.36.23 1.828.692.621.609.95 1.62.95 2.898v1.66a2.88 2.88 0 1 1-5.317-1.531.926.926 0 0 0-.3-1.29.9.9 0 0 0-.5-.14.96.96 0 0 0-.801.442 4.8 4.8 0 0 0-.52 1.148 3.07 3.07 0 0 1-2.04-1.09 3.15 3.15 0 0 1-.679-2.629c.68.02 1.36-.078 2.012-.289a.94.94 0 0 0 .601-1.18.94.94 0 0 0-1.18-.6c-1.12.358-2.3.25-3.339-.321a4.19 4.19 0 0 1-2.05-2.64 4.26 4.26 0 0 1 1.91-4.673zm4.727-2.45c.129-.5.648-.8 1.148-.66.29.078.84-.02 1.36-.422.77-.59 1.199-1.64 1.199-2.941a.942.942 0 0 1 1.883 0c0 2.558-1.211 3.87-1.942 4.43-.699.539-1.53.828-2.289.828q-.357-.002-.691-.09a.93.93 0 0 1-.668-1.145m-1.86 7.239a.93.93 0 0 1 0-1.329c1.422-1.421 3.93-1.718 5.711-.699.45.262.602.828.34 1.281a.934.934 0 0 1-1.28.34c-.911-.531-2.552-.488-3.442.399a.95.95 0 0 1-.66.28.96.96 0 0 1-.668-.273m13.403-4.43c1.878 0 2.761-1.16 3.05-1.672a.934.934 0 0 1 1.282-.34c.449.262.601.828.34 1.281a5.2 5.2 0 0 1-1.72 1.781c.239.61.782 1.461 2 1.79.5.128.801.648.66 1.148a.935.935 0 0 1-1.148.668c-1.98-.531-2.87-1.95-3.25-2.91-.39.078-.8.129-1.219.129a.94.94 0 0 1-.94-.942.946.946 0 0 1 .944-.933z"/></svg>