<svg class="fill-current h-8 w-8" viewBox="-5 -10 52.8088 85.570602" xmlns="http://www.w3.org/2000/svg"><g fill-rule="evenodd"><path d="m4.4219-7c-3.6094 0-6.4219 2.7852-6.4219 6.0898v67.391c0 3.3047 2.8125 6.0898 6.4219 6.0898h33.965c3.6094 0 6.4219-2.7852 6.4219-6.0898v-67.391c0-3.3047-2.8125-6.0898-6.4219-6.0898zm-9.4219 6.0898c0-5.0781 4.2773-9.0898 9.4219-9.0898h33.965c5.1445 0 9.4219 4.0117 9.4219 9.0898v67.391c0 5.0781-4.2773 9.0898-9.4219 9.0898h-33.965c-5.1445 0-9.4219-4.0117-9.4219-9.0898z"/><path d="m14.8789-.891c0-.82812.67188-1.5 1.5-1.5h10.051c.82812 0 1.5.67188 1.5 1.5s-.67188 1.5-1.5 1.5h-10.051c-.82812 0-1.5-.67188-1.5-1.5z"/><path d="m3.8089 28.941c0-.82812.67188-1.5 1.5-1.5h13.367c.83203 0 1.5.67188 1.5 1.5v13.324c0 .82812-.66797 1.5-1.5 1.5h-13.367c-.82812 0-1.5-.67188-1.5-1.5zm3 1.5v10.324h10.367v-10.324z"/><path d="m23.1759 47.941c0-.82812.67188-1.5 1.5-1.5h13.367c.83203 0 1.5.67188 1.5 1.5v13.324c0 .82812-.66797 1.5-1.5 1.5h-13.367c-.82812 0-1.5-.67188-1.5-1.5zm3 1.5v10.324h10.367v-10.324z"/><path d="m3.8089 48.266c0-.82812.67188-1.5 1.5-1.5h13.367c.83203 0 1.5.67188 1.5 1.5v13.324c0 .82812-.66797 1.5-1.5 1.5h-13.367c-.82812 0-1.5-.67188-1.5-1.5zm3 1.5v10.324h10.367v-10.324z"/></g></svg>
