<svg xmlns="http://www.w3.org/2000/svg" viewBox="-5 -10 88.575 88.282"><path d="M76.243 22.758a3.78 3.78 0 0 0 3.55 2.512 3.787 3.787 0 0 0 3.782-3.781 3.78 3.78 0 0 0-3.781-3.782 3.77 3.77 0 0 0-3.551 2.512h-12.88v-2.52h3.77c.7 0 1.27-.57 1.27-1.269 0-.7-.57-1.27-1.27-1.27h-3.77V12.65a2.41 2.41 0 0 0-2.41-2.41h-2.64V7.75h2.79c.538 1.43 1.921 2.461 3.538 2.461a3.787 3.787 0 0 0 3.781-3.781 3.78 3.78 0 0 0-3.78-3.781 3.775 3.775 0 0 0-3.571 2.558h-4.02c-.699 0-1.27.57-1.27 1.27v3.75h-2.53v-7.41h3.82c.7 0 1.27-.57 1.27-1.27V-2.51c1.43-.54 2.46-1.922 2.46-3.54a3.787 3.787 0 0 0-3.78-3.78 3.78 3.78 0 0 0-3.782 3.78c0 1.66 1.07 3.06 2.559 3.57V.283h-3.82c-.7 0-1.27.57-1.27 1.269v8.672h-2.531v-3.59c0-.7-.57-1.27-1.27-1.27s-1.27.57-1.27 1.27v3.59h-3.82c-.699 0-1.27.57-1.27 1.27 0 .699.571 1.269 1.27 1.269H60.83V40.64H41.817c-.699 0-1.27.57-1.27 1.27 0 .699.571 1.269 1.27 1.269h3.801v8.691c0 .7.57 1.27 1.27 1.27h3.789v5.3a3.78 3.78 0 0 0-2.512 3.551 3.787 3.787 0 0 0 3.781 3.782 3.78 3.78 0 0 0 3.781-3.782c0-1.64-1.05-3.03-2.511-3.55v-6.57c0-.7-.57-1.27-1.27-1.27h-3.789V43.18h2.531v3.75c0 .7.57 1.27 1.27 1.27.699 0 1.27-.57 1.27-1.27v-3.75h2.53v3.59c0 .699.57 1.27 1.27 1.27h3.77v5.327a3.78 3.78 0 0 0-2.512 3.551 3.787 3.787 0 0 0 3.781 3.781 3.78 3.78 0 0 0 3.781-3.78c0-1.641-1.05-3.032-2.511-3.552v-6.601c0-.7-.57-1.27-1.27-1.27h-3.77v-2.32h2.66a2.41 2.41 0 0 0 2.41-2.41v-2.82H68.4v2.921a3.78 3.78 0 0 0-2.512 3.551A3.787 3.787 0 0 0 69.67 48.2a3.78 3.78 0 0 0 3.78-3.78c0-1.641-1.05-3.032-2.51-3.552v-4.191c0-.7-.571-1.27-1.27-1.27h-6.301v-2.53h3.77c.699 0 1.269-.571 1.269-1.27s-.57-1.27-1.27-1.27h-3.77v-2.531h5.763l4.03 4.102c-.179.441-.28.921-.28 1.422a3.787 3.787 0 0 0 3.78 3.78 3.78 3.78 0 0 0 3.782-3.78 3.78 3.78 0 0 0-5.59-3.32l-4.281-4.36a1.27 1.27 0 0 0-.899-.38h-6.289v-2.53h12.88zM79.8 20.25c.692 0 1.239.559 1.239 1.239s-.559 1.238-1.239 1.238-1.238-.559-1.238-1.238c0-.68.559-1.239 1.238-1.239M64.641 5.2c.692 0 1.239.558 1.239 1.238s-.559 1.238-1.239 1.238-1.238-.559-1.238-1.238c0-.68.559-1.239 1.238-1.239M57.013-7.263c.69 0 1.238.559 1.238 1.239s-.559 1.238-1.238 1.238c-.68 0-1.239-.559-1.239-1.238 0-.68.559-1.239 1.239-1.239m-5.07 70.512a1.236 1.236 0 0 1-1.24-1.238c0-.68.56-1.238 1.24-1.238s1.238.558 1.238 1.238-.56 1.238-1.239 1.238m10.12-5.07a1.236 1.236 0 0 1-1.238-1.238c0-.68.558-1.239 1.238-1.239s1.239.559 1.239 1.239-.56 1.238-1.239 1.238m7.598-12.5a1.236 1.236 0 0 1-1.238-1.238c0-.68.558-1.239 1.238-1.239s1.238.559 1.238 1.239-.558 1.238-1.238 1.238m8.23-12.328c0 .691-.558 1.238-1.238 1.238s-1.238-.558-1.238-1.238.558-1.238 1.238-1.238 1.238.558 1.238 1.238m-37.34 3.508c0-.7.57-1.27 1.27-1.27H55.77v-9c0-.699.57-1.27 1.27-1.27.699 0 1.269.571 1.269 1.27v9.13a2.41 2.41 0 0 1-2.41 2.41H41.82c-.7 0-1.27-.571-1.27-1.27zm17.762-15.602c0 .699-.57 1.27-1.27 1.27-.698 0-1.269-.571-1.269-1.27v-3.41H41.825c-.699 0-1.27-.57-1.27-1.27s.571-1.27 1.27-1.27h14.078a2.41 2.41 0 0 1 2.41 2.41zm-37.96 7.332a3.787 3.787 0 0 0 3.78 3.78c1.641 0 3.032-1.05 3.551-2.51h14.148c.7 0 1.27-.571 1.27-1.27s-.57-1.27-1.27-1.27H27.684a3.78 3.78 0 0 0-3.55-2.511 3.787 3.787 0 0 0-3.782 3.78m3.769-1.239c.691 0 1.238.559 1.238 1.239s-.558 1.238-1.238 1.238-1.238-.559-1.238-1.238c0-.68.558-1.239 1.238-1.239M27.43 12.77a3.787 3.787 0 0 0-3.782 3.782 3.78 3.78 0 0 0 3.782 3.78c.558 0 1.09-.128 1.57-.35l4.36 4.44c.237.239.558.38.898.38h7.558c.7 0 1.27-.57 1.27-1.27s-.57-1.27-1.27-1.27h-7.031l-3.98-4.058c.25-.5.39-1.059.39-1.66a3.787 3.787 0 0 0-3.781-3.781zm-1.25 3.77c0-.692.558-1.238 1.238-1.238s1.238.558 1.238 1.238-.558 1.238-1.238 1.238-1.238-.558-1.238-1.238m27.953 51.84h-30.2v-3.012c0-1.32-.57-2.57-1.57-3.422a4.5 4.5 0 0 0-3.59-1.039l-9.039 1.328a4.08 4.08 0 0 1-3.289-.96 4.12 4.12 0 0 1-1.43-3.122v-10.46c0-1.34-.53-2.602-1.48-3.54a4.94 4.94 0 0 0-3.54-1.422 2.42 2.42 0 0 1-2.07-1.14 2.43 2.43 0 0 1-.14-2.38l3.871-8.12c.29-.63.461-1.328.48-2.051v-.031l.07-5.97c0-16.761 13.48-30.44 30.04-30.487h.09c5.41 0 10.699 1.441 15.289 4.148.601.36 1.379.16 1.738-.449.36-.602.16-1.379-.45-1.738C43.935-8.438 38.197-10 32.338-10h-.102C14.275-9.95-.335 4.871-.335 23.012l-.07 5.941c-.012.371-.102.73-.238 1.04l-3.871 8.109a5 5 0 0 0 .289 4.82c.921 1.461 2.5 2.32 4.238 2.32.648-.011 1.27.231 1.73.692.47.46.73 1.078.73 1.738v10.461c0 1.942.84 3.77 2.31 5.04a6.64 6.64 0 0 0 5.32 1.538l9.05-1.328a2 2 0 0 1 1.57.45c.442.378.692.921.692 1.5v3.011a4.976 4.976 0 0 0-4.969 4.969 4.976 4.976 0 0 0 4.97 4.969h32.737a4.976 4.976 0 0 0 4.97-4.969 4.976 4.976 0 0 0-4.97-4.969zm0 7.41H21.396c-1.34 0-2.43-1.09-2.43-2.43s1.09-2.43 2.43-2.43h32.738c1.34 0 2.43 1.09 2.43 2.43s-1.09 2.43-2.43 2.43"/></svg>