<svg xmlns="http://www.w3.org/2000/svg" viewBox="-5 -10 84.335 84.39"><path d="M-3.376 27.14c.375 0 .766-.14 1.062-.421 3.47-3.25 7.625-5.64 12.125-7.078l-.89 1.171A1.567 1.567 0 0 0 9.233 23c.282.219.61.312.938.312.469 0 .937-.218 1.25-.625l3.547-4.703v-.03c.031-.048.047-.095.078-.126.047-.062.094-.125.125-.203 0-.031 0-.062.015-.11 0-.046.032-.077.047-.109.016-.062 0-.14 0-.203 0-.094.016-.187 0-.281v-.156c0-.063-.047-.094-.062-.157-.031-.093-.047-.171-.094-.265a.5.5 0 0 0-.062-.125c-.032-.063-.094-.11-.125-.156-.063-.063-.11-.141-.188-.188-.031-.031-.047-.062-.078-.078h-.016c-.062-.047-.125-.063-.203-.094-.047-.031-.078-.062-.14-.094l-5.453-2.203a1.559 1.559 0 1 0-1.172 2.89l1.015.407A35.15 35.15 0 0 0-4.5 24.422c-.625.594-.672 1.578-.078 2.203.313.328.719.5 1.14.5zM52.858.28h.188c.78 0 1.453-.578 1.547-1.374l.187-1.579c.938 1.735 1.672 3.563 2.11 5.454 1.078 4.53.5 8.468-.172 10.969a1.553 1.553 0 0 0 1.109 1.906c.14.031.266.047.406.047.688 0 1.328-.453 1.5-1.157.766-2.843 1.422-7.328.188-12.5a25.3 25.3 0 0 0-2.235-5.906l.922.375a1.57 1.57 0 0 0 2.031-.875 1.553 1.553 0 0 0-.875-2.031l-5.468-2.187s-.141-.016-.204-.032c-.062-.015-.125-.062-.187-.062h-.094c-.11 0-.219 0-.328.031-.062 0-.125 0-.187.016-.032 0-.047.03-.079.047-.109.03-.187.093-.28.14-.063.031-.126.047-.173.094-.015.016-.03.047-.047.062a3 3 0 0 0-.187.22c-.047.062-.11.109-.14.187-.016.03-.032.078-.048.109 0 .031-.03.047-.046.063-.032.062-.016.125-.032.187 0 .016 0 .031-.015.063 0 .046-.047.093-.047.156v.031l-.688 5.813c-.109.859.516 1.64 1.375 1.734zM18.186 41.172c-5.281 0-9.594 4.296-9.594 9.593s4.297 9.594 9.594 9.594 9.594-4.297 9.594-9.594-4.297-9.593-9.594-9.593m0 16.062c-3.562 0-6.469-2.907-6.469-6.47s2.907-6.468 6.47-6.468 6.468 2.906 6.468 6.469c0 3.562-2.906 6.469-6.469 6.469"/><path d="M40.421 46.922a3.25 3.25 0 0 0 .563-3.97l-4.625-8a3.24 3.24 0 0 0-3.72-1.5l-3.5 1c-.484.141-.984.079-1.421-.171a1.81 1.81 0 0 1-.86-1.14l-.874-3.532a3.26 3.26 0 0 0-3.157-2.469h-9.234a3.244 3.244 0 0 0-3.156 2.47l-.875 3.53c-.125.485-.422.89-.86 1.14-.437.25-.937.313-1.422.173l-3.5-1a3.26 3.26 0 0 0-3.718 1.5l-4.625 8a3.246 3.246 0 0 0 .562 3.969l2.61 2.53c.359.345.562.813.562 1.313s-.203.969-.562 1.313l-2.61 2.531a3.25 3.25 0 0 0-.562 3.969l4.625 8a3.24 3.24 0 0 0 3.718 1.5l3.5-1c.485-.14.985-.078 1.422.172.438.25.735.656.86 1.14l.875 3.531a3.26 3.26 0 0 0 3.156 2.47h9.234c1.5 0 2.797-1.016 3.157-2.47l.875-3.53c.125-.485.421-.891.859-1.141.437-.25.937-.313 1.422-.172l3.5 1a3.26 3.26 0 0 0 3.719-1.5l4.625-8a3.246 3.246 0 0 0-.563-3.969l-2.61-2.531a1.8 1.8 0 0 1-.562-1.313c0-.5.203-.968.563-1.312zm-4.797 7.406 2.61 2.531s.062.11.03.172l-4.624 8s-.094.078-.156.062l-3.5-1a4.93 4.93 0 0 0-3.844.47 4.92 4.92 0 0 0-2.328 3.093l-.875 3.531s-.063.11-.125.11h-9.235s-.109-.047-.125-.11l-.875-3.531a4.96 4.96 0 0 0-2.328-3.094 4.97 4.97 0 0 0-2.469-.672c-.453 0-.921.063-1.375.188l-3.5 1s-.125 0-.156-.063l-4.625-8s-.015-.125.016-.172l2.61-2.53a4.93 4.93 0 0 0 1.515-3.563c0-1.36-.531-2.625-1.516-3.563l-2.61-2.531s-.046-.11-.015-.172l4.625-8s.094-.078.156-.062l3.5 1a4.94 4.94 0 0 0 3.844-.47 4.92 4.92 0 0 0 2.328-3.093l.875-3.531s.063-.11.125-.11h9.235s.11.047.125.11l.875 3.531a4.96 4.96 0 0 0 2.328 3.094 4.93 4.93 0 0 0 3.844.469l3.5-1s.125 0 .156.062l4.625 8s.016.125-.031.172l-2.61 2.531a4.93 4.93 0 0 0-1.515 3.563c0 1.359.53 2.625 1.515 3.562zM61.374 30.657c-3.875 0-7.031 3.156-7.031 7.03 0 3.876 3.156 7.032 7.031 7.032s7.031-3.156 7.031-7.031-3.156-7.031-7.03-7.031m0 10.938a3.91 3.91 0 0 1-3.906-3.907 3.91 3.91 0 0 1 3.906-3.906 3.91 3.91 0 0 1 3.906 3.906 3.91 3.91 0 0 1-3.906 3.907"/><path d="m78.467 40.328-1.984-1.922a.98.98 0 0 1-.313-.72c0-.265.11-.53.313-.733l1.984-1.922a2.844 2.844 0 0 0 .485-3.47l-3.5-6.062a2.83 2.83 0 0 0-3.25-1.312l-2.657.75a.997.997 0 0 1-1.25-.719l-.672-2.672a2.844 2.844 0 0 0-2.765-2.156h-7c-1.313 0-2.453.89-2.766 2.156l-.672 2.672a.997.997 0 0 1-1.25.719l-2.656-.75a2.85 2.85 0 0 0-3.25 1.312l-3.5 6.063a2.84 2.84 0 0 0 .485 3.469l1.984 1.922a.98.98 0 0 1 0 1.437l-1.984 1.922a2.844 2.844 0 0 0-.485 3.469l3.5 6.062a2.83 2.83 0 0 0 3.25 1.313l2.656-.75a.997.997 0 0 1 1.25.719l.672 2.671a2.844 2.844 0 0 0 2.766 2.157h7c1.312 0 2.453-.891 2.765-2.157l.672-2.672a.997.997 0 0 1 1.25-.718l2.657.75a2.85 2.85 0 0 0 3.25-1.313l3.5-6.062a2.84 2.84 0 0 0-.485-3.47zm-4.14.328 1.828 1.765-3.282 5.688-2.437-.703a4.1 4.1 0 0 0-3.203.39 4.05 4.05 0 0 0-1.938 2.578l-.609 2.47h-6.563l-.609-2.47a4.1 4.1 0 0 0-1.937-2.578 4.1 4.1 0 0 0-3.204-.39l-2.437.703-3.281-5.688 1.828-1.765a4.1 4.1 0 0 0 1.265-2.97 4.1 4.1 0 0 0-1.265-2.968l-1.828-1.766 3.281-5.687 2.437.703a4.1 4.1 0 0 0 3.204-.39 4.05 4.05 0 0 0 1.937-2.579l.61-2.468h6.562l.61 2.468a4.1 4.1 0 0 0 1.937 2.578c.984.563 2.11.704 3.203.391l2.437-.703 3.282 5.687-1.828 1.766a4.1 4.1 0 0 0-1.266 2.969 4.1 4.1 0 0 0 1.266 2.969M33.25.219a6.52 6.52 0 0 0-6.516 6.515 6.52 6.52 0 0 0 6.515 6.516 6.52 6.52 0 0 0 6.516-6.516A6.52 6.52 0 0 0 33.249.22m0 9.89a3.4 3.4 0 0 1-3.391-3.39 3.39 3.39 0 0 1 3.39-3.391 3.39 3.39 0 0 1 3.39 3.39 3.39 3.39 0 0 1-3.39 3.391"/><path d="m46.124 17.813 3.172-5.485A2.73 2.73 0 0 0 48.827 9L47.03 7.266a.76.76 0 0 1-.234-.547c0-.125.031-.36.234-.547l1.797-1.734a2.724 2.724 0 0 0 .469-3.329l-3.172-5.484a2.75 2.75 0 0 0-3.11-1.266l-2.39.688c-.281.078-.484 0-.594-.078a.73.73 0 0 1-.359-.485l-.61-2.422A2.71 2.71 0 0 0 36.422-10h-6.328c-1.25 0-2.344.844-2.64 2.062l-.61 2.422a.73.73 0 0 1-.36.485.76.76 0 0 1-.593.078l-2.39-.688a2.715 2.715 0 0 0-3.11 1.266l-3.172 5.484a2.73 2.73 0 0 0 .469 3.329l1.797 1.734a.76.76 0 0 1 .234.547c0 .125-.031.36-.234.547L17.687 9a2.724 2.724 0 0 0-.47 3.328l3.173 5.485a2.735 2.735 0 0 0 3.11 1.265l2.39-.687a.7.7 0 0 1 .594.078c.109.062.296.203.359.484l.61 2.422a2.71 2.71 0 0 0 2.64 2.063h6.328c1.25 0 2.344-.844 2.64-2.063l.61-2.422a.73.73 0 0 1 .36-.484.76.76 0 0 1 .593-.078l2.406.687a2.715 2.715 0 0 0 3.11-1.265zm-4.656-2.422a3.84 3.84 0 0 0-3.016.375 3.82 3.82 0 0 0-1.828 2.422l-.531 2.109H30.39l-.531-2.11a3.88 3.88 0 0 0-1.828-2.421 3.9 3.9 0 0 0-3.016-.375l-2.094.593-2.86-4.937 1.563-1.516a3.85 3.85 0 0 0 1.188-2.797 3.85 3.85 0 0 0-1.188-2.796l-1.562-1.516 2.86-4.938 2.093.594a3.85 3.85 0 0 0 3.016-.375 3.82 3.82 0 0 0 1.828-2.422l.53-2.11h5.704l.531 2.11a3.88 3.88 0 0 0 1.828 2.422 3.9 3.9 0 0 0 3.016.375l2.094-.594 2.86 4.938-1.563 1.516a3.85 3.85 0 0 0-1.188 2.796c0 1.063.422 2.063 1.188 2.797l1.562 1.516-2.86 4.937z"/></svg>