<svg xmlns="http://www.w3.org/2000/svg" xml:space="preserve" viewBox="-5 -10 90 90"><path d="M20.842 64.192h38.316c.853 0 1.545-.692 1.545-1.545 0-5.944-5.725-10.26-11.45-11.938-.024-.024-.044-.052-.07-.075l-2.425-2.133a1.5 1.5 0 0 0-.534-.292 8 8 0 0 1-.039-.678c1.837-1.595 3.268-3.891 4.027-6.639.491-.183 1.027-.552 1.55-1.235 1.347-1.754 2.414-5.543.954-7.254a2.42 2.42 0 0 0-1.258-.763c-.033-3.063-1.442-6.449-3.827-8.679-3.089-2.889-7.251-3.481-11.477-1.654-1.69-.128-3.399.575-4.765 1.985-1.947 2.011-2.944 5.064-2.84 8.344-.68.16-1.101.569-1.269.767-1.46 1.711-.392 5.499.954 7.254.524.683 1.059 1.051 1.55 1.235.758 2.748 2.19 5.045 4.027 6.64a8 8 0 0 1-.039.678 1.5 1.5 0 0 0-.534.293l-2.425 2.133c-.026.023-.045.051-.07.075-5.724 1.676-11.45 5.993-11.45 11.938a1.55 1.55 0 0 0 1.549 1.543m25.085-12.307-1.941 2.008-1.013-.568 2.396-1.574q.165-.017.325-.071zm-11.622-.205q.16.054.325.071l2.396 1.574-1.013.568-1.941-2.008zm2.409-2.257.022-.102a8.9 8.9 0 0 0 3.264.627 8.9 8.9 0 0 0 3.264-.627l.022.102L40 51.581Zm-3.103-23.982c.456-.471 1.391-1.229 2.51-1.028.316.057.641.015.932-.122 4.115-1.933 6.878-.563 8.47.926 2.086 1.951 3.209 5.146 2.772 7.556l-.025.095c-3.496.379-7.443-1.899-9.485-5.579a1.545 1.545 0 0 0-2.778.159 8.52 8.52 0 0 1-4.365 4.503c-.213-3.046.851-5.356 1.969-6.51M32.542 39.12a1.544 1.544 0 0 0-1.769-1.225c-.426-.438-.881-1.604-1.055-2.528.291.137.625.189.965.12 2.79-.575 5.231-2.203 6.881-4.514 2.574 3.147 6.292 5.029 9.927 5.028.796 0 1.589-.09 2.364-.277a1.6 1.6 0 0 0 .384-.154c-.197.886-.618 1.919-1.013 2.326a1.543 1.543 0 0 0-1.769 1.224c-.9 4.556-3.966 7.738-7.457 7.738-1.309 0-2.558-.447-3.656-1.247l-.003-.002c-1.829-1.332-3.237-3.642-3.799-6.489m-1.013 14.579 3.089 3.197a1.54 1.54 0 0 0 1.867.275L40 55.201l3.515 1.97a1.544 1.544 0 0 0 1.866-.274L48.47 53.7c3.113.934 7.93 3.404 8.949 7.403H22.58c1.019-4 5.836-6.47 8.949-7.404M85 12.733V-3.198A6.81 6.81 0 0 0 78.198-10H55.076a6.81 6.81 0 0 0-6.802 6.802v15.931c0 .54.07 1.062.194 1.564H6.658c-3.765 0-6.829 3.695-6.829 8.236v44.743C-2.945 68.007-5 70.529-5 73.529A6.48 6.48 0 0 0 1.472 80h77.057A6.48 6.48 0 0 0 85 73.529c0-3-2.055-5.522-4.828-6.252V22.534a9.7 9.7 0 0 0-.528-3.157c3.057-.665 5.356-3.39 5.356-6.644M6.658 17.388h43.573c.96.95 2.223 1.647 3.68 1.975l-1.664 4.295a1.543 1.543 0 0 0 1.442 2.103c.235 0 .472-.054.692-.164l12.093-6.062h9.875c.47.876.733 1.91.733 2.998v44.524h-23.08c-.853 0-1.545.692-1.545 1.545v2.224H27.543v-2.224c0-.853-.692-1.545-1.545-1.545H2.919V22.534c0-2.79 1.712-5.146 3.739-5.146M81.91 73.529a3.385 3.385 0 0 1-3.381 3.381H1.472a3.386 3.386 0 0 1-3.382-3.381 3.385 3.385 0 0 1 3.382-3.381h22.981v2.224c0 .853.692 1.545 1.545 1.545h28.004c.853 0 1.545-.692 1.545-1.545v-2.224h22.981a3.385 3.385 0 0 1 3.382 3.381m0-60.796a3.716 3.716 0 0 1-3.712 3.712h-12.09c-.24 0-.477.056-.692.164l-8.841 4.432.927-2.392a1.547 1.547 0 0 0-1.283-2.095l-.984-.101c-1.923-.198-3.87-1.539-3.87-3.72V-3.198a3.716 3.716 0 0 1 3.712-3.712h23.122a3.716 3.716 0 0 1 3.712 3.712v15.931ZM75.692.911c0 .853-.692 1.545-1.545 1.545h-15.02a1.545 1.545 0 0 1 0-3.09h15.02c.854 0 1.545.692 1.545 1.545m-3.206 7.713c0 .853-.692 1.545-1.545 1.545H59.127a1.545 1.545 0 0 1 0-3.09h11.814c.853 0 1.545.692 1.545 1.545"/></svg>