<svg xmlns="http://www.w3.org/2000/svg" xml:space="preserve"><path d="m24.874 30.538-2.647 7.101a1.544 1.544 0 0 0 2.247 1.861l14.798-8.946h25.433a5.26 5.26 0 0 0 5.254-5.255V5.255A5.26 5.26 0 0 0 64.705 0H25.293a5.26 5.26 0 0 0-5.254 5.255V25.3a5.26 5.26 0 0 0 4.835 5.238M23.13 5.255c0-1.194.971-2.165 2.164-2.165h39.412c1.193 0 2.164.971 2.164 2.165V25.3a2.167 2.167 0 0 1-2.164 2.165H38.841c-.282 0-.558.077-.799.223l-11.37 6.874 1.868-5.012a1.547 1.547 0 0 0-1.447-2.086h-1.8a2.167 2.167 0 0 1-2.164-2.165zm5.718 5.919c0-.853.692-1.545 1.545-1.545h29.214a1.545 1.545 0 0 1 0 3.09H30.392a1.544 1.544 0 0 1-1.545-1.545m0 8.206c0-.853.692-1.545 1.545-1.545h22.334a1.545 1.545 0 0 1 0 3.09H30.392a1.544 1.544 0 0 1-1.545-1.545m61.084 58.466c-2.167-7.077-7.166-12.371-13.24-14.49 2.208-1.751 3.631-4.451 3.631-7.481 0-5.267-4.285-9.552-9.552-9.552s-9.552 4.285-9.552 9.552c0 3.03 1.423 5.73 3.631 7.481-6.074 2.118-11.072 7.413-13.24 14.49a1.547 1.547 0 0 0 1.477 1.997h16.14v6.995H20.772v-6.995h16.14a1.544 1.544 0 0 0 1.476-1.997c-2.167-7.077-7.166-12.371-13.24-14.49 2.208-1.751 3.631-4.451 3.631-7.481 0-5.267-4.285-9.552-9.552-9.552s-9.552 4.285-9.552 9.552c0 3.03 1.423 5.73 3.631 7.481-6.074 2.118-11.072 7.413-13.24 14.49a1.547 1.547 0 0 0 1.477 1.997h16.14v8.54c0 .853.691 1.545 1.544 1.545H70.77c.853 0 1.545-.692 1.545-1.545v-8.54h16.14a1.544 1.544 0 0 0 1.476-1.997M12.765 55.875a6.47 6.47 0 0 1 6.462-6.462 6.47 6.47 0 0 1 6.462 6.462 6.47 6.47 0 0 1-6.458 6.462h-.008a6.47 6.47 0 0 1-6.458-6.462m6.46 9.552h.007c6.627.002 12.636 4.474 15.484 11.326H3.74c2.848-6.852 8.857-11.324 15.484-11.326m45.083-9.552a6.47 6.47 0 0 1 6.462-6.462 6.47 6.47 0 0 1 6.463 6.462 6.47 6.47 0 0 1-6.458 6.462h-.008a6.47 6.47 0 0 1-6.459-6.462m-9.026 20.878c2.848-6.852 8.857-11.324 15.484-11.326h.008c6.627.002 12.636 4.474 15.484 11.326z"/></svg>