<svg xmlns="http://www.w3.org/2000/svg" viewBox="-5 -10 91.997 70.785"><path d="M62.442 2.324 41.2-2.328a.86.86 0 0 0-.399 0L19.563 2.321a.94.94 0 0 0-.738.921v17.81c0 8.46 1.82 14.878 5.738 20.19 3.98 5.41 10.031 9.422 15.97 12.941.148.09.308.13.48.13s.328-.04.48-.13c5.942-3.52 11.98-7.53 15.97-12.94 3.91-5.32 5.738-11.73 5.738-20.192V3.231a.96.96 0 0 0-.758-.906zm-1.133 18.727c0 16.13-6.55 23.012-20.309 31.238-13.762-8.23-20.309-15.109-20.309-31.238V3.992l20.31-4.441 20.308 4.441zM35.77 9.031a7.36 7.36 0 0 0-2.172 5.23v4.411a3.54 3.54 0 0 0-3.3 3.531v13.75a3.55 3.55 0 0 0 3.55 3.551h14.29a3.55 3.55 0 0 0 3.55-3.55l.004-13.763c0-1.87-1.461-3.39-3.3-3.53V14.25c0-1.969-.77-3.828-2.173-5.23a7.36 7.36 0 0 0-5.23-2.172 7.44 7.44 0 0 0-5.22 2.183zm14.051 13.16v13.75c0 .922-.75 1.672-1.672 1.672H33.852c-.922 0-1.672-.75-1.672-1.672v-13.75c0-.921.75-1.671 1.672-1.671h14.29c.929-.008 1.679.742 1.679 1.671zm-7.059-3.55h-3.53v-4.38c0-.468.179-.91.519-1.238.34-.34.781-.52 1.238-.52.461 0 .91.18 1.238.52.34.34.52.782.52 1.239l.004 4.379zm3.758-4.387v4.379h-1.879v-4.38c0-.968-.379-1.878-1.07-2.57a3.6 3.6 0 0 0-2.57-1.07c-.969 0-1.88.38-2.57 1.07a3.6 3.6 0 0 0-1.07 2.57v4.38h-1.88v-4.38c0-1.468.578-2.85 1.621-3.897a5.52 5.52 0 0 1 3.899-1.622c1.468 0 2.851.579 3.898 1.622a5.49 5.49 0 0 1 1.621 3.898M81.891 36.21c-.77 0-1.48.21-2.12.559l-6.032-6.989a.94.94 0 0 0-.711-.328h-6c.43-2.601.66-5.379.66-8.41v-1.629h10.52c.43 2 2.211 3.512 4.34 3.512 2.45 0 4.45-2 4.45-4.45 0-2.449-1.99-4.449-4.45-4.449a4.45 4.45 0 0 0-4.34 3.512l-10.516-.008V7.492h5.34c.32 0 .61-.16.789-.422l5.55-8.468c.5.19 1.032.308 1.59.308 2.45 0 4.45-2 4.45-4.45 0-2.448-2-4.448-4.45-4.448-2.449 0-4.449 2-4.449 4.449 0 1.21.489 2.309 1.282 3.121l-5.262 8.04h-4.828V2.64c0-2.22-1.52-4.11-3.692-4.59L42-6.77a4.6 4.6 0 0 0-2.011 0l-22 4.808a4.67 4.67 0 0 0-3.692 4.59v2.98H9.47L4.208-2.43a4.43 4.43 0 0 0 1.28-3.12c0-2.45-2-4.45-4.448-4.45-2.45 0-4.45 2-4.45 4.45 0 2.448 2 4.448 4.45 4.448.558 0 1.09-.12 1.59-.308l5.55 8.469a.94.94 0 0 0 .79.422h5.339V17.52l-10.52.003c-.43-2-2.21-3.511-4.34-3.511C-3 14.032-5 16.023-5 18.472c0 2.45 2 4.45 4.45 4.45a4.45 4.45 0 0 0 4.339-3.512h10.52v1.629c0 3.031.23 5.809.66 8.41h-6a.95.95 0 0 0-.71.328l-6.032 6.989a4.34 4.34 0 0 0-2.121-.559c-2.45 0-4.45 2-4.45 4.45 0 2.448 2 4.448 4.45 4.448s4.45-2 4.45-4.449c0-1-.352-1.922-.911-2.66l5.75-6.66h5.922c.8 3.73 2.09 7.039 3.898 10.039h-4.78c-.38 0-.731.23-.872.59l-4.02 10a4.6 4.6 0 0 0-.75-.078c-2.449 0-4.449 2-4.449 4.449s2 4.449 4.45 4.449c2.449 0 4.449-2 4.449-4.45a4.44 4.44 0 0 0-1.961-3.679l3.781-9.41h5.36c.019.02.03.05.05.07 3.64 5.11 9.059 9.59 18.11 14.961.75.45 1.57.672 2.398.672.82 0 1.648-.219 2.398-.672 9.05-5.37 14.469-9.851 18.109-14.96.02-.02.031-.052.05-.071h5.36l3.781 9.41a4.44 4.44 0 0 0-1.96 3.68c0 2.449 1.988 4.449 4.449 4.449s4.449-2 4.449-4.45c0-2.448-2-4.448-4.45-4.448-.261 0-.5.03-.738.078l-4.02-10a.93.93 0 0 0-.87-.59h-4.781c1.82-3 3.101-6.32 3.898-10.04h5.922l5.75 6.661a4.4 4.4 0 0 0-.91 2.66c0 2.45 1.988 4.45 4.449 4.45s4.45-2 4.45-4.45a4.43 4.43 0 0 0-4.427-4.445zm.66-20.31a2.567 2.567 0 0 1 2.57 2.571 2.567 2.567 0 0 1-2.57 2.57 2.567 2.567 0 0 1-2.57-2.57c0-1.41 1.16-2.57 2.57-2.57M80.95-8.11a2.567 2.567 0 0 1 2.57 2.57 2.567 2.567 0 0 1-2.57 2.57 2.567 2.567 0 0 1-2.57-2.57 2.57 2.57 0 0 1 2.57-2.57M-1.52-5.54a2.567 2.567 0 0 1 2.571-2.57 2.567 2.567 0 0 1 2.57 2.57 2.567 2.567 0 0 1-2.57 2.57 2.575 2.575 0 0 1-2.57-2.57m.97 26.582a2.567 2.567 0 0 1-2.57-2.57 2.567 2.567 0 0 1 2.57-2.57 2.567 2.567 0 0 1 2.57 2.57c0 1.418-1.16 2.57-2.57 2.57M.11 43.23a2.567 2.567 0 0 1-2.57-2.57 2.567 2.567 0 0 1 2.57-2.57 2.567 2.567 0 0 1 2.57 2.57 2.567 2.567 0 0 1-2.57 2.57m8.699 15.684a2.567 2.567 0 0 1-2.57-2.57 2.567 2.567 0 0 1 2.57-2.57 2.57 2.57 0 1 1 0 5.14m66.953-2.57a2.567 2.567 0 0 1-2.57 2.57 2.567 2.567 0 0 1-2.57-2.57 2.57 2.57 0 1 1 5.14 0M65.809 21.05c0 18.39-7.871 26.422-23.371 35.62-.91.54-1.961.54-2.871 0-15.5-9.198-23.371-17.237-23.371-35.62L16.2 2.633c0-1.328.91-2.469 2.21-2.75l22-4.809c.422-.09.782-.09 1.2 0L63.598-.117c1.3.289 2.21 1.422 2.21 2.75zM81.89 43.23a2.567 2.567 0 0 1-2.57-2.57 2.567 2.567 0 0 1 2.57-2.57 2.567 2.567 0 0 1 2.57 2.57c0 1.422-1.16 2.57-2.57 2.57M41 23.563a3.39 3.39 0 0 0-3.39 3.39c0 .922.378 1.801 1.038 2.442v2.828c0 1.3 1.059 2.352 2.352 2.352a2.36 2.36 0 0 0 2.352-2.352v-2.828a3.37 3.37 0 0 0 1.039-2.441c0-1.872-1.52-3.391-3.391-3.391zm.87 4.621a.94.94 0 0 0-.398.77v3.27c0 .26-.218.48-.48.48a.485.485 0 0 1-.48-.48v-3.27c0-.301-.149-.59-.399-.77a1.5 1.5 0 0 1-.64-1.23c0-.829.68-1.512 1.511-1.512.828 0 1.512.68 1.512 1.512.016.48-.227.949-.625 1.23"/></svg>