<svg xmlns="http://www.w3.org/2000/svg" viewBox="-5 -10 89.305 89.298"><path d="M79.082 9.172H.222A5.23 5.23 0 0 0-5 14.395v49.77a5.23 5.23 0 0 0 5.223 5.223h38.016v7.09h-11.29a1.41 1.41 0 1 0 0 2.82h25.403a1.41 1.41 0 1 0 0-2.82h-11.29v-7.09H79.08a5.23 5.23 0 0 0 5.222-5.223l.004-49.77a5.23 5.23 0 0 0-5.222-5.223zM46.469 66.563H29.114v-3.656h21.082v3.656zM39.652 47.47c.856 0 1.555.696 1.555 1.555 0 .855-.695 1.555-1.555 1.555a1.556 1.556 0 0 1-1.554-1.555c0-.855.695-1.555 1.554-1.555m-1.41-2.59a4.385 4.385 0 0 0-2.965 4.145 4.384 4.384 0 0 0 4.38 4.379 4.384 4.384 0 0 0 4.378-4.379 4.385 4.385 0 0 0-2.965-4.145V31.992l9.032 14.32-3.227 13.77h-14.43l-3.227-13.77 9.032-14.32V44.88zM81.48 64.164a2.4 2.4 0 0 1-2.398 2.399H53.016v-5.067a1.41 1.41 0 0 0-1.41-1.41H49.77l3.21-13.703c.086-.367.02-.754-.18-1.074L40.849 26.36a1.414 1.414 0 0 0-2.39 0L26.503 45.31c-.203.32-.265.706-.18 1.073l3.211 13.703H27.7a1.41 1.41 0 0 0-1.41 1.41v5.067H.222a2.4 2.4 0 0 1-2.398-2.399v-49.77a2.4 2.4 0 0 1 2.398-2.398h78.86a2.4 2.4 0 0 1 2.398 2.398zM56.73 25.695c-.246 0-.492.02-.73.055a19.41 19.41 0 0 0-16.328-8.953 19.39 19.39 0 0 0-16.398 9.059 4.855 4.855 0 0 0-5.547 4.797 4.855 4.855 0 0 0 4.847 4.847 4.855 4.855 0 0 0 4.848-4.847c0-1.415-.61-2.688-1.578-3.575a16.56 16.56 0 0 1 13.824-7.457 16.59 16.59 0 0 1 13.77 7.368 4.84 4.84 0 0 0-1.555 3.55 4.855 4.855 0 0 0 4.848 4.848 4.855 4.855 0 0 0 4.848-4.848 4.855 4.855 0 0 0-4.848-4.847zm-34.156 6.977a2.026 2.026 0 0 1-2.023-2.023c0-1.114.906-2.024 2.023-2.024 1.113 0 2.023.907 2.023 2.024a2.026 2.026 0 0 1-2.023 2.023m34.156-.11a2.024 2.024 0 1 1 0-4.046 2.024 2.024 0 0 1 0 4.047M38.242.642v-9.23a1.41 1.41 0 1 1 2.82 0V.64a1.41 1.41 0 1 1-2.82 0M55.91 6.55a1.41 1.41 0 0 1 0-1.996l4.95-4.95a1.412 1.412 0 0 1 1.995 1.997L57.906 6.55a1.4 1.4 0 0 1-1.992 0zM16.457 1.6a1.412 1.412 0 0 1 1.996-1.995l4.95 4.949a1.412 1.412 0 0 1-.997 2.41c-.36 0-.722-.137-.996-.414L16.461 1.6z"/></svg>