<svg xmlns="http://www.w3.org/2000/svg" viewBox="-5 -10 75.301 80.574"><path fill-rule="evenodd" d="M46.432 53.547H42.23v-4.203h4.203zm2.438 1.218v-6.644c0-.676-.54-1.223-1.215-1.223h-6.652a1.22 1.22 0 0 0-1.215 1.223v6.644a1.22 1.22 0 0 0 1.215 1.223h6.652c.676 0 1.215-.547 1.215-1.223m2.352 13.363h-6.418v-6.41h6.418zm1.214-8.851H43.59c-.676 0-1.227.543-1.227 1.223v8.851c0 .676.547 1.223 1.227 1.223h8.847c.676 0 1.227-.547 1.227-1.223V60.5c0-.68-.55-1.223-1.227-1.223m-22.12 5.277h-8.563v-8.566h8.562zm1.222-11.008H20.526c-.676 0-1.215.547-1.215 1.223v11.008c0 .672.54 1.223 1.215 1.223h11.012c.676 0 1.215-.547 1.215-1.223V54.765c0-.672-.535-1.219-1.215-1.219zm-18.23 1.434H9.105v-4.203h4.203zm1.215-6.645H7.878c-.675 0-1.226.547-1.226 1.223v6.644c0 .676.547 1.223 1.226 1.223h6.645c.676 0 1.226-.543 1.226-1.223v-6.644a1.23 1.23 0 0 0-1.226-1.223m39.609-26.309c-.824.485-.813 1.707.07 2.149 4.027 2.023 8.074 6.164 7.426 10.473-.863 5.789-7.238 7.109-10.992 7.379v-3.641c0-.676-.54-1.223-1.215-1.223l-7.633.004c-.675 0-1.226.547-1.226 1.223v4.754h-2.684L38.89 12.55c2.87-4.156 6.047-7.805 9.191-10.574 2.676-2.352 7.27-5.285 11.414-5.82 2.871-.368 5.164.453 6.653 2.378C68.097 1.066 68.4 5.257 66.9 8.96c-2.656 6.582-8.222 10.438-12.77 13.066zM36.46 12.03l-1.137 34.492c-.039 1.23-1.215 2.23-2.617 2.23h-.117c-1.403 0-2.578-1-2.617-2.23L28.827 12.03c-.039-1.05.383-1.973 1.195-2.652a6.44 6.44 0 0 0 5.25 0c.805.68 1.227 1.601 1.188 2.652M21.155 43.268v-4.883c0-.675-.54-1.222-1.215-1.222h-6.652a1.22 1.22 0 0 0-1.215 1.222v3.313c-3.723-.695-7.738-2.516-8.414-7.055-.637-4.308 3.398-8.45 7.437-10.473.86-.43.903-1.664.059-2.148-4.547-2.63-10.102-6.489-12.766-13.066-1.5-3.707-1.195-7.895.766-10.426 1.48-1.926 3.78-2.746 6.64-2.38 4.145.536 8.738 3.47 11.414 5.821 3.145 2.77 6.32 6.418 9.192 10.574l1.019 30.72zM32.647-.544a4.023 4.023 0 0 1 4.015 4.02c0 2.218-1.8 4.023-4.015 4.023a4.026 4.026 0 0 1-4.027-4.023 4.025 4.025 0 0 1 4.027-4.02M69.163 9.878c1.844-4.555 1.422-9.59-1.086-12.836-2.02-2.613-5.172-3.785-8.895-3.305-4.683.602-9.64 3.707-12.707 6.407-2.8 2.46-5.605 5.574-8.218 9.101a5.7 5.7 0 0 0-.942-1.297 6.46 6.46 0 0 0-.726-9.586c1.968-2.656 4.507-4.68 7.554-6.023a1.22 1.22 0 1 0-.976-2.234 21.16 21.16 0 0 0-8.79 7.148 6.4 6.4 0 0 0-3.456 0 21.15 21.15 0 0 0-8.778-7.148 1.23 1.23 0 0 0-1.617.625c-.265.617.012 1.34.63 1.609 3.046 1.344 5.585 3.367 7.554 6.023-3.04 2.356-3.387 6.809-.715 9.586a5.8 5.8 0 0 0-.95 1.301c-2.605-3.527-5.417-6.64-8.21-9.101-3.078-2.7-8.035-5.805-12.72-6.407-3.714-.48-6.878.696-8.894 3.305-2.5 3.246-2.93 8.285-1.086 12.836 2.586 6.395 7.524 10.395 12 13.184-4.171 2.7-7.601 7.113-6.878 11.945.765 5.168 4.996 8.48 11.895 9.328a1.22 1.22 0 0 0 1.37-1.215V39.61h4.204v4.883c0 .675.547 1.222 1.226 1.222h7.555l.031.895c.09 2.574 2.313 4.59 5.067 4.59h.117c2.754 0 4.969-2.016 5.055-4.59l.03-1.02h4.028c.676 0 1.227-.547 1.227-1.222 0-.094-.02-.184-.04-.274v-4.48h5.192v3.699c0 .66.55 1.238 1.246 1.223 2.422-.055 5.938-.442 8.973-1.989 3.195-1.629 5.144-4.234 5.633-7.531.714-4.832-2.715-9.246-6.887-11.945 4.457-2.8 9.394-6.797 11.984-13.191z"/></svg>