<svg xmlns="http://www.w3.org/2000/svg" viewBox="-5 -10 93.751 91.281"><path d="M-3.438 32.672H5.91v47.047c0 .863.699 1.562 1.562 1.562h68.805c.863 0 1.563-.699 1.563-1.562V32.672h9.347c.653 0 1.235-.406 1.465-1.016a1.57 1.57 0 0 0-.437-1.726L42.903-9.613a1.56 1.56 0 0 0-2.055 0L-4.464 29.93a1.564 1.564 0 0 0 1.027 2.742zM41.874-6.363l41.145 35.906h-6.742c-.863 0-1.563.7-1.563 1.562v47.047H9.034V31.105c0-.863-.699-1.562-1.562-1.562H.73Z"/><path d="M44.847 32.66a1.562 1.562 0 0 0 1.106-2.667 5.77 5.77 0 0 0-8.156 0c-.61.61-.61 1.598 0 2.21.61.61 1.597.61 2.21 0a2.64 2.64 0 0 1 3.735 0c.305.306.703.458 1.106.458z"/><path d="M49.237 28.27a1.562 1.562 0 0 0 1.106-2.668 11.9 11.9 0 0 0-8.469-3.508c-3.2 0-6.207 1.246-8.469 3.508-.609.61-.609 1.602 0 2.21.61.61 1.598.61 2.211 0a8.8 8.8 0 0 1 6.258-2.593c2.363 0 4.586.922 6.258 2.594.305.305.703.457 1.105.457z"/><path d="M30.57 22.766c6.234-6.23 16.374-6.23 22.608 0a1.562 1.562 0 1 0 2.211-2.21c-7.453-7.454-19.578-7.454-27.027-.001-.609.61-.609 1.598 0 2.21.61.61 1.598.61 2.211 0zM48.312 41.434a1.56 1.56 0 0 0-2.105.672 1.56 1.56 0 0 0 .672 2.105c3.543 1.836 5.746 5.477 5.746 9.504 0 5.926-4.82 10.746-10.746 10.746s-10.746-4.82-10.746-10.746c0-4.027 2.203-7.668 5.746-9.504a1.566 1.566 0 0 0 .672-2.105 1.564 1.564 0 0 0-2.106-.672c-4.585 2.375-7.433 7.078-7.433 12.277 0 7.648 6.223 13.87 13.87 13.87 7.65 0 13.872-6.222 13.872-13.87 0-5.203-2.848-9.906-7.434-12.277z"/><path d="M40.312 40.875v9.816a1.562 1.562 0 1 0 3.125 0v-9.816a1.562 1.562 0 1 0-3.125 0"/></svg>