<svg viewBox="0 0 314.7 243.5" xmlns="http://www.w3.org/2000/svg"><path d="m7.5 15c-4.1 0-7.5-3.4-7.5-7.5s3.4-7.5 7.5-7.5h46.3c3.5 0 6.4 2.4 7.2 5.6l8.3 23.5h237.8c4.1 0 7.5 3.3 7.5 7.5s-.2 1.9-.5 2.7l-17.9 56.7c0 .3-.2.6-.3.9l-11.5 36.6c-.9 2.8-3.3 4.9-6.3 5.2l-91.4 10.9c-.2 0-.5 0-.8 0l-80.1 9.5-15.7 4.8v24.1h180.7c4.1 0 7.5 3.4 7.5 7.5s-3.4 7.5-7.5 7.5h-22.2c2 3.8 3.1 8.1 3.1 12.7 0 7.6-3.1 14.6-8.1 19.6s-11.9 8.1-19.6 8.1-14.6-3.1-19.6-8.1-8.1-11.9-8.1-19.6 1.1-8.9 3.1-12.7h-49.8c2 3.8 3.1 8.1 3.1 12.7 0 7.6-3.1 14.6-8.1 19.6s-11.9 8.1-19.6 8.1-14.6-3.1-19.6-8.1-8.1-11.9-8.1-19.6 1.1-8.9 3.1-12.7h-17.8c-4.1 0-7.5-3.4-7.5-7.5v-37.2c0-3.2 2.1-6.2 5.3-7.1l14.3-4.4-17.5-49.7c-.2-.4-.3-.8-.4-1.1l-20.1-57.1s-8.5-24.1-8.5-24.1h-40.7zm225.7 191.8c-2.4-2.4-5.6-3.7-9-3.7-3.5 0-6.7 1.4-9 3.7-2.4 2.4-3.7 5.6-3.7 9 0 3.5 1.4 6.7 3.7 9s5.5 3.7 9 3.7 6.7-1.4 9-3.7 3.7-5.5 3.7-9-1.4-6.7-3.7-9m-99 0c-2.4-2.4-5.6-3.7-9-3.7-3.5 0-6.7 1.4-9 3.7-2.4 2.4-3.7 5.6-3.7 9 0 3.5 1.4 6.7 3.7 9s5.5 3.7 9 3.7 6.7-1.4 9-3.7 3.7-5.5 3.7-9-1.4-6.7-3.7-9m-44.6-120.1h34.7l-4.4-42.7h-45.4l15 42.7zm49.7 0h38.8v-42.7h-43.1l4.4 42.7zm53.8 0h38.8l4.4-42.7h-43.1v42.7zm53.8 0h36.6l13.4-42.7h-45.7l-4.4 42.7zm31.9 15h-33.5l-2.7 26.2 29-3.4 7.1-22.7zm-48.4 0h-37.2v32.1l34.4-4.1 2.9-28zm-52.3 0h-37.2l3.9 37.8 33.4-4v-33.8zm-52.2 0h-31l14.8 42 20.2-2.4z"/></svg>