<svg xmlns="http://www.w3.org/2000/svg" viewBox="-5 -10 97.141 95.128"><path d="M85.742 85.128H1.398C-2.129 85.128-5 82.24-5 78.698v-53.37c0-3.544 2.871-6.43 6.398-6.43H14.2c.786 0 1.43.644 1.43 1.43 0 .784-.644 1.429-1.43 1.429H1.4c-1.958 0-3.544 1.601-3.544 3.57v53.371c0 1.973 1.586 3.57 3.543 3.57h84.344c1.957 0 3.543-1.601 3.543-3.57v-53.37c0-1.974-1.586-3.571-3.543-3.571H71.586c-.785 0-1.43-.645-1.43-1.43s.645-1.43 1.43-1.43h14.156c3.528 0 6.399 2.887 6.399 6.43v53.371c0 3.543-2.871 6.43-6.399 6.43"/><path d="M43.554 63.725a9.72 9.72 0 0 1-6.77-2.742L3.13 28.499a1.426 1.426 0 0 1 1.973-2.059l33.656 32.484a6.873 6.873 0 0 0 9.57 0l33.156-32.473a1.42 1.42 0 0 1 2.015.016 1.42 1.42 0 0 1-.015 2.015L50.312 60.966a9.77 9.77 0 0 1-6.785 2.758z"/><path d="M83 77.983c-.355 0-.714-.13-.984-.399L56.602 53.041a1.41 1.41 0 0 1-.027-2.015 1.426 1.426 0 0 1 2.015-.043l25.414 24.543c.57.543.586 1.457.028 2.015a1.46 1.46 0 0 1-1.028.442zM4.13 77.983c-.372 0-.743-.145-1.028-.442a1.425 1.425 0 0 1 .043-2.015l25.43-24.543a1.425 1.425 0 1 1 1.973 2.058L5.118 77.584c-.27.27-.63.399-.985.399zM28.398 32.17a5.2 5.2 0 0 1-1.472-.214 5.07 5.07 0 0 1-3.016-2.457l-4.515-8.387a5.09 5.09 0 0 1 2.07-6.886l9.8-5.27c.329-.187.731-.215 1.086-.113.356.113.672.355.844.687l7.985 14.828c.187.328.214.73.113 1.086a1.44 1.44 0 0 1-.688.844l-9.8 5.27a5.14 5.14 0 0 1-2.399.613zm2.957-20.026-8.543 4.601a2.22 2.22 0 0 0-.898 3.016l4.516 8.387a2.16 2.16 0 0 0 1.328 1.07c.57.172 1.172.113 1.699-.172L38 24.445 31.37 12.133z"/><path d="M39.925 26.456a1.41 1.41 0 0 1-1.257-.758L30.683 10.87a1.44 1.44 0 0 1 .102-1.516L43.812-8.474a3.66 3.66 0 0 1 3.258-1.515 3.71 3.71 0 0 1 3.027 1.941L65.14 19.893a3.67 3.67 0 0 1-.043 3.602c-.645 1.129-1.77 1.828-3.059 1.886l-22.059 1.06h-.07zm-6.285-16.13 7.13 13.242 21.155-1.015a.84.84 0 0 0 .715-.442.85.85 0 0 0 0-.843L47.597-6.673a.85.85 0 0 0-.7-.457c-.144 0-.5 0-.757.355zM41.726 44.585a4.17 4.17 0 0 1-3.285-1.602L29.13 31.128a1.43 1.43 0 0 1-.27-1.172c.086-.414.356-.77.715-.972l6.871-3.7a1.43 1.43 0 0 1 1.8.372l8.731 11.102c.77.972 1.059 2.23.801 3.44a4.19 4.19 0 0 1-2.113 2.829l-1.942 1.043c-.628.344-1.312.5-1.984.5zM32.41 30.698l8.27 10.527a1.31 1.31 0 0 0 1.672.344l1.941-1.043c.473-.258.63-.672.672-.899.043-.23.07-.672-.258-1.101L36.722 28.37z"/><path d="M59.968 14.74c-.144 0-.27-.015-.414-.058a1.44 1.44 0 0 1-.843-.687L51.51.608a1.42 1.42 0 0 1-.113-1.086c.113-.356.356-.672.688-.844 4.386-2.355 9.87-.715 12.23 3.672 2.355 4.387.714 9.871-3.672 12.23a1.43 1.43 0 0 1-.672.172zM54.781.656l5.687 10.57c2.086-1.856 2.715-4.973 1.328-7.527A6.196 6.196 0 0 0 54.782.655z"/></svg>