<svg viewBox="0 0 85 73.2" xmlns="http://www.w3.org/2000/svg"><path d="m81.4 3.7c.1.5 0 1-.2 1.4-8.9 12.7-18.6 17.3-29.1 13.8-.8 1.2-1.5 2.5-2 4-.8 2.1-1.3 4.3-1.3 6.7 0 .4-.1.8-.4 1-.3.3-.7.4-1 .4-.4 0-.7-.2-1-.5s-.4-.7-.4-1.1c0-2.3.5-4.6 1.2-6.9l-.5-.8c-6.5 3.8-13.3 3.1-20.4-1.9-1.5-1.1-3.2-2.5-5-4.3l-.5-.4c-.4-.3-.5-.8-.4-1.3s.4-.9.9-1.1c2.4-1.1 4.2-1.8 5.4-2.2 8.1-3.1 14-3.4 17.6-.9 2.6 1.8 3.9 4.9 4 9.2 0 .1.2.4.2.4.3-.5.7-1.3 1.4-2.3-1.3-6.1-.4-10.6 2.7-13.4 4.6-4.3 13.9-4.5 27.9-.5.4.1.8.4 1 .9m-15.7 5.9c-5.2 1.9-9.1 4.1-11.7 6.5 8.2 2.3 15.9-1.4 23.3-11.2-11.8-3-19.4-2.9-22.9.4-1.9 1.7-2.6 4.5-2.2 8.4 2.8-2.5 6.9-4.9 12.4-6.9.4-.1.8-.1 1.2 0 .4.2.7.4.8.8s.1.8 0 1.2c-.2.4-.4.7-.8.8m-8.4 24.7h-19.3c-.3-.1-.6-.2-.8-.3-3.4-1.4-6.6-1.6-9.8-.7-3.7 1.2-7.4 4-11 8.2l13.9 14.5 3.4-3.6c.3-.3.6-.5 1-.5h26.5s19-20.2 19-20.2c.9-.9 1.3-2.1 1.4-3.5 0-1.1-.2-2-.8-2.8-.7-.6-1.7-.9-2.9-.8-1.1.2-2.2.8-3.2 1.8l-9.9 10.4c.1.7.2 1.3.2 1.6 0 2-.8 3.7-2.4 5.1-1.5 1.4-3.3 2.1-5.5 2h-12.3c-.4 0-.8-.2-1-.5-.3-.3-.4-.6-.4-1s.1-.7.5-1c.3-.3.6-.5 1-.5h12.2c1.4 0 2.5-.5 3.5-1.3s1.5-1.8 1.5-2.8 0-.9-.3-1.4c-.2-.7-.6-1.2-1.1-1.5-.9-.9-2-1.3-3.5-1.3m-24.7-18.8c-.2-.3-.3-.7-.3-1.1s.2-.8.5-1.1c.3-.2.7-.3 1.1-.3 4.8.4 8.5 1.3 11 2.7-.5-1.8-1.3-3.2-2.5-4-2.8-1.9-7.8-1.5-14.9 1.3-1 .3-2.1.8-3.2 1.3 1.2 1.1 2.4 2.1 3.5 2.9 5.8 4.1 11.4 4.7 16.7 1.9-2.1-1.7-5.8-2.7-11-3.2-.4 0-.8-.2-1-.5m6.1 16.1h18.8c2.1 0 3.9.7 5.5 2l.8.8 9.2-9.6c1.4-1.5 3.1-2.4 4.9-2.6 2.1-.2 3.9.3 5.3 1.5 1.5 1.4 2.1 3.1 1.8 5.2 0 1.9-.8 3.6-2.3 5.2l-19.5 20.6c-.2.3-.6.5-1 .5h-26.5s-3.2 3.3-3.2 3.3l1.5 1.7c.3.3.5.7.5 1 0 .4-.2.8-.5 1l-11.1 10.6c-.2.3-.6.4-1 .4-.4 0-.8-.2-1-.5l-20.5-21.3c-.3-.3-.4-.7-.4-1 0-.4.1-.8.4-1l11.1-10.6c.3-.3.6-.4 1.1-.4s.8.1 1.1.5l.9.9c3.9-4.6 7.9-7.6 12.1-8.9 3.9-1.2 7.9-1 12 .8h.1zm3 11.8c.3.3.5.6.5 1s-.2.7-.5 1-.6.4-1 .5h-1.1c-.4 0-.8-.2-1-.5-.3-.3-.5-.6-.5-1s.2-.8.5-1c.3-.3.6-.5 1-.5h1.1c.4 0 .7.2 1 .5m-15.9 16.8c.3.3.5.6.5 1s-.2.8-.5 1l-5.6 5.4 1.9 1.9 8.9-8.6-18.4-19.2-9 8.5 14.5 15.2 5.6-5.4c.3-.3.6-.4 1-.4s.8.1 1 .5m-11.9-42.9c.3.3.4.6.4 1v1.9c0 .4-.2.8-.4 1-.3.3-.6.5-1.1.5s-.8-.1-1.1-.5c-.3-.3-.4-.7-.4-1v-1.9c0-.4.2-.8.4-1 .3-.3.6-.5 1.1-.5s.8.1 1.1.5m2.5 4.6h1.8c.4 0 .7.2 1 .5s.5.6.5 1-.1.7-.5 1c-.3.3-.6.5-1 .5h-1.8c-.4 0-.8-.2-1.1-.5s-.4-.6-.4-1 .2-.8.4-1c.3-.3.6-.4 1.1-.5m-9.5.5c.3-.3.6-.5 1.1-.5h1.6c.4 0 .7.2 1 .5s.4.6.4 1-.1.7-.4 1-.6.5-1 .5h-1.6c-.4 0-.8-.2-1-.5-.3-.3-.4-.6-.4-1s.2-.8.4-1m4.4 6.2v-1.8c0-.4.2-.8.4-1 .3-.3.6-.4 1.1-.5.4 0 .8.2 1.1.5s.4.6.4 1v1.8c0 .4-.2.8-.4 1-.3.3-.6.5-1.1.5-.4 0-.8-.1-1.1-.5-.3-.3-.4-.6-.4-1m2.3 18.3 2.2 2.4c.3.3.4.6.4 1s-.2.8-.5 1c-.3.3-.7.5-1.1.5-.3 0-.7-.2-1-.5l-2.3-2.3c-.3-.3-.4-.6-.4-1s.2-.8.4-1c.3-.3.6-.4 1.1-.4.4 0 .8.1 1.1.5" fill-rule="evenodd"/></svg>