<svg xmlns="http://www.w3.org/2000/svg" xml:space="preserve"><path fill-rule="evenodd" d="M81.405 3.693q.2.8-.2 1.4-13.4 19.05-29.1 13.75-1.25 1.8-2 4v.05q-1.2 3.1-1.35 6.65 0 .6-.4 1.05-.45.4-1.05.4l-.1-.05q-.6 0-1-.45a1.34 1.34 0 0 1-.4-1.1q.05-3.499 1.25-6.9l-.45-.8q-9.75 5.65-20.35-1.85-2.25-1.6-5-4.3l-.45-.45q-.55-.498-.4-1.3.2-.799.85-1.1 3.55-1.599 5.35-2.25 12.15-4.6 17.6-.95 3.85 2.651 4 9.25l.1.1.2.25q.4-.8 1.4-2.3-1.9-9.15 2.65-13.45 6.85-6.4 27.85-.55.65.15 1 .9m-15.6 6.1q-7.8 2.85-11.65 6.55 12.25 3.45 23.35-11.25-17.65-4.55-22.9.45-2.8 2.6-2.2 8.35 4.15-3.8 12.35-6.95.6-.2 1.15.05.6.25.8.85t-.05 1.15q-.25.6-.85.8m-8.3 24.75h-19.05l-.3-.05q-.5-.099-.8-.3-5.05-2.1-9.75-.65-5.55 1.8-11 8.25l13.9 14.5 3.45-3.6q.4-.45 1.05-.45l26.5-.05 19.05-20.15q1.3-1.4 1.45-3.45.15-1.7-.85-2.75-1.1-.95-2.95-.8-1.65.3-3.15 1.8l-9.9 10.35q.2 1.1.2 1.6 0 2.951-2.4 5.1-2.25 2.051-5.45 2.05h-12.3q-.6-.049-1.05-.45-.45-.45-.4-1.05 0-.6.45-1 .4-.45 1.05-.45h12.25q2.05 0 3.45-1.35 1.45-1.2 1.45-2.85 0-.7-.3-1.4l-.05-.05q-.3-.9-1.1-1.5-1.35-1.3-3.45-1.3m-24.85-18.9q-.35-.5-.3-1.05.05-.65.5-1.05.45-.35 1.1-.3 7.2.6 11 2.7-.7-2.75-2.45-4-4.2-2.85-14.85 1.3-1.5.502-3.2 1.3 1.85 1.65 3.5 2.9 8.75 6.15 16.75 1.9-3.15-2.5-11-3.2-.65-.05-1.05-.5m6.05 15.95h18.8q3.15.001 5.45 2l.75.8 9.2-9.6q2.15-2.298 4.95-2.65 3.2-.35 5.3 1.5 2.2 2.1 1.8 5.2-.05 2.85-2.3 5.2l-19.45 20.6q-.35.45-1.05.45l-26.5.05-3.15 3.3 1.55 1.65q.45.45.45 1.05-.05.651-.5 1.05l-11.1 10.6q-.35.45-1 .45l-.05-.05q-.65 0-1.05-.45l-20.4-21.35q-.45-.45-.4-1.05 0-.65.45-1l11.1-10.65q.45-.449 1.05-.4.7 0 1.05.45l.85.9q5.85-6.9 12.15-8.9 5.8-1.85 11.95.8zm2.95 11.8q.45.401.45 1.05 0 .6-.45 1-.45.45-1 .45h-1.1q-.6 0-1.05-.45-.45-.4-.45-1 0-.649.45-1.05.45-.45 1.05-.45h1.1q.55 0 1 .45m-15.9 16.85q.45.45.45 1.05-.05.65-.5 1l-5.65 5.4 1.9 1.95 8.95-8.6-18.35-19.2-9 8.55 14.5 15.2 5.6-5.4q.45-.449 1.05-.4.65 0 1.05.45m-11.95-43q.45.401.45 1.05v1.9q0 .6-.45 1.05-.4.45-1.05.45-.6 0-1.05-.45t-.45-1.05v-1.9q0-.649.45-1.05.45-.45 1.05-.45.65 0 1.05.45m2.5 4.6h1.75q.6 0 1 .45.45.45.45 1.05t-.45 1q-.4.45-1 .45h-1.75q-.6 0-1.05-.45-.45-.4-.45-1t.45-1.05 1.05-.45m-9.55.45q.4-.45 1.05-.45h1.6q.6 0 1 .45.45.45.45 1.05t-.45 1q-.4.45-1 .45h-1.6q-.65 0-1.05-.45-.45-.4-.45-1t.45-1.05m4.5 6.2v-1.8q0-.6.45-1.05t1.05-.45q.65 0 1.05.45.45.45.45 1.05v1.8q0 .6-.45 1.05-.4.45-1.05.45-.6 0-1.05-.45t-.45-1.05m2.3 18.35 2.25 2.4q.45.401.45 1-.05.65-.5 1.05-.45.45-1.05.45-.5 0-1-.5l-2.3-2.35q-.45-.45-.4-1.05 0-.65.45-1.05.45-.45 1.05-.4.65 0 1.05.45" clip-rule="evenodd"/></svg>