<svg xmlns="http://www.w3.org/2000/svg" viewBox="-5 -10 92.838 92.676"><path d="M68.25 71.594H14.635a3.323 3.323 0 0 1-3.32-3.32V37.995a3.32 3.32 0 0 1 3.32-3.32H68.25a3.32 3.32 0 0 1 3.32 3.32v30.281a3.324 3.324 0 0 1-3.32 3.317zM14.635 37.707c-.16 0-.29.129-.29.289v30.28c.005.16.13.29.29.294H68.25a.304.304 0 0 0 .297-.293V37.996a.295.295 0 0 0-.297-.29z"/><path d="M20.016 64.86c-.399 0-.785-.16-1.067-.446a1.48 1.48 0 0 1-.441-1.066l-.004-20.422a1.513 1.513 0 0 1 3.023 0v20.422c.004.398-.156.785-.441 1.066a1.5 1.5 0 0 1-1.07.446M55.579 64.996a1.514 1.514 0 0 1-1.516-1.512V43.066a1.513 1.513 0 1 1 3.023 0v20.422c0 .832-.675 1.508-1.507 1.508z"/><path d="M62.876 44.293H48.282a1.513 1.513 0 0 1 0-3.023h14.594a1.513 1.513 0 0 1 0 3.023M83.774 49.094H75.57a1.51 1.51 0 0 1-1.512-1.512 1.51 1.51 0 0 1 1.512-1.512h8.203a1.51 1.51 0 0 1 1.511 1.512 1.51 1.51 0 0 1-1.511 1.512M83.774 54.645H75.57a1.51 1.51 0 0 1-1.512-1.512 1.51 1.51 0 0 1 1.512-1.512h8.203a1.51 1.51 0 0 1 1.511 1.512 1.51 1.51 0 0 1-1.511 1.512M83.774 60.207H75.57a1.524 1.524 0 0 1-1.61-1.512c0-.418.176-.817.48-1.106.305-.285.712-.433 1.13-.406h8.203a1.513 1.513 0 0 1 0 3.023zM7.305 49.094H-.887a1.51 1.51 0 0 1-1.511-1.512A1.51 1.51 0 0 1-.887 46.07h8.192a1.51 1.51 0 0 1 1.511 1.512 1.51 1.51 0 0 1-1.511 1.512M7.305 54.645H-.887a1.51 1.51 0 0 1-1.511-1.512A1.51 1.51 0 0 1-.887 51.62h8.192a1.51 1.51 0 0 1 1.511 1.512 1.51 1.51 0 0 1-1.511 1.512M7.305 60.207H-.887a1.52 1.52 0 0 1-1.46-1.516c0-.812.648-1.484 1.46-1.512h8.192a1.512 1.512 0 0 1 1.105 2.602 1.53 1.53 0 0 1-1.105.426M51.82 33.117c-.402 0-.784-.16-1.07-.442a1.52 1.52 0 0 1-.441-1.07V21.464a1.51 1.51 0 0 1 1.512-1.508 1.51 1.51 0 0 1 1.511 1.508v10.133a1.5 1.5 0 0 1-.441 1.074 1.5 1.5 0 0 1-1.07.445z"/><path d="M51.82 22.98a5.405 5.405 0 0 1-4.992-3.335 5.405 5.405 0 0 1 7.06-7.059 5.4 5.4 0 0 1 3.335 4.988 5.41 5.41 0 0 1-5.402 5.407m0-7.78a2.378 2.378 0 1 0 .91 4.574 2.38 2.38 0 0 0 1.466-2.196v-.004a2.373 2.373 0 0 0-2.375-2.382zM41.442 26.035a1.51 1.51 0 0 1-1.512-1.512V14.386a1.513 1.513 0 0 1 3.023 0v10.14-.003a1.51 1.51 0 0 1-1.511 1.512"/><path d="M41.442 15.899a5.4 5.4 0 0 1-4.993-3.336 5.402 5.402 0 1 1 10.395-2.059 5.41 5.41 0 0 1-5.402 5.39zm0-7.782c-.961 0-1.828.579-2.2 1.465a2.378 2.378 0 0 0 3.102 3.113 2.377 2.377 0 0 0-.902-4.578M31.063 33.117a1.514 1.514 0 0 1-1.516-1.512V21.464c-.012-.41.14-.809.426-1.102a1.513 1.513 0 0 1 2.601 1.102v10.133a1.51 1.51 0 0 1-1.512 1.52z"/><path d="M31.063 22.98a5.4 5.4 0 0 1-4.993-3.335 5.4 5.4 0 0 1 1.172-5.887 5.398 5.398 0 0 1 9.22 3.816 5.406 5.406 0 0 1-5.4 5.407m0-7.78a2.379 2.379 0 0 0-1.684 4.058 2.378 2.378 0 0 0 4.059-1.68v-.004a2.381 2.381 0 0 0-2.375-2.383zM20.884 76.426a1.5 1.5 0 0 1-1.07-.442 1.52 1.52 0 0 1-.442-1.07v-4.84a1.51 1.51 0 0 1 1.512-1.512 1.51 1.51 0 0 1 1.511 1.512v4.832a1.504 1.504 0 0 1-1.512 1.52"/><path d="M20.884 82.676a4.64 4.64 0 0 1-3.281-7.918 4.64 4.64 0 0 1 7.917 3.28 4.64 4.64 0 0 1-4.636 4.638m0-6.25a1.614 1.614 0 1 0 0 3.231 1.614 1.614 0 0 0 0-3.231M34.587 76.426a1.48 1.48 0 0 1-1.067-.442 1.5 1.5 0 0 1-.441-1.07l-.004-4.84a1.513 1.513 0 0 1 3.023 0v4.832c.004.402-.152.79-.437 1.074s-.668.45-1.074.446"/><path d="M34.587 82.676a4.63 4.63 0 0 1-4.286-2.86 4.65 4.65 0 0 1 1.004-5.058 4.642 4.642 0 0 1 7.922 3.28 4.643 4.643 0 0 1-4.64 4.638m0-6.25a1.617 1.617 0 0 0-1.137 2.757 1.613 1.613 0 0 0 2.754-1.144H36.2c0-.89-.723-1.61-1.613-1.613M48.298 76.426a1.48 1.48 0 0 1-1.067-.442 1.5 1.5 0 0 1-.441-1.07v-4.84a1.51 1.51 0 0 1 1.508-1.512c.836 0 1.515.676 1.515 1.512v4.832a1.516 1.516 0 0 1-1.515 1.52"/><path d="M48.298 82.676a4.63 4.63 0 0 1-4.286-2.86 4.65 4.65 0 0 1 1.004-5.058 4.642 4.642 0 0 1 7.922 3.28 4.643 4.643 0 0 1-4.64 4.638m0-6.25a1.617 1.617 0 0 0-1.137 2.757 1.613 1.613 0 0 0 2.754-1.144 1.62 1.62 0 0 0-1.617-1.613M62.008 76.426a1.48 1.48 0 0 1-1.067-.442 1.5 1.5 0 0 1-.441-1.07v-4.84a1.51 1.51 0 0 1 1.508-1.512c.836 0 1.515.676 1.515 1.512v4.832a1.516 1.516 0 0 1-1.515 1.52"/><path d="M62.008 82.676a4.63 4.63 0 0 1-4.286-2.86 4.65 4.65 0 0 1 1.004-5.058 4.642 4.642 0 0 1 7.922 3.28 4.643 4.643 0 0 1-4.64 4.638m0-6.25a1.617 1.617 0 0 0-1.137 2.757 1.613 1.613 0 0 0 2.754-1.144 1.62 1.62 0 0 0-1.617-1.613M37.798 65.207a12.07 12.07 0 0 1-11.152-7.453 12.065 12.065 0 0 1 2.617-13.152 12.06 12.06 0 0 1 13.152-2.618 12.07 12.07 0 0 1 7.453 11.152c-.008 6.66-5.406 12.062-12.07 12.07zm0-21.117a9.04 9.04 0 0 0-8.356 5.582 9.047 9.047 0 1 0 17.402 3.465h-.003c-.008-4.993-4.055-9.036-9.043-9.04z"/><path d="M55.579 54.645H20.017a1.51 1.51 0 0 1-1.508-1.512 1.51 1.51 0 0 1 1.508-1.512h35.562a1.51 1.51 0 0 1 1.507 1.512 1.51 1.51 0 0 1-1.507 1.512M23.384 32.84a1.51 1.51 0 0 1-1.512-1.516v-1.191H9.634a1.51 1.51 0 0 1-1.512-1.512v-6.398a1.51 1.51 0 0 1 1.512-1.512 1.51 1.51 0 0 1 1.512 1.512v4.882h12.238a1.51 1.51 0 0 1 1.511 1.512v2.707a1.51 1.51 0 0 1-1.512 1.516M9.634 19.879a4.37 4.37 0 0 1-4.043-2.703 4.375 4.375 0 0 1 .949-4.774 4.382 4.382 0 0 1 7.476 3.094 4.386 4.386 0 0 1-4.382 4.383m0-5.73c-.547 0-1.04.331-1.25.835a1.353 1.353 0 1 0 2.606.512 1.35 1.35 0 0 0-1.356-1.344zM59.5 32.84c-.835 0-1.515-.68-1.515-1.516v-2.703a1.52 1.52 0 0 1 1.516-1.516h12.242v-4.882a1.51 1.51 0 0 1 1.511-1.512 1.51 1.51 0 0 1 1.512 1.512v6.39a1.514 1.514 0 0 1-1.512 1.512H61.012v1.195a1.51 1.51 0 0 1-1.512 1.52M73.255 19.879a4.38 4.38 0 0 1-3.102-7.473 4.378 4.378 0 1 1 3.101 7.473m0-5.73c-.547 0-1.043.327-1.254.835a1.356 1.356 0 0 0 1.773 1.766 1.35 1.35 0 0 0-.52-2.598zM86.329-1.566a1.5 1.5 0 0 1-1.07-.442 17.005 17.005 0 0 0-24.025 0 1.514 1.514 0 0 1-2.64-1.05c.011-.419.199-.81.511-1.086A20 20 0 0 1 73.25-10a20 20 0 0 1 14.148 5.856 1.516 1.516 0 0 1-1.07 2.582z"/><path d="M65.149 3.402A1.51 1.51 0 0 1 64.079.82c5.07-5.067 13.284-5.067 18.358 0a1.518 1.518 0 1 1-2.148 2.148c-3.89-3.875-10.176-3.875-14.062 0-.29.281-.676.438-1.078.434zM76.844 8.356c-.403 0-.79-.16-1.07-.446a3.58 3.58 0 0 0-2.524-1.043c-.945 0-1.852.375-2.52 1.043a1.512 1.512 0 1 1-2.148-2.133 6.53 6.53 0 0 1 4.66-1.937 6.55 6.55 0 0 1 4.664 1.934v.004c.43.43.559 1.078.325 1.64-.23.567-.778.934-1.387.938zM22.708-1.566a1.48 1.48 0 0 1-1.067-.442A17 17 0 0 0 9.633-6.98 17 17 0 0 0-2.375-2.008h.004c-.281.305-.672.48-1.086.492A1.52 1.52 0 0 1-5-3.063c.008-.414.188-.804.492-1.082A20 20 0 0 1 9.637-10a20 20 0 0 1 14.145 5.856 1.516 1.516 0 0 1-1.07 2.581z"/><path d="M17.743 3.402c-.403 0-.785-.157-1.07-.442C12.785-.915 6.495-.915 2.61 2.96A1.518 1.518 0 1 1 .462.812c5.07-5.055 13.277-5.055 18.348 0a1.51 1.51 0 0 1-1.066 2.582z"/><path d="M6.04 8.356a1.516 1.516 0 0 1-1.07-2.582 6.606 6.606 0 0 1 9.327 0 1.518 1.518 0 1 1-2.148 2.148 3.58 3.58 0 0 0-5.05 0 1.5 1.5 0 0 1-1.06.434"/></svg>