<svg class="fill-current h-8 w-8" viewBox="0 0 88.422676 90.758354" xmlns="http://www.w3.org/2000/svg"><g transform="matrix(1.0331596 0 0 1.0331596 27.261783 € -34.322689)"><path d="m25.25879 60.430389h-15.071c-1.368 0-2.481-1.117-2.481-2.49v-16.07c0-.266.105-.52.293-.707l7.648-7.648c.188-.188.442-.293.707-.293h8.905c1.368 0 2.481 1.113 2.481 2.481v22.237c0 1.373-1.114 2.49-2.482 2.49zm-15.553-18.146v15.656c0 .271.216.49.481.49h15.072c.266 0 .481-.22.481-.49v-22.237c0-.266-.216-.481-.481-.481h-8.491z"/><path d="m13.94179 42.870389h-5.236c-.404 0-.769-.243-.924-.617s-.069-.804.217-1.09l7.648-7.648c.286-.287.714-.374 1.09-.217.374.154.617.52.617.924v5.236c0 1.881-1.53 3.412-3.412 3.412zm-2.822-2h2.822c.778 0 1.412-.634 1.412-1.412v-2.822z"/><path d="m20.97079 48.870389h-6.495c-.552 0-1-.447-1-1s.448-1 1-1h6.495c.552 0 1 .447 1 1s-.448 1-1 1z"/><path d="m20.97079 53.588389h-6.495c-.552 0-1-.447-1-1s.448-1 1-1h6.495c.552 0 1 .447 1 1s-.448 1-1 1z"/></g><path d="m57.484536 59.51122h-24.597c-2.722 0-4.937-2.215-4.937-4.937v-14.296c0-2.722 2.215-4.937 4.937-4.937h24.597c2.722 0 4.937 2.215 4.937 4.937v14.297c0 2.721-2.215 4.936-4.937 4.936zm-24.597-22.17c-1.619 0-2.937 1.317-2.937 2.937v14.297c0 1.619 1.317 2.937 2.937 2.937h24.597c1.619 0 2.937-1.317 2.937-2.937v-14.297c0-1.619-1.317-2.937-2.937-2.937z"/><path d="m54.763536 45.18222h-19.155c-.553 0-1-.447-1-1s.447-1 1-1h19.154c.553 0 1 .447 1 1s-.447 1-.999 1z"/><path d="m45.911536 51.67022h-10.303c-.553 0-1-.447-1-1s.447-1 1-1h10.303c.553 0 1 .447 1 1s-.447 1-1 1z"/><path d="m54.763536 51.67022h-1.887c-.553 0-1-.447-1-1s.447-1 1-1h1.887c.553 0 1 .447 1 1s-.448 1-1 1z"/><path d="m71.348672 47.527354h-2.212c-.553 0-1-.447-1-1s.447-1 1-1h2.212c8.312 0 15.074-6.762 15.074-15.072999 0-8.311-6.763-15.074-15.074-15.074h-2.212c-.553 0-1-.447-1-1s.447-1 1-1h2.212c9.415 0 17.074 7.659 17.074 17.074.001 9.413999-7.659 17.072999-17.074 17.072999z"/><path d="m71.972672 50.669354c-.224 0-.448-.085-.619-.256l-3.267-3.267c-.342-.342-.342-.896 0-1.238l3.267-3.267c.342-.342.896-.342 1.238 0s.342.896 0 1.238l-2.648 2.648 2.648 2.647c.342.342.342.896 0 1.238-.17.172-.395.257-.619.257z"/><g transform="translate(-3.828828 € -3.473146)"><path d="m61.7 94.2315h-24.597c-2.722 0-4.937-2.215-4.937-4.937v-14.295c0-2.722 2.215-4.937 4.937-4.937h24.597c2.722 0 4.937 2.215 4.937 4.937v14.296c0 2.722-2.215 4.936-4.937 4.936zm-24.597-22.168c-1.619 0-2.937 1.317-2.937 2.937v14.296c0 1.619 1.317 2.937 2.937 2.937h24.597c1.619 0 2.937-1.317 2.937-2.937v-14.297c0-1.619-1.317-2.937-2.937-2.937h-24.597z"/><path d="m46.454 87.4955c-.256 0-.512-.098-.707-.293l-2.803-2.803c-.391-.391-.391-1.023 0-1.414s1.023-.391 1.414 0l2.096 2.096 7.99-7.989c.391-.391 1.023-.391 1.414 0s.391 1.023 0 1.414l-8.697 8.696c-.195.195-.451.293-.707.293z"/></g><g stroke-linecap="round" stroke-linejoin="round" stroke-miterlimit="10" transform="matrix(0 1 € -1 0 91.95207 77.483384)"><path d="m-22.37145 63a1 1 0 0 0 € -1 1v5.83008a1.0001 1.0001 0 0 0 .293.70703l6.6543 6.65429v6.70313a1 1 0 0 0 1 1 1 1 0 0 0 1-1v-7.11719a1.0001 1.0001 0 0 0 € -.293-.70703l-6.6543-6.65625v-5.41406a1 1 0 0 0 € -1-1z"/><path d="m-19.73785 86.05857c-.7504 2.37316.5805 4.93182 2.9536 5.68222 2.3732.7504 4.9312-.57857 5.6817-2.95173.7504-2.37317-.578-4.9331-2.9512-5.6835s-4.9337.57984-5.6841 2.95301zm1.907.60298c.4245-1.34255 1.8316-2.07357 3.1741-1.64905 1.3426.42452 2.0717 1.83103 1.6472 3.17358-.4245 1.34254-1.8292 2.07229-3.1717 1.64777s-2.0742-1.82976-1.6496-3.1723z"/><path d="m-38.52768 63a1 1 0 0 0 € -1 1v5.41406l-6.65429 6.65625a1.0001 1.0001 0 0 0 € -.29297.70703v7.11719a1 1 0 0 0 1 1 1 1 0 0 0 1-1v-6.70313l6.6543-6.65429a1.0001 1.0001 0 0 0 .29296-.70703v-5.83008a1 1 0 0 0 € -1-1z"/><path d="m-49.79048 86.05853c-.75041 2.37316.57984 4.93368 2.953 5.68408s4.93182-.58043 5.68222-2.95359c.75041-2.37317-.57857-4.93123-2.95173-5.68164-2.37316-.7504-4.93309.57798-5.68349 2.95115zm1.90693.60298c.42452-1.34255 1.83103-2.07171 3.17358-1.64719s2.07229 1.82917 1.64778 3.17172c-.42452 1.34254-1.82917 2.07229-3.17172 1.64777s-2.07415-1.82975-1.64964-3.1723z"/><path d="m-30.44955 63a1 1 0 0 0 € -1 1v12.125a1 1 0 0 0 1 1 1 1 0 0 0 1-1v-12.125a1 1 0 0 0 € -1-1z"/><path d="m-34.76415 78.2878c-.75038 2.37316.5805 4.93182 2.9536 5.68222 2.3732.7504 4.9313-.57857 5.6817-2.95173.7504-2.37317-.578-4.9331-2.9512-5.6835s-4.9337.57985-5.6841 2.95301zm1.907.60298c.4245-1.34255 1.8316-2.07357 3.1741-1.64905 1.3426.42452 2.0717 1.83103 1.6472 3.17358-.4245 1.34254-1.8291 2.07229-3.1717 1.64777-1.3425-.42452-2.0742-1.82975-1.6496-3.1723z"/></g></svg>
