<svg xmlns="http://www.w3.org/2000/svg" viewBox="-5 -10 94.14 94.106"><path d="M59.13-2.91A3.644 3.644 0 0 0 55.489.732c.2 4.832 7.086 4.832 7.285 0a3.644 3.644 0 0 0-3.64-3.64zm0 5.333c-2.23-.07-2.23-3.309 0-3.38 2.23.071 2.23 3.31 0 3.38M69.212-2.91A3.644 3.644 0 0 0 65.57.732c.2 4.832 7.086 4.832 7.285 0a3.644 3.644 0 0 0-3.64-3.64zm0 5.333c-2.23-.07-2.23-3.309 0-3.38 2.23.071 2.23 3.31 0 3.38M79.29-2.91A3.644 3.644 0 0 0 75.649.732c.2 4.832 7.086 4.832 7.285 0a3.644 3.644 0 0 0-3.64-3.64zm0 5.333c-2.23-.07-2.23-3.309 0-3.38 2.23.071 2.23 3.31 0 3.38"/><path d="M88.165-10H-4.023A.977.977 0 0 0-5-9.023v75.895c0 .539.437.977.977.977h39.617a.976.976 0 0 0 .8-1.532l-12.008-17.3L40.93 62.472a.96.96 0 0 0 .59.219l8.953.23 3.977 3a.973.973 0 0 0 1.277-.09l6.922-6.921L78.45 70.716c1.363.968 1.52 3.11.309 4.265l-6.36 6.36a2.8 2.8 0 0 1-2.203.82 2.82 2.82 0 0 1-2.062-1.129l-9.98-13.359c-.786-1.008-2.313.113-1.567 1.168l9.98 13.36c1.64 2.304 5.254 2.57 7.215.519l6.36-6.36a4.78 4.78 0 0 0 1.386-3.726 4.78 4.78 0 0 0-1.906-3.489L63.258 56.918l-2.918-3.867-.227-8.957a.95.95 0 0 0-.222-.594L46.086 26.668l41.53 27.703c.614.438 1.544-.054 1.52-.812V14.965a.977.977 0 0 0-1.953 0v36.77L42.351 21.829c1.309-4.922-6.523-11.602-10.48-7.863L10.793 35.044c-1.867 1.867-1.234 5.43 1.442 8.105a9.5 9.5 0 0 0 1.886 1.473.976.976 0 1 0 .988-1.684 7.5 7.5 0 0 1-1.496-1.168c-1.804-1.804-2.48-4.3-1.441-5.34 1.54-1.296 4.082.176 5.34 1.446 1.836 1.836 2.496 4.281 1.441 5.34a.99.99 0 0 0-.187 1.113c.035.125 14.883 21.445 14.953 21.57l-36.766-.004V4.383h50.523l6.75 6.75c.183.184.43.285.691.285h33.246c.54 0 .977-.437.977-.976V-9.023a.977.977 0 0 0-.977-.977zM27.278 48.848 46.216 29.91l11.949 14.574.214 8.516-7.968 7.969-8.512-.219-14.625-11.895zm27.676 15-2.653-2 6.97-6.968 2 2.652zM18.903 36.493c-1.29-1.285-2.801-2.136-4.364-2.422l18.72-18.719c1.038-1.039 3.534-.363 5.34 1.442 1.897 1.941 2.276 3.95 1.655 5.113a.96.96 0 0 0 .035.715c.028.082.086.148.133.223l4.551 5.55-19.219 19.22-4.648-3.782L38.45 26.49a.976.976 0 0 0 0-1.383.976.976 0 0 0-1.383 0L21.32 40.852c-.258-1.457-1.086-3.015-2.422-4.355zM48.57 2.716a.97.97 0 0 0-.692-.285H-3.047V-8.046h90.234V9.466H55.324l-6.75-6.75z"/></svg>