<svg xmlns="http://www.w3.org/2000/svg" viewBox="-5 -10 80.386 90"><path fill-rule="evenodd" d="m71.777 30.507-6.972-7.101a2 2 0 0 1-.145-.145l-10.094-10.27a2 2 0 0 1-.14-.144L35.223-6.7-1.515 30.577a2.86 2.86 0 0 0-.829 2.035 2.854 2.854 0 0 0 2.895 2.84 2.86 2.86 0 0 0 2.02-.875L34.253 2.44a1.363 1.363 0 0 1 1.926-.016L67.758 34.57l.067.07a2.855 2.855 0 0 0 3.972-.007l.07-.067a2.85 2.85 0 0 0-.011-3.972l-.074-.082zM36.195-9.595l17.91 18.23v-10.19c0-.754.61-1.364 1.364-1.364h10.234a1.356 1.356 0 0 1 1.363 1.363v23.387l6.652 6.77.063.059.008.007h.003a5.585 5.585 0 0 1 .008 7.805l-.07.074-.008.008a5.58 5.58 0 0 1-7.805.008l-.074-.07-.117-.122-.004 33.141h4.262c.75 0 1.363.614 1.363 1.364v7.761A1.365 1.365 0 0 1 69.976 80H.36c-.754 0-1.363-.609-1.363-1.363v-7.761c0-.75.61-1.364 1.363-1.364H4.73v-33.25l-.222.227a5.58 5.58 0 0 1-7.961-7.816L34.27-9.61a1.36 1.36 0 0 1 1.922.015zm20.637 21.008V-.192h7.508v19.246ZM35.223 5.331 60.594 31.16H47.656l-2.953-3.445a5.01 5.01 0 0 0-.699-6.215H44a5.01 5.01 0 0 0-7.61 6.473 5.01 5.01 0 0 0 6.302 1.566l3.25 3.79v.003c.257.352.664.555 1.097.555h15.95v35.625h-19.54v-7.957h.973a5.05 5.05 0 0 0 1.27 2.145l.085.078a5.014 5.014 0 0 0 7-7.184h-.007a5.006 5.006 0 0 0-7.09 0l-.079.086h-.003a5 5 0 0 0-1.215 2.156h-2.301c-.754 0-1.363.61-1.363 1.364v9.32h-4.13v-15.93a5 5 0 0 0 2.122-1.266l.004-.004h.004a5.03 5.03 0 0 0 1.468-3.543 5.03 5.03 0 0 0-1.468-3.546 5.02 5.02 0 0 0-3.551-1.47 5.02 5.02 0 0 0-3.55 1.47l-.079.085a5.01 5.01 0 0 0 .078 7.012l.086.078v.004a5.1 5.1 0 0 0 2.156 1.219v15.891l-4.133-.004v-9.324c0-.75-.605-1.363-1.359-1.363h-2.41a5.05 5.05 0 0 0-1.301-2.243l-.086-.078a5.005 5.005 0 0 0-7.008.078 5.02 5.02 0 0 0 .004 7.098 5.02 5.02 0 0 0 7.098-.004l.078-.086a5.1 5.1 0 0 0 1.188-2.043h1.078v7.957H7.457V42.21H23.3c.414 0 .8-.187 1.062-.508l3.426-3.886h-.004c1.91.875 4.16.469 5.64-1.016a5.02 5.02 0 0 0 1.473-3.55c0-1.333-.53-2.61-1.472-3.551l-.086-.079a5.015 5.015 0 0 0-6.696-.21 5.013 5.013 0 0 0-.937 6.628l-3.02 3.446H7.457V33.49zm11.711 54.812v.102-.004c.036.574.278 1.117.684 1.527l.055.055a2.302 2.302 0 0 0 3.863-1.73 2.3 2.3 0 0 0-3.93-1.582l-.058.054a2.3 2.3 0 0 0-.614 1.567zm21.68 12.102-66.89-.003v5.03l66.89.005v-5.04zM37.458 48.776a2.289 2.289 0 0 0-3.906-1.625l-.058.055a2.3 2.3 0 0 0 .054 3.192l.055.058v.004c.668.621 1.644.79 2.48.426a2.28 2.28 0 0 0 1.375-2.106zm5.286-23.73h.003a2.28 2.28 0 0 1-1.843 2.227 2.28 2.28 0 0 1-2.547-1.371 2.276 2.276 0 0 1 .844-2.766 2.28 2.28 0 0 1 2.878.286c.43.43.668 1.015.668 1.625zm-19.34 35.09c0-.609-.243-1.19-.672-1.62l-.055-.06a2.3 2.3 0 0 0-2.496-.421 2.3 2.3 0 0 0-1.363 2.137 2.296 2.296 0 0 0 3.914 1.586l.058-.055c.395-.426.614-.985.614-1.567m8.773-26.879-.004-.003c0 .609-.238 1.191-.668 1.62-.898.891-2.348.891-3.242 0a2.29 2.29 0 0 1-.024-3.21 2.297 2.297 0 0 1 3.211-.09l.055.055v.004c.43.43.672 1.011.668 1.62z"/></svg>