<svg xmlns="http://www.w3.org/2000/svg" viewBox="-5 -10 75.557 85.269"><path fill-rule="evenodd" d="M58.59 45.121c0-.79-.673-1.445-1.438-1.445-.817 0-1.438.656-1.438 1.445v24.223a1.42 1.42 0 0 0 1.438 1.445c.765 0 1.437-.636 1.437-1.445zM34.291 63.664a80 80 0 0 0-3.691-.762v9.492c0 .153.097.293.289.293h1.535c.43 0 .766-.312.817-.722zm-6.277 3.027H.558c-1.629 0-3.02-1.36-3.02-3.015V4.246c0-1.657 1.391-3 3.02-3h5.988l.719 2.117c.527 1.773 2.11 2.914 3.977 2.914h6.324c1.867 0 3.449-1.14 4.027-2.914l.672-2.117h5.988c1.63 0 3.02 1.34 3.02 3v14.332h-4.121v-2.676c0-2.012-1.63-3.664-3.64-3.664H5.3c-2.012 0-3.64 1.652-3.64 3.664V45.07a3.65 3.65 0 0 0 3.64 3.652h1.965v5.735a4.074 4.074 0 0 0 4.074 4.082h14.617c0 1.574.762 2.91 2.063 3.652zM9.28 1.246l.43 1.328c.191.692.816 1.118 1.535 1.118h6.324c.719 0 1.344-.426 1.582-1.118l.43-1.328zM43.16 21.16H11.34a1.49 1.49 0 0 0-1.484 1.48v7.442h34.789v-7.441a1.49 1.49 0 0 0-1.485-1.48zm-31.82-2.582h13.273v-2.675c0-.598-.527-1.082-1.102-1.082H5.301c-.575 0-1.055.484-1.055 1.082V45.07c0 .585.48 1.062 1.054 1.062h1.965V22.645a4.075 4.075 0 0 1 4.074-4.066zm33.305 29.164V32.668H9.855v21.793a1.5 1.5 0 0 0 1.485 1.5h14.617c0-2.101 1.38-3.789 3.403-4.136 5.605-.98 10.78-2.36 15.285-4.082zm8.484 20.105c-6.132-3.464-14.137-6.113-23.336-7.718a1.506 1.506 0 0 1-1.246-1.497V55.86c0-.758.528-1.36 1.246-1.5 9.2-1.602 17.203-4.254 23.336-7.715zM61.18 45.12v24.223c0 2.223-1.82 4.031-4.023 4.031-1.582 0-2.973-.93-3.64-2.277-4.411-2.808-10.114-5.113-16.724-6.82l-.957 8.008c-.191 1.691-1.676 2.984-3.402 2.984h-1.535a2.883 2.883 0 0 1-2.875-2.879v-3.12l-27.465.003C-2.508 69.273-5 66.757-5 63.675V4.245C-5 1.16-2.508-1.337.559-1.337h27.699c3.066 0 5.605 2.496 5.605 5.582v14.332h9.297c2.203 0 4.074 1.824 4.074 4.063v24.05c2.301-1.019 4.41-2.12 6.277-3.312.622-1.344 2.012-2.289 3.641-2.289 2.207.004 4.027 1.813 4.027 4.031zm3.64 6.067c.239 0 .43-.055.673-.172l2.394-1.399c.68-.386.75-1.27.48-1.773-.382-.617-1.148-.824-1.773-.465L64.2 48.773c-1.223.703-.637 2.414.62 2.414m2.782 4.754H64.82c-.719 0-1.293.586-1.293 1.293 0 .722.574 1.289 1.293 1.289h2.78c.72 0 1.294-.567 1.294-1.29 0-.706-.574-1.292-1.293-1.292m.285 8.925-2.348-1.394c-.629-.383-1.73-.145-1.964.777-.145.567.097 1.149.62 1.461l2.395 1.379c.656.395 1.45.113 1.774-.45.34-.62.148-1.41-.477-1.773m-44.66-37.949h16.867c.719 0 1.293-.59 1.293-1.293 0-.722-.574-1.293-1.293-1.293H23.227c-.719 0-1.246.57-1.246 1.293 0 .704.527 1.293 1.246 1.293m-7.523-1.293c0 1.047 1.484.957 1.484 0 0-.96-1.484-1.046-1.484 0m-2.59 0c0 1.84 1.484 3.34 3.305 3.34a3.342 3.342 0 1 0 0-6.683c-1.82-.004-3.305 1.496-3.305 3.343M40.188 9.601H52.84c1.293 0 2.3-1.035 2.3-2.308V2.848a2.29 2.29 0 0 0-2.3-2.305h-2.875c-.719 0-1.293-.59-1.293-1.293v-3.48c0-1.31-.817-2.43-1.918-2.93v6.406c0 .703-.574 1.293-1.293 1.293h-5.27zm-2.586 1.29c0 .722.574 1.293 1.293 1.293H52.84a4.866 4.866 0 0 0 4.887-4.895V2.848A4.864 4.864 0 0 0 52.84-2.04h-1.582V-4.23c0-3.188-2.637-5.77-5.797-5.77-.719 0-1.293.566-1.293 1.29v6.671h-5.27c-.718 0-1.292.566-1.292 1.29zm26.93 8.207c-1.629-.934-3.395-1.176-5.176-.692-1.773.48-3.258 1.621-4.219 3.207-1.535 2.703-1.101 6.129 1.149 8.313.289.296.43.71.383 1.12l-.383 2.329 1.867-1.465a1.3 1.3 0 0 1 1.148-.238c2.973.824 6.184-.485 7.762-3.188 1.879-3.293.777-7.496-2.531-9.386zm4.746 10.676c2.637-4.516 1.055-10.316-3.45-12.918a9.42 9.42 0 0 0-12.89 3.464c-2.063 3.532-1.582 7.942 1.055 10.953l-.72 4.965c-.198 1.23 1.208 1.883 2.063 1.203l3.93-3.12c3.926.796 8-1.016 10.012-4.548zM19.92 63.11c0-.72-.574-1.29-1.293-1.29h-8.434c-.718 0-1.293.57-1.293 1.29 0 .71.575 1.293 1.293 1.293h8.434c.719 0 1.293-.586 1.293-1.294"/></svg>