<svg xmlns="http://www.w3.org/2000/svg" viewBox="-5 -10 89.657 89.633"><path d="M20.63-3.88h6.851c.551 0 1-.448 1-1 0-.55-.449-1-1-1H20.63c-.551 0-1 .45-1 1 0 .552.449 1 1 1M-.292-4.5c.03.058.058.12.09.172.039.058.078.11.128.148a.973.973 0 0 0 1.41 0c.051-.039.09-.09.13-.148q.043-.078.09-.172.03-.087.05-.192c.02-.058.02-.129.02-.191 0-.262-.102-.52-.29-.711a1 1 0 0 0-.898-.27c-.07 0-.129.032-.191.051-.059.032-.121.059-.172.102a.6.6 0 0 0-.149.12 1 1 0 0 0-.3.712c0 .058.011.129.02.191.019.07.038.13.058.192z"/><path d="M80.509 28.629c2.289 0 4.148-1.86 4.148-4.149V-5.852c0-2.289-1.86-4.148-4.148-4.148H50.497a4.15 4.15 0 0 0-4.149 4.148v30.328c0 2.29 1.86 4.149 4.149 4.149h7.398v6.238c0 .55.45 1 1 1h12.078v5.129h-20.48a4.15 4.15 0 0 0-4.148 4.148v22.352H33.314V45.14c0-2.289-1.86-4.148-4.149-4.148H8.525v-5.191h12.108c.551 0 1-.45 1-1v-6.192h7.532c2.289 0 4.148-1.86 4.148-4.148l.004-30.312c0-2.29-1.86-4.149-4.149-4.149H-.852A4.15 4.15 0 0 0-5-5.85v30.328c0 2.289 1.86 4.148 4.148 4.148h20.48v5.192H7.52c-.55 0-1 .449-1 1v6.191H-.85A4.15 4.15 0 0 0-5 45.156v30.328c0 2.29 1.86 4.149 4.148 4.149H29.16c2.29 0 4.149-1.86 4.149-4.149v-5.98h13.03v5.98c0 2.29 1.86 4.149 4.15 4.149H80.5c2.29 0 4.149-1.86 4.149-4.149V45.156c0-2.289-1.86-4.148-4.149-4.148H72.97v-6.129c0-.55-.45-1-1-1H59.891v-5.238H80.5zM-.851-7.988h30.013c1.18 0 2.148.96 2.148 2.148v3.711H-2.999v-3.71c0-1.192.961-2.15 2.149-2.15zm0 34.617c-1.179 0-2.148-.961-2.148-2.149V-.14h34.31v24.628c0 1.192-.962 2.149-2.149 2.149h-7.531v-4.75h.308c.551 0 1-.45 1-1 0-.551-.449-1-1-1h-2.62c-.551 0-1 .449-1 1s.449 1 1 1h.308v4.75L-.85 26.64zm14.669 40.883a6.39 6.39 0 0 0-5.301-5.18V50.863h22.789v16.648zm-6.297-3.27c2.43 0 4.41 1.98 4.41 4.41s-1.98 4.41-4.41 4.41-4.41-1.98-4.41-4.41 1.98-4.41 4.41-4.41m21.648-21.23c1.18 0 2.148.961 2.148 2.149v3.71H8.528V43.02H29.17zm-30.02 0H6.52v5.852L-3 48.86v-3.71C-3 43.957-2.039 43-.85 43zm32.16 32.48c0 1.192-.961 2.149-2.149 2.149H-.852C-2.032 77.64-3 76.68-3 75.492V50.863h9.52v11.47c-3.059.48-5.41 3.128-5.41 6.32a6.417 6.417 0 0 0 6.41 6.41c3.238 0 5.921-2.422 6.34-5.54h17.448v5.981zm19.18-32.48h20.48v5.852h-22.63v-3.711c0-1.191.962-2.148 2.15-2.148zm30.02 34.617H50.497c-1.18 0-2.149-.96-2.149-2.148V69.5h8.231c.55 0 1-.45 1-1v-5.56s-.012-.038-.012-.07c2.14-.46 3.762-2.359 3.762-4.64a4.753 4.753 0 0 0-4.75-4.75 4.753 4.753 0 0 0-4.75 4.75c0 2.281 1.621 4.18 3.762 4.64 0 .02-.012.04-.012.07v4.56h-7.23V50.851h22.628v10.41l-.12.02c-.532.121-.88.66-.762 1.191.12.54.66.88 1.191.762a3.7 3.7 0 0 1 1.559-.02.987.987 0 0 0 1.168-.79.99.99 0 0 0-.79-1.17c-.09-.02-.18-.02-.261-.04V50.856h9.68v24.63c0 1.19-.961 2.148-2.149 2.148zM56.568 60.981a2.75 2.75 0 1 1 2.75-2.75 2.75 2.75 0 0 1-2.75 2.75m23.94-17.969c1.18 0 2.15.961 2.15 2.149v3.71h-9.68v-1.738h5.851c.551 0 1-.449 1-1s-.449-1-1-1h-5.851v-2.11h7.53zm-30.02-51h30.013c1.18 0 2.148.961 2.148 2.149v3.71H48.34v-3.71c0-1.192.961-2.149 2.149-2.149zm0 34.617c-1.179 0-2.148-.96-2.148-2.148V-.14h34.31v24.629c0 1.191-.961 2.148-2.149 2.148H59.892V16.24h4.91c.551 0 1-.449 1-1V3.411c0-.55-.449-1-1-1H52.974c-.55 0-1 .45-1 1V15.24c0 .551.45 1 1 1h4.91v10.398h-7.398zm13.32-20.957v8.559H55.25zm-9.831 7V4.411h8.262z"/><path d="M71.97-3.88h6.851c.551 0 1-.448 1-1 0-.55-.449-1-1-1H71.97c-.551 0-1 .45-1 1 0 .552.449 1 1 1M51.977-3.88a1.004 1.004 0 0 0 1-1c0-.26-.11-.519-.301-.71-.371-.371-1.04-.371-1.41 0a1.018 1.018 0 0 0 0 1.422c.18.18.441.289.71.289M20.63 47.12h6.851c.551 0 1-.448 1-1 0-.55-.449-1-1-1H20.63c-.551 0-1 .45-1 1 0 .552.449 1 1 1M-.07 46.832c.18.18.442.289.7.289.262 0 .531-.11.711-.29.09-.1.172-.21.219-.327.05-.121.07-.25.07-.38a.96.96 0 0 0-.289-.706c-.371-.371-1.05-.371-1.41 0a.8.8 0 0 0-.219.328 1 1 0 0 0-.078.379 1.006 1.006 0 0 0 .297.707M51.977 47.12c.262 0 .52-.109.699-.3a.973.973 0 0 0 0-1.41c-.371-.371-1.04-.371-1.41 0-.192.191-.29.45-.29.71 0 .263.102.52.29.7.18.191.441.3.71.3M71.067 22.699h7.75c.55 0 1-.45 1-1v-7.75c0-.551-.45-1-1-1h-7.75c-.551 0-1 .449-1 1v7.75c0 .55.449 1 1 1m1-7.758h5.75v5.75h-5.75zM24.567 21.89h2.5c.55 0 1-.45 1-1v-2.5c0-.551-.45-1-1-1-.551 0-1 .449-1 1v1.5h-1.5c-.551 0-1 .449-1 1s.449 1 1 1M16.7 19.89h-1.5v-1.5c0-.551-.45-1-1-1-.551 0-1 .449-1 1v2.5c0 .55.449 1 1 1h2.5c.55 0 1-.45 1-1 0-.551-.45-1-1-1M14.2 16.769c.55 0 1-.45 1-1v-2.621c0-.551-.45-1-1-1-.551 0-1 .449-1 1v2.62c0 .552.449 1 1 1M16.7 7.019h-2.5c-.551 0-1 .449-1 1v2.5c0 .55.449 1 1 1s1-.45 1-1v-1.5h1.5c.55 0 1-.45 1-1 0-.551-.45-1-1-1M19.317 9.019h2.62c.552 0 1-.45 1-1 0-.551-.448-1-1-1h-2.62c-.551 0-1 .449-1 1s.449 1 1 1M24.567 9.019h1.5v1.5c0 .55.449 1 1 1s1-.45 1-1v-2.5c0-.551-.45-1-1-1h-2.5c-.551 0-1 .449-1 1s.449 1 1 1M27.067 12.14c-.551 0-1 .449-1 1v2.62c0 .552.449 1 1 1s1-.448 1-1v-2.62c0-.551-.45-1-1-1M25.548 53.359h-7.75c-.551 0-1 .449-1 1v7.75c0 .55.449 1 1 1h7.75c.55 0 1-.45 1-1v-7.75c0-.551-.45-1-1-1m-1 7.75h-5.75v-5.75h5.75zM74.95 69.37a2.3 2.3 0 0 1-.27.282c-.289.27-.62.5-.98.66a.993.993 0 0 0-.48 1.328 1.004 1.004 0 0 0 1.32.489 5.9 5.9 0 0 0 1.91-1.442.997.997 0 0 0-.102-1.41.997.997 0 0 0-1.41.102zM70.649 70.359c-.48-.2-.91-.5-1.25-.86-.012-.011-.059-.058-.07-.078-.38-.398-.989-.398-1.391-.02-.399.38-.399 1.032-.031 1.43a5.9 5.9 0 0 0 1.96 1.372c.22.09.45.101.672.039a.98.98 0 0 0 .641-.57.99.99 0 0 0-.531-1.31zM77.059 63.949a1.01 1.01 0 0 0-1.371-.352 1.01 1.01 0 0 0-.352 1.371c.16.282.29.57.379.871.059.2.102.399.121.602.07.55.559.941 1.11.871.05 0 .109-.02.16-.031.46-.13.77-.59.71-1.078a5.91 5.91 0 0 0-.77-2.262zM68.38 66.55c.05-.531.21-1.031.469-1.488a.998.998 0 0 0-1.739-.981 5.55 5.55 0 0 0-.71 2.281 1 1 0 0 0 1.988.2zM6.977 9.672a2.3 2.3 0 0 1-.27.281c-.289.27-.62.5-.98.66a.993.993 0 0 0-.48 1.328 1.004 1.004 0 0 0 1.32.489 5.9 5.9 0 0 0 1.91-1.442.997.997 0 0 0-.102-1.41.997.997 0 0 0-1.41.102zM2.68 10.66c-.48-.2-.91-.5-1.25-.86-.01-.011-.058-.058-.07-.078-.378-.398-.988-.398-1.39-.02-.399.38-.399 1.032-.031 1.43a5.9 5.9 0 0 0 1.96 1.372c.22.09.45.101.672.039a.98.98 0 0 0 .641-.57.99.99 0 0 0-.531-1.31zM6.048 2.742a.99.99 0 0 0-.79-1.172 5.7 5.7 0 0 0-2.39.031c-.531.121-.879.66-.762 1.192.122.539.66.878 1.192.761a3.7 3.7 0 0 1 1.558-.02.987.987 0 0 0 1.168-.79zM9.09 4.26a1.01 1.01 0 0 0-1.37-.35 1.01 1.01 0 0 0-.352 1.37c.16.282.29.57.379.871.059.2.102.399.121.602.07.55.559.941 1.11.871.05 0 .109-.02.16-.031.46-.13.77-.59.71-1.078a5.91 5.91 0 0 0-.77-2.262ZM.407 6.85c.05-.53.21-1.03.469-1.487a.998.998 0 0 0-1.739-.981 5.55 5.55 0 0 0-.71 2.281 1 1 0 0 0 1.988.2z"/></svg>