<svg viewBox="0 0 41.7 53.3" xmlns="http://www.w3.org/2000/svg"><path d="m41.2 6c-.3-.2-.6-.2-.9 0-2.5 1.1-5.1.3-6.6-1.7-.7-.9-1.1-2.1-1.1-3.2s0-.5-.3-.7-.4-.3-.7-.3h-10.2c-.6 0-1 .4-1 1v35.7c-.2 1.8-1.6 3.1-3.4 3.1s-3.5-1.6-3.5-3.5 1.3-3.2 3.1-3.4c.5 0 .9-.5.9-1v-11.6c0-.6-.4-1-1-1h-.2c-9.2.3-16.3 7.7-16.3 16.9s7.6 17 17 17 16.2-6.8 16.9-15.5c0 0 0-.3 0-.4v-19.3c2.2.5 4.5.7 6.9.3.5-.1.8-.5.8-1v-10.6c0-.3-.2-.6-.5-.8m-1.4 10.6c-2.3.2-4.4 0-6.5-.7-.3-.1-.6 0-.9 0-.3.2-.4.5-.4.8v20.2s0 .2-.1.3c-.5 7.8-7.1 14-14.9 14s-15-6.6-15-14.9 5.8-14.2 13.5-14.9v9.7c-2.3.7-4 2.8-4 5.2s2.5 5.5 5.5 5.5 5-2 5.4-4.6c.1 0 .1-.3.1-.4v-34.8h8.3c.2 1.3.7 2.4 1.4 3.4 1.7 2.3 4.7 3.5 7.6 2.8z"/></svg>