<svg viewBox="0 0 636.3 126.5" xmlns="http://www.w3.org/2000/svg"><g fill="#fff"><path d="m242.7 36.5c.1-4-.7-7.9-2.4-11.5-1.5-3-3.6-5.5-6.3-7.5-2.7-1.9-5.7-3.3-8.9-4-3.3-.8-6.7-1.2-10.2-1.2h-17.6v48.6h18.1c3.3 0 6.7-.5 9.9-1.4s6.1-2.4 8.8-4.4c2.6-2 4.8-4.7 6.2-7.6 1.7-3.4 2.5-7.2 2.4-11zm-17.1 11.2c-1.5 1.1-3.3 1.9-5.2 2.4-2 .5-4 .7-6.1.7h-5.6v-28.4h5.8c2 0 3.9.2 5.9.7 1.8.4 3.6 1.2 5.1 2.3s2.8 2.6 3.6 4.3c1 2.1 1.4 4.5 1.3 6.8 0 2.3-.4 4.7-1.3 6.8-.8 1.7-2 3.2-3.6 4.4z"/><path d="m298.2 50.9h-22.6v-10.1h20.2v-9.4h-20.2v-9.2h21.3v-9.9h-32.7v48.6h34z"/><path d="m362.2 22.3h20.4v-10h-32v48.6h11.6v-18.9h18.8v-9.7h-18.8z"/><path d="m437.8 50.9h-22.6v-10.1h20.2v-9.4h-20.2v-9.2h21.3v-9.9h-32.6v48.6h33.9z"/><path d="m489.9 50.7h-18.8v-38.4h-11.8v48.6h30.6z"/><path d="m509.1 12.3h11.8v48.6h-11.8z"/><path d="m581.5 27.2c0-2.4-.4-4.8-1.5-7-.9-1.8-2.3-3.4-4-4.6-1.8-1.2-3.9-2.1-6-2.5-2.4-.5-4.9-.8-7.5-.8h-17.9v48.6h11.7v-18.3h5.8c2.5 0 4.9-.3 7.3-.8 2.2-.5 4.3-1.4 6.2-2.6 1.8-1.2 3.2-2.8 4.3-4.7 1.1-2.2 1.7-4.7 1.6-7.2zm-11.7.1c0 1-.2 2-.7 2.8s-1.1 1.4-1.9 1.8c-.8.5-1.8.8-2.7 1-1 .2-2.1.3-3.2.3h-5v-11.5h5.2c1 0 2 0 3.1.2.9.1 1.8.4 2.6.8s1.4 1 1.9 1.7c.5.9.7 1.8.7 2.8z"/><path d="m613.7 50.9v-10.1h20.2v-9.4h-20.2v-9.2h21.4v-9.9h-32.7v48.6h33.9v-10z"/><path d="m0 126.5h126.5v-126.5h-126.5zm6-60.5 15 15v24.5h24.5l15 15h-54.5v-54.4zm55 18-15.5 15.5h-18.5v-18.5l15.6-15.6v18.6h18.5zm-12.5-6v-29.5h29.5v29.5zm14.7 12.2 12.3 12.3-12.3 12.3-12.3-12.3zm2.3-6.2h18.5v-18.6l15.5 15.6v18.5h-18.5zm24.7-20.8 12.3-12.3 12.3 12.3-12.3 12.3zm9.3-17.7-15.5 15.5v-18.5h-18.5l15.5-15.6h18.5zm-36.3-9.2-12.3-12.3 12.3-12.3 12.3 12.3zm-2.2 6.2h-18.5v18.5l-15.6-15.5v-18.6h18.5zm-24.7 20.7-12.3 12.3-12.3-12.3 12.3-12.3zm29.7 57.3 15-15h24.5v-24.5l15-14.9v54.4zm54.5-60.1-14.9-15v-24.5h-24.5l-15-14.9h54.4zm-60-54.4-14.9 14.9h-24.5v24.5l-15 15v-54.4h54.5z"/><path d="m221.8 108.5c-1.2 3.6-4.6 5.9-8.4 5.8-6.6 0-12-4.8-12-13.1s5.2-12.2 11.4-12.2 7.7 3.1 8.2 5.9c.3.2.8.2 1.1 0-.3-2.5-.6-5-.6-5.9-.4 0-.8 0-1.1-.2-2.3-.6-4.7-.9-7.1-1-3.9 0-7.7 1.1-10.9 3.4-3.3 2.6-5.1 6.5-5 10.7-.1 4.4 2.1 8.6 5.7 11.1 3 1.9 6.5 2.8 10 2.7 2.2 0 4.3-.3 6.4-.9.5-.2.9-.3 1.4-.4 1-1.7 1.7-3.6 1.9-5.5-.3-.3-.7-.3-1-.2z"/><path d="m233.3 113.8c-1.5-.2-1.5-.6-1.5-3.5v-19c0-1.8.1-3.8.1-5s-.2-.2-.4-.2c-1.4.7-2.8 1.2-4.3 1.7-.2.2-.2.6 0 .8l.4.2c1.2.7 1.2 1 1.2 3.3v18.2c0 2.9 0 3.3-1.5 3.5h-.9c-.2.4-.2.8 0 1.1h3.9s2.6 0 3.9 0c.3-.3.3-.7 0-1h-1 .1z"/><path d="m246.4 88.6c-.3-.3-.8-.5-1.2-.6-.4 0-.8.6-1 1l-3.5 6.6c0 .3.4.5.7.4l5.1-5.3c.3-.3.6-.7.6-1.1s-.3-.8-.7-1z"/><path d="m245.2 113.8c-1.5-.2-1.5-.6-1.5-3.5v-7.2c0-1.7 0-3.6.2-5 0-.2-.2-.3-.4-.2-1.3.8-2.7 1.4-4.2 2-.2.2-.2.5 0 .7l.4.2c1.1.7 1.1.9 1.1 2.5v7c0 2.9 0 3.3-1.5 3.5h-.9c-.2.4-.2.8 0 1.1h3.8s2.6 0 3.8 0c.3-.3.3-.7 0-1h-.9z"/><path d="m267.9 113.8c-1.5-.2-1.5-.6-1.5-3.5v-6.9c0-2.7-1.4-5-4.7-5-2 0-4 .9-5.6 2-.2 0-.4-.2-.4-.4v-1.9c0-.2-.3-.3-.4-.3-1.3.8-2.6 1.5-4 2-.2.2-.2.5 0 .7l.4.2c1.1.7 1.1.9 1.1 2.5v7c0 2.9 0 3.3-1.6 3.5h-.9c-.2.4-.2.8 0 1.1h3.8s2.6 0 3.7 0c.3-.3.3-.7 0-1h-.7c-1.5-.4-1.5-.7-1.5-3.6v-6.2c-.1-.9 0-1.7.6-2.4.9-1 2.1-1.5 3.4-1.4 2.8 0 3.8 1.7 3.8 4v6c0 2.9 0 3.3-1.5 3.5h-.8c-.2.4-.2.8 0 1.1h3.7s2.6 0 3.8 0c.3-.3.3-.7 0-1h-.9z"/><path d="m276.6 89.7c-1.2 0-2.1 1-2 2.2 0 1.2 1 2.1 2.1 2.1s2.1-1 2.1-2.1c0-1.2-.9-2.1-2-2.1h-.2z"/><path d="m279.9 113.8c-1.5-.2-1.5-.6-1.5-3.5v-7.2c0-1.7 0-3.6.2-5 0-.2-.2-.3-.4-.2-1.3.8-2.7 1.4-4.2 2-.2.2-.2.5 0 .7l.4.2c1.1.7 1.1.9 1.1 2.5v7c0 2.9 0 3.3-1.5 3.5h-.8c-.2.4-.2.8 0 1.1h3.8s2.6 0 3.8 0c.3-.3.3-.7 0-1h-.9z"/><path d="m298.7 110.6c-.9 1.6-2.6 2.5-4.5 2.4-4.3 0-6.5-3.7-6.5-6.9s2.7-6.5 5.6-6.5c1.6 0 3 .9 4 2.1.1.2.3.3.6.3.5 0 .9-.8.9-1.5s-.2-1.2-.6-1.6c-1.1-.5-2.4-.7-3.6-.8-6.7 0-9.7 4.7-9.7 9s.8 4.4 2.3 6c1.5 1.4 3.5 2.1 5.5 2.1s5.5-1.6 6.7-4.1c0-.3-.4-.6-.7-.5z"/><path d="m317.4 113c-.1 0-.3.2-.5.3-.3.2-.7.2-1 .2-1.6 0-1.9-1.7-1.9-3.5l.2-7c.1-3-1.2-4.7-4.2-4.7s-7.5 2.9-7.5 5c0 .4.3.6.6.6.8 0 1.6-.3 2.3-.8.3-.2.4-.7.4-1.4 0-1.2 1.4-1.8 2.6-1.8 2.5 0 2.9 2 2.9 3.5v1.9c0 .6 0 1-.7 1.2l-4.8 1.7c-2.6.9-3.3 1.9-3.3 3.4s.5 2.1 1.2 2.8c.8.6 1.8 1 2.8.9 1 0 2-.4 2.9-1 .5-.3 1-.6 1.6-.8.2 0 .5.3.6.6.6.8 1.6 1.3 2.6 1.2 1.3 0 2.6-.7 3.4-1.8 0-.3-.2-.5-.3-.5zm-6.2-2.3c0 .9 0 1.4-.5 1.9-.7.6-1.6.9-2.5 1-1.3 0-2.5-1-2.5-2.4s1.2-2.2 3.5-3c.5-.2 1.1-.3 1.6-.4.2 0 .4 0 .4.5z"/><path d="m352 89.3c-2.9-.9-5.9-1.3-8.9-1.2-3.4 0-6.7 0-10.1.3l-.2.2c-.2.3-.1.6.2.8h.9c1.7.4 1.9 1.2 1.9 4v15.3c0 4.2 0 4.7-2.4 5h-.9c-.2.4-.2.9 0 1.1h5s4 .3 6.6.3 6.2-.6 9-1.9c4.4-2.4 7.1-7 7-12 .2-5.3-3.1-10.2-8.2-11.9zm-7 24.6c-2.6 0-4.1-.4-5-1.7-.7-1-.8-2.3-.8-4.4v-14.9c0-1.8 0-2.8.4-3.1.3-.2 1.6-.6 4-.6 10.5 0 12.7 7.5 12.7 11.9 0 7.5-3.5 12.6-11.3 12.6z"/><path d="m378 111.1c-.8 1.3-2.2 2-3.7 2-4.3 0-6.7-3.5-6.7-7.5s0-1.1 1.1-1.1h7.4c1.7 0 2.3 0 2.4-.4s.2-.7.2-1c0-2.4-2.3-4.8-5.7-4.8s-8.1 4.1-8.1 9.1.6 3.7 1.7 5.2c1.4 1.8 3.6 2.7 5.8 2.7s5.1-1.4 6.3-3.7v-.2c-.1-.3-.4-.4-.7-.3zm-5.5-11.5c2.3 0 3.1 1.4 3.1 2.5s-.1.7-.2.8c-.3.2-1.2.4-4.2.4h-2.9c-.3 0-.3 0-.3-.2 0-1.3 2.1-3.5 4.5-3.5z"/><path d="m392.5 98.3c-1.5 0-3 1.2-4.4 2.4 0 0-.1-.2-.1-.4v-2.3c0-.2-.1-.3-.3-.3-1.3.8-2.7 1.4-4.1 2-.2.2-.2.5 0 .7l.4.2c1.1.7 1.1.9 1.1 2.5v7c0 2.9 0 3.3-1.6 3.5h-.8c-.2.4-.2.8 0 1.1h3.7s2.6 0 4.5 0c.3-.3.3-.7 0-1h-1.5c-1.5-.2-1.6-.7-1.6-3.6v-5.5c0-1.1 0-2.1.5-3.1.3-.5.9-.8 1.5-.8s1.3.3 1.8.6c.3.2.6.3.9.3 1 0 1.8-.9 1.7-1.8 0-.9-.9-1.6-1.8-1.5z"/><path d="m425.8 113.8c-1.5-.2-1.5-.6-1.5-3.5v-6.9c0-2.8-1.6-5-4.8-5-2 0-3.9.8-5.5 2-.3.2-.6.4-1 .3-.8-1.5-2.5-2.5-4.3-2.4-2 0-3.8.8-5.4 2.1-.2 0-.4-.2-.4-.4v-1.9c0-.2-.3-.3-.4-.3-1.3.8-2.6 1.5-4 2-.2.2-.2.5 0 .7l.4.2c1.1.7 1.1.9 1.1 2.5v7c0 2.9 0 3.3-1.5 3.5h-1c-.2.4-.2.8 0 1.1h3.9s2.6 0 3.7 0c.3-.3.3-.7 0-1h-.7c-1.5-.4-1.5-.7-1.5-3.6v-6.2c-.1-.8.1-1.6.6-2.3.9-1 2.1-1.5 3.4-1.5 2.5 0 3.7 1.5 3.7 4.1v5.8c0 2.9 0 3.3-1.5 3.5h-.7c-.2.4-.2.8 0 1.1h3.7s2.6 0 3.8 0c.3-.3.3-.7 0-1h-.9c-1.5-.3-1.5-.7-1.5-3.6v-6.2c0-1.4.1-1.8.6-2.4.9-.9 2.1-1.4 3.3-1.4 2.5 0 3.7 1.4 3.7 4.1v5.9c0 2.9 0 3.3-1.5 3.5h-.7c-.2.4-.2.8 0 1.1h3.7s2.6 0 3.9 0c.3-.3.3-.7 0-1h-1 .3z"/><path d="m445.6 113c-.1 0-.3.2-.5.3-.3.2-.7.2-1 .2-1.6 0-1.9-1.7-1.8-3.5l.2-7c.1-3-1.2-4.7-4.2-4.7s-7.5 2.9-7.5 5c0 .4.3.6.6.6.8 0 1.6-.3 2.3-.8.3-.2.4-.7.4-1.4 0-1.2 1.5-1.8 2.6-1.8 2.5 0 2.9 2 2.9 3.5v1.9c0 .6 0 1-.7 1.2l-4.9 1.7c-2.6.9-3.3 1.9-3.3 3.4s.5 2.1 1.2 2.8c.8.6 1.8 1 2.8.9 1 0 2-.4 2.9-1 .5-.3 1-.6 1.6-.8.2 0 .5.3.6.6.6.8 1.6 1.3 2.6 1.2 1.3 0 2.6-.7 3.4-1.8 0-.3-.2-.5-.3-.5zm-6.3-2.3c0 .9 0 1.4-.5 1.9-.7.6-1.6.9-2.5 1-1.3 0-2.5-1-2.5-2.4s1.2-2.2 3.5-3c.5-.2 1.1-.3 1.7-.4.2 0 .4 0 .4.5v2.4z"/><path d="m454.4 100.6h4.5c.4-.5.4-1.2 0-1.7h-4.5q-.7 0-.7-.8v-1.8c-.2-.3-.7-.3-.9-.2-.4.9-1 1.7-1.7 2.4-.8.6-1.7 1-2.6 1.2-.2.3-.1.6.1.8h1.1q.8 0 .8 1.2v9.2c0 2.4.7 4.3 4.2 4.3s3.2-.7 4.2-1.8c0-.2 0-.7-.4-.7s-.6.4-1 .6c-.3 0-.7.2-1.1.2-2.7 0-2.9-2.1-2.9-4.5v-7.5c0-.9 0-1 .7-1h.2z"/><path d="m471.1 98.4h-.4c-4.7 0-8.3 4-8.2 8.7v.5c.1 4.4 3.8 7.9 8.3 7.7 5 0 8.5-3.7 8.5-8.7v-.5c0-4.4-3.8-7.9-8.2-7.8zm.1 15.8c-3.5 0-5.2-4-5.2-7.6s2-7 4.6-7c3.8 0 5.2 4.4 5.2 7.8s-1.1 6.8-4.6 6.8z"/><path d="m490.4 113.8c-1.5-.2-1.5-.6-1.5-3.5v-19c0-1.8.1-3.8.1-5s-.2-.2-.4-.2c-1.4.7-2.8 1.2-4.3 1.7-.2.2-.2.6 0 .8l.4.2c1.2.7 1.2 1 1.2 3.3v18.2c0 2.9 0 3.3-1.5 3.5h-.9c-.2.4-.2.8 0 1.1h3.9s2.6 0 3.9 0c.3-.3.3-.7 0-1h-1z"/><path d="m503.8 98.4h-.4c-4.7 0-8.3 4-8.2 8.7v.5c.1 4.4 3.8 7.9 8.3 7.7 5 0 8.5-3.7 8.5-8.7v-.5c0-4.4-3.8-7.9-8.2-7.8zm.1 15.8c-3.5 0-5.2-4-5.2-7.6s2-7 4.6-7c3.8 0 5.2 4.4 5.1 7.8 0 3.1-1.1 6.8-4.6 6.8z"/><path d="m502.7 96.4 5.1-5.3c.3-.3.6-.7.6-1.1s-.3-.8-.7-1c-.3-.3-.8-.5-1.2-.6-.4 0-.8.6-1 1l-3.5 6.6c0 .3.4.5.7.4z"/><path d="m533 99.8h-3.2c-.9 0-1.7-.3-2.5-.7-1.2-.5-2.5-.8-3.9-.8-3.5 0-6.4 2.6-6.5 6.1 0 2.1 1.2 3.9 3 4.9 0 .3-.2.6-.4.8-.6.7-1.4 1.3-2.1 1.8-.4.3-.6.5-.6.7.2 1.6 1.4 2.9 2.9 3.2.4.3 0 .6-.3 1-.9.9-2.1 2-2.7 2.7-.3.4-.5 1-.4 1.5 0 2 1.7 4.7 6.7 4.7s10-3.2 10-7.6-3.4-4.4-5.6-4.4-3.4 0-4.8 0-2.8-.8-2.8-1.7 1.3-1.9 1.8-2.2h1.8c5.1 0 6.8-3.6 6.8-6.4v-2h2.9c.6 0 .7-1.5.2-1.7h-.3zm-11.9 16.7c1.1-.4 2.3-.5 3.5-.4h1.4c2.9 0 4.6 1 4.6 3.5s-2.3 4.3-6 4.3-5.4-1.8-5.4-4 .8-2.6 1.9-3.4zm2.7-7.7c-1.9 0-3.7-2-3.7-4.7s1.5-4.5 3.4-4.5 3.6 2.3 3.6 5c0 2.4-1.1 4.2-3.3 4.2z"/><path d="m543.1 113.8c-1.5-.2-1.5-.6-1.5-3.5v-7.2c0-1.7 0-3.6.2-5 0-.2-.2-.3-.4-.2-1.3.8-2.7 1.4-4.2 2-.2.2-.2.5 0 .7l.4.2c1.1.7 1.1.9 1.1 2.5v7c0 2.9 0 3.3-1.6 3.5h-.8c-.2.4-.2.8 0 1.1h3.8s2.6 0 3.8 0c.3-.3.3-.7 0-1h-.8z"/><path d="m539.9 93.9c1.2 0 2.1-1 2.1-2.1 0-1.2-.9-2.1-2-2.1h-.2c-1.2 0-2.1 1-2 2.2 0 1.2 1 2.1 2.1 2.1z"/><path d="m561.9 110.6c-.9 1.6-2.6 2.5-4.5 2.4-4.3 0-6.5-3.7-6.5-6.9s2.7-6.5 5.6-6.5c1.6 0 3 .9 4 2.1 0 .2.3.3.6.3.5 0 .9-.8.9-1.5s-.2-1.2-.6-1.6c-1.1-.5-2.4-.7-3.6-.8-6.7 0-9.7 4.7-9.7 9s.8 4.4 2.3 6c1.5 1.4 3.5 2.1 5.5 2.1s5.5-1.6 6.7-4.1c0-.3-.4-.6-.7-.5z"/><path d="m580.6 113s-.3.2-.5.3c-.3.2-.7.2-1 .2-1.6 0-1.9-1.7-1.8-3.5l.2-7c0-3-1.2-4.7-4.2-4.7s-7.5 2.9-7.5 5c0 .4.3.6.6.6.8 0 1.6-.3 2.3-.8.3-.2.4-.7.4-1.4 0-1.2 1.5-1.8 2.6-1.8 2.5 0 2.9 2 2.9 3.5v1.9c0 .6 0 1-.7 1.2l-4.9 1.7c-2.6.9-3.3 1.9-3.3 3.4s.5 2.1 1.2 2.8c.8.6 1.8 1 2.8.9 1 0 2-.4 2.9-1 .5-.3 1-.6 1.6-.8.2 0 .5.3.6.6.6.8 1.6 1.3 2.6 1.2 1.3 0 2.6-.7 3.4-1.8 0-.3-.2-.5-.3-.5zm-6.3-2.3c0 .9 0 1.4-.5 1.9-.7.6-1.6.9-2.5 1-1.3 0-2.5-1-2.5-2.4s1.2-2.2 3.5-3c.5-.2 1.1-.3 1.7-.4.2 0 .4 0 .4.5v2.4z"/></g></svg>