<svg viewBox="0 0 487 152" xmlns="http://www.w3.org/2000/svg"><path d="m95 0c22.1 5.1 51.8 13.9 54.9 40.6 2.1 18.1-12.6 74.3-23.9 88.9-5.2 6.6-14.5 12.5-22.7 14.3-2.9.6-5.9 0-9.1.9-8.4 2.1-16.7 5.3-25.1 7.4h-19c-4.1-2.4-8.8-3.1-13-5.5-26-14.3-27.6-57.7-37.1-82.6v-21c2.2-3 2.5-7 4.1-10.4 8.8-18 34.9-27 53.5-29.5s13.3 1.6 18.4-3.1zm-38 10c-21.7 1.6-48.5 12.8-51 37.5-1.5 15.3 7.5 46.1 12.5 61.5 9.1 28.1 22.4 41.2 53.7 35.7 1.2-.2 4.8-.2 4.8-1.7-15.5-4.6-34.4-10.4-42.8-25.7-13-23.6 6-67.4 13-91.7l9.9-15.6zm53.8 35.2c-15 2.2-5.9 26 7.2 18.2s2.6-19.7-7.2-18.2zm-39 12.1c-34.3 5-34.2 63.3 1 68.5 51 7.5 52.8-76.3-1-68.5z"/><path d="m318 36v31c3.7-1.4 5.7-4.2 9.6-5.9 22.8-9.3 41.9 13.6 40.4 35.4-1.9 26.5-30.9 44.1-51 22.5-.3 1.1.4 8 0 8h-14v-91zm10.7 36.2c-12.3 2.1-11.6 18.6-10.8 28.3.7 8.7 4.3 14.5 13.5 15.5 21.2 2.3 22-12.5 20.5-29.5-1.2-14.2-10.4-16.4-23.3-14.2z"/><path d="m266 98h-48c-.6 7.2 1.6 16.1 9.7 17.8s12.4.6 16-.5c7.1-2.3 5.7-9.2 6.3-9.2h15c-8.3 31.8-57.8 28.5-61.9-4.6-6.6-53.8 66.7-57 62.9-3.4zm-16-11c4.8-22.5-35.1-21.8-32 0z"/><path d="m402.8 59.3c47.2-6.4 50.2 68.8 5.6 69.6-41.4.7-45.5-64.3-5.6-69.6zm3 12c-13.2 1.6-18.2 7.8-16.3 20.8 2.3 16.2 7.5 28.7 26 22.9 15.6-4.9 11.4-19.8 7.1-32-2.9-8.3-7.2-12.9-16.7-11.7z"/><path d="m487 59v16.5c0 .1-1.4 1.5-1.5 1.5h-16c-1.2 0-5.5 5.2-5.5 6.5v43.5h-15v-67h14c.1 3.5-.2 7 0 10.5s-.7 2.7 1 2.5c4-8.5 14.1-12.9 23-14z"/><path d="m180 36h14v91h-14z"/><path d="m275 60h14v67h-14z"/><path d="m279.8 34.2c12.2-2.3 16.2 19.1 2.7 19.8s-15-17.4-2.7-19.8z"/><path d="m68.3 110.7c6.6 6.7 24.4 2.6 28.2-5.7s-1.6-24.9-5.5-30.5c-6.9-9.9-27.5-5.3-30.6 4.4s3.3 27 7.9 31.7z"/><path d="m68.3 110.7c-4.6-4.7-9.8-25.4-7.9-31.7 3-9.7 23.6-14.3 30.6-4.4s8.4 24.1 5.5 30.5-21.6 12.3-28.2 5.7z"/></svg>