<svg viewBox="0 0 87.5 84.4" xmlns="http://www.w3.org/2000/svg"><path d="m10.9 25h-9.3c-.9 0-1.6-.7-1.6-1.6v-21.8c0-.9.7-1.6 1.6-1.6h84.4c.9 0 1.6.7 1.6 1.6v21.9c0 .9-.7 1.6-1.6 1.6h-9.4v3.1h9.4c.9 0 1.6.7 1.6 1.6v21.9c0 .9-.7 1.6-1.6 1.6h-14.6v1.1c0 4.9-4 8.9-8.9 8.9s-8.9-4-8.9-8.9 0-.8 0-1.1h-52c-.9-.2-1.6-.9-1.6-1.7v-21.9c0-.9.7-1.6 1.6-1.6h9.4v-3.1zm64.1-3.1h9.4v-18.8h-81.3v18.8zm-1.6 6.2v-3.1h-59.3v3.1h59.4zm-3 21.9h14v-18.8h-81.3v18.8h51.5c1.6-2.9 4.6-4.7 7.9-4.7s6.3 1.8 7.9 4.7zm-13.6 3.1c0 .4-.1.7-.1 1.1 0 3.2 2.6 5.8 5.8 5.8s5.8-2.6 5.8-5.8c0-.4 0-.8-.1-1.1-.2-1.2-.8-2.3-1.7-3.1-2.2-2.1-5.7-2.1-7.9 0-.9.8-1.5 1.9-1.7 3.1m-10-10.9c-.9 0-1.5-.8-1.5-1.6s.7-1.5 1.5-1.5h6.3c.9 0 1.6.7 1.6 1.6s-.7 1.6-1.6 1.6h-6.3zm12.5 0c-.9 0-1.6-.7-1.6-1.6s.7-1.6 1.6-1.6h6.3c.9 0 1.6.7 1.6 1.6s-.7 1.6-1.6 1.6zm12.5 0c-.9 0-1.6-.7-1.6-1.6s.7-1.6 1.6-1.6h6.2c.9 0 1.6.7 1.6 1.6s-.7 1.6-1.6 1.6zm-62.5 0c-.9 0-1.6-.7-1.6-1.6s.7-1.6 1.6-1.6h26.6c.9 0 1.6.7 1.6 1.6s-.7 1.6-1.6 1.6zm50-28.1c-.9 0-1.6-.7-1.6-1.6s.7-1.6 1.6-1.6h6.3c.9 0 1.6.7 1.6 1.6s-.7 1.6-1.6 1.6zm-50 0c-.9 0-1.6-.7-1.6-1.6s.7-1.6 1.6-1.6h26.6c.9 0 1.6.7 1.6 1.6s-.7 1.6-1.6 1.6zm37.5 0c-.9 0-1.6-.7-1.6-1.6s.7-1.6 1.6-1.6h6.3c.9 0 1.6.7 1.6 1.6s-.7 1.6-1.6 1.6zm25 0c-.9 0-1.6-.7-1.6-1.6s.7-1.6 1.6-1.6h6.2c.9 0 1.6.7 1.6 1.6s-.7 1.6-1.6 1.6zm-4.7 50c6 0 10.9 4.9 10.9 10.9v4.7c0 2.6-2.1 4.7-4.7 4.7h-21.9c-2.6 0-4.7-2.1-4.7-4.7v-4.7c0-6 4.9-10.9 10.9-10.9h9.4zm0 3.1h-9.4c-4.3 0-7.8 3.5-7.8 7.8v4.7c0 .9.7 1.6 1.6 1.6h21.9c.9 0 1.6-.7 1.6-1.6v-4.7c0-4.3-3.5-7.8-7.8-7.8z" fill-rule="evenodd"/></svg>