<svg viewBox="0 0 108.6 76.8" xmlns="http://www.w3.org/2000/svg"><path d="m97.5 54.7c-2 0-3.9.6-5.6 1.5l-30-38.1c1.9-2 3-4.6 3-7.4 0-5.9-4.8-10.7-10.7-10.7s-10.7 4.8-10.7 10.7 1.1 5.5 3 7.4l-30 38.1c-1.7-1-3.6-1.5-5.6-1.5-6.1 0-11 4.9-11 11s4.9 11 11 11 11-4.9 11-11-1.2-5.7-3.1-7.7l30-38.1c1.2.7 2.5 1.1 3.9 1.3v33.6c-5.4.7-9.5 5.3-9.5 10.9s5 11 11 11 11-4.9 11-11-4.2-10.2-9.5-10.9v-33.5c1.4-.2 2.7-.6 3.9-1.3l30 38.1c-2 2.1-3.1 4.8-3.1 7.7 0 6.1 4.9 11 11 11s11-4.9 11-11-4.9-11-11-11m-43.2-51.8c4.2 0 7.7 3.5 7.7 7.7s-3.5 7.7-7.7 7.7-7.7-3.5-7.7-7.7 3.5-7.7 7.7-7.7m-43.3 70.8c-4.4 0-8-3.6-8-8s3.6-8 8-8 8 3.6 8 8-3.6 8-8 8m51.3-8.1c0 4.4-3.6 8-8 8s-8-3.6-8-8 3.6-8 8-8 8 3.6 8 8m35.2 8.1c-4.4 0-8-3.6-8-8s3.6-8 8-8 8 3.6 8 8-3.6 8-8 8"/></svg>