<svg viewBox="0 0 97.7 91.4" xmlns="http://www.w3.org/2000/svg"><path d="m15.8 12.8h.7l10.1 2.5h.4c.7 0 1.3-.5 1.5-1.2.2-.8-.3-1.6-1.1-1.8l-6.9-1.7c6.3-4.1 13.5-6.3 21.1-6.3 21.3 0 38.6 17.3 38.4 38.8 0 8.7-2.9 16.9-8.2 23.7-.5.6-.4 1.6.3 2.1.2.2.6.3.9.3s.9-.2 1.2-.6c5.8-7.4 8.8-16.2 8.8-25.6 0-22.9-18.6-41.6-41.6-41.6s-15.2 2.1-21.7 6.1l1.9-5.5c.3-.8 0-1.6-.9-1.9-.8-.3-1.6 0-1.9.9l-3.4 9.9v.3q0 0 .4.8z"/><path d="m97.6 84s0 0 0 0z"/><path d="m41.6 57.9c8.3 0 15-6.7 15-15s-6.7-15-15-15-15 6.7-15 15 6.7 15 15 15zm-11.9-15c0-6.6 5.4-11.9 11.9-11.9s11.9 5.4 11.9 11.9-5.4 11.9-11.9 11.9-11.9-5.3-11.9-11.9z"/><path d="m97.6 82s0-.1-.1-.1h-.1c0-.1-7.4-7.2-7.4-7.2-.6-.6-1.5-.6-2.1 0 0 0 0 0-.1.1-.6.6-.6 1.5 0 2.1 0 0 0 0 .1.1l4.8 4.6h-51c-21.3 0-38.6-17.3-38.6-38.6s2.8-16.9 8.2-23.7c.5-.7.4-1.6-.3-2.1s-1.6-.4-2.1.3c-5.9 7.1-8.9 16-8.9 25.4s4.3 21.6 12.2 29.4c7.9 7.9 18.3 12.2 29.4 12.2h50.7l-4.8 4.2c-.6.6-.7 1.5-.1 2.2.3.3.7.5 1.2.5s.7-.1 1-.4l7.9-6.9s0-.1 0-.2h.1v-1.8s0-.1-.1-.1z"/><path d="m12.2 48.4c.1.6.5 1.1 1 1.3l4.8 1.3c.3.9.7 1.8 1.1 2.7l-2.4 4.3c-.3.6-.3 1.2.1 1.7 2.6 3.4 4.5 5.3 7.9 7.9.5.4 1.2.4 1.7.1l4.3-2.4c.9.4 1.8.8 2.7 1.1l1.3 4.8c.2.6.7 1 1.3 1.1 2.2.3 3.9.4 5.6.4s3.4 0 5.6-.4c.6-.1 1.1-.5 1.3-1.1l1.3-4.8c.9-.3 1.8-.7 2.7-1.1l4.3 2.4c.6.3 1.2.3 1.7-.1 3.4-2.6 5.3-4.6 7.9-7.9.4-.5.4-1.2.1-1.7l-2.4-4.3c.4-.9.8-1.8 1.1-2.7l4.8-1.3c.6-.2 1-.7 1.1-1.3.6-4.3.6-6.7 0-11.1-.1-.6-.5-1.1-1.1-1.3l-4.8-1.3c-.3-.9-.7-1.8-1.1-2.7l2.4-4.3c.3-.5.3-1.2-.1-1.7-2.6-3.4-4.6-5.4-7.9-7.9-.5-.4-1.2-.4-1.7-.1l-4.3 2.4c-.9-.4-1.8-.8-2.7-1.1l-1.3-4.8c-.2-.6-.7-1-1.3-1.1-4.2-.6-6.9-.6-11.1 0-.6.1-1.1.5-1.3 1.1l-1.3 4.8c-.9.3-1.8.7-2.7 1.1l-4.3-2.4c-.6-.3-1.2-.3-1.7.1-3.4 2.6-5.3 4.5-7.9 7.9-.4.5-.4 1.2-.1 1.7l2.4 4.3c-.4.9-.8 1.8-1.1 2.7l-4.8 1.3c-.6.2-1 .7-1.1 1.3-.6 4.3-.6 6.7 0 11.1zm2.6-9.8 4.6-1.3c.6-.1.9-.5 1.1-1 .4-1.3 1-2.6 1.6-3.8.3-.5.3-1 0-1.5l-2.3-4.1c1.9-2.5 3.4-4 5.9-5.9l4.1 2.3c.5.2 1 .2 1.5 0 1.3-.7 2.5-1.2 3.8-1.6.5-.2.9-.6 1-1.1l1.3-4.6c3-.4 5.2-.4 8.3 0l1.3 4.6c.1.5.5.9 1 1.1 1.3.4 2.6 1 3.8 1.6.5.3 1 .3 1.5 0l4.1-2.3c2.4 1.9 4 3.5 5.9 5.9l-2.3 4.1c-.2.5-.2 1 0 1.5.7 1.2 1.2 2.5 1.6 3.8.2.5.6.9 1.1 1l4.6 1.3c.4 3.1.4 5.1 0 8.3l-4.6 1.3c-.5.1-.9.5-1.1 1-.4 1.4-1 2.6-1.6 3.8-.3.5-.3 1 0 1.5l2.6 4.2c-1.9 2.4-3.5 4-5.9 5.9l-4.1-2.3c-.5-.2-1-.2-1.5 0-1.2.7-2.5 1.2-3.8 1.6-.5.2-.9.6-1 1.1l-1.3 4.6c-3.1.4-5.1.4-8.3 0l-1.3-4.6c-.1-.5-.5-.9-1-1.1-1.3-.4-2.6-1-3.8-1.6-.5-.3-1-.3-1.5 0l-4.1 2.3c-2.5-1.9-4-3.4-5.9-5.9l2.3-4.1c.2-.5.2-1 0-1.5-.7-1.2-1.2-2.5-1.6-3.8-.2-.5-.6-.9-1.1-1l-4-1.1-.6-.2c-.4-3.1-.4-5.2-.3-8.4z"/></svg>