<svg class="fill-current h-8 w-8" viewBox="-5 -10 87.417313 94.727936" xmlns="http://www.w3.org/2000/svg"><path d="m35.101457 8.3875355h7.1953c.46484 0 .91016.1875 1.2383.51562.03125.03125.0625.06641.08984.10547.27344.31641.42188.71875.42188 1.1328005v4.7695c1.6523.44922 3.2383 1.1055 4.7227 1.957l3.3672-3.3672c.68359-.68359 1.793-.68359 2.4727 0l5.0859 5.0859c.32812.32812.51562.77344.51562 1.2344 0 .46484-.1875.91016-.51562 1.2383l-3.3672 3.3672c.85156 1.4844 1.5078 3.0703 1.957 4.7227h4.7695c.96484.0039 1.75.78516 1.75 1.7539v2.4844h9.0078c3.5273 0 6.3867-2.8633 6.3828-6.3906 0-3.5273-2.8633-6.3867-6.3906-6.3867-.34766 0-.67188-.16406-.88281-.44141-.20703-.27734-.27344-.63672-.17969-.97266.12109-.41016.21094-.82812.26953-1.2539.0625-.42578.08984-.85156.08984-1.2812 0-3.8867-2.4922-7.3359005-6.1836-8.5508005-3.6914-1.2148-7.7461.07812-10.055 3.2070005-.16406.25781-.42969.43359-.73047.48828s-.61328-.01563-.85938-.19922c-.24609-.18359-.40625-.46094-.4375-.76562-.03516-.30469.05859-.60938.25781-.83984.92578-1.2578005 2.1094-2.3086005 3.4648-3.0820005-.26953-5.043-2.9766-9.6406-7.2539-12.324-4.2812-2.6797-9.5938-3.1172-14.254-1.1641-4.6562 1.9492-8.0742 6.04300003-9.1641 10.977 1.1641 1.043 2.1562 2.2578 2.9531 3.6016.3125.52734.13672 1.207-.39062 1.5195s-1.207.13672-1.5156-.39062c-3.1758-5.3438-9.6719-7.7227-15.547-5.6914-5.875 2.0352-9.5117 7.9141005-8.707 14.0780005.07422.55078.18359 1.0977.32812 1.6367.10938.33594.05078.70703-.15625.99609-.20703.28516-.54297.45703-.89844.46094h-.37109.0039c-3.53120001 0-6.3906 2.8594-6.3906 6.3867s2.85939999 6.3867 6.3906 6.3867h9.0039v-2.4883c.0039-.96484.78516-1.7422 1.75-1.7461h4.7695c.44531-1.6523 1.1055-3.2383 1.957-4.7227l-3.3672-3.3672h-.0039c-.32812-.32812-.51172-.77344-.51172-1.2383 0-.46484.18359-.91016.51172-1.2383l5.0898-5.0898c.68359-.67969 1.7891-.67969 2.4727 0l3.3711 3.3711c1.4844-.85156 3.0703-1.5078 4.7227-1.957v-4.7695c0-.4648405.18359-.9062505.51172-1.2344005l.0078-.0078c.32812-.32422.76953-.50781 1.2305-.51172zm3.5977 17.9770005c3.8828 0 7.2227 2.7422 7.9805 6.5469.75781 3.8086-1.2773 7.6211-4.8672 9.1094-3.5859 1.4844-7.7227.23047-9.8789-2.9961-2.1562-3.2305-1.7344-7.5312 1.0117-10.277 1.5234-1.5273 3.5938-2.3867 5.7539-2.3828zm4.1836 3.9531c2 1.9922 2.3086 5.125.73828 7.4727-1.5664 2.3477-4.5742 3.2617-7.1836 2.1836-2.6094-1.082-4.0938-3.8555-3.543-6.625.55078-2.7695 2.9805-4.7656 5.8047-4.7656 1.5703 0 3.0742.62109 4.1836 1.7344zm17.82-24.3440005v-.0039c3.4141-1.0859 7.1367-.48047 10.027 1.6328 2.8906 2.1094 4.6016 5.4766005 4.6016 9.0547005 0 .53516-.03906 1.0703-.11719 1.5977-.01172.08203-.02344.16406-.03906.24609 4.4297.71484 7.5703 4.7109 7.2148 9.1836-.35547 4.4727-4.0859 7.9219-8.5703 7.9258h-9.0078v2.4883c0 .96484-.78516 1.75-1.7539 1.75h-4.7695.0039c-.44922 1.6523-1.1094 3.2383-1.9609 4.7227l3.3711 3.3711c.32812.32422.51172.76953.51172 1.2344s-.18359.91016-.51172 1.2383l-5.0859 5.0859c-.68359.68359-1.793.68359-2.4766 0l-3.3711-3.3711c-1.4844.85156-3.0703 1.5117-4.7227 1.9609v4.7695-.0039c0 .46484-.18359.91016-.51172 1.2383-.03516.03516-.07031.06641-.10547.09375-.31641.26953-.71875.42188-1.1328.42188h-7.1953c-.96484-.0039-1.75-.78516-1.75-1.7539v-4.7695.0039c-1.6523-.44922-3.2383-1.1094-4.7227-1.9609l-3.3711 3.3711c-.32422.32813-.76953.51172-1.2344.51172-.46484 0-.91016-.18359-1.2344-.51172l-5.0977-5.082c-.32813-.32422-.51172-.76953-.51172-1.2344s.18359-.91016.51172-1.2383l3.375-3.3672c-.85156-1.4844-1.5117-3.0742-1.9609-4.7266h-4.7695.0039c-.46484 0-.91016-.18359-1.2383-.51172-.03125-.03516-.0625-.07031-.08984-.10547h-.0039c-.26953-.31641-.41797-.71875-.42188-1.1328v-2.4922h-9.0039c-4.55080001-.01172-8.3047-3.5664-8.5664-8.1094-.26562-4.543 3.0508-8.5078 7.5703-9.0469-.03906-.21094-.07031-.42578-.09766-.64453-.50781-3.7891.42188-7.6289 2.6016-10.7660005 2.1836-3.1367 5.457-5.3438 9.1875-6.18749997 3.7266-.84375 7.6328-.26562 10.953 1.62889997.25.14453.49609.29297.73828.44922 1.5078-5.3477 5.4297-9.6797 10.598-11.707 5.1719-2.0311995 10.992-1.5194995 15.734 1.375 4.7383 2.8945 7.8516 7.84380003 8.4062 13.371zm8.4219 65.1840005c-2.2891 0-4.2734 1.5781-4.7891 3.8047h-9.7344c-.14844 0-.26953-.12109-.27344-.27344v-16.195c0-.61328-.49609-1.1133-1.1094-1.1133s-1.1094.5-1.1094 1.1133v16.195c0 1.3789 1.1172 2.4961 2.4922 2.4961h9.7344c.42578 1.8398 1.8672 3.2695 3.707 3.6875 1.8438.41406 3.7578-.26172 4.9336-1.7383 1.1758-1.4766 1.3984-3.4961.57812-5.1953-.82031-1.6992-2.5391-2.7812-4.4258-2.7812zm1.9062 3.0078c.91016.91016 1.0508 2.3359.33594 3.4062-.71484 1.0664-2.0859 1.4844-3.2734.99219-1.1875-.49219-1.8633-1.7539-1.6133-3.0156.25391-1.2617 1.3594-2.1719 2.6445-2.1719.71484 0 1.4023.28516 1.9062.78906zm-23.961-1.1016v-13c.0078-.30078-.10547-.59375-.3125-.80859-.21094-.21484-.5-.33594-.80078-.33594-.29687 0-.58594.12109-.79687.33594-.20703.21484-.32031.50781-.3125.80859v13c-.0078.30078.10547.59375.3125.80859.21094.21484.5.33594.79687.33594.30078 0 .58984-.12109.80078-.33594.20703-.21484.32031-.50781.3125-.80859zm-14.52 0v-13c.0078-.30078-.10547-.59375-.3125-.80859-.21094-.21484-.5-.33594-.79687-.33594-.30078 0-.58984.12109-.80078.33594-.20703.21484-.32031.50781-.3125.80859v13c-.0078.30078.10547.59375.3125.80859.21094.21484.5.33594.80078.33594.29687 0 .58594-.12109.79687-.33594.20703-.21484.32031-.50781.3125-.80859zm5.0391 1.9648v-11.977c0-.61328.49609-1.1094 1.1094-1.1094s1.1094.49609 1.1094 1.1094v11.977c2.4336.56641 4.0547 2.8633 3.7695 5.3438-.28125 2.4805-2.3828 4.3555-4.8789 4.3555s-4.5977-1.875-4.8789-4.3555c-.28516-2.4805 1.3359-4.7773 3.7695-5.3438zm1.1094 2.0938c-1.2852.0039-2.3945.91016-2.6445 2.1719s.42578 2.5234 1.6133 3.0156c1.1875.49219 2.5586.07813 3.2734-.99219.71484-1.0703.57422-2.4961-.33594-3.4023-.50391-.50781-1.1914-.79297-1.9062-.79297zm-30.43-3.7461c-1.2852.0039-2.3906.91016-2.6406 2.1719-.25 1.2617.42578 2.5234 1.6133 3.0156 1.1875.49219 2.5586.07813 3.2734-.99219.71094-1.0703.57031-2.4961-.33594-3.4023-.50781-.50781-1.1953-.79297-1.9102-.79297zm-3.4727-.78125v.0039c-1.0898 1.0898-1.6016 2.6289-1.3867 4.1562.21484 1.5273 1.1328 2.8672 2.4805 3.6133 1.3516.75 2.9727.82031 4.3789.19531 1.4102-.625 2.4453-1.8789 2.7969-3.3789h9.7344-.0039c1.3789 0 2.4961-1.1172 2.4961-2.4961v-16.195c0-.61328-.49609-1.1133-1.1094-1.1133s-1.1133.5-1.1133 1.1133v16.195c0 .15234-.12109.27344-.27344.27734h-9.7344c-.40234-1.7422-1.7188-3.125-3.4375-3.6172-1.7188-.49219-3.5664-.01563-4.8281 1.25zm33.902-52.207c6.7344-.0039 12.535 4.75 13.852 11.355 1.3164 6.6016-2.2148 13.219-8.4336 15.801-6.2227 2.5781-13.398.40625-17.145-5.1914-3.7461-5.5977-3.0117-13.062 1.7461-17.828 2.6445-2.6523 6.2344-4.1406 9.9805-4.1367zm8.4102 5.7031c4.0117 4.0117 4.6328 10.301 1.4805 15.02s-9.1992 6.5508-14.441 4.3828c-5.2422-2.1719-8.2227-7.7461-7.1133-13.312 1.1055-5.5664 5.9883-9.5742 11.664-9.5742 3.1562-.0039 6.1836 1.25 8.4102 3.4844zm-5.2812-15.48v5.1641c0 .55078.40234 1.0156.94531 1.0977 1.9766.45703 3.8633 1.2422 5.5781 2.3281.4375.27344 1.0039.20703 1.3711-.15234l3.6523-3.6523 4.4219 4.4219-3.6445 3.6562c-.38672.39062-.43359 1.0039-.10547 1.4453 1.0742 1.7227 1.8555 3.6094 2.3047 5.5898.11328.50391.55859.86328 1.0781.86328h5.1641v6.2539l-5.168.0039c-.54687 0-1.0156.40234-1.0977.94531-.45703 1.9766-1.2422 3.8633-2.3281 5.5781-.27344.4375-.20703 1.0039.15234 1.3711l3.6523 3.6523-4.4219 4.4219-3.6523-3.6523v-.0039c-.38672-.38672-1.0039-.43359-1.4453-.10547-.84766.53125-1.7383.98828-2.6641 1.3711-.94531.39062-1.9258.70312-2.9258.92969-.50391.11328-.86328.5625-.86328 1.0781v5.1641h-6.2617v-5.1523c0-.54688-.40234-1.0156-.94531-1.0977-1.9766-.45703-3.8633-1.2422-5.5781-2.3281-.4375-.27344-1.0039-.20703-1.3711.15625l-3.6523 3.6523-4.4219-4.4219 3.6523-3.6523h.0039c.38672-.39062.42969-1.0039.10156-1.4453-1.0742-1.7227-1.8516-3.6133-2.3008-5.5898-.11328-.50391-.5625-.86328-1.0781-.86328h-5.1758v-6.2656h5.1562c.55078 0 1.0195-.40234 1.1016-.94531.45703-1.9766 1.2422-3.8633 2.3281-5.5781.27344-.4375.20703-1.0039-.15625-1.3711l-3.6523-3.6523 4.4219-4.4219 3.6523 3.6523v.0039c.39062.38672 1.0039.42969 1.4453.10156 1.7227-1.0742 3.6094-1.8516 5.5898-2.3008.50391-.11328.86328-.5625.86328-1.0781v-5.1719z" fill-rule="evenodd"/></svg>
