<svg viewBox="-5 -10 86.027649 89.453217" xmlns="http://www.w3.org/2000/svg"><g fill-rule="evenodd"><path d="m13.465087 26.52812c-.53906 0-.97656-.4375-.97656-.97656v-8.9219c0-3.457 2.8125-6.2695 6.2695-6.2695h.86719c.53906 0 .97656.4375.97656.97656s-.4375.97656-.97656.97656h-.86719c-2.3789 0-4.3164 1.9375-4.3164 4.3164v8.9219c0 .53906-.4375.97656-.97656.97656zm61.293 34.402h-55.996c-3.457 0-6.2695-2.8125-6.2695-6.2695v-3.4609c0-.53906.4375-.97656.97656-.97656s.97656.4375.97656.97656v3.4609c0 2.3789 1.9375 4.3164 4.3164 4.3164h55.996c2.3789 0 4.3164-1.9375 4.3164-4.3164v-38.027c0-2.3789-1.9375-4.3164-4.3164-4.3164h-.86719c-.53906 0-.97656-.4375-.97656-.97656s.4375-.97656.97656-.97656h.86719c3.457 0 6.2695 2.8125 6.2695 6.2695v38.027c0 3.457-2.8125 6.2695-6.2695 6.2695z"/><path d="m80.051087 51.66412h-56.641c-.53906 0-.97656-.4375-.97656-.97656s.4375-.97656.97656-.97656h56.641c.53906 0 .97656.4375.97656.97656s-.4375.97656-.97656.97656z"/><path d="m39.039087 68.86812c-.53906 0-.97656-.4375-.97656-.97656v-7.9414c0-.53906.4375-.97656.97656-.97656s.97656.4375.97656.97656v7.9375c0 .53906-.4375.97656-.97656.97656zm15.438 0c-.53906 0-.97656-.4375-.97656-.97656v-7.9414c0-.53906.4375-.97656.97656-.97656s.97656.4375.97656.97656v7.9375c0 .53906-.4375.97656-.97656.97656z"/><path d="m32.957087 77.50012h27.598v-4.293l-6.3828-4.3359h-14.836l-6.3828 4.3359v4.293zm28.574 1.9531h-29.551c-.53906 0-.97656-.4375-.97656-.97656v-5.7891c0-.32422.16016-.625.42578-.80859l7.0586-4.7969c.16016-.10938.35156-.16797.55078-.16797h15.438c.19531 0 .38672.05859.55078.16797l7.0586 4.7969c.26953.17969.42578.48438.42578.80859v5.7891c0 .53906-.4375.97656-.97656.97656z"/><path d="m69.574087 40.62912h-40.57c-.53906 0-.97656-.4375-.97656-.97656s.4375-.97656.97656-.97656h40.57c1.8398 0 3.3359-1.4961 3.3359-3.3359v-40.051c0-1.8398-1.4961-3.3359-3.3359-3.3359h-45.633c-1.8398 0-3.3359 1.4961-3.3359 3.3359v28.137c0 .53906-.4375.97656-.97656.97656s-.97656-.4375-.97656-.97656v-28.137c0-2.918 2.375-5.2891 5.2891-5.2891h45.633c2.918 0 5.2891 2.375 5.2891 5.293v40.051c0 2.918-2.375 5.293-5.2891 5.293z"/><path d="m73.887087 2.91112h-54.262c-.53906 0-.97656-.4375-.97656-.97656s.4375-.97656.97656-.97656h54.262c.53906 0 .97656.4375.97656.97656s-.4375.97656-.97656.97656z"/><path d="m26.461087-2.56988h-1.9688c-.53906 0-.97656-.4375-.97656-.97656s.4375-.97656.97656-.97656h1.9688c.53906 0 .97656.4375.97656.97656s-.4375.97656-.97656.97656z"/><path d="m32.188087-2.56988h-1.9688c-.53906 0-.97656-.4375-.97656-.97656s.4375-.97656.97656-.97656h1.9688c.53906 0 .97656.4375.97656.97656s-.4375.97656-.97656.97656z"/><path d="m37.914087-2.56988h-1.9648c-.53906 0-.97656-.4375-.97656-.97656s.4375-.97656.97656-.97656h1.9648c.53906 0 .97656.4375.97656.97656s-.4375.97656-.97656.97656z"/><path d="m43.641087-2.56988h-1.9648c-.53906 0-.97656-.4375-.97656-.97656s.4375-.97656.97656-.97656h1.9688c.53906 0 .97656.4375.97656.97656s-.4375.97656-.97656.97656z"/><path d="m49.371087-2.56988h-1.9688c-.53906 0-.97656-.4375-.97656-.97656s.4375-.97656.97656-.97656h1.9688c.53906 0 .97656.4375.97656.97656s-.4375.97656-.97656.97656z"/><path d="m42.055087 13.25012h-9.5508c-.53906 0-.97656-.4375-.97656-.97656s.4375-.97656.97656-.97656h9.5508c.53906 0 .97656.4375.97656.97656s-.4375.97656-.97656.97656z"/><path d="m42.055087 18.12512h-9.5508c-.53906 0-.97656-.4375-.97656-.97656s.4375-.97656.97656-.97656h9.5508c.53906 0 .97656.4375.97656.97656s-.4375.97656-.97656.97656z"/><path d="m67.582087 23.77412h-35.082c-.53906 0-.97656-.4375-.97656-.97656s.4375-.97656.97656-.97656h35.082c.53906 0 .97656.4375.97656.97656s-.4375.97656-.97656.97656z"/><path d="m67.582087 29.05912h-35.082c-.53906 0-.97656-.4375-.97656-.97656s.4375-.97656.97656-.97656h35.082c.53906 0 .97656.4375.97656.97656s-.4375.97656-.97656.97656z"/><path d="m67.582087 34.34412h-35.082c-.53906 0-.97656-.4375-.97656-.97656s.4375-.97656.97656-.97656h35.082c.53906 0 .97656.4375.97656.97656s-.4375.97656-.97656.97656z"/><path d="m54.492087 17.15712c-.23828 0-.48047-.08594-.66797-.26562l-3.6836-3.4648c-.19531-.18359-.30859-.44141-.30859-.71094s.10938-.52734.30859-.71094l3.6836-3.4648c.39453-.37109 1.0117-.35156 1.3789.04297.37109.39453.35156 1.0117-.04297 1.3789l-2.9258 2.7539 2.9258 2.7539c.39453.37109.41016.98828.04297 1.3789-.19141.20312-.45312.30859-.71094.30859z"/><path d="m63.903087 17.15712c-.26172 0-.51953-.10156-.71094-.30859-.37109-.39453-.35156-1.0117.04297-1.3789l2.9258-2.7539-2.9258-2.7539c-.39453-.37109-.41016-.98828-.04297-1.3789.37109-.39453.98828-.41016 1.3789-.04297l3.6836 3.4648c.19531.18359.30859.44141.30859.71094s-.10938.52734-.30859.71094l-3.6836 3.4648c-.1875.17578-.42969.26562-.66797.26562z"/><path d="m58.078087 19.07112c-.07422 0-.15234-.0078-.22656-.02734-.52344-.125-.84766-.65234-.72266-1.1758l2.543-10.695c.125-.52344.65234-.84766 1.1758-.72266.52344.125.84766.65234.72266 1.1758l-2.543 10.695c-.10547.44922-.50781.75-.94922.75z"/><path d="m28.719087 13.25012h-2.7852c-.53906 0-.97656-.4375-.97656-.97656s.4375-.97656.97656-.97656h2.7852c.53906 0 .97656.4375.97656.97656s-.4375.97656-.97656.97656z"/><path d="m28.719087 18.12512h-2.7852c-.53906 0-.97656-.4375-.97656-.97656s.4375-.97656.97656-.97656h2.7852c.53906 0 .97656.4375.97656.97656s-.4375.97656-.97656.97656z"/><path d="m28.719087 8.37512h-2.7852c-.53906 0-.97656-.4375-.97656-.97656s.4375-.97656.97656-.97656h2.7852c.53906 0 .97656.4375.97656.97656s-.4375.97656-.97656.97656z"/><path d="m42.055087 8.37512h-9.5508c-.53906 0-.97656-.4375-.97656-.97656s.4375-.97656.97656-.97656h9.5508c.53906 0 .97656.4375.97656.97656s-.4375.97656-.97656.97656z"/><path d="m12.489087 33.09412c-2.9102 0-5.2773 2.3672-5.2773 5.2773 0 2.9102 2.3672 5.2773 5.2773 5.2773 2.9102 0 5.2773-2.3672 5.2773-5.2773 0-2.9102-2.3672-5.2773-5.2773-5.2773zm0 12.504c-3.9844 0-7.2305-3.2422-7.2305-7.2305 0-3.9844 3.2422-7.2305 7.2305-7.2305 3.9844 0 7.2305 3.2422 7.2305 7.2305 0 3.9844-3.2422 7.2305-7.2305 7.2305z"/><path d="m11.078087 25.58612h.0039zm3.043 24.578c1.0195 0 1.9453.53125 2.4648 1.4336l.5625.97266c.25.43359.80859.58594 1.2461.33203l3.7305-2.1523c.43359-.25.58594-.80859.33203-1.2461l-.5625-.97266c-.57812-1-.51172-2.1953.17188-3.125.51562-.69922.95312-1.4609 1.3008-2.2578.46484-1.0586 1.4688-1.7148 2.625-1.7148h1.125c.50391 0 .91016-.41016.91016-.91016v-4.3047c0-.50391-.41016-.91016-.91016-.91016h-1.125c-1.1523 0-2.1562-.65625-2.6211-1.7109-.17578-.39453-.375-.78906-.58984-1.168-.21875-.37891-.45703-.74609-.71484-1.0977-.67969-.92969-.74609-2.125-.17188-3.125l.5625-.97266c.25-.43359.10156-.99219-.33203-1.2461l-3.7305-2.1523c-.21094-.12109-.45312-.15234-.69141-.08984-.23438.0625-.43359.21484-.55469.42187l-.5625.97656c-.57812 1-1.6484 1.543-2.7969 1.4141-.86719-.09766-1.7422-.09766-2.6055 0-1.1445.125-2.2148-.41797-2.793-1.4141l-.5625-.97266c-.12109-.21094-.31641-.35938-.55469-.42188-.23438-.0625-.48047-.03125-.69141.08984l-3.7305 2.1523c-.43359.25-.58594.80859-.33203 1.2461l.5625.97266c.57813 1 .51172 2.1953-.17187 3.125-.51563.69922-.95313 1.4609-1.3008 2.2578-.46484 1.0586-1.4688 1.7148-2.625 1.7148h-1.125c-.50391 0-.91016.41016-.91016.91016v4.3086c0 .50391.41016.91016.91016.91016h1.125c1.1523 0 2.1562.65625 2.6211 1.7109.17578.39453.375.78906.59375 1.168.21875.375.45703.74609.71484 1.0977.67969.92969.74609 2.125.17188 3.125l-.5625.97266c-.12109.21094-.15234.45703-.08984.69141s.21484.43359.42188.55469l3.7305 2.1523c.43359.25.99219.10156 1.2461-.33203l.5625-.97656c.57813-1 1.6484-1.543 2.7969-1.4141.86719.09766 1.7422.09766 2.6055 0 .10938-.01172.21875-.01953.32812-.01953zm-7.0859 4.8125c-.48438 0-.97656-.125-1.4258-.38281l-3.7305-2.1523c-.66016-.38281-1.1328-1-1.332-1.7383-.19922-.73828-.09766-1.5117.28516-2.1719l.5625-.97266c.1875-.32813.16797-.6875-.05469-.99219-.29688-.40625-.57812-.83594-.83203-1.2734-.25391-.44141-.48438-.89453-.6875-1.3555-.15234-.34766-.45703-.54297-.83203-.54297h-1.125c-1.5781 0-2.8633-1.2852-2.8633-2.8633v-4.3086c0-1.5781 1.2852-2.8633 2.8633-2.8633h1.125c.37891 0 .68359-.19922.83594-.54688.40625-.92969.91797-1.8125 1.5156-2.6289.22266-.30469.24219-.66797.05469-.99609l-.5625-.97266c-.78906-1.3672-.32031-3.1211 1.0469-3.9141l3.7305-2.1523c.66016-.38281 1.4336-.48438 2.1719-.28516s1.3594.67188 1.7383 1.332l.5625.97266c.1875.32813.51563.49219.88672.44922 1.0039-.10938 2.0273-.10938 3.0352.0039.375.04297.69922-.12109.89062-.44922l.5625-.97656c.38281-.66016 1-1.1367 1.7383-1.332.73828-.19922 1.5117-.09766 2.1719.28516l3.7305 2.1523c1.3672.78906 1.8398 2.543 1.0469 3.9141l-.5625.97266c-.1875.32812-.16797.69141.05469.99609.29688.40625.57812.83594.83203 1.2734.25391.4375.48438.89453.6875 1.3555.15234.34375.45703.54297.83203.54297h1.125c1.5781 0 2.8633 1.2852 2.8633 2.8633v4.3086c0 1.5781-1.2852 2.8633-2.8633 2.8633h-1.125c-.37891 0-.68359.19922-.83594.54688-.40625.92969-.91797 1.8125-1.5156 2.6289-.22266.30469-.24219.66797-.05469.99609l.5625.97266c.78906 1.3672.32031 3.125-1.0469 3.9141l-3.7305 2.1523c-1.3672.78906-3.1211.32031-3.9141-1.0469l-.5625-.97266c-.1875-.32812-.51562-.49219-.88672-.44922-1.0039.10938-2.0273.10938-3.0352-.0039-.375-.04297-.69922.12109-.89062.44922l-.5625.97656c-.53125.91797-1.4961 1.4297-2.4844 1.4297z"/></g></svg>