<svg viewBox="0 0 90 69.3" xmlns="http://www.w3.org/2000/svg"><path d="m89 34.7-7.4-15.3c-1.4-2.7-3-5.8-4.2-8.6.7 0 1.8.2 2.3-.3s.6-1.3 0-1.8c-.7-.7-3.6-.4-4.6-.4h-18.2c-1.9 0-3.8 0-5.7 0-1.4-2.5-2.2-4-5.1-4.7 0-1.5.5-3.8-1.7-3.5-1.2.7-.9 2.4-.9 3.5-2.6.7-4.1 2.3-4.9 4.7-1.5 0-3 0-4.5 0h-18.3c-1.1 0-5.1-.3-5.9.3-.6.5-.5 1.3 0 1.8.6.6 1.6.4 2.4.3-.4 1.2-1 2.4-1.6 3.5l-6.7 13.9c-.4 1.2-3.9 7.9-4 8.8-.2 1.6.7 4.2 1.4 5.7 5.7 11.7 22.8 10.5 27-2 .5-1.5 1.1-3 .3-4.4l-12.4-25.4h22.3c.3 1.7 1.1 2.9 2.4 4.1v4.1 40.7h-4c-.8 0-1.7 0-2.5 0-4.3.4-7.9 4-7.8 8.4 0 .5.2.9.6 1.3h2.3 15.5s14.3 0 14.3 0c1.5 0 3.3.3 3.3-1.8s-1-4.2-2.5-5.6c-3.1-3-7.4-2.1-11.3-2.2v-40c0-1.6 0-3.3 0-4.9 1.5-1.8 1.7-1.8 2.4-4.1h22.1c-.3.7-.6 1.3-.9 2l-10.7 21.8c-1.7 3.4-1.6 4.3.4 8.2 5.9 11.6 23.1 10.5 27.1-2.2.9-2.9.8-3.4-.4-5.8zm-65.9 10c-6.9 7-19.3 2.9-20.5-6.5h24c-.5 2.5-1.7 4.7-3.5 6.5zm2.8-9h-22.7c.3-.8.7-1.5 1.1-2.3l7.2-15c1-2 2-4 2.9-6 .4.4 10.3 20.9 11.5 23.4zm18.8-29.8c5-.5 5.4 7.4.7 7.7-5.5.1-5.8-7-.7-7.7zm-1.1 48.9v-38.8h2.8v43.6h-2.8c0-1.6 0-3.2 0-4.8zm7.7 7.3c4.4 0 7.7-.4 9 4.9h-22.3c-2.8 0-5.7 0-8.6 0 .6-2.6 2.7-4.4 5.4-4.9h2.5zm14.1-29c2.9-6.1 6-12.2 9-18.3.4-.8.7-1.6 1.2-2.3.2.2.5 1.2.7 1.6l2.8 5.8c1.8 3.8 3.7 7.6 5.5 11.4.7 1.5 1.5 2.9 2.1 4.4h-11.2c-3.8 0-7.6 0-11.4 0 .4-.9.8-1.7 1.2-2.6zm18.5 11.8c-6.8 7-18.8 2.9-20.6-6.7h21.3 2.7c-.4 2.6-1.6 4.8-3.4 6.7z"/></svg>