<svg xmlns="http://www.w3.org/2000/svg" viewBox="-5 -10 88.26 92.174"><path fill-rule="evenodd" d="M5.36 11.01 33.251-2.945c-1.043-5.746 5.985-9.418 10.105-5.297a5.97 5.97 0 0 1 1.653 5.297l27.89 13.953a5.96 5.96 0 0 1 4.383-1.914c2.692 0 4.184 1.75 4.227 1.75 3.246 3.246 1.738 8.696-2.547 9.961v30.562c4.285 1.262 5.79 6.715 2.547 9.961-.04 0-1.531 1.75-4.227 1.75a5.98 5.98 0 0 1-4.382-1.91L45.009 75.118c1.043 5.746-5.985 9.418-10.105 5.297a5.97 5.97 0 0 1-1.653-5.297L5.361 61.165a5.96 5.96 0 0 1-4.384 1.91c-2.69 0-4.183-1.75-4.226-1.75-3.246-3.246-1.738-8.7 2.547-9.96l.004-30.56c-4.282-1.262-5.793-6.715-2.547-9.96.039 0 1.531-1.75 4.226-1.75 1.727 0 3.286.734 4.38 1.913zm1.5 47.163L34.751 72.13q.076-.08.153-.156v-.008a5.97 5.97 0 0 1 8.449 0v.008c.05.05.101.106.152.156L71.4 58.173c-.59-3.265 1.656-5.289 1.656-5.297.7-.699 1.57-1.226 2.547-1.511l-.004-30.56a6 6 0 0 1-2.547-1.51c0-.009-2.246-2.032-1.656-5.298L43.51.044q-.075.082-.152.156v.008a5.97 5.97 0 0 1-8.45 0V.2c-.05-.05-.1-.105-.152-.156L6.86 14.001c.59 3.266-1.656 5.29-1.656 5.297-.7.7-1.57 1.227-2.547 1.512l.004 30.559a6 6 0 0 1 2.547 1.511c-.004.004 2.242 2.028 1.652 5.293m-4.027-2.922h-.004c-2.437-2.437-6.137 1.262-3.7 3.7l-.003.004c2.441 2.433 6.137-1.266 3.707-3.704m-.004-42.027a2.624 2.624 0 0 0-3.703-.003l.004.003c-2.438 2.438 1.262 6.137 3.7 3.7l.003.004a2.624 2.624 0 0 0-.004-3.704m38.152-19.09c-2.437-2.437-6.133 1.262-3.703 3.704l.004-.004a2.62 2.62 0 0 0 3.7 0l.003.004a2.63 2.63 0 0 0-.004-3.704M79.133 13.22c-2.441-2.43-6.137 1.266-3.707 3.707l.004-.003c2.437 2.437 6.137-1.262 3.7-3.7zm-.004 42.027a2.623 2.623 0 0 0-3.699.008l-.004-.004c-2.43 2.442 1.266 6.137 3.707 3.707l-.004-.004a2.625 2.625 0 0 0 0-3.707M40.981 74.341l-.004.004a2.62 2.62 0 0 0-3.699 0l-.004-.004c-2.43 2.442 1.266 6.141 3.703 3.704a2.624 2.624 0 0 0 .004-3.704m-.172-37.223V52.92l16.168-8.09V29.026zM37.45 52.92v-15.8l-16.167-8.09v15.8zM23.342 26.314l15.789 7.903 15.789-7.903-15.79-7.898zm16.535-11.266-.746-.375-21.211 10.613v21.602l21.21 10.613 21.212-10.613V25.286z"/></svg>