<svg class="fill-current h-8 w-8" viewBox="-5 -10 90.001953 86.714439" xmlns="http://www.w3.org/2000/svg"><path d="m81.993571-7.27485h-40.852c-.08984 0-.16797.03125-.22266.082031-.03516.03125-.05469.078125-.05469.12109v28.652c0 .04688.02344.08984.05469.12109.05469.05078.13281.08203.22266.08203h10.48v.0039h.0039c.75.0039 1.3555.61328 1.3516 1.3633l-.03906 5.5781 12.629-6.7266c.21484-.14063.46875-.22266.74609-.22266h15.68c.08984 0 .16797-.03125.22266-.08203.03516-.03125.05469-.07813.05469-.12109l.0039-28.645c0-.046875-.02344-.089844-.05469-.12109-.05469-.050781-.13281-.082031-.22266-.082031zm-76.223 79.496c1.0859 1.0859 2.5859 1.7617 4.2305 1.7617h33.922c1.6445 0 3.1445-.67578 4.2305-1.7617 1.0859-1.0859 1.7617-2.5859 1.7617-4.2305v-22.547c0-1.6445-.67578-3.1445-1.7617-4.2305-1.0859-1.0859-2.5859-1.7617-4.2305-1.7617l-33.926.0039c-1.6445 0-3.1445.67578-4.2305 1.7617-1.0859 1.0859-1.7617 2.5859-1.7617 4.2305v22.547c0 1.6445.67578 3.1445 1.7617 4.2305zm-4.4883-22.398h-.74219c-1.5469 0-2.8086 1.2656-2.8086 2.8086v9.1406c0 .76953.31641 1.4727.82422 1.9844.51172.51172 1.2109.82422 1.9844.82422h.74219zm51.359 14.758h.74219c.76953 0 1.4727-.31641 1.9844-.82422.51172-.51172.82422-1.2109.82422-1.9844v-9.1406c0-.76953-.31641-1.4727-.82422-1.9844-.51172-.51172-1.2109-.82422-1.9844-.82422h-.74219zm-14-27.855v-1.2734c0-.85938-.35156-1.6406-.92188-2.207-.56641-.56641-1.3516-.92188-2.207-.92188h-17.105c-.85938 0-1.6406.35156-2.207.92188-.56641.56641-.92188 1.3516-.92188 2.207v1.2734zm-10.266-17.797c-.36328-.36328-.86328-.58594-1.4141-.58594-.55078 0-1.0547.22266-1.4141.58594s-.58594.86328-.58594 1.4141.22266 1.0547.58594 1.4141c.36328.36328.86328.58594 1.4141.58594.55078 0 1.0547-.22266 1.4141-.58594.35938-.36328.58594-.86328.58594-1.4141s-.22266-1.0547-.58594-1.4141zm-.05078 5.9414v4.7305h7.1875c1.6133 0 3.0742.65625 4.1367 1.7188s1.7188 2.5234 1.7188 4.1367v1.2734h2.5547c2.3984 0 4.5781.98047 6.1602 2.5586 1.5781 1.5781 2.5586 3.7617 2.5586 6.1602v1.6523h.74219c1.5234 0 2.9062.62109 3.9102 1.625 1.0039 1.0039 1.625 2.3867 1.625 3.9102v9.1406c0 1.5234-.62109 2.9062-1.625 3.9102-1.0039 1.0039-2.3867 1.625-3.9102 1.625h-.74219v.68359c0 2.3984-.98047 4.5781-2.5586 6.1602-1.5781 1.5781-3.7617 2.5586-6.1602 2.5586l-33.926-.0039c-2.3984 0-4.5781-.98047-6.1602-2.5586-1.5781-1.5781-2.5586-3.7617-2.5586-6.1602v-.68359h-.74219c-1.5234 0-2.9062-.62109-3.9102-1.625s-1.625-2.3867-1.625-3.9102v-9.1406c0-3.0469 2.4922-5.5352 5.5352-5.5352h.74219v-1.6523c0-2.3984.98047-4.5781 2.5586-6.1602 1.5781-1.5781 3.7617-2.5586 6.1602-2.5586h2.5547v-1.2734c0-1.6133.65625-3.0742 1.7188-4.1367s2.5234-1.7188 4.1367-1.7188h7.1875v-4.7305c-.75781-.22656-1.4336-.64062-1.9805-1.1836-.85547-.85547-1.3867-2.0352-1.3867-3.3438 0-1.3047.52734-2.4883 1.3867-3.3438.85547-.85547 2.0352-1.3867 3.3438-1.3867 1.3047 0 2.4883.52734 3.3438 1.3867.85547.85547 1.3867 2.0352 1.3867 3.3438 0 1.3047-.52734 2.4883-1.3867 3.3438-.54688.54688-1.2227.95703-1.9805 1.1836zm10.852 36.16c.375-.65234 1.207-.87891 1.8594-.50781.65234.375.87891 1.207.50781 1.8594-1.4727 2.5664-3.6055 4.7109-6.1719 6.1953-2.4766 1.4375-5.3516 2.2578-8.4102 2.2578-3.0625 0-5.9336-.82031-8.4102-2.2578-2.5625-1.4844-4.6953-3.6289-6.1719-6.1953-.375-.65234-.14844-1.4844.50781-1.8594.65234-.375 1.4844-.14844 1.8594.50781 1.2344 2.1523 3.0234 3.9492 5.168 5.1953 2.0703 1.1992 4.4766 1.8867 7.0469 1.8867s4.9805-.6875 7.0469-1.8867c2.1445-1.2422 3.9336-3.0391 5.168-5.1953zm-21.082-12.66c.36328.36328.58594.86328.58594 1.4141 0 .55078-.22266 1.0547-.58594 1.4141-.36328.36328-.86328.58594-1.4141.58594-.55078 0-1.0547-.22266-1.4141-.58594-.36328-.36328-.58594-.86328-.58594-1.4141 0-.55078.22266-1.0547.58594-1.4141s.86328-.58594 1.4141-.58594c.55469 0 1.0547.22266 1.4141.58594zm-1.4141-3.3125c1.3047 0 2.4883.52734 3.3438 1.3867.85547.85547 1.3867 2.0352 1.3867 3.3438 0 1.3047-.52734 2.4883-1.3867 3.3438-.85547.85547-2.0352 1.3867-3.3438 1.3867-1.3047 0-2.4883-.52734-3.3438-1.3867-.85547-.85547-1.3867-2.0352-1.3867-3.3438 0-1.3047.52734-2.4883 1.3867-3.3438.85547-.85547 2.0352-1.3867 3.3438-1.3867zm21.973 3.3125c.36328.36328.58594.86328.58594 1.4141 0 .55078-.22266 1.0547-.58594 1.4141-.36328.36328-.86328.58594-1.4141.58594-.55469 0-1.0547-.22266-1.4141-.58594-.36328-.36328-.58594-.86328-.58594-1.4141 0-.55078.22266-1.0547.58594-1.4141s.86328-.58594 1.4141-.58594 1.0547.22266 1.4141.58594zm-1.4141-3.3125c1.3047 0 2.4883.52734 3.3438 1.3867.85547.85547 1.3867 2.0352 1.3867 3.3438 0 1.3047-.52734 2.4883-1.3867 3.3438-.85547.85547-2.0352 1.3867-3.3438 1.3867-1.3047 0-2.4883-.52734-3.3438-1.3867-.85547-.85547-1.3867-2.0352-1.3867-3.3438 0-1.3047.52734-2.4883 1.3867-3.3438.85547-.85547 2.0352-1.3867 3.3438-1.3867zm12.02-40.355c-.75391 0-1.3633-.60938-1.3633-1.3633s.60938-1.3633 1.3633-1.3633h24.617c.75391 0 1.3633.60938 1.3633 1.3633s-.60938 1.3633-1.3633 1.3633zm0 8.582c-.75391 0-1.3633-.60938-1.3633-1.3633s.60938-1.3633 1.3633-1.3633h24.617c.75391 0 1.3633.60938 1.3633 1.3633s-.60938 1.3633-1.3633 1.3633zm-8.1172-23.285h40.852c.8125 0 1.5547.32031 2.0977.83984.5625.53516.91016 1.2773.91016 2.0938v28.652c0 .81641-.34766 1.5586-.91016 2.0938-.54297.51953-1.2852.83984-2.0977.83984h-15.352l-14.438 7.6914c-.66016.35156-1.4844.10156-1.8398-.55859-.11328-.21094-.16406-.44141-.16016-.66406l.04687-6.4648h-9.1094c-.8125 0-1.5547-.32031-2.0977-.83984-.5625-.53516-.91016-1.2773-.91016-2.0938l.0039-28.656c0-.81641.34766-1.5586.91016-2.0938.54297-.51953 1.2852-.83984 2.0977-.83984z" fill-rule="evenodd"/></svg>
