<svg viewBox="-5 -10 65.913765 79.99617" xmlns="http://www.w3.org/2000/svg"><path d="m60.49176 13.195135c-.08984-.52344-.54688-.90625-1.0781-.90625h-3.5469c-.56641-2.2539-1.457-4.4023-2.6562-6.4062l2.5078-2.5078c.375-.375.42578-.96875.12109-1.4023-1.8984-2.6992-4.2227-5.0234-6.9062-6.9023-.43359-.30469-1.0234-.25391-1.4023.12109l-2.5039 2.5039c-2.0039-1.1992-4.1523-2.0938-6.4102-2.6562v-3.5391c0-.53125-.38281-.98438-.90234-1.0781-3.1797-.5625-6.5938-.5625-9.7656 0-.52344.09375-.90234.54688-.90234 1.0781v3.5391c-2.2539.56641-4.4023 1.457-6.4062 2.6562l-2.5078-2.5039c-.375-.375-.96484-.42578-1.4023-.12109-2.6992 1.8906-5.0234 4.2148-6.9023 6.9023-.30469.43359-.25391 1.0234.12109 1.3984l2.5039 2.5078c-1.2031 2.0039-2.0938 4.1523-2.6562 6.4062h-3.5391c-.53125 0-.98438.38281-1.0781.90234-.28125 1.5898-.42578 3.2305-.42578 4.8867 0 1.6523.14453 3.293.42578 4.8828.09375.52344.54688.90234 1.0781.90234h3.5391c.16406.66406.36328 1.3164.58594 1.9609l-10.453.0039c-2.7188 0-4.9297 2.2109-4.9297 4.9297s2.2109 4.9297 4.9297 4.9297h4.6484c.65625 0 1.1914.53516 1.1914 1.1914v5.2617h-2.125c-3.668 0-6.6523 2.9844-6.6523 6.6484v14.559c0 3.668 2.9844 6.6523 6.6523 6.6523h6.4453c3.6641 0 6.6484-2.9844 6.6484-6.6523l-.0078-14.555c0-3.6641-2.9805-6.6484-6.6484-6.6484h-2.1328v-5.2617c0-1.8633-1.5156-3.3789-3.3789-3.3789h-4.6484c-1.5117 0-2.7422-1.2305-2.7422-2.7422s1.2305-2.7422 2.7422-2.7422h11.328c.35547.76953.75391 1.5234 1.1953 2.2578l-2.5039 2.5078c-.375.375-.42578.96484-.12109 1.3984 1.8828 2.6914 4.207 5.0156 6.9023 6.9062.43359.30469 1.0273.25391 1.4023-.12109l2.5078-2.5078c2.0039 1.1992 4.1523 2.0938 6.4062 2.6562v3.5469c0 .53125.38281.98828.90625 1.0781 1.5977.27734 3.2383.41797 4.8828.41797 1.6406 0 3.2812-.14062 4.8789-.41797.52344-.08984.90625-.54688.90625-1.0781v-3.5469c2.2578-.56641 4.4062-1.457 6.4102-2.6562l2.5039 2.5078c.375.375.96875.42969 1.4023.12109 2.6914-1.8906 5.0156-4.2148 6.9062-6.9062.30469-.43359.25391-1.0273-.12109-1.4023l-2.5078-2.5039c1.1992-2.0039 2.0938-4.1523 2.6562-6.4102h3.5469c.53125 0 .98828-.38281 1.0781-.90625.28125-1.6133.42578-3.2539.42578-4.8789.0039-1.625-.14062-3.2695-.42188-4.8828zm-54.262 31.133h1.2578v2.8125h-1.2578zm3.8555 23.484h-6.4453c-2.4609 0-4.4648-2.0039-4.4648-4.4648v-9.0195h15.371v9.0195c0 2.4609-2.0039 4.4648-4.4609 4.4648zm4.4609-19.023v3.3516h-15.371v-3.3516c0-2.4609 2.0039-4.4609 4.4648-4.4609h.40234v3.9062c0 .60547.48828 1.0938 1.0938 1.0938h3.4453c.60547 0 1.0938-.48828 1.0938-1.0938v-3.9062h.40625c2.4609 0 4.4648 2 4.4648 4.4609zm43.93-27.113h-3.4805c-.51562 0-.96484.36328-1.0703.86719-.54688 2.6016-1.5664 5.0547-3.0234 7.2891-.28125.43359-.22266 1.0078.14453 1.3711l2.4609 2.457c-1.457 1.9297-3.1641 3.6367-5.0898 5.0898l-2.457-2.4609c-.36328-.36719-.9375-.42578-1.3711-.14453-2.2383 1.457-4.6914 2.4727-7.2891 3.0234-.50781.10547-.86719.55469-.86719 1.0703v3.4805c-2.3711.32422-4.832.32422-7.1953 0v-3.4805c0-.51562-.36328-.96484-.86719-1.0703-2.5977-.54688-5.0508-1.5664-7.2852-3.0234-.43359-.28125-1.0039-.22266-1.3711.14453l-2.4609 2.4609c-1.9297-1.457-3.6367-3.1641-5.0898-5.0938l2.4609-2.4609c.36328-.36719.42578-.9375.14062-1.3711-.6875-1.0547-1.2773-2.1602-1.7656-3.3047-.0078-.02344-.01953-.04687-.02734-.06641-.53125-1.2578-.94141-2.5664-1.2266-3.9141-.10547-.50781-.55469-.86719-1.0703-.86719h-3.4766c-.16406-1.1797-.24609-2.3828-.24609-3.5977 0-1.2148.08203-2.4219.24609-3.6016h3.4766c.51562 0 .96484-.36328 1.0703-.86719.54688-2.5977 1.5664-5.0508 3.0234-7.2852.28125-.43359.22266-1.0039-.14453-1.3711l-2.4609-2.4609c1.4492-1.9258 3.1562-3.6328 5.0898-5.0898l2.4609 2.457c.36328.36328.9375.42578 1.3711.14453 2.2383-1.457 4.6914-2.4727 7.2852-3.0234.50781-.10547.86719-.55469.86719-1.0703v-3.4766c2.3555-.32813 4.8398-.32813 7.1953 0v3.4766c0 .51562.36328.96484.86719 1.0703 2.6016.55078 5.0547 1.5664 7.2891 3.0234.43359.28125 1.0039.22266 1.3711-.14453l2.457-2.457c1.9219 1.4492 3.6289 3.1562 5.0898 5.0898l-2.4609 2.4609c-.36719.36719-.42578.9375-.14453 1.3711 1.457 2.2383 2.4766 4.6914 3.0234 7.2852.10547.50781.55469.86719 1.0703.86719h3.4805c.16406 1.1953.25 2.4023.25 3.6016 0 1.2031-.08203 2.4062-.25 3.6016zm-25.641-21.129c-9.668 0-17.531 7.8633-17.531 17.531 0 9.6641 7.8633 17.531 17.531 17.531 9.6641 0 17.531-7.8633 17.531-17.531-.0039-9.6641-7.8672-17.531-17.531-17.531zm0 32.875c-8.4609 0-15.344-6.8828-15.344-15.344s6.8828-15.344 15.344-15.344c8.457.0039 15.34 6.8828 15.34 15.344s-6.8828 15.344-15.34 15.344zm4.5664-25.496c-.20312-.20312-.48437-.32031-.77344-.32031h-11.711c-.60547 0-1.0938.48828-1.0938 1.0938v18.758c0 .60547.48828 1.0938 1.0938 1.0938h15.824c.60547 0 1.0938-.48828 1.0938-1.0938l.0039-14.648c0-.28906-.11719-.57031-.32031-.77344zm2.2461 18.438h-13.637v-16.57h10.164l3.4727 3.4688zm-3.6523-13.148c.60547 0 1.0938.48828 1.0938 1.0938 0 .60547-.48828 1.0938-1.0938 1.0938h-6.3281c-.60547 0-1.0938-.48828-1.0938-1.0938 0-.60547.48828-1.0938 1.0938-1.0938zm1.0938 4.8633c0 .60547-.48828 1.0938-1.0938 1.0938l-6.3281.0039c-.60547 0-1.0938-.48828-1.0938-1.0938s.48828-1.0938 1.0938-1.0938h6.3281c.60547-.0039 1.0938.48828 1.0938 1.0898zm0 3.7656c0 .60547-.48828 1.0938-1.0938 1.0938h-6.3281c-.60547 0-1.0938-.48828-1.0938-1.0938s.48828-1.0938 1.0938-1.0938h6.3281c.60547 0 1.0938.48828 1.0938 1.0938z"/></svg>