<svg viewBox="0 0 59.9 60" xmlns="http://www.w3.org/2000/svg"><path d="m39 0h-33c-3.3 0-6 2.7-6 6v47c0 3.9 3.1 7 7 7h32c.6 0 1-.4 1-1v-58c0-.5-.4-1-1-1m-1 58h-31c-2.4 0-4.4-1.7-4.9-4h35.9zm0-6h-35.9c.5-2.3 2.5-4 4.9-4h31zm0-6h-31c-1.9 0-3.7.8-5 2.1v-42.1c0-2.2 1.8-4 4-4h32zm21-3.1c0-.5-.5-.9-1-.9h-1.4l-1-2.1c1.6-.3 2.7-1.9 2.3-3.5-.3-1.4-1.5-2.4-2.9-2.4h-3v-10.5l3.8-2.5c1.4-.9 2.2-2.5 2.2-4.2v-9.7c0-1.7-.8-3.2-2.2-4.2l-4.3-2.7c-.3-.2-.8-.2-1.1 0l-4.2 2.8c-1.4.9-2.2 2.5-2.2 4.2v9.7c0 1.7.8 3.2 2.2 4.2l3.8 2.5v10.5h-3c-1.7 0-3 1.4-3 3 0 1.4 1 2.6 2.4 2.9l-1 2.1h-1.4c-.5 0-1 .4-1 .9l-.9 13.9c0 .8.2 1.6.8 2.2s1.4.9 2.2 1h11.7c.8 0 1.6-.3 2.2-1 .6-.6.9-1.4.8-2.2l-.9-13.9zm-7-40 2.7 1.8c.2.1.3.3.5.4l-3.1 2.1v-4.3zm0 6.6 4-2.7v.2 4.3l-4 2.7v-4.6zm0 7 4-2.7v3c0 1-.5 1.9-1.3 2.5l-2.7 1.8zm-4.7-11.9 2.7-1.8v4.3l-3.1-2.1c.1-.2.3-.3.5-.4m-1.4 2.5v-.2l4 2.7v4.6l-4-2.7v-4.3zm1.3 12.3c-.8-.6-1.3-1.5-1.3-2.5v-3l4 2.7v4.6zm-1.3 17.6c0-.6.4-1 1-1h8c.6 0 1 .4 1 1s-.4 1-1 1h-8c-.6 0-1-.4-1-1m8.4 5h-6.8l1-2h4.8zm3.2 15.7c-.2.2-.5.3-.7.3h-11.7c-.5 0-1-.4-1-1l.8-12.9h12.1l.8 12.9c0 .3 0 .5-.3.8"/><path d="m47 55.9 1-10 2 .2-1 10zm5-9.8 2-.2 1 10-2 .2zm-42-38.1h2v2h-2zm4 0h16v2h-16zm-4 6h20v2h-20zm0 6h20v2h-20zm0 6h20v2h-20zm0 6h20v2h-20zm0 6h20v2h-20z"/><path d="m35 4h-28c-1.7 0-3 1.3-3 3v36c0 .6.4 1 1 1h30c.6 0 1-.4 1-1v-38c0-.6-.4-1-1-1m-1 38h-28v-35c0-.6.4-1 1-1h27z"/></svg>