<svg viewBox="0 0 240.11461 239.92049" xmlns="http://www.w3.org/2000/svg"><path d="m158.7125 115.12049 13.3-14c18.8 8.1 38.2 4.5 52.6-9.799997 15.1-15.1 17.8-41.1 13.9-58.7-.3-1.4-1.3-2.5-2.7-2.9s-2.8 0-3.8 1l-33.4 33.5c-.7.7-1.5 1-2.5 1-.9 0-1.8-.4-2.5-1l-17-17.1c-1.4-1.4-1.4-3.6 0-5l33.6-33.8000001c1-1 1.4-2.4 1-3.8s-1.5-2.4-2.8-2.7c-18-4.2-44.3-1.69999998-59.5 13.5000001-14.4 14.2-17.9 33.8-9.9 52.6l-14.3 13-65.4-65.7c-.6-.6-1.3-.9-2-1.1l-52.7-9.8000001c-1.3-.3-2.6.2-3.6 1.1-.9 1-1.2 2.3-.9 3.6l12.9 49.8000001c.2.7.5 1.3 1 1.8l63.8 64.099997-37.8 31.1c-1.7 1.4-1.9 3.8-.5 5.4.8.9 1.9 1.4 3 1.4.9 0 1.7-.3 2.5-.9l38.3-31.6 29.4 29.6-63.5 68.9c-1.5 1.2-14 9.9-31.1-7.2-16.6-16.8-7.4-28.9-6.2-30.2l12.6-11.3c1.6-1.4 1.7-3.9.3-5.5s-3.9-1.7-5.5-.3l-12.9 11.4c-.1.1-.2.2-.3.3-5.7 6.2-11.8 22.8 6.3 41 9.9 9.9 18.9 12.8 26 12.8 9.6 0 15.7-5.2 15.8-5.3l.3-.3 63.5-68.8 64.9 65.3c6 6.1 14.1 9.4 22.6 9.4s16.6-3.3 22.6-9.4c12.5-12.5 12.5-32.9 0-45.4zm-12.4-43.399997c1.3-1.2 1.6-3 .9-4.6-8.1-16.6-5.4-34 7.1-46.5 8.2-8.2 25.3-15.1000001 45.1-12.6000001l-28.4 28.5000001c-4.4 4.4-4.4 11.5 0 15.9l17 17.1c2.1 2.1 4.9 3.3 8 3.3 3 0 5.8-1.2 8-3.3l28-28.1c2 19.4-4.9 36.2-13 44.3-12.5 12.6-29.8 15.299997-46.3 7.1-1.5-.7-3.3-.4-4.5.8l-15.1 15.799997-23-23.099997zm76.5 153.299997c-4.6 4.6-10.7 7.1-17.1 7.1-6.5 0-12.5-2.5-17.1-7.1l-168.3-169.199997-11.2-42.8 45.5 8.5 168.2 169.099997c9.5 9.4 9.5 24.9 0 34.4z"/><path d="m51.4125 46.720493c-1.5-1.5-4-1.5-5.5 0s-1.5 4 0 5.5l150.1 150.699997c.8.8 1.8 1.1 2.7 1.1 1 0 2-.4 2.7-1.1 1.5-1.5 1.5-4 0-5.5z"/></svg>