<svg viewBox="0 0 84 84" xmlns="http://www.w3.org/2000/svg"><path d="m23 8h-12c-.8 0-1.5.7-1.5 1.5s.7 1.5 1.5 1.5h12c.8 0 1.5-.7 1.5-1.5s-.7-1.5-1.5-1.5z"/><path d="m74.5 0h-65c-5.2 0-9.5 4.3-9.5 9.5v65c0 5.2 4.3 9.5 9.5 9.5h65c5.2 0 9.5-4.3 9.5-9.5v-65c0-5.2-4.3-9.5-9.5-9.5zm6.5 74.5c0 3.6-2.9 6.5-6.5 6.5h-65c-3.6 0-6.5-2.9-6.5-6.5v-55.5h78zm0-58.5h-78v-6.5c0-3.6 2.9-6.5 6.5-6.5h65c3.6 0 6.5 2.9 6.5 6.5z"/><circle cx="53.2" cy="9.5" r="2.4"/><circle cx="63.2" cy="9.5" r="2.4"/><circle cx="73.2" cy="9.5" r="2.4"/><path d="m37.4 57.8h.5c.6 0 1.2-.4 1.4-1l6.7-19.1c.3-.8-.1-1.6-.9-1.9s-1.6.1-1.9.9l-6.7 19.1c-.3.8.1 1.6.9 1.9z"/><path d="m54.3 57.5c.3.3.7.4 1.1.4s.8-.1 1.1-.4l9.6-9.6c.6-.6.6-1.5 0-2.1l-9.6-9.6c-.6-.6-1.5-.6-2.1 0s-.6 1.5 0 2.1l8.6 8.6-8.6 8.6c-.6.6-.6 1.5 0 2.1z"/><path d="m27.5 57.5c.3.3.7.4 1.1.4s.8-.1 1.1-.4c.6-.6.6-1.5 0-2.1l-8.6-8.6 8.6-8.6c.6-.6.6-1.5 0-2.1s-1.5-.6-2.1 0l-9.6 9.6c-.6.6-.6 1.5 0 2.1l9.6 9.6z"/></svg>