<svg viewBox="0 0 80.6 37.8" xmlns="http://www.w3.org/2000/svg"><path d="m3.6 22.1c1.6 0 3-1.1 3.4-2.6h10.1c.2.1.4.2.6.2s.4 0 .6-.2h35v2c0 .6.5 1 1.1 1s1-.5 1-1v-2h14.6l-1 2.4 8.1-3.4-8.1-3.4.9 2.1h-27.3c0-.1.1-.3.1-.5v-2.3c0-.6-.5-1-1.1-1s-1 .5-1 1v2.3c0 .2 0 .3.1.5h-10.4v-2.2c0-.6-.5-1-1.1-1s-1 .5-1 1v2.2h-9.4v-.9c0-.6-.5-1-1.1-1s-1 .5-1 1v.9h-9.7c-.5-1.4-1.8-2.3-3.3-2.3-2 0-3.7 1.6-3.7 3.5 0 2 1.5 3.6 3.5 3.6h.1"/><path d="m73.8 16.8c.2.2.5.3.7.3s.5-.1.7-.3l2.1.9c.5.2.7.7.5 1.2 0 .2-.3.4-.5.5l-3.2 1.3c.7.9 1.7 1.4 2.8 1.4 2 0 3.6-1.6 3.6-3.6s-1.6-3.6-3.6-3.6-1.2.2-1.7.4c0 0 0 0 0-.1l-.8-.8c-.4-.4-1.1-.4-1.5 0s-.4 1.1 0 1.5l.8.8zm-44.6-6.4c.6 0 1.1-.5 1.1-1.1v-2.3c0-.6-.5-1-1.1-1s-1 .5-1 1v2.3c0 .6.5 1.1 1.1 1.1m-14.2.6c.4 0 .9.2 1.2.5.4.4 1.1.5 1.5 0 .4-.4.5-1.1 0-1.5-.7-.8-1.7-1.2-2.7-1.2-.6 0-1 .5-1 1.1s.5 1.1 1.1 1.1m-6.7 3.7c.3 0 .5-.1.8-.3l1.6-1.6c.4-.4.4-1.1 0-1.5s-1.1-.4-1.5 0l-1.6 1.6c-.4.4-.4 1.1 0 1.5.2.2.5.3.8.3m16.7 14.5c.6 0 1-.5 1-1.1s-.5-1-1-1h-2.3c-.6 0-1 .5-1 1.1s.5 1 1 1zm-7.6-6c-.6 0-1.1.5-1.1 1.1v1.2c0 .5.1 1 .3 1.4.2.5.9.8 1.4.6s.8-.9.6-1.4c0-.2-.1-.4-.1-.6v-1.2c0-.6-.5-1.1-1.1-1.1m42-12.3h2.3c.6 0 1-.5 1-1.1s-.5-1-1-1h-2.3c-.6 0-1 .5-1 1.1s.5 1 1 1m-5.4 3.7c.6 0 1.1-.5 1.1-1.1v-1.1c0-.2 0-.5.2-.7.3-.5 0-1.2-.5-1.4-.5-.3-1.2 0-1.4.5-.3.5-.4 1.1-.4 1.7v1.1c0 .6.5 1.1 1.1 1.1m-13.8-8.2v2.3c0 .6.5 1 1.1 1s1-.5 1-1v-2.3c0-.6-.5-1-1.1-1s-1 .5-1 1m-10.4-3.8c.2 0 .5 0 .7-.2.3-.2.6-.3 1-.3h.5c.6 0 1-.5 1-1.1s-.5-1-1-1h-.5c-.8 0-1.7.3-2.3.8-.5.4-.5 1-.2 1.5.2.3.5.4.8.4m7.8-.7h1c.3 0 .5 0 .7.2.5.2 1.2 0 1.4-.5s0-1.1-.4-1.4c-.5-.3-1.1-.4-1.7-.4h-1c-.6 0-1 .5-1 1.1s.5 1 1 1m29.4 8.9c.2 0 .4.2.6.4l.8.7c.4.4 1.1.4 1.5 0s.4-1.1 0-1.5l-.7-.7c-.4-.4-.9-.7-1.4-.9-.6-.2-1.2.2-1.3.7s.1 1.1.6 1.3m-20.7 26.8c.6 0 1-.5 1-1.1s-.5-1-1-1h-2.3c-.6 0-1 .5-1 1.1s.5 1 1 1zm-6.2-5.1c0 .6.5 1 1.1 1s1-.5 1-1v-2.3c0-.6-.5-1-1.1-1s-1 .5-1 1zm1-6.9c.6 0 1.1-.5 1.1-1.1v-2.3c0-.6-.5-1-1.1-1s-1 .5-1 1v2.3c0 .6.5 1.1 1.1 1.1m10.4 9.8c-.6.2-.9.8-.7 1.3s.8.9 1.3.7c1-.3 1.9-1.1 2.3-2.1.2-.5 0-1.2-.6-1.4-.5-.2-1.1 0-1.4.5-.2.4-.5.7-1 .9m2.3-5c.6 0 1.1-.5 1.1-1.1v-2.3c0-.6-.5-1-1.1-1s-1 .5-1 1v2.3c0 .6.5 1.1 1.1 1.1m-24.1-5.2v-2.3c0-.6-.5-1-1.1-1s-1 .5-1 1v2.3c0 .6.5 1 1.1 1s1-.5 1-1"/></svg>