<svg xmlns="http://www.w3.org/2000/svg" viewBox="-5 -10 81.23 56.929"><path fill-rule="evenodd" d="M2.531-10H68.7c2.074 0 3.957.848 5.32 2.211a7.5 7.5 0 0 1 2.211 5.32v41.863a7.5 7.5 0 0 1-2.21 5.32 7.5 7.5 0 0 1-5.32 2.211L2.53 46.93a7.5 7.5 0 0 1-5.32-2.21A7.5 7.5 0 0 1-5 39.398V-2.47c0-2.074.848-3.957 2.21-5.32A7.52 7.52 0 0 1 2.532-10zM-.863 42.375q.276-.338.605-.66l11.77-11.668 11.68-11.582-11.68-11.578L-.258-4.781a10 10 0 0 1-.605-.66 4.5 4.5 0 0 0-1.13 2.976v41.863c0 1.133.427 2.18 1.13 2.977zM1.828-6.937l.027.027 11.77 11.668L26.36 17.38l.028.028 5.176 5.129c.546.539 1.156.949 1.824 1.214.672.27 1.418.41 2.234.41q1.226 0 2.235-.41a5.55 5.55 0 0 0 1.824-1.214l5.176-5.13.027-.027L57.617 4.76 69.387-6.91l.027-.027a5 5 0 0 0-.703-.055H2.531q-.357.001-.703.055m70.27 1.492a8 8 0 0 1-.605.66L59.723 6.883l-11.68 11.582 11.68 11.578 11.77 11.668c.21.211.414.434.601.665a4.5 4.5 0 0 0 1.13-2.981l.003-41.863c0-1.137-.43-2.18-1.129-2.977zm-2.691 49.31-.028-.028-11.77-11.668-11.699-11.59-4.12 4.086a8.5 8.5 0 0 1-2.821 1.875 8.9 8.9 0 0 1-3.352.633 8.8 8.8 0 0 1-3.351-.633 8.5 8.5 0 0 1-2.82-1.875l-4.122-4.086-11.699 11.594-11.77 11.668-.027.027q.345.054.707.055h66.168a4 4 0 0 0 .703-.059z"/></svg>