<?xml version="1.0" encoding="UTF-8"?>
<svg id="Layer_1" xmlns="http://www.w3.org/2000/svg" version="1.1" viewBox="0 0 84.3 82.7">
  <!-- Generator: Adobe Illustrator 29.1.0, SVG Export Plug-In . SVG Version: 2.1.0 Build 142)  -->
  <path d="M79.6,54.4c-.8-.3-1.6,0-1.9.9,0,0,0,0,0,0-5.8,14.8-19.8,24.4-35.7,24.4s-28.6-8.7-34.8-22.3l6,2.8c.7.4,1.6,0,2-.7.4-.7,0-1.6-.7-2h0l-10-4.7c-.4-.2-.9-.2-1.3,0-.4.2-.7.6-.8,1L0,63.2c-.2.8.3,1.6,1.1,1.8.8.2,1.6-.3,1.8-1.1h0l1.2-5.5c6.7,14.8,21.4,24.3,37.7,24.3,17.2,0,32.3-10.3,38.5-26.3.3-.8,0-1.6-.9-1.9,0,0,0,0,0,0M83.2,17.7c-.8-.2-1.6.3-1.8,1l-1.6,6C73.1,9.6,58.5,0,41.9,0,25.3,0,10.2,9.9,3.8,25.3c-.3.8,0,1.6.8,2,.8.3,1.6,0,2-.8C12.5,12.2,26.5,3,41.9,3c15.3,0,28.8,8.9,35,22.7l-6.7-3.3c-.7-.4-1.6,0-2,.7-.4.7,0,1.6.7,2l10.6,5.2c.7.4,1.6,0,2-.7,0,0,0-.2,0-.3l2.7-9.9c.2-.8-.2-1.6-1.1-1.8"/>
  <path d="M52.3,17.3c-.3-.4-.7-.7-1.2-.7h-12.2c-.6,0-1.2.4-1.4,1l-9.4,27.8c-.3.8.2,1.6.9,1.9.2,0,.3,0,.5,0h7s-4.5,16.6-4.5,16.6c-.2.8.3,1.6,1.1,1.8.6.2,1.2,0,1.5-.5l21.7-26.2c.5-.6.4-1.6-.2-2.1-.3-.2-.6-.3-.9-.3h-10.2l7.5-18c.2-.5.1-1-.1-1.4M41.3,37.7c-.3.8,0,1.6.8,2,.2,0,.4.1.6.1h9.2l-15.2,18.4,3.2-11.8c.2-.8-.3-1.6-1.1-1.8-.1,0-.3,0-.4,0h-6.9s8.4-24.8,8.4-24.8h8.8l-7.5,18Z"/>
</svg>