<svg xmlns="http://www.w3.org/2000/svg" viewBox="-5 -10 72.359 72.336"><path d="M65.629 20.465a1.731 1.731 0 0 0 0-3.461h-4.7v-9.57h4.7a1.731 1.731 0 0 0 0-3.461h-4.71c-.032-4.301-3.329-7.801-7.532-8.211V-8.27a1.731 1.731 0 0 0-3.461 0v3.95h-9.578v-3.95a1.731 1.731 0 0 0-3.461 0v3.95l-10.496.007v-3.949a1.731 1.731 0 0 0-3.461 0v3.95h-10.5v-3.95a1.731 1.731 0 0 0-3.461 0v3.95h-.68c-4.578 0-8.308 3.71-8.34 8.289h-3.218a1.731 1.731 0 0 0 0 3.46h3.21v9.57h-3.21a1.731 1.731 0 0 0 0 3.462h3.21v10.488h-3.21a1.731 1.731 0 0 0 0 3.46h3.21v10.489h-3.21a1.731 1.731 0 0 0 0 3.46h3.218c.032 4.579 3.762 8.29 8.34 8.29h.68v3.95a1.731 1.731 0 0 0 3.461 0v-3.95h10.488v3.95a1.731 1.731 0 0 0 3.461 0v-3.95h10.5v3.95a1.731 1.731 0 0 0 3.461 0v-3.95h9.578v3.95a1.731 1.731 0 0 0 3.461 0v-4.032c4.2-.41 7.5-3.91 7.531-8.21h4.711a1.731 1.731 0 0 0 0-3.462h-4.7l-.003-10.477h4.7a1.731 1.731 0 0 0 0-3.46h-4.7v-10.5zM52.578 53.207H8.296c-2.7 0-4.89-2.192-4.89-4.89v-1.7l.003-13.91V4.027a4.9 4.9 0 0 1 4.89-4.89h44.283c2.7 0 4.89 2.191 4.89 4.89v14.727l-.011 13.922v15.661c0 2.679-2.192 4.87-4.883 4.87z"/></svg>