<svg viewBox="0 0 15.3 12.2" xmlns="http://www.w3.org/2000/svg"><path d="m15.3 9s0 0-.2 0l-1.4-.2-.6-1.3s-.1-.1-.2-.1-.2 0-.2.1l-.6 1.3-1.4.2c-.1 0-.2.2-.2.3v.2l1 1-.2 1.4c0 .1 0 .3.2.3h.2l1.3-.7 1.3.7c.1 0 .3 0 .4-.1 0 0 0-.1 0-.2l-.2-1.4 1-1c.1-.1.1-.3 0-.4zm-1.5 1.1v.2l.2 1-.9-.5h-.2l-.9.5.2-1v-.2l-.7-.7h1c0-.2.2-.2.2-.3l.5-.9.5.9s.1.1.2.1l1 .2-.7.7z"/><path d="m10 7.4-1.4-.2-.6-1.3s-.1-.1-.2-.1c-.1 0-.2 0-.2.1l-.6 1.3-1.4.2c-.1 0-.2.2-.2.3v.2l1 1-.2 1.4c0 .1 0 .3.2.3h.2l1.3-.7 1.3.7c.1 0 .3 0 .4-.1 0 0 0-.1 0-.2l-.2-1.4 1-1c.1-.1.1-.3 0-.4 0 0 0 0-.2 0zm-1.4 1.2v.2l.2 1-.9-.5h-.2l-.9.5.2-1v-.2l-.7-.7 1-.2s.2 0 .2-.1l.5-.9.5.9s.1.1.2.1l1 .2-.7.7z"/><path d="m4.8 9-1.4-.2-.6-1.3s-.1-.1-.2-.1c-.1 0-.2 0-.2.1l-.6 1.3-1.4.2c-.1 0-.2.2-.2.3v.2l1 1-.2 1.4c0 .1 0 .3.2.3h.2l1.3-.7 1.3.7c.1 0 .3 0 .4-.1 0 0 0-.1 0-.2l-.2-1.4 1-1c.1-.1.1-.3 0-.4 0 0 0 0-.2 0zm-1.3 1.1v.2l.2 1-.9-.5h-.2l-.9.5.2-1v-.2l-.7-.7h1c0-.2.2-.2.2-.3l.5-.9.5.9s.1.1.2.1l1 .2-.7.7z"/><path d="m11.3 7.5c.1 0 .2-.2.2-.3-.3-1.4-1.3-2.5-2.7-3 1.1-.7 1.4-2.1.7-3.1-.3-.7-1-1.1-1.8-1.1-1.3 0-2.3 1-2.3 2.3 0 .8.4 1.5 1.1 1.9-1.4.4-2.4 1.6-2.7 3 0 .1 0 .3.2.3.1 0 .3 0 .3-.2.3-1.6 1.7-2.7 3.4-2.7 1.6 0 3 1.1 3.4 2.7 0 .1.2.2.3.2zm-5.4-5.2c0-1 .8-1.8 1.7-1.8 1 0 1.7.8 1.7 1.8s-.8 1.8-1.7 1.8-1.7-.8-1.7-1.8z"/></svg>