<?xml version="1.0" encoding="UTF-8"?>
<svg id="Layer_1" xmlns="http://www.w3.org/2000/svg" version="1.1" viewBox="0 0 61 80">
  <!-- Generator: Adobe Illustrator 29.1.0, SVG Export Plug-In . SVG Version: 2.1.0 Build 142)  -->
  <path d="M32.2,24.1c-1.1-.1-2.2-.1-3.3,0C13.2,25,1,38.3.4,38.9c-.6.6-.6,1.6,0,2.2.5.6,12.7,13.9,28.4,14.8,1.1.1,2.2.1,3.3,0,15.7-.9,27.9-14.2,28.4-14.8.6-.6.6-1.6,0-2.2-.5-.6-12.7-13.9-28.4-14.8M3.9,40c2.1-2.1,7.3-6.7,14-9.7-2.1,2.7-3.3,6.1-3.3,9.7s1.2,7,3.3,9.7c-6.7-3.1-11.8-7.6-14-9.7M30.5,52.7c-7,0-12.7-5.7-12.7-12.7s5.7-12.7,12.7-12.7,12.7,5.7,12.7,12.7-5.7,12.7-12.7,12.7M43.1,49.7c2.1-2.7,3.3-6.1,3.3-9.7s-1.2-7-3.3-9.7c6.7,3.1,11.8,7.7,14,9.7-2.1,2.1-7.3,6.7-14,9.7"/>
  <path d="M35.1,38.4c0-1.5,1.1-2.7,2.4-3-1.5-2.4-4.2-3.8-7-3.8-4.6,0-8.4,3.8-8.4,8.4s3.7,8.4,8.4,8.4c4.1,0,7.5-2.9,8.2-6.9-.2,0-.4,0-.6,0-1.7,0-3.1-1.4-3.1-3M30.5,18c.9,0,1.6-.7,1.6-1.6V1.6C32.1.7,31.4,0,30.5,0c-.9,0-1.6.7-1.6,1.6h0v14.8c0,.9.7,1.6,1.6,1.6M17.3,20.4c.5.8,1.4,1,2.2.6.8-.4,1-1.4.6-2.2,0,0,0,0,0,0l-7.4-12.8c-.4-.8-1.4-1-2.2-.6,0,0,0,0,0,0-.8.4-1,1.4-.6,2.2,0,0,0,0,0,0l7.4,12.8ZM19.5,59c-.8-.5-1.8-.2-2.2.6l-7.4,12.8c-.4.8-.2,1.8.6,2.2.2.1.5.2.8.2.6,0,1.1-.3,1.4-.8l7.4-12.8c.5-.8.2-1.8-.6-2.2M30.5,62c-.9,0-1.6.7-1.6,1.6v14.8c0,.9.7,1.6,1.6,1.6.9,0,1.6-.7,1.6-1.6h0v-14.8c0-.9-.7-1.6-1.6-1.6M43.7,59.6c-.4-.8-1.4-1-2.2-.6,0,0,0,0,0,0-.8.4-1,1.4-.6,2.2,0,0,0,0,0,0l7.4,12.8c.5.8,1.4,1,2.2.6.8-.4,1-1.4.6-2.2,0,0,0,0,0,0l-7.4-12.8ZM41.5,21c.8.4,1.8.2,2.2-.6l7.4-12.8c.5-.8.2-1.8-.6-2.2-.8-.4-1.8-.2-2.2.6l-7.4,12.8c-.5.8-.2,1.8.6,2.2"/>
</svg>