<svg xmlns="http://www.w3.org/2000/svg" viewBox="-5 -10 87.429 73.015"><path d="M81.453 50.106h-1.71v-54.06C79.742-7.284 77.03-10 73.71-10h-70a6.054 6.054 0 0 0-6.047 6.047v54.062l-1.695-.004a.974.974 0 0 0-.969.969v5.758c0 1.91.91 3.742 2.426 4.91a6.26 6.26 0 0 0 3.758 1.273h75.062a6.07 6.07 0 0 0 3.757-1.273 6.22 6.22 0 0 0 2.426-4.91v-5.758a.99.99 0 0 0-.976-.969ZM22.88 52.063h31.668v1.59A1.345 1.345 0 0 1 53.2 55H24.226a1.3 1.3 0 0 1-.816-.273 1.36 1.36 0 0 1-.531-1.074zM-.394-3.953A4.11 4.11 0 0 1 3.712-8.06h70a4.094 4.094 0 0 1 4.09 4.106v54.062l-78.196-.004zm80.88 60.8a4.2 4.2 0 0 1-1.653 3.364 4.2 4.2 0 0 1-2.59.88H1.181a4.18 4.18 0 0 1-2.574-.88 4.27 4.27 0 0 1-1.668-3.363v-4.79h24v1.59c0 1.016.484 2 1.289 2.622a3.3 3.3 0 0 0 2 .683H53.18c.726 0 1.426-.226 2-.683a3.32 3.32 0 0 0 1.289-2.621v-1.59h24v4.789z"/><path d="M3.984 55.59H2.136a.974.974 0 0 0-.968.969c0 .53.437.968.968.968H4a.974.974 0 0 0 .968-.968.98.98 0 0 0-.984-.97M9.258 55.59H7.395a.974.974 0 0 0-.969.969c0 .53.438.968.969.968h1.863a.974.974 0 0 0 .969-.968.98.98 0 0 0-.969-.97M14.527 55.59h-1.848a.974.974 0 0 0-.968.969c0 .53.437.968.968.968h1.848a.974.974 0 0 0 .969-.968.974.974 0 0 0-.969-.97M71.637-2.832H5.785a.974.974 0 0 0-.969.969v45.805c0 .53.438.968.969.968h65.832a.974.974 0 0 0 .969-.968l.004-45.805a.943.943 0 0 0-.953-.97Zm-.988 45.785H6.774V-.895h63.895l-.004 43.848z"/><path d="M10.65 9.563a.974.974 0 0 0 .968-.969v-4.62h4.62a.974.974 0 0 0 .97-.97.974.974 0 0 0-.97-.968H10.65a.974.974 0 0 0-.969.968v5.59c0 .527.442.969.97.969M61.18 3.969h4.621V8.59c0 .531.438.969.969.969a.974.974 0 0 0 .969-.969V3a.974.974 0 0 0-.97-.969H61.18a.974.974 0 0 0-.969.97c0 .53.438.968.97.968M10.65 40.047h5.589a.974.974 0 0 0 .969-.969.974.974 0 0 0-.97-.969h-4.62l.004-4.625a.974.974 0 0 0-.97-.968.974.974 0 0 0-.968.968v5.59a.974.974 0 0 0 .965.973M61.18 40.047h5.59a.974.974 0 0 0 .969-.969l.004-5.594a.974.974 0 0 0-.97-.968.974.974 0 0 0-.968.968v4.621h-4.621a.971.971 0 0 0-.004 1.941M44.484 26.485a.996.996 0 0 0 .953-.774c.41-1.863.742-3.953 1.016-6.195.226-1.832-.305-3.531-1.531-4.91-1.211-1.363-2.817-2.09-4.653-2.09h-.41c-1.574 0-3 .59-4.121 1.711a5.72 5.72 0 0 0-1.71 4.121q0 .773-.048 1.547a.97.97 0 0 0 .91 1.031.97.97 0 0 0 1.032-.91c.03-.562.062-1.105.062-1.668 0-1.047.395-2 1.137-2.742a3.8 3.8 0 0 1 2.742-1.137h.41c1.258 0 2.363.5 3.195 1.438.848.953 1.211 2.12 1.063 3.394a63 63 0 0 1-.984 6.016.95.95 0 0 0 .742 1.152c.058 0 .133.016.195.016z"/><path d="M48.742 11.2c-2.184-2.453-5.195-3.816-8.484-3.816h-.41a10.84 10.84 0 0 0-7.743 3.21 10.86 10.86 0 0 0-3.21 7.743c0 3.5-.97 6.879-2.817 9.789-.305.468-.637.968-1.031 1.547l-1.29 1.742a.987.987 0 0 0 .196 1.363.987.987 0 0 0 1.363-.195l1.305-1.758c.438-.621.79-1.137 1.09-1.637 2.047-3.21 3.12-6.953 3.12-10.816 0-2.41.938-4.668 2.638-6.363a8.97 8.97 0 0 1 6.363-2.637h.41c2.727 0 5.227 1.121 7.031 3.168a9.37 9.37 0 0 1 2.317 7.395c-.621 5.136-1.575 9.347-2.926 12.863-.606 1.574-1.563 3.394-2.426 4.969a.96.96 0 0 0 .395 1.316c.152.074.304.121.468.121a.95.95 0 0 0 .848-.5c.895-1.637 1.879-3.531 2.531-5.21 1.41-3.684 2.41-8.032 3.047-13.333.395-3.328-.59-6.492-2.785-8.96z"/><path d="M22.438 27.848c.332-.484.668-.953.953-1.438 1.531-2.394 2.332-5.195 2.332-8.09 0-3.773 1.469-7.316 4.137-9.984A14.02 14.02 0 0 1 39.844 4.2h.41c4.153 0 8.106 1.774 10.863 4.88a14.58 14.58 0 0 1 3.563 11.41c-.652 5.378-1.695 9.968-3.211 14.061a.97.97 0 0 0 .574 1.243.8.8 0 0 0 .332.062.98.98 0 0 0 .91-.637c1.575-4.226 2.668-8.968 3.332-14.5A16.51 16.51 0 0 0 40.255 2.245h-.41c-4.29 0-8.333 1.668-11.364 4.711-3.03 3.047-4.71 7.075-4.71 11.363 0 2.532-.696 4.953-2.032 7.047q-.432.681-.91 1.364a.97.97 0 0 0 .242 1.347c.457.317 1.067.211 1.368-.23z"/><path d="M34.227 23.727c-.531-.106-1.047.242-1.137.758-.695 3.515-2.605 6.91-5.832 10.379a.98.98 0 0 0 .047 1.379 1 1 0 0 0 .668.257 1 1 0 0 0 .711-.304c3.469-3.742 5.547-7.438 6.305-11.316a.965.965 0 0 0-.762-1.153zM42.984 30.637a.984.984 0 0 0-1.273.531c-1 2.438-2.332 4.832-3.926 7.106a.97.97 0 0 0 .242 1.347.96.96 0 0 0 .563.184c.304 0 .605-.152.804-.41a38.8 38.8 0 0 0 4.137-7.485.986.986 0 0 0-.547-1.273M40.074 17.379a.954.954 0 0 0-.953.984c.074 6.985-2.29 13.305-7.031 18.79a.96.96 0 0 0 .105 1.363c.184.152.41.242.637.242.273 0 .547-.121.742-.332 5.063-5.864 7.59-12.621 7.5-20.09-.031-.532-.437-.973-1-.957z"/></svg>