<svg xmlns="http://www.w3.org/2000/svg" viewBox="-5 -10 99.998 84.203"><path d="M49.79-4.18H44.7a1.33 1.33 0 0 0-.965.4 1.37 1.37 0 0 0-.402.968v1.18L31.16-1.636v-1.176a1.37 1.37 0 0 0-1.372-1.367h-5.101.004c-.754 0-1.367.61-1.367 1.367v1.18l-12.168-.004v-1.176c0-.758-.614-1.367-1.368-1.367H4.696c-.758 0-1.368.61-1.368 1.367v5.094c0 .754.61 1.367 1.368 1.367h5.093a1.37 1.37 0 0 0 1.368-1.367v-1.18h6.367a18.8 18.8 0 0 0-8.375 11.18H7.348c-.754 0-1.367.61-1.367 1.367v5.094c0 .754.613 1.367 1.367 1.367h5.094c.754 0 1.367-.613 1.367-1.367v-5.098c0-.754-.613-1.367-1.367-1.367h-.45A16.1 16.1 0 0 1 23.326 1.59v.692c0 .753.613 1.367 1.367 1.367h5.101c.364 0 .711-.145.965-.403.258-.257.402-.605.402-.964V1.59a16.09 16.09 0 0 1 11.328 10.688h-.449c-.754 0-1.367.613-1.367 1.367v5.094c0 .758.613 1.367 1.367 1.367h5.102c.754 0 1.367-.609 1.367-1.367v-5.094c0-.754-.613-1.367-1.367-1.367h-1.8a18.84 18.84 0 0 0-8.38-11.176h6.367v1.18A1.37 1.37 0 0 0 44.7 3.649h5.094c.754 0 1.367-.613 1.367-1.367v-5.094c0-.367-.144-.715-.402-.969a1.35 1.35 0 0 0-.969-.398ZM8.423.91h-2.36v-2.355h2.36zm2.652 16.462h-2.36v-2.36h2.36zM28.427.91H26.06v-2.356h2.363zm14.98 14.102h2.363v2.359h-2.363ZM48.422.91h-2.359v-2.356h2.36zM84.7 16.27h-6.644c0-.102.008-.211.008-.317a11.867 11.867 0 1 0-23.137 3.715 11.87 11.87 0 0 0 10.098 8.094v8.191a1.37 1.37 0 0 0 1.371 1.367H84.7c.758 0 1.368-.613 1.368-1.367V17.637c0-.754-.61-1.367-1.368-1.367m-19.676 1.367v7.37a9.132 9.132 0 0 1-4.855-15.91 9.13 9.13 0 0 1 15.156 6.856q.002.159-.008.317h-8.922a1.37 1.37 0 0 0-1.37 1.367zM74.801 19a9.16 9.16 0 0 1-7.043 5.941V19Zm8.53 15.578-15.57.004V27.71a11.9 11.9 0 0 0 9.9-8.707h5.671zM89.54-10H.46A5.466 5.466 0 0 0-5-4.543v57.184a5.466 5.466 0 0 0 5.46 5.46h34.02v7.5h-1.55a4.306 4.306 0 0 0-4.3 4.302v2.93a1.37 1.37 0 0 0 1.37 1.37h30a1.37 1.37 0 0 0 1.367-1.368v-2.93a4.3 4.3 0 0 0-4.301-4.296h-1.551v-7.508h34.023a5.466 5.466 0 0 0 5.46-5.461V-4.543A5.466 5.466 0 0 0 89.54-10M57.074 68.34a1.57 1.57 0 0 1 1.562 1.566v1.563H31.363v-1.563c0-.863.704-1.562 1.567-1.566zm-19.86-2.738v-7.5H52.79v7.5zM92.267 52.64a2.73 2.73 0 0 1-2.727 2.722H.461a2.73 2.73 0 0 1-2.726-2.722v-5.88h94.53zM27.239 26.258a3.608 3.608 0 0 0 1.367-6.95v-6.062l6.5 11.5a17.2 17.2 0 0 0-3.75 8.227H23.13a17.2 17.2 0 0 0-3.75-8.227l6.493-11.492v6.062a3.61 3.61 0 0 0-2.168 4.036 3.61 3.61 0 0 0 3.535 2.91zm-.867-3.61a.872.872 0 1 1 1.74.003.872.872 0 0 1-1.74-.003m-4.848 13.055h11.434a1.3 1.3 0 0 1 1.285 1.282c0 .71-.574 1.285-1.285 1.285H21.524a1.284 1.284 0 0 1 0-2.567m9.691 8.32h-7.949v-3.015h7.942zm61.047 0H33.953l-.007-3.144a4.02 4.02 0 0 0 3.03-3.812 4.02 4.02 0 0 0-2.874-3.934c.523-2.742 1.8-5.29 3.691-7.348a1.37 1.37 0 0 0 .16-1.57L28.43 7.375a1.37 1.37 0 0 0-2.383 0l-9.515 16.844a1.37 1.37 0 0 0 .156 1.57 15.05 15.05 0 0 1 3.695 7.348 4.017 4.017 0 0 0 .148 7.742v3.145H-2.264V-4.542A2.73 2.73 0 0 1 .46-7.265h89.08a2.73 2.73 0 0 1 2.727 2.723zm-50.633 7.04c0-.364.145-.715.403-.969a1.35 1.35 0 0 1 .968-.398h4.012a1.369 1.369 0 0 1 0 2.734H43a1.37 1.37 0 0 1-1.371-1.367"/></svg>