<svg viewBox="0 0 198.1 196" xmlns="http://www.w3.org/2000/svg"><path d="m168.3 0c-.2 0-.4 0-.6.1l-31.4 7.7c-1.8.5-2.9 2.3-2.5 4.1.5 1.8 2.3 2.9 4.1 2.5l23.2-5.7c-26.4 49.1-83.7 82.4-148.6 85.8-1.9.1-3.3 1.7-3.2 3.6s1.7 3.3 3.6 3.2c66.9-3.5 126.3-37.7 154.1-89l5.2 23.5c.4 1.8 2.2 3 4.1 2.6 1.8-.4 3-2.2 2.6-4.1l-7-31.6c-.4-1.6-1.9-2.8-3.6-2.7m-11.7 57.6c-1.9 0-3.4 1.5-3.4 3.4v128.2h-12.8v-96.1c0-1.9-1.5-3.4-3.4-3.4h-28c-1.9 0-3.4 1.5-3.4 3.4v96.1h-12.9v-77.8c0-1.9-1.5-3.4-3.4-3.4h-28c-1.9 0-3.4 1.5-3.4 3.4v77.8h-12.8v-66.6c0-1.9-1.5-3.4-3.4-3.4h-28.2c-1.9 0-3.4 1.5-3.4 3.4v66.6h-6.7c-1.9 0-3.4 1.5-3.4 3.4s1.5 3.4 3.4 3.4h191.3c1.9 0 3.4-1.5 3.4-3.4s-1.5-3.4-3.4-3.4h-6.7v-128.2c0-1.9-1.5-3.4-3.4-3.4zm3.4 6.8h21.2v124.7h-21.2zm-47.7 32.1h21.2v92.7h-21.2zm-47.7 18.3h21.2v74.3h-21.2zm-47.7 11.2h21.2v63.1h-21.2z"/></svg>