<svg viewBox="0 0 87 87.2" xmlns="http://www.w3.org/2000/svg"><path d="m84.4 12.6h-33.5c-1.4 0-2.6 1.1-2.6 2.6v9.8c0 1.6 1.5 2.6 2.8 2.5 3-.2 4.8 1.1 5.4 3 1.3 3.7-2.2 6.8-5.2 6-1.6-.4-3.1.7-3.1 2.3v9.5h-9.5c-1.6 0-2.8 1.5-2.3 3.1.8 3-2.3 6.4-6 5.2-1.7-.6-3-2.2-3-4.4s.2-1.7-.4-2.5c-.5-.8-1.2-1.3-2.1-1.3h-9.8c-1.4 0-2.6 1.1-2.6 2.6v33.6c0 1.4 1.1 2.6 2.6 2.6h69.3c1.4 0 2.6-1.1 2.6-2.6v-69.3c0-1.6-1.1-2.7-2.6-2.7m-24.6 19.4c0-3.9-3-7.7-8.5-7.6v-8.9h32.7v32.7h-8.5c-.7-3.6-3.9-6.3-7.8-6.3s-7.1 2.7-7.8 6.3h-8.6v-8.7c4 .7 8.5-2.7 8.5-7.5m-10.8 40.6c-2.3-.4-4-2.4-4-4.9s1.7-4.5 4-4.9c1.3-.2 2.3-1.4 2.3-2.7v-8.8h8.8c1.4 0 2.5-1 2.7-2.3.4-2.3 2.4-4 4.9-4s4.5 1.7 4.9 4c.2 1.3 1.3 2.3 2.7 2.3h8.7v32.7h-32.7v-8.7c0-1.3-1-2.5-2.3-2.7m-17-12.8c4.8 0 8.2-4.5 7.5-8.5h8.8v8.6c-3.6.7-6.3 3.9-6.3 7.8s2.7 7.1 6.3 7.8v8.5h-32.7v-32.7h8.9c-.2 5.4 3.5 8.5 7.5 8.5"/><path d="m11.5 38.7c.7 3.6 3.9 6.3 7.8 6.3s7.1-2.7 7.8-6.3h9.1c1.4 0 2.6-1.1 2.6-2.6v-9.1c3.6-.7 6.3-3.9 6.3-7.8s-2.7-7.1-6.3-7.8v-8.8c0-1.4-1.1-2.6-2.6-2.6h-33.6c-1.4 0-2.6 1.1-2.6 2.6v33.6c0 1.4 1.1 2.6 2.6 2.6h8.9zm30.5-19.4c0 2.5-1.7 4.5-4 4.9-1.3.2-2.3 1.4-2.3 2.7v8.8h-8.8c-1.4 0-2.5 1-2.7 2.3-.4 2.3-2.4 4-4.9 4s-4.5-1.7-4.9-4c-.2-1.3-1.3-2.3-2.7-2.3h-8.7v-32.7h32.7v8.7c0 1.4 1 2.5 2.3 2.7 2.3.3 4 2.4 4 4.9"/></svg>