<svg viewBox="0 0 95 95" xmlns="http://www.w3.org/2000/svg"><path d="m63.4 80.9v6.1c0 4.4-3.6 8-8 8h-15.7c-4.4 0-8-3.6-8-8v-6.1c0-5.6-1.8-10.2-5.5-14.4-10-11.3-9.6-28.4 1.1-39.2 11.1-11.1 29.2-11.1 40.4 0 10.7 10.7 11.2 27.9 1.1 39.2-3.7 4.1-5.5 8.8-5.5 14.4zm-27.5-33c0-6.4 5.2-11.6 11.6-11.6s2.8-1.3 2.8-2.8-1.3-2.8-2.8-2.8c-9.5 0-17.2 7.7-17.2 17.2s1.3 2.8 2.8 2.8 2.8-1.3 2.8-2.8zm1.2 30.2h20.8c.5-5.8 2.8-10.9 6.8-15.3 8.1-9.1 7.7-22.9-.9-31.5-9-9-23.5-9-32.5 0-8.6 8.6-9 22.4-.9 31.5 3.9 4.4 6.2 9.5 6.8 15.3zm20.7 5.6h-20.6v3.3c0 1.3 1.1 2.4 2.4 2.4h15.7c1.3 0 2.4-1.1 2.4-2.4v-3.3zm-43.9-65.8 6.5 6.5c1.1 1.1 2.9 1.1 3.9 0 1.1-1.1 1.1-2.9 0-3.9l-6.5-6.5c-1.1-1.1-2.9-1.1-3.9 0-1.1 1.1-1.1 2.9 0 4m-11.1 32.3c-1.5 0-2.8-1.3-2.8-2.8s1.3-2.8 2.8-2.8h9.2c1.5 0 2.8 1.3 2.8 2.8s-1.3 2.8-2.8 2.8zm15.1 30.8 6.5-6.5c1.1-1.1 1.1-2.9 0-3.9-1.1-1.1-2.9-1.1-3.9 0l-6.5 6.5c-1.1 1.1-1.1 2.9 0 3.9 1.1 1.1 2.9 1.1 3.9 0m63.2-4-6.5-6.5c-1.1-1.1-2.9-1.1-3.9 0-1.1 1.1-1.1 2.9 0 3.9l6.5 6.5c1.1 1.1 2.9 1.1 3.9 0 1.1-1.1 1.1-2.9 0-3.9m11.1-32.4c1.5 0 2.8 1.2 2.8 2.8 0 1.5-1.2 2.8-2.8 2.8h-9.2c-1.5 0-2.8-1.2-2.8-2.8 0-1.5 1.2-2.8 2.8-2.8zm-15.1-30.8-6.5 6.5c-1.1 1.1-1.1 2.9 0 3.9 1.1 1.1 2.9 1.1 3.9 0l6.5-6.5c1.1-1.1 1.1-2.9 0-4s-2.9-1.1-3.9 0m-32.4-11c0-1.5 1.2-2.8 2.8-2.8 1.5 0 2.8 1.2 2.8 2.8v9.2c0 1.5-1.3 2.8-2.8 2.8s-2.8-1.3-2.8-2.8z" fill="#fff" fill-rule="evenodd"/></svg>