<?xml version="1.0" encoding="UTF-8"?>
<svg id="Layer_1" xmlns="http://www.w3.org/2000/svg" version="1.1" viewBox="0 0 95 95">
  <!-- Generator: Adobe Illustrator 29.1.0, SVG Export Plug-In . SVG Version: 2.1.0 Build 142)  -->
  <defs>
    <style>
      .st0 {
        fill: #fff;
        fill-rule: evenodd;
      }
    </style>
  </defs>
  <path class="st0" d="M63.4,80.9v6.1c0,4.4-3.6,8-8,8h-15.7c-4.4,0-8-3.6-8-8v-6.1c0-5.6-1.8-10.2-5.5-14.4-10-11.3-9.6-28.4,1.1-39.2,11.1-11.1,29.2-11.1,40.4,0,10.7,10.7,11.2,27.9,1.1,39.2-3.7,4.1-5.5,8.8-5.5,14.4h0ZM35.9,47.9c0-6.4,5.2-11.6,11.6-11.6s2.8-1.3,2.8-2.8-1.3-2.8-2.8-2.8c-9.5,0-17.2,7.7-17.2,17.2s1.3,2.8,2.8,2.8,2.8-1.3,2.8-2.8h0ZM37.1,78.1h20.8c.5-5.8,2.8-10.9,6.8-15.3,8.1-9.1,7.7-22.9-.9-31.5-9-9-23.5-9-32.5,0-8.6,8.6-9,22.4-.9,31.5,3.9,4.4,6.2,9.5,6.8,15.3h0ZM57.8,83.7h-20.6v3.3c0,1.3,1.1,2.4,2.4,2.4h15.7c1.3,0,2.4-1.1,2.4-2.4v-3.3ZM13.9,17.9l6.5,6.5c1.1,1.1,2.9,1.1,3.9,0,1.1-1.1,1.1-2.9,0-3.9l-6.5-6.5c-1.1-1.1-2.9-1.1-3.9,0-1.1,1.1-1.1,2.9,0,4M2.8,50.3C1.3,50.3,0,49,0,47.5s1.3-2.8,2.8-2.8h9.2c1.5,0,2.8,1.3,2.8,2.8s-1.3,2.8-2.8,2.8H2.8ZM17.9,81.1l6.5-6.5c1.1-1.1,1.1-2.9,0-3.9-1.1-1.1-2.9-1.1-3.9,0l-6.5,6.5c-1.1,1.1-1.1,2.9,0,3.9,1.1,1.1,2.9,1.1,3.9,0M81.1,77.1l-6.5-6.5c-1.1-1.1-2.9-1.1-3.9,0-1.1,1.1-1.1,2.9,0,3.9l6.5,6.5c1.1,1.1,2.9,1.1,3.9,0,1.1-1.1,1.1-2.9,0-3.9M92.2,44.7c1.5,0,2.8,1.2,2.8,2.8,0,1.5-1.2,2.8-2.8,2.8h-9.2c-1.5,0-2.8-1.2-2.8-2.8,0-1.5,1.2-2.8,2.8-2.8h9.2ZM77.1,13.9l-6.5,6.5c-1.1,1.1-1.1,2.9,0,3.9,1.1,1.1,2.9,1.1,3.9,0l6.5-6.5c1.1-1.1,1.1-2.9,0-4-1.1-1.1-2.9-1.1-3.9,0M44.7,2.8c0-1.5,1.2-2.8,2.8-2.8,1.5,0,2.8,1.2,2.8,2.8h0v9.2c0,1.5-1.3,2.8-2.8,2.8s-2.8-1.3-2.8-2.8V2.8Z"/>
</svg>