<svg xmlns="http://www.w3.org/2000/svg" viewBox="-5 -10 99.993 99.988"><path d="M60.254 44.238V24.722H33.012l-3.285 3.285V55.25h19.539a1.579 1.579 0 0 1 0 3.157H28.149a1.58 1.58 0 0 1-1.578-1.579V27.354c0-.418.168-.82.46-1.117l4.211-4.21c.297-.298.7-.462 1.118-.462h29.473c.87 0 1.578.707 1.578 1.579v21.094a1.579 1.579 0 0 1-3.156 0zM50.78 84.195a5.797 5.797 0 0 1-5.789 5.79 5.797 5.797 0 0 1-5.789-5.79c0-2.64 1.79-4.851 4.21-5.543V66.828h-5.26v6.844a1.579 1.579 0 0 1-3.157 0v-6.844h-5.262v8.95c0 .417-.168.82-.46 1.117l-2.399 2.398c.465.832.754 1.781.754 2.8a5.797 5.797 0 0 1-5.79 5.79 5.797 5.797 0 0 1-5.788-5.79 5.797 5.797 0 0 1 5.789-5.788c1.023 0 1.969.289 2.8.754l1.934-1.934v-8.293h-4.738a3.69 3.69 0 0 1-3.684-3.684V58.41H9.86l-1.933 1.934c.465.832.754 1.78.754 2.8a5.797 5.797 0 0 1-5.79 5.79 5.797 5.797 0 0 1-5.789-5.79 5.797 5.797 0 0 1 5.79-5.789c1.023 0 1.968.29 2.8.754l2.399-2.398c.297-.297.699-.461 1.117-.461h8.95v-5.262h-6.845a1.579 1.579 0 0 1 0-3.156h6.844V41.57H6.332C5.641 43.992 3.43 45.781.79 45.781A5.797 5.797 0 0 1-5 39.992a5.797 5.797 0 0 1 5.79-5.789c2.64 0 4.85 1.79 5.542 4.21h11.824v-5.26h-6.844a1.579 1.579 0 0 1 0-3.157h6.844v-5.262h-8.95c-.417 0-.82-.168-1.116-.46L5.69 21.874a5.7 5.7 0 0 1-2.8.754 5.797 5.797 0 0 1-5.79-5.79 5.797 5.797 0 0 1 5.79-5.788A5.797 5.797 0 0 1 8.68 16.84c0 1.023-.29 1.969-.754 2.8l1.933 1.934h8.293v-4.738a3.69 3.69 0 0 1 3.684-3.684h4.738V4.86l-1.933-1.933a5.7 5.7 0 0 1-2.801.754 5.797 5.797 0 0 1-5.79-5.79 5.797 5.797 0 0 1 5.79-5.789 5.797 5.797 0 0 1 5.789 5.79c0 1.023-.29 1.968-.754 2.8l2.398 2.399c.297.297.461.699.461 1.117v8.95h5.262V6.311a1.579 1.579 0 0 1 3.156 0v6.844h5.262V1.332C40.992.641 39.203-1.57 39.203-4.21A5.797 5.797 0 0 1 44.993-10a5.797 5.797 0 0 1 5.788 5.79c0 2.64-1.789 4.85-4.21 5.542v11.824h5.261V6.312a1.579 1.579 0 0 1 3.156 0v6.844h5.262v-8.95c0-.417.168-.82.46-1.116L63.11.69a5.7 5.7 0 0 1-.755-2.8 5.797 5.797 0 0 1 5.79-5.79 5.797 5.797 0 0 1 5.789 5.79 5.797 5.797 0 0 1-5.79 5.789c-1.023 0-1.968-.29-2.8-.754L63.41 4.859v8.293h4.738a3.69 3.69 0 0 1 3.684 3.684v4.738h8.293l1.934-1.933a5.7 5.7 0 0 1-.754-2.801 5.797 5.797 0 0 1 5.789-5.79 5.797 5.797 0 0 1 5.789 5.79 5.797 5.797 0 0 1-5.79 5.789c-1.023 0-1.968-.29-2.8-.754l-2.398 2.398c-.297.297-.696.461-1.118.461h-8.949v5.262h6.844a1.579 1.579 0 0 1 0 3.156h-6.844v5.262h11.824c.692-2.422 2.902-4.211 5.543-4.211a5.797 5.797 0 0 1 5.79 5.79 5.797 5.797 0 0 1-5.79 5.788c-2.64 0-4.851-1.789-5.543-4.21H70.246a1.58 1.58 0 0 1-1.578-1.579V16.836a.535.535 0 0 0-.527-.527L21.836 16.3a.535.535 0 0 0-.528.527v46.316c0 .286.243.528.528.528h23.156c.87 0 1.578.707 1.578 1.578v13.406c2.422.691 4.21 2.902 4.21 5.543zm35.79-44.21a2.634 2.634 0 0 0 5.265 0 2.634 2.634 0 0 0-5.266 0m-2.106-23.157c0 .715.289 1.363.754 1.836.007.008.015.008.023.016.008.007.008.015.016.023a2.62 2.62 0 0 0 1.836.754 2.634 2.634 0 0 0 0-5.266 2.634 2.634 0 0 0-2.633 2.633zM65.52-2.12c0 .715.289 1.363.754 1.836.007.008.015.008.023.016.008.007.008.015.016.023a2.62 2.62 0 0 0 1.836.754 2.634 2.634 0 0 0 0-5.266 2.634 2.634 0 0 0-2.633 2.633zm-20.527.527a2.634 2.634 0 0 0 0-5.265 2.634 2.634 0 0 0 0 5.265M21.837.512c.715 0 1.363-.29 1.836-.754.007-.008.007-.016.015-.023.008-.008.016-.008.024-.016a2.62 2.62 0 0 0 .754-1.836 2.634 2.634 0 0 0-5.266 0A2.634 2.634 0 0 0 21.833.516zM2.887 19.457c.716 0 1.364-.29 1.837-.754.007-.008.007-.016.015-.023.008-.008.016-.008.024-.016a2.62 2.62 0 0 0 .754-1.836 2.634 2.634 0 0 0-5.266 0 2.634 2.634 0 0 0 2.633 2.633zm.528 20.527a2.634 2.634 0 0 0-5.266 0 2.634 2.634 0 0 0 5.266 0M5.521 63.14a2.63 2.63 0 0 0-.754-1.836c-.008-.008-.016-.008-.024-.016-.008-.007-.008-.015-.015-.023a2.62 2.62 0 0 0-1.836-.754 2.634 2.634 0 0 0 0 5.266 2.634 2.634 0 0 0 2.632-2.633zm18.945 18.949a2.63 2.63 0 0 0-.754-1.836c-.008-.008-.016-.008-.024-.016-.008-.007-.008-.015-.015-.023a2.62 2.62 0 0 0-1.836-.754 2.634 2.634 0 0 0 0 5.266 2.634 2.634 0 0 0 2.632-2.633zm23.16 2.105a2.634 2.634 0 0 0-5.266 0 2.634 2.634 0 0 0 5.266 0m47.367-19.32v4.954a2.82 2.82 0 0 1-2.817 2.816h-2.96a17.6 17.6 0 0 1-1.196 2.879l2.094 2.098a2.826 2.826 0 0 1 .004 3.984l-3.504 3.504c-1.063 1.066-2.922 1.066-3.989 0l-2.093-2.094q-1.39.726-2.88 1.195v2.961a2.82 2.82 0 0 1-2.816 2.817h-4.953a2.82 2.82 0 0 1-2.816-2.817v-2.96a17.5 17.5 0 0 1-2.879-1.196l-2.094 2.094c-1.058 1.062-2.918 1.066-3.988 0l-3.5-3.5a2.826 2.826 0 0 1-.004-3.985l2.098-2.097a17.6 17.6 0 0 1-1.196-2.88h-2.96a2.82 2.82 0 0 1-2.817-2.816v-4.953a2.82 2.82 0 0 1 2.816-2.816h2.961a17.6 17.6 0 0 1 1.196-2.879l-2.094-2.098a2.826 2.826 0 0 1-.004-3.984l3.504-3.504c1.066-1.066 2.926-1.062 3.988 0l2.094 2.094a17.6 17.6 0 0 1 2.879-1.195v-2.961a2.82 2.82 0 0 1 2.816-2.817h4.953a2.82 2.82 0 0 1 2.817 2.817v2.96c.992.313 1.957.712 2.879 1.196l2.093-2.094c1.063-1.062 2.922-1.066 3.989 0l3.5 3.5a2.826 2.826 0 0 1 .004 3.984L88.02 59.18q.726 1.39 1.195 2.88h2.961a2.82 2.82 0 0 1 2.817 2.815m-3.157.34h-3.82A1.58 1.58 0 0 1 86.481 64a14.4 14.4 0 0 0-1.77-4.258 1.58 1.58 0 0 1 .227-1.946l2.707-2.707-3.023-3.02-2.707 2.708c-.52.516-1.325.61-1.946.226a14.4 14.4 0 0 0-4.254-1.765 1.58 1.58 0 0 1-1.214-1.535v-3.825h-4.274v3.825a1.58 1.58 0 0 1-1.215 1.535c-1.504.355-2.937.95-4.254 1.765-.625.383-1.43.29-1.945-.226l-2.707-2.707-3.023 3.02 2.707 2.706c.52.516.613 1.32.226 1.946A14.5 14.5 0 0 0 58.246 64a1.58 1.58 0 0 1-1.534 1.214h-3.82v4.274h3.82c.73 0 1.367.504 1.535 1.215.355 1.5.949 2.933 1.77 4.257.382.621.288 1.43-.227 1.946l-2.707 2.707 3.023 3.02 2.707-2.708a1.57 1.57 0 0 1 1.945-.226c1.32.816 2.754 1.41 4.254 1.765A1.58 1.58 0 0 1 70.227 83v3.825h4.274v-3.825c0-.73.503-1.367 1.214-1.535A14.3 14.3 0 0 0 79.97 79.7a1.584 1.584 0 0 1 1.946.226l2.707 2.707 3.023-3.02-2.707-2.706a1.57 1.57 0 0 1-.227-1.946 14.5 14.5 0 0 0 1.77-4.257 1.58 1.58 0 0 1 1.535-1.215h3.82zm-10.879 2.137c0 4.738-3.855 8.598-8.597 8.598-4.739 0-8.598-3.856-8.598-8.598 0-4.738 3.855-8.598 8.598-8.598 4.738 0 8.597 3.856 8.597 8.598m-3.16 0c0-3-2.441-5.437-5.437-5.437a5.446 5.446 0 0 0-5.438 5.437c0 3 2.442 5.438 5.438 5.438a5.446 5.446 0 0 0 5.437-5.438"/></svg>