<svg xmlns="http://www.w3.org/2000/svg" viewBox="-5 -10 92.002 90.201"><path d="M64.261 21.705c.64.64 1.5 1 2.422 1s1.77-.36 2.422-1l.36-.36c1.328-1.328 1.328-3.5 0-4.84L57.1 4.155c-.64-.641-1.5-1-2.421-1-.922 0-1.77.359-2.422 1l-.36.359c-.64.64-1 1.5-1 2.422s.36 1.77 1 2.422zm-5.629-8.801v-4.04l4.27 4.27v4.04zm9.239 6.848-.36.359c-.218.219-.52.34-.828.34-.32 0-.61-.121-.828-.34l-.7-.7v-4.038l2.72 2.718c.457.461.457 1.204-.004 1.66M53.49 6.092l.36-.36c.219-.219.52-.34.828-.34.32 0 .61.121.828.34l.88.88v4.038l-2.9-2.898a1.17 1.17 0 0 1-.339-.828 1.2 1.2 0 0 1 .344-.832M5.802 63.764a4.16 4.16 0 0 0-2.961 1.23c-.79.79-1.23 1.84-1.23 2.961s.44 2.172 1.23 2.96c.789.79 1.84 1.231 2.96 1.231a4.16 4.16 0 0 0 2.962-1.23c.789-.79 1.23-1.84 1.23-2.961a4.16 4.16 0 0 0-1.23-2.96c-.79-.802-1.84-1.231-2.961-1.231m1.37 5.558a1.94 1.94 0 0 1-2.75 0 1.91 1.91 0 0 1-.57-1.37c0-.52.2-1.013.57-1.372a1.935 1.935 0 0 1 2.742 0c.372.371.571.852.571 1.371a1.88 1.88 0 0 1-.562 1.371m52.493-32.348a3.82 3.82 0 0 0-3.36-1.09 5.88 5.88 0 0 1-4.058-.828l5.3-5.3c1.13-1.13 2.622-1.579 4.192-1.262a21.06 21.06 0 0 0 19.09-5.75 21.06 21.06 0 0 0 5.77-19.012 2.24 2.24 0 0 0-1.57-1.73c-.821-.25-1.661-.04-2.27.57L75.18 10.15l-5.641-2.672-2.672-5.64 7.578-7.579a2.24 2.24 0 0 0 .57-2.27 2.25 2.25 0 0 0-1.73-1.57 21.13 21.13 0 0 0-17.594 4.453l-.852-.851a3.35 3.35 0 0 0-2.558-1c-.98.039-1.84.46-2.469 1.21-4.18 4.942-5.84 11.423-4.55 17.79.32 1.57-.13 3.05-1.262 4.191l-5.622 5.621c-1.39-.531-3.03-.25-4.148.871l-.648.649-21.57-21.57-3.43-7.14c-.09-.192-.23-.34-.399-.45l-5.699-3.7a2.92 2.92 0 0 0-3.71.38l-2.9 2.898c-1 1-1.16 2.531-.39 3.711l3.7 5.7c.109.171.269.308.449.398l7.14 3.43 21.56 21.558-.65.649a3.88 3.88 0 0 0-.87 4.148l-27.22 27.25c-1.8 1.801-2.8 4.211-2.8 6.77 0 2.57.988 4.968 2.8 6.77 1.802 1.8 4.212 2.8 6.77 2.8 2.57 0 4.97-.988 6.77-2.8L40.03 47.255c.75 1.2 1.058 2.64.828 4.059-.2 1.261.18 2.46 1.09 3.36l23.789 23.788a5.92 5.92 0 0 0 4.199 1.738c1.52 0 3.039-.578 4.2-1.738l9.288-9.289a5.95 5.95 0 0 0 0-8.41zm13.18-44.37h.011s0 .01.012.019v.011L64.715.787c-.34.34-.422.84-.219 1.27l1.461 3.07-8.672-8.672a18.97 18.97 0 0 1 15.56-3.852zm-27.262 25.19c1.68-1.68 2.351-3.89 1.879-6.219-1.149-5.691.328-11.48 4.058-15.89.23-.27.5-.399.852-.422.351-.012.629.09.879.34L65.69 8.05c.09.09.2.172.31.22l8.929 4.23c.43.199.941.109 1.27-.22l8.14-8.14.012-.011h.031v.02c1.219 6.19-.7 12.538-5.16 16.987a18.82 18.82 0 0 1-17.06 5.14c-2.327-.468-4.538.2-6.218 1.88l-5.34 5.34a5.89 5.89 0 0 1-1.039-4.34c.23-1.45-.34-2.84-1.512-3.72-1.808-1.35-4.199-1.51-6.148-.57l-1.71-1.71zm-7.45 6.489 1.942 1.94-8.86 8.86-1.94-1.941a1.64 1.64 0 0 1 0-2.32l6.53-6.532a1.643 1.643 0 0 1 2.328-.007zm-8.468 17.32c.191.511.43 1.011.77 1.468.41.54.921.95 1.5 1.211L15.71 60.512c-.68.68-1.789.68-2.48 0-.68-.68-.68-1.789 0-2.48zM8.23 5.293q-.134-.133-.309-.218L.89 1.704l-3.531-5.43a.71.71 0 0 1 .09-.898L.347-7.523c.25-.25.61-.289.898-.09l5.43 3.531 3.38 7.032c.05.11.128.218.218.308l21.699 21.7-2.059 2.058zm3.312 67.278a7.28 7.28 0 0 1-5.191 2.14 7.3 7.3 0 0 1-5.192-2.14 7.28 7.28 0 0 1-2.14-5.192c0-1.969.762-3.808 2.14-5.191l27.004-26.984 1.711 1.71c-.28.59-.46 1.212-.539 1.852L11.651 56.442a3.996 3.996 0 1 0 5.657 5.649l17.578-17.578c1.289-.04 2.57.359 3.609 1.109zm70.328-4.989-9.289 9.29a3.704 3.704 0 0 1-5.23 0l-23.81-23.79c-.39-.39-.55-.87-.46-1.422a8.18 8.18 0 0 0-2.27-7.03 8.14 8.14 0 0 0-5.75-2.38q-.634-.002-1.25.102a1.57 1.57 0 0 1-1.57-.64 3.72 3.72 0 0 1 .351-4.829l9.29-9.289c1.289-1.289 3.37-1.441 4.828-.351.511.378.738.94.64 1.57a8.13 8.13 0 0 0 2.282 7 8.16 8.16 0 0 0 7.03 2.27c.551-.09 1.032.07 1.423.46l23.789 23.79c1.437 1.46 1.437 3.808-.004 5.25zm-13.117-.101a1.12 1.12 0 0 1 0 1.59 1.13 1.13 0 0 1-.789.328c-.289 0-.57-.11-.789-.329L47.843 49.742a1.12 1.12 0 0 1 0-1.59 1.12 1.12 0 0 1 1.59 0zm5.309-5.301a1.12 1.12 0 0 1 0 1.59 1.13 1.13 0 0 1-.79.328c-.288 0-.57-.11-.788-.328L53.14 44.43a1.12 1.12 0 0 1 0-1.59 1.12 1.12 0 0 1 1.59 0z"/></svg>