<svg xmlns="http://www.w3.org/2000/svg" viewBox="-5 -10 71.981 71.976"><path d="M36.063 12.682c-.465-.804-1.235-1.265-2.114-1.265a2.67 2.67 0 0 0-2.281 1.316c-.27.465-.348.977-.277 1.489h-.004c-.692 3.898-4.86 6.304-7.614 7.898l-2.355 1.36c-1.504.867-2.367 2.296-2.367 3.917 0 1.746.976 3.438 2.488 4.313a4.3 4.3 0 0 0 2.164.586c.36 0 .727-.051 1.086-.14l2.758 4.776c.512.887 1.32 1.258 2.113 1.258a2.67 2.67 0 0 0 1.313-.351c1.058-.61 1.742-2.016.93-3.422l-2.657-4.602c2.727-1.547 6.48-3.43 9.871-2.203v-.004c.41.317.895.504 1.43.504.926 0 1.82-.52 2.281-1.316.442-.762.426-1.66-.039-2.465zM22.433 30.16c-.953-.55-1.597-1.66-1.597-2.761 0-.692.258-1.664 1.473-2.367l1.578-.91 2.906 5.035-1.578.91c-1.211.703-2.184.441-2.781.094m7.645 6.125c-.144.086-.652.317-.98-.25L26.44 31.43l1.254-.723 2.656 4.602c.329.57-.128.89-.273.976m-1.73-8.023-2.91-5.039c2.394-1.406 5.6-3.5 7.058-6.652l5.144 8.91c-3.457-.317-6.878 1.414-9.293 2.781m12.93-2.363a.9.9 0 0 1-.73.426q-.353.002-.563-.372l-6.727-11.648c-.145-.25-.156-.472-.04-.675a.9.9 0 0 1 .731-.422c.235 0 .422.12.567.37l6.722 11.649c.145.25.157.469.04.672M10.376-.173l-6.36-6.359a.897.897 0 0 0-1.531.633V6.824a.897.897 0 0 0 1.531.633l6.36-6.36a.903.903 0 0 0 0-1.27zM4.274 4.66v-8.398l4.2 4.2zM1.317 23.085c-.665 0-1.211.543-1.211 1.207 0 .665.543 1.211 1.21 1.211.665 0 1.208-.543 1.208-1.21a1.21 1.21 0 0 0-1.207-1.208M6.083 24.292c0 1.614-2.418 1.614-2.418 0 0-1.609 2.418-1.609 2.418 0M9.638 24.296c0 1.61-2.418 1.61-2.418 0 0-1.613 2.418-1.613 2.418 0M-.562 51.655h-3.543A.897.897 0 0 0-5 52.55v8.527c0 .492.398.895.895.895h3.543a.897.897 0 0 0 .894-.895V52.55a.89.89 0 0 0-.894-.895m-.895 8.532h-1.75v-6.739h1.75zM6.184 48.397H2.64a.894.894 0 0 0-.895.895v11.789c0 .492.398.895.895.895h3.543a.897.897 0 0 0 .894-.895l.004-11.789a.9.9 0 0 0-.898-.895m-.895 11.79h-1.75V50.19h1.75zM56.024 45.303v1.301c-1.489.399-2.598 1.746-2.598 3.36v1.297c0 .41.277.77.68.867l4.515 1.129v.597c0 .922-.777 1.7-1.7 1.7a1.7 1.7 0 0 1-1.698-1.7.894.894 0 1 0-1.79 0c0 1.614 1.106 2.961 2.598 3.36v1.3a.894.894 0 1 0 1.79 0v-1.3c1.488-.399 2.597-1.746 2.597-3.36v-1.297a.89.89 0 0 0-.68-.867l-4.515-1.129-.004-.593c0-.922.777-1.7 1.7-1.7.937 0 1.698.766 1.698 1.7a.894.894 0 1 0 1.79 0c0-1.614-1.106-2.961-2.598-3.36v-1.3a.894.894 0 0 0-.895-.895.89.89 0 0 0-.89.89"/><path d="M66.087 30.124a.897.897 0 0 0 .894-.894v-9.945a.897.897 0 0 0-.894-.895h-4.293a31.3 31.3 0 0 0-3.223-8.078c4.566-.953 8.008-5.008 8.008-9.852 0-5.546-4.516-10.062-10.062-10.062-4.844 0-8.895 3.438-9.848 8.004a31.4 31.4 0 0 0-8.535-3.324C37.099-7.875 34.294-10 30.994-10c-3.302 0-6.106 2.125-7.141 5.078a31.4 31.4 0 0 0-8.536 3.324c-.953-4.562-5.007-8.004-9.851-8.004C-.081-9.602-4.596-5.086-4.596.46c0 4.852 3.449 8.91 8.023 9.856A31.5 31.5 0 0 0 .53 17.152c-3.266 1.246-5.524 3.844-5.524 6.847 0 2.711 1.84 5.086 4.594 6.446a31.8 31.8 0 0 0 8.899 17.887v12.75c0 .492.402.894.894.894h3.54a.897.897 0 0 0 .894-.894v-8.434a31.7 31.7 0 0 0 6.125 3.067l-.59.754c-.617.902-.703 1.98-.23 2.882.464.875 1.382 1.442 2.343 1.442.719 0 1.383-.297 1.926-.86.023-.023.047-.047.062-.074 1.04-1.34 1.446-1.879 1.856-2.41l.25-.328v3.105a.9.9 0 0 0 .566.832c1.547.61 3.18.918 4.856.918s3.308-.308 4.855-.918a.89.89 0 0 0 .567-.832v-3.11q.127.164.242.321c.406.535.812 1.067 1.855 2.41q.03.037.063.075c.535.554 1.223.859 1.93.859.96 0 1.882-.566 2.343-1.441.477-.903.391-1.98-.265-2.93l-.543-.695a32 32 0 0 0 4.934-2.336c.714 4.855 4.894 8.597 9.945 8.597 5.547 0 10.062-4.515 10.062-10.062 0-5.043-3.735-9.222-8.582-9.941a31.4 31.4 0 0 0 3.394-8.387h.707a.894.894 0 1 0 0-1.789h-1.39v-1.672zm-5.872-1.793H49.906v-1.07h15.285v1.07zm4.977-2.863H49.903V20.18h15.285zM48.247.46c0-.734.106-1.441.285-2.12h3.285a14 14 0 0 0-.175 2.12q.002 1.078.156 2.121h-3.266a8.3 8.3 0 0 1-.285-2.12m10.715-3.91h-4.883c.524-1.563 1.352-2.96 2.438-4.047 1.09 1.086 1.918 2.488 2.445 4.047m.457 1.79c.117.69.188 1.397.188 2.12s-.067 1.43-.188 2.121h-5.8a12.7 12.7 0 0 1-.184-2.12c0-.724.066-1.43.187-2.122zM64.794.46a8.3 8.3 0 0 1-.285 2.121h-3.285c.105-.695.175-1.402.175-2.12 0-.72-.07-1.427-.175-2.122h3.285c.176.68.285 1.387.285 2.121m-9.523 6.414a11 11 0 0 1-1.203-2.504h4.894c-.523 1.563-1.352 2.961-2.441 4.047a9.3 9.3 0 0 1-1.25-1.543M52.185 4.37c.36 1.246.89 2.418 1.59 3.485.125.191.273.355.406.535a8.3 8.3 0 0 1-4.945-4.02zM58.9 8.382c.859-1.176 1.507-2.539 1.933-4.008h2.973A8.32 8.32 0 0 1 58.9 8.382zM63.806-3.45h-2.973c-.426-1.469-1.07-2.836-1.934-4.008a8.3 8.3 0 0 1 4.907 4.008zm-9.668-4.008c-.86 1.172-1.508 2.54-1.93 4.008h-2.977a8.3 8.3 0 0 1 4.907-4.008m-23.145-.754a5.782 5.782 0 0 1 3.789 10.145 1.8 1.8 0 0 0-.418.535h-6.742a1.8 1.8 0 0 0-.418-.535 5.782 5.782 0 0 1 3.789-10.144zm-3.14 12.47h6.276V6.42a.975.975 0 0 1-.972.973H28.82a.975.975 0 0 1-.973-.973zM-2.808.46c0-4.562 3.71-8.269 8.269-8.269 4.562 0 8.273 3.71 8.273 8.27 0 4.562-3.71 8.273-8.273 8.273-4.559 0-8.27-3.711-8.27-8.274m-.4 23.543c0-3.226 3.622-5.847 8.079-5.847 4.453 0 8.078 2.625 8.078 5.847 0 1.977-1.383 3.813-3.691 4.903a.9.9 0 0 0-.512.808v3.09l-3.301-2.746a.88.88 0 0 0-.57-.207c-4.457 0-8.082-2.625-8.082-5.848zm15.243 36.184h-1.75V46.933h1.75zm29.23-1.683c-.262.496-.903.656-1.367.203-1.012-1.305-1.41-1.832-1.813-2.356a256 256 0 0 0-1.855-2.41.897.897 0 0 0-1.602.55v5.11c-2.336.782-4.93.782-7.262 0l-.004-5.113a.896.896 0 0 0-1.601-.55 185 185 0 0 0-1.86 2.421c-.402.528-.804 1.055-1.812 2.356-.465.453-1.106.289-1.367-.203-.117-.223-.188-.582.09-.993l4.972-6.355c.117-.148.473-.606.688-.606h9.054c.22 0 .57.454.688.606l4.934 6.3c.308.462.234.821.117 1.04m23.926-6.59c0 4.563-3.711 8.273-8.27 8.273-4.562 0-8.273-3.71-8.273-8.273s3.71-8.27 8.273-8.27c4.559 0 8.27 3.711 8.27 8.27m-8.836-10.03c-5.098.284-9.184 4.37-9.473 9.464a29.8 29.8 0 0 1-6 2.89l-3.262-4.168c-.304-.386-1.007-1.293-2.101-1.293h-9.055c-1.094 0-1.773.872-2.101 1.293l-3.262 4.168a29.9 29.9 0 0 1-7.281-3.734v-4.46a.894.894 0 0 0-.895-.895H9.387a.89.89 0 0 0-.844.632 30 30 0 0 1-7.015-14.586c.945.266 1.957.426 3.011.45l4.524 3.765a.89.89 0 0 0 .953.121.9.9 0 0 0 .515-.812v-4.45c2.645-1.425 4.207-3.734 4.207-6.265 0-4.21-4.43-7.64-9.867-7.64-.789 0-1.554.078-2.289.214a30 30 0 0 1 2.793-6.058c.031 0 .063.004.09.004 5.55 0 10.062-4.516 10.062-10.062q-.002-.044-.004-.086a29.7 29.7 0 0 1 7.922-3.336c-.012.176-.027.351-.027.527 0 2.191.949 4.273 2.605 5.715.031.027.035.039.035.082v3.059a2.764 2.764 0 0 0 2.762 2.761h4.336a2.764 2.764 0 0 0 2.762-2.761v-3.06c0-.038.007-.054.035-.077a7.56 7.56 0 0 0 2.605-5.715c0-.18-.015-.352-.027-.527A29.7 29.7 0 0 1 46.453.38c0 .027-.004.058-.004.085 0 5.551 4.516 10.062 10.062 10.062.027 0 .05-.003.078-.003a29.6 29.6 0 0 1 3.328 7.867H49.011a.894.894 0 0 0-.894.894v9.946c0 .492.398.894.894.894h4.98v1.672h-1.394a.897.897 0 0 0-.894.895c0 .496.398.894.894.894h7.356a29.8 29.8 0 0 1-3.598 8.297zm-.578-10.09V30.12h3.539v1.672z"/><path d="M30.993 39.827a4.46 4.46 0 0 0-4.454 4.454 4.456 4.456 0 0 0 4.454 4.453 4.456 4.456 0 0 0 4.453-4.453 4.456 4.456 0 0 0-4.453-4.454m0 7.114a2.664 2.664 0 0 1 0-5.328 2.665 2.665 0 0 1 0 5.328"/></svg>