<svg viewBox="0 0 67.7 67.8" xmlns="http://www.w3.org/2000/svg"><path d="m32.9 1c0-.5.4-.9.9-1 .5 0 .9.4 1 .9v3l4 2.3v2.4c3.4.7 6.6 2 9.4 3.9l1.7-1.7 5.5 1.5v.5c.1 0 1.5 5 1.5 5l-1.7 1.7c1.9 2.8 3.3 6.1 3.9 9.4h2.4l2.3 4h3c.5 0 .9.4.9.9s-.4.9-.9.9h-3l-2.3 4h-2.4c-.7 3.4-2 6.6-3.9 9.4l1.7 1.7-1.5 5.5h-.5c0 .1-5 1.5-5 1.5l-1.7-1.7c-2.8 1.9-6.1 3.3-9.4 3.9v2.4l-4 2.3v3c0 .5-.4.9-.9 1-.5 0-.9-.4-1-.9v-3l-4-2.3v-2.4c-3.4-.7-6.6-2-9.4-3.9l-1.7 1.7-5.5-1.5v-.5c-.1 0-1.5-5-1.5-5l1.7-1.7c-1.9-2.8-3.3-6.1-3.9-9.4h-2.4l-2.3-4h-3c-.5 0-.9-.4-.9-.9s.4-.9.9-.9h3l2.3-4h2.4c.7-3.4 2-6.6 3.9-9.4l-1.7-1.7 1.5-5.5h.5c0-.1 5-1.5 5-1.5l1.7 1.7c2.8-1.9 6.1-3.3 9.4-3.9v-2.4l4-2.3zm-19 19.9c-1.6 2.5-2.8 5.2-3.4 8.1h1.4l2.3 4h3.4c0-1 .7-1.8 1.6-2.1h.1c.8-.3 1.4-.8 1.6-1.6 0-.2.2-.4.3-.7 0-.2.2-.4.3-.6.2-.4.3-.7.3-1.1s-.1-.8-.3-1.1c-.2-.5-.3-1-.2-1.5 0-.5.3-.9.7-1.3l1.1-1.1c.7-.7 1.8-.9 2.7-.4.7.4 1.5.4 2.2 0 .2-.1.4-.2.6-.3.2 0 .4-.2.7-.3.8-.3 1.3-.8 1.6-1.6.3-1 1.1-1.6 2.1-1.7v-3.4l-4-2.3v-1.4c-2.9.6-5.6 1.7-8.1 3.4l1 1-1.5 5.5-5.5 1.5zm1.7-7.5-1.7.5-.9 3.4 2.5 2.5 3.4-.9.9-3.4-2.5-2.5-1.7.5zm-5.1 25.4c.3 1.4.7 2.8 1.3 4.2s1.3 2.7 2.1 3.9l1-1 5.5 1.5 1.5 5.5-1 1c2.5 1.6 5.2 2.7 8.1 3.4v-1.4l4-2.3v-3.4c-1 0-1.8-.7-2.1-1.6-.2-.9-.8-1.5-1.6-1.7-.4-.2-.9-.3-1.3-.5-.7-.4-1.5-.3-2.2 0-.9.5-2 .3-2.7-.4-.3-.4-.8-.8-1.1-1.1-.7-.7-.9-1.8-.4-2.7.4-.8.4-1.6 0-2.3 0-.3-.2-.4-.3-.6 0-.2-.2-.4-.3-.7-.2-.8-.9-1.3-1.6-1.6h-.1c-.9-.3-1.6-1.1-1.6-2.1h-3.4l-2.3 4h-1.4zm-4-6.4-.9 1.5 1.8 3.1h3.5l1.8-3.1-1.8-3.1h-3.5l-.9 1.5zm6.9 19.8.5 1.7 3.4.9 2.5-2.5-.9-3.4-3.4-.9-2.5 2.5.5 1.7zm25.4 5c2.9-.6 5.6-1.7 8.1-3.4l-1-1 1.5-5.5 5.5-1.5 1 1c1.6-2.5 2.7-5.2 3.4-8.1h-1.4l-2.3-4h-3.4c0 1-.7 1.8-1.6 2.1-.4.1-.7.4-1 .6-.3.3-.5.6-.6 1-.2.4-.3.9-.5 1.3-.4.7-.3 1.5 0 2.2.5 1 .3 2.1-.4 2.8l-1.1 1.1c-.7.7-1.8.9-2.7.4-.7-.4-1.5-.4-2.2 0-.2.1-.4.2-.6.3-.2 0-.4.2-.7.3-.8.2-1.3.9-1.6 1.6-.3 1-1.1 1.6-2.1 1.7v3.4l4 2.3v1.4zm-6.5 4.1 1.5.9 3.1-1.8v-3.5l-3.1-1.8-3.1 1.8v3.5l1.5.9zm19.8-7 1.7-.5.9-3.4-2.5-2.5-3.4.9-.9 3.4 2.5 2.5 1.7-.5zm5.1-25.3c-.6-2.9-1.7-5.6-3.4-8.1l-1 1-5.5-1.5-1.5-5.5 1-1c-2.5-1.6-5.2-2.7-8.1-3.4v1.4l-4 2.3v3.4c1 0 1.8.7 2.1 1.6.2.9.8 1.5 1.6 1.7.2 0 .4.2.7.3l.6.3c.4.2.7.3 1.1.3s.8-.1 1.1-.3h.2c.4-.3.9-.3 1.4-.3.5 0 .9.3 1.2.7l1.1 1.1c.3.3.6.8.7 1.3 0 .5 0 1-.2 1.4-.4.8-.4 1.6 0 2.3 0 .2.2.4.3.6 0 .2.2.4.3.7.2.8.8 1.3 1.6 1.6.9.3 1.5 1.1 1.6 2.1h3.4l2.3-4zm4 6.4.9-1.5-1.8-3.1h-3.5l-1.8 3.1 1.8 3.1h3.5l.9-1.5zm-6.9-19.8-.5-1.7-3.4-.9-2.5 2.5.9 3.4 3.4.9 2.5-2.5-.5-1.7zm-18.9-9.1-1.5-.9-3.1 1.8v3.5l3.1 1.8 3.1-1.8v-3.5l-1.5-.9zm-1.6 18.6c-4.8 0-8.7 3.9-8.7 8.7s3.9 8.7 8.7 8.7 8.7-3.9 8.7-8.7c0-2.3-.9-4.5-2.6-6.2-1.6-1.6-3.9-2.6-6.2-2.6m5 4c-2.7-2.7-7-2.7-9.7 0s-2.7 7 0 9.7 7 2.7 9.7 0c1.3-1.3 2-3 2-4.9 0-1.8-.7-3.6-2-4.9zm-.3-6.1c-.2 0-.4-.1-.6-.2-1.3-.4-2.3-1.5-2.7-2.8 0 0 0 0 0-.1 0 0 0-.2-.2-.2 0 0-.2 0-.3 0h-1.6c-.2 0-.4.1-.4.3-.4 1.4-1.4 2.4-2.7 2.9-.2 0-.4.1-.6.2-.2 0-.3.1-.5.2-1.2.6-2.7.6-3.9 0s-.2-.1-.3 0c0 0-.2 0-.2.1l-1.1 1.1s-.1.2-.1.3v.3c.6 1.3.7 2.7 0 4 0 .2-.2.4-.2.6s-.1.4-.2.6c-.4 1.3-1.5 2.3-2.8 2.7h-.1s-.2.1-.2.2v.3 1.6.3s.1.1.2.2h.1c1.3.4 2.3 1.4 2.8 2.7.1.4.3.7.4 1.1.6 1.3.6 2.7 0 3.9v.4s0 .2.1.3c.4.4.7.8 1.1 1.1 0 0 .2.1.3.1h.3c1.2-.7 2.7-.7 3.9-.1.2 0 .3.2.6.2.2 0 .4.1.6.2 1.3.4 2.3 1.5 2.7 2.7v.1c0 .2.2.3.4.3h1.6c.2 0 .4-.1.4-.3.4-1.4 1.4-2.4 2.7-2.9.4-.1.7-.3 1.1-.4 1.2-.6 2.7-.6 3.9 0 .2.1.4.1.5 0 0 0 1-1 1.1-1.1s.2-.4 0-.5c-.6-1.2-.7-2.7 0-3.9 0-.2.2-.4.2-.6s.2-.4.2-.6c.4-1.3 1.5-2.3 2.8-2.7s.2 0 .2-.2c0 0 0-.2 0-.3v-1.6s0-.2 0-.3c0 0-.1-.1-.2-.2-1.3-.4-2.3-1.4-2.8-2.7 0-.2-.1-.4-.2-.6 0-.2-.1-.3-.2-.5-.6-1.3-.6-2.7 0-3.9 0-.2 0-.3 0-.4 0 0 0-.2-.1-.3 0 0-1-1-1.1-1.1 0 0-.1-.1-.2-.1s-.2 0-.3 0h-.1c-1.2.7-2.7.7-3.9.1-.2 0-.3-.2-.5-.2z" fill-rule="evenodd"/></svg>