<svg viewBox="-5 -10 83.226219 83.206169" xmlns="http://www.w3.org/2000/svg"><path d="m30.964389 7.3271725c-.5 0-.97266-.23047-1.2773-.62891-3.5-4.6094-9.1016-7.11329999-13.184-8.4062-4.5234-1.4336-8.2461004-1.7344-8.2852004-1.7344l.0039-.0039c-.66016-.04687-1.2188-.49609-1.4141-1.125-.19141-.62891.01953-1.3164.53906-1.7227 2.8242004-2.25 6.0391004-3.4883 9.5547004-3.6797 2.8594-.1562495 5.9219.38281 9.1055 1.6016 5.5273 2.1133 10.016 5.7461 11.688 7.2109.64844.58594001.71094 1.58200001.13281 2.2422-.57422.66016-1.5742.73047-2.2383.16406-1.5469-1.35159999-5.6797-4.6992-10.727-6.6328-4.3984-1.6836-8.3633-1.8633-11.82-.54687 1.2852.27344 2.7695.64062 4.3516 1.1406 6.5234 2.0508 11.656 5.35160001 14.844 9.543l-.0039.0039c.37109.48437.43359 1.1328.16406 1.6797-.26953.54297-.82812.88672-1.4336.89062z"/><path d="m47.214389 35.428173c-.16016 0-.32031-.02344-.47266-.06641-.625-.19531-1.0703-.75391-1.1211-1.4102 0-.03516-.30078-3.7578-1.7344-8.2812-1.293-4.082-3.8008-9.6797-8.4062-13.184v-.0039c-.69531-.53516-.82812-1.5352-.29688-2.2305.53516-.6992205 1.5273-.8398405 2.2344-.3164105 4.1914 3.1875005 7.4922 8.3203005 9.5469 14.8440005.5 1.5859.86719 3.0664 1.1367 4.3516 1.3203-3.4609 1.1406-7.4219-.54688-11.82-1.9336-5.0469-5.2852-9.1836005-6.6328-10.7270005-.58203-.66406-.51562-1.6758.14844-2.2578.66406-.58203 1.6758-.51172 2.2578.15234 1.4648 1.6719 5.1016 6.1602005 7.2148 11.6880005 1.2188 3.1836 1.7578 6.2461 1.6016 9.1055-.19141 3.5156-1.4297 6.7305-3.6797 9.5547-.30469.38281-.76562.60156-1.25.60156z"/><path d="m34.913389 14.342173c-.42578 0-.83203-.16797-1.1328-.46875l-5.4844-5.4805005.0039-.0039c-.30078-.29688-.46875-.70703-.46875-1.1289 0-.42578.16797-.83203.46875-1.1328l8.8867-8.8867-.0039.0039c.625-.625 1.6406-.625 2.2617 0l5.4844 5.4844v-.0039c.625.625.625 1.6367 0 2.2617l-8.8867 8.8867005h.0039c-.30078.30078-.70703.46875-1.1328.46875zm-3.2188-7.0820005 3.2188 3.2188005 6.6211-6.6211005-3.2148-3.22269999z"/><path d="m2.2803886 47.151173c-3.01559996.0039-5.7227-1.8633-6.7891-4.6836-1.0703-2.8203-.28125-6.0117 1.9805-8.0078l27.5200004-24.34h-.0039c.32031-.2812505.73437-.4257805 1.1602-.3984405.42188.02734.82031.21875 1.1016.5390605.58594.66016.52344 1.6719-.14062 2.2578l-27.52000036 24.34c-.82812004.74219-1.32030004 1.793-1.34770004 2.9102-.03125 1.1133.39844 2.1914 1.18750004 2.9805.78516.78906 1.86719996 1.2188 2.98049996 1.1875 1.1133-.03125 2.168-.51953 2.9102-1.3516l24.3360004-27.52c.58594-.66406 1.5977-.72656 2.2617-.14063.66016.58594.72266 1.5977.14062 2.2578l-24.3440004 27.523c-1.3281 1.4961-3.2148 2.3789-5.2148 2.4453z"/><path d="m34.167389 21.034173c-.42578 0-.83203-.16797-1.1328-.46875l-11.426-11.4260005c-.625-.625-.625-1.6367 0-2.2617l5.3398-5.3398v-.0039c.625-.62499999 1.6367-.62499999 2.2617 0 .625.625.625 1.6406 0 2.2656l-4.207 4.2031 9.1641 9.1641005 4.2109-4.2109-.0039.0039c.625-.625 1.6367-.625 2.2617 0s.625 1.6367 0 2.2617l-5.3398 5.3398v.0039c-.29688.30078-.70703.46875-1.1289.46875z"/><path d="m6.5183886 45.245173c-.42188 0-.83203-.16797-1.1289-.46875l-7.9883-7.9883c-.625-.625-.625-1.6367 0-2.2617s1.64060004-.625 2.26560004 0l7.98439996 7.9844c.45703.45703.59375 1.1484.34766 1.7461s-.83203.98828-1.4805.98828z"/><path d="m26.015389 23.198173c-.42578 0-.83203-.16797-1.1328-.46875l-5.4375-5.4375c-.30859-.30078-.48438-.70703-.48828-1.1367 0-.42969.16797-.83984.46875-1.1445.30469-.30078.71484-.46875 1.1445-.46875.42969.0039.83594.17969 1.1367.48828l5.4375 5.4375c.45703.45703.59375 1.1445.34766 1.7422-.25.59766-.83203.98828-1.4766.98828z"/><path d="m76.620389 73.206173h-80.0000004c-.88281 0-1.6016-.71875-1.6016-1.6016v-13.727c0-.88281.71875-1.5977 1.6016-1.5977s1.6016.71484 1.6016 1.5977v12.125h76.7970004v-53.844c0-.88281.71875-1.6016 1.6016-1.6016s1.6016.71875 1.6016 1.6016v55.445c0 .42578-.17187.83203-.46875 1.1328-.30078.29688-.70703.46875-1.1328.46875z"/><path d="m2.9563886 63.405173c-1.6484-.0039-3.23829996-.60938-4.4688-1.707l-2.9336-2.6289c-.32422-.28125-.52344-.67969-.55078-1.1055-.027343-.42969.12109-.85156.40625-1.168.28516-.32031.6875-.51172 1.1172-.53125.42578-.02344.84766.12891 1.1602.42188l2.93360004 2.625c.70311996.62891 1.62889996.94531 2.57029996.88281l17.5780004-1.2266c1.6289-.11328 2.9648-1.3477 3.207-2.9648.36328-2.4648 2.0703-4.5195 4.4258-5.332l6.4414-2.2305c.57422-.19922 1.0859-.54297 1.4844-1l4.457-5.082c1.2695-1.4453 3.1016-2.2773 5.0273-2.2773h11.445c1.9258 0 3.4844-1.5625 3.4883-3.4883v-20.434c0-.88281.71484-1.6016 1.6016-1.6016h14.273c.88281 0 1.6016.71875 1.6016 1.6016 0 .88281-.71875 1.6016-1.6016 1.6016h-12.676v18.832c-.0039 3.6914-2.9961 6.6836-6.6875 6.6875h-11.445c-1.0039 0-1.9609.43359-2.625 1.1875l-4.457 5.082c-.76562.87109-1.7422 1.5312-2.8398 1.9102l-6.4414 2.2305c-1.2266.42187-2.1172 1.4961-2.3086 2.7812-.46094 3.1055-3.0195 5.4688-6.1484 5.6875l-17.5780004 1.2266c-.15234.01172-.30469.01953-.45703.01953z"/><path d="m47.968389 73.206173c-.04687 0-.10156 0-.14062-.0078-.42188-.03516-.8125-.24219-1.0859-.56641-.27344-.32422-.40625-.74609-.36719-1.168.09375-.97266.25781-1.9414.48828-2.8906.33203-1.5.64453-2.918.375-5.7344s-.84766-4.1484-1.4609-5.5586c-.68359-1.5742-1.3906-3.207-1.7109-6.5273-.32031-3.3203.06641-5.0547.4375-6.7305h.0039c.19922-.81641.33984-1.6445.42578-2.4805.07813-.87891.85156-1.5312 1.7344-1.4531.87891.07422 1.5312.85156 1.4531 1.7344-.09766.97266-.25781 1.9375-.48828 2.8906-.33203 1.5-.64453 2.918-.375 5.7344s.84766 4.1484 1.4609 5.5586c.68359 1.5742 1.3906 3.207 1.7109 6.5273.32031 3.3203-.06641 5.0547-.4375 6.7305h-.0039c-.19922.81641-.34375 1.6445-.42578 2.4805-.07422.82422-.76562 1.457-1.5938 1.4609z"/><path d="m76.620389 55.905173c-.24219 0-.48047-.05859-.69922-.16406-1.0273-.5-2.4531-1.3086-4.3945-3.043-2.4883-2.2227-3.3828-3.7578-4.2461-5.2422-.77344-1.3281-1.5-2.582-3.6133-4.4648-1.0586-.94531-2-1.6406-2.957-2.1797v-.0039c-.38281-.20312-.66406-.55078-.78516-.96484-.12109-.41406-.07031-.85938.14062-1.2344.21094-.375.56641-.65234.98438-.76172s.85937-.04688 1.2305.17578c1.1641.65625 2.2852 1.4766 3.5195 2.582 2.4844 2.2227 3.3789 3.7578 4.2461 5.2422.77344 1.3281 1.5 2.582 3.6133 4.4688 1.6445 1.4688 2.7773 2.1172 3.6758 2.5586l-.0039-.0039c.67187.32812 1.0234 1.0742.85156 1.8008-.16797.72266-.81641 1.2383-1.5625 1.2344z"/><path d="m17.288389 73.206173c-.05469 0-.10938 0-.16406-.0078-.42188-.04297-.80859-.25391-1.0781-.58203-.26953-.33203-.39453-.75391-.35156-1.1758.10547-1.1445.09766-2.3008-.03125-3.4453-.26953-2.8164-.84766-4.1484-1.4609-5.5586-.12109-.28125-.25-.57422-.375-.87891h.0039c-.17188-.39453-.17578-.83984-.01563-1.2383.16016-.39844.47656-.71484.875-.87891.39844-.16406.84766-.16016 1.2422.01172.39453.16797.70312.49219.85938.89062.11328.27344.22656.53906.34766.82031.68359 1.5742 1.3906 3.207 1.7109 6.5273.14453 1.3555.15625 2.7227.02734 4.0781-.08203.81641-.76953 1.4336-1.5898 1.4375z"/></svg>