<svg xmlns="http://www.w3.org/2000/svg" viewBox="-5 -10 73.376 66.934"><path d="M61.938-10H1.43A6.437 6.437 0 0 0-5-3.57v39.145a6.437 6.437 0 0 0 6.43 6.43h17.719v6.304c-2.102.3-3.73 2.094-3.73 4.281a4.35 4.35 0 0 0 4.343 4.344h23.852a4.35 4.35 0 0 0 4.344-4.344c0-2.183-1.63-3.98-3.73-4.28v-6.306h17.718a6.437 6.437 0 0 0 6.43-6.43L68.368-3.57a6.435 6.435 0 0 0-6.43-6.43zM1.43-6.875h60.512c1.82 0 3.304 1.48 3.304 3.305v35.133l-67.12-.004v-35.13c0-1.82 1.48-3.304 3.304-3.304zm43.398 59.461a1.22 1.22 0 0 1-1.22 1.219H19.758a1.22 1.22 0 0 1-1.219-1.219 1.22 1.22 0 0 1 1.219-1.219h23.852a1.22 1.22 0 0 1 1.219 1.219m-3.73-4.344H22.268V42h18.828zm20.84-9.363H1.428a3.31 3.31 0 0 1-3.304-3.305v-.89h67.117v.89c0 1.82-1.481 3.305-3.305 3.305z"/><path d="M48.473 23.66c-.653-1.867-2.41-3.219-4.5-3.219-2.086 0-3.848 1.352-4.5 3.219H13.352a1.562 1.562 0 1 0 0 3.125H39.48c.652 1.867 2.41 3.219 4.5 3.219 2.086 0 3.847-1.352 4.5-3.219h3.468a1.562 1.562 0 1 0 0-3.125zm-4.496 3.219c-.91 0-1.645-.735-1.653-1.64q.002-.006.004-.016c0-.004-.004-.008-.004-.016a1.653 1.653 0 0 1 3.305 0q-.002.005-.004.016c0 .003.004.007.004.015a1.66 1.66 0 0 1-1.652 1.64M33.329 8.055l5.558 5.559H28.535a1.562 1.562 0 1 0 0 3.125h14.121a1.56 1.56 0 0 0 1.106-.457l8.226-8.227c.61-.61.61-1.598 0-2.21l-8.226-8.228a1.565 1.565 0 0 0-2.211 0l-8.227 8.227a1.57 1.57 0 0 0 .004 2.211zM42.66.934l6.015 6.016-6.015 6.015-6.016-6.015zM23.05 16.738a1.562 1.562 0 1 0 0-3.125h-5.706a1.562 1.562 0 1 0 0 3.125zM11.707 8.512h16.828a1.562 1.562 0 1 0 0-3.125H11.707a1.562 1.562 0 1 0 0 3.125M27.219 1.613h6a1.562 1.562 0 1 0 0-3.125h-6a1.562 1.562 0 1 0 0 3.125M14.489 1.613h6.219a1.562 1.562 0 1 0 0-3.125h-6.22a1.562 1.562 0 1 0 0 3.125"/></svg>