<svg viewBox="0 0 334.2 290.3" xmlns="http://www.w3.org/2000/svg"><path d="m327.5 23.9h-76.7c-3.7 0-6.7 3-6.7 6.7v165.6c0 3.7 3 6.7 6.7 6.7h31.6v39.6h-108.7v-39.6h43.8c3.7 0 6.7-3 6.7-6.7v-189.5c0-3.7-3-6.7-6.7-6.7h-100.9c-3.7 0-6.7 3-6.7 6.7v189.4c0 3.7 3 6.7 6.7 6.7h43.8v39.6h-108.7v-39.6h31.6c3.7 0 6.7-3 6.7-6.7v-165.6c0-3.7-3-6.7-6.7-6.7h-76.6c-3.7 0-6.7 3-6.7 6.7v165.6c0 3.7 3 6.7 6.7 6.7h31.6v46.3c0 3.7 3 6.7 6.7 6.7h115.4v34.6h13.4v-34.6h115.4c3.7 0 6.7-3 6.7-6.7v-46.3h31.6c3.7 0 6.7-3 6.7-6.7v-165.6c0-3.7-3-6.7-6.7-6.7m-204.2-10.4h87.6v176h-87.6zm-109.9 23.8h63.3v152.2h-63.3zm307.4 152.2h-63.3v-152.2h63.3v152.1z"/><path d="m271 48.2h36.4v13.4h-36.4zm0 28.9h36.4v13.4h-36.4zm0 27h12.9v13.4h-12.9zm18.2 79.6c11 0 20-9 20-20s-9-20-20-20-20 9-20 20 9 20 20 20m0-26.7c3.7 0 6.6 3 6.6 6.6s-3 6.6-6.6 6.6-6.6-3-6.6-6.6 2.9-6.6 6.6-6.6m-262.4-108.8h36.4v13.4h-36.4zm0 28.9h36.4v13.4h-36.4zm23.5 27h12.9v13.4h-12.9zm-5.3 39.5c-11 0-20 9-20 20s9 20 20 20 20-9 20-20-9-20-20-20m0 26.7c-3.7 0-6.6-3-6.6-6.6s3-6.6 6.6-6.6 6.6 3 6.6 6.6-2.9 6.6-6.6 6.6m93.6-142.8h57.1v13.4h-57.1zm0 25h57.1v13.4h-57.1zm0 26.6h13.4v13.4h-13.4zm28.5 55.8c-12.9 0-23.3 10.5-23.3 23.3 0 12.9 10.5 23.3 23.3 23.3 12.9 0 23.3-10.5 23.3-23.3 0-12.9-10.5-23.3-23.3-23.3m0 33.3c-5.5 0-10-4.5-10-10s4.5-10 10-10 10 4.5 10 10-4.5 10-10 10"/></svg>