<?xml version="1.0" encoding="UTF-8"?>
<svg id="Layer_1" xmlns="http://www.w3.org/2000/svg" version="1.1" viewBox="0 0 334.2 290.3">
  <!-- Generator: Adobe Illustrator 29.1.0, SVG Export Plug-In . SVG Version: 2.1.0 Build 142)  -->
  <path d="M327.5,23.9h-76.7c-3.7,0-6.7,3-6.7,6.7v165.6c0,3.7,3,6.7,6.7,6.7h31.6v39.6h-108.7v-39.6h43.8c3.7,0,6.7-3,6.7-6.7V6.7c0-3.7-3-6.7-6.7-6.7h-100.9c-3.7,0-6.7,3-6.7,6.7v189.4c0,3.7,3,6.7,6.7,6.7h43.8v39.6H51.7v-39.6h31.6c3.7,0,6.7-3,6.7-6.7V30.5c0-3.7-3-6.7-6.7-6.7H6.7c-3.7,0-6.7,3-6.7,6.7v165.6c0,3.7,3,6.7,6.7,6.7h31.6v46.3c0,3.7,3,6.7,6.7,6.7h115.4v34.6h13.4v-34.6h115.4c3.7,0,6.7-3,6.7-6.7v-46.3h31.6c3.7,0,6.7-3,6.7-6.7V30.5c0-3.7-3-6.7-6.7-6.7M123.3,13.4h87.6v176h-87.6V13.4ZM13.4,37.2h63.3v152.2H13.4V37.2ZM320.8,189.4h-63.3V37.2h63.3v152.1Z"/>
  <path d="M271,48.2h36.4v13.4h-36.4v-13.4ZM271,77.1h36.4v13.4h-36.4v-13.4ZM271,104.1h12.9v13.4h-12.9v-13.4ZM289.2,183.7c11,0,20-9,20-20s-9-20-20-20-20,9-20,20,9,20,20,20M289.2,157c3.7,0,6.6,3,6.6,6.6s-3,6.6-6.6,6.6-6.6-3-6.6-6.6c0-3.6,2.9-6.6,6.6-6.6M26.8,48.2h36.4v13.4H26.8v-13.4ZM26.8,77.1h36.4v13.4H26.8v-13.4ZM50.3,104.1h12.9v13.4h-12.9v-13.4ZM45,143.6c-11,0-20,9-20,20s9,20,20,20,20-9,20-20-9-20-20-20M45,170.3c-3.7,0-6.6-3-6.6-6.6s3-6.6,6.6-6.6,6.6,3,6.6,6.6c0,3.6-2.9,6.6-6.6,6.6M138.6,27.5h57.1v13.4h-57.1v-13.4ZM138.6,52.5h57.1v13.4h-57.1v-13.4ZM138.6,79.1h13.4v13.4h-13.4v-13.4ZM167.1,134.9c-12.9,0-23.3,10.5-23.3,23.3,0,12.9,10.5,23.3,23.3,23.3,12.9,0,23.3-10.5,23.3-23.3,0-12.9-10.5-23.3-23.3-23.3M167.1,168.2c-5.5,0-10-4.5-10-10s4.5-10,10-10,10,4.5,10,10-4.5,10-10,10"/>
</svg>