<svg viewBox="0 0 88.9 88.9" xmlns="http://www.w3.org/2000/svg"><path d="m88.2 36.1c-1.6-8.4-5.8-15.9-11.7-22-.1-.6-1.3-1.6-1.6-1.6-8.2-7.6-19-12.4-30.2-12.5-6.6 0-13.1 1.4-19.1 4.2-17.2 8-27.9 28-25.2 46.8 1.4 9.3 5.9 18 12.4 24.7l.6.6c4.1 4 8.9 7.3 14.2 9.5 16.1 6.6 35.6 2.6 47.9-9.4 10.5-10.3 15.4-25.9 12.6-40.3zm-83.5.5c3.7-18.3 21-32.4 39.5-32.6 6 0 12 1.3 17.4 3.8 3.7 1.7 7 4 10 6.8l-24.3 24.3 5-16.2c.4-.9-.2-2-1.2-2.3-.2 0-.4 0-.6 0-.8 0-1.6.5-1.8 1.4l-7.1 22.9-10.7 10.7c.2-.7 0-1.6-.6-2.1l-11.4-9.5 11.4-9.5c.8-.7.9-1.9.2-2.7-.4-.4-.9-.7-1.5-.7s-.9.1-1.2.4l-13.1 11c-.4.4-.7.9-.7 1.5s.2 1.1.7 1.5l13.1 11c.4.3.7.4 1.2.4s.4 0 .6 0l-15.2 15.2c-8.4-9.6-12.1-23-9.7-35.3zm79.9 13.6c-2 14-11.8 26.5-24.8 31.8-14.2 5.8-31.3 2.6-42.5-7.5l21.7-21.7-4.2 13.4c-.3 1 .2 2.1 1.2 2.4h.6c.9 0 1.6-.6 1.8-1.4l6.2-20.1 1.2-1.2 12.1-12.1c0 .4.3.7.6 1l11.4 9.5-11.3 9.5c-.8.7-.9 1.9-.2 2.7.4.4.9.7 1.5.7s.9-.2 1.2-.4l13.1-11c.4-.4.7-.9.7-1.5s-.2-1.1-.7-1.5l-13.2-11c-.3-.2-.5-.3-.8-.4l14.1-14.1c7.8 8.8 11.9 21 10.2 32.7z"/></svg>