<svg xmlns="http://www.w3.org/2000/svg" viewBox="-5 -10 93.002 91.888"><path d="M76.832 31.087H85v-4.47h-8.168zM43.473 81.884a1.5 1.5 0 0 1 0-3h11.648v-9.512h-2.504a1.5 1.5 0 0 1-1.5-1.5v-7.234h-8.75a5.8 5.8 0 0 1-4.094-1.7 5.77 5.77 0 0 1-1.71-4.097c0-1.598.656-3.051 1.702-4.102l.094-.086a5.79 5.79 0 0 1 4.004-1.613h12.758v-9.66H42.703a6.26 6.26 0 0 1-4.437-1.848l-.008-.008a6.3 6.3 0 0 1-1.762-3.437H28.25v46.3a1.5 1.5 0 0 1-1.5 1.5H-3.5a1.5 1.5 0 0 1-1.5-1.5v-55.27a1.5 1.5 0 0 1 1.5-1.5h22.398V20.45H1.589a6.57 6.57 0 0 1-4.648-1.934 6.57 6.57 0 0 1-1.938-4.656V-3.41c0-1.813.742-3.461 1.934-4.656A6.57 6.57 0 0 1 1.593-10h37.62c1.763 0 3.376.707 4.56 1.848l.093.086A6.57 6.57 0 0 1 45.8-3.41v3.25c3.133-2 6.851-3.164 10.828-3.164 5.558 0 10.613 2.273 14.273 5.933s5.933 8.715 5.933 14.273v6.73h9.668a1.5 1.5 0 0 1 1.5 1.5v7.47l-.003.093v47.703a1.5 1.5 0 0 1-3 0v-46.3h-8.247a6.3 6.3 0 0 1-1.765 3.44 6.25 6.25 0 0 1-4.442 1.852H58.127v9.66H70.89c1.59 0 3.04.653 4.09 1.704a5.78 5.78 0 0 1 1.707 4.097c0 1.59-.652 3.043-1.703 4.094a5.78 5.78 0 0 1-4.094 1.707h-8.757v7.235a1.5 1.5 0 0 1-1.5 1.5h-2.504v9.511h11.648a1.5 1.5 0 0 1 0 3H43.479zm15.652-21.2h-5.008v5.688h5.008zm11.758-8.644H42.367c-.742 0-1.418.29-1.918.758l-.059.062a2.784 2.784 0 0 0 0 3.953 2.78 2.78 0 0 0 1.977.821h28.516a2.8 2.8 0 0 0 1.98-4.774 2.8 2.8 0 0 0-1.98-.824zM36.41 31.087v-4.469H-2.004v4.47zm0-7.469V20.45H21.894v3.168zm0-6.168v-.562q0-.773.059-1.527H-1.676a3.579 3.579 0 0 0 3.258 2.086h34.827zm.516-5.09a20.25 20.25 0 0 1 5.87-10.18v-5.585c0-.984-.406-1.883-1.054-2.535l-.062-.067a3.6 3.6 0 0 0-2.473-.988H1.586C.6-6.995-.297-6.589-.95-5.94a3.58 3.58 0 0 0-1.055 2.535v15.77h38.93zm31.848-7.624C65.652 1.614 61.352-.32 56.622-.32S47.586 1.618 44.47 4.736c-3.122 3.12-5.055 7.421-5.055 12.152V33.09c0 .906.371 1.73.96 2.32a3.27 3.27 0 0 0 2.329.969H70.54c.902 0 1.727-.371 2.32-.97a3.27 3.27 0 0 0 .969-2.323V16.884c0-4.73-1.938-9.032-5.055-12.152zM15.169 70.92a1.5 1.5 0 0 1 0 3H8.07a1.5 1.5 0 0 1 0-3zm0-15.934a1.5 1.5 0 0 1 0 3H8.07a1.5 1.5 0 0 1 0-3zm0-15.934a1.5 1.5 0 0 1 0 3H8.07a1.5 1.5 0 0 1 0-3zm10.074 7.964V34.082h-27.25v12.934zm0 15.934V50.016h-27.25V62.95zm-27.25 15.934h27.25V65.95h-27.25z"/></svg>