<svg viewBox="0 0 58 66" xmlns="http://www.w3.org/2000/svg"><path d="m39 33c0 .6-.4 1-1 1s-1-.4-1-1v-1c0-2.9-2-5-4.5-5h-6.5c-3 0-5 2.1-5 5v1c0 .6-.4 1-1 1s-1-.4-1-1v-1c0-4.1 2.9-7 7-7h6.5c3.6 0 6.5 3 6.5 7zm-26 11c-.6 0-1-.4-1-1s.4-1 1-1h32c.6 0 1 .4 1 1s-.4 1-1 1zm-11-42v63c0 .6-.4 1-1 1s-1-.4-1-1v-64c0-.6.4-1 1-1h56c.6 0 1 .4 1 1v64c0 .6-.4 1-1 1s-1-.4-1-1v-63zm11 53c-.6 0-1-.4-1-1s.4-1 1-1h32c.6 0 1 .4 1 1s-.4 1-1 1zm0 11c-.6 0-1-.4-1-1s.4-1 1-1h16c.6 0 1 .4 1 1s-.4 1-1 1zm16-44c-3.3 0-6-2.7-6-6s2.7-6 6-6 6 2.7 6 6-2.7 6-6 6zm0-2c2.2 0 4-1.8 4-4s-1.8-4-4-4-4 1.8-4 4 1.8 4 4 4"/></svg>