<?xml version="1.0" encoding="UTF-8"?>
<svg id="Layer_1" xmlns="http://www.w3.org/2000/svg" version="1.1" viewBox="0 0 58 66">
  <!-- Generator: Adobe Illustrator 29.1.0, SVG Export Plug-In . SVG Version: 2.1.0 Build 142)  -->
  <path d="M39,33c0,.6-.4,1-1,1s-1-.4-1-1v-1c0-2.9-2-5-4.5-5h-6.5c-3,0-5,2.1-5,5v1c0,.6-.4,1-1,1s-1-.4-1-1v-1c0-4.1,2.9-7,7-7h6.5c3.6,0,6.5,3,6.5,7v1ZM13,44c-.6,0-1-.4-1-1s.4-1,1-1h32c.6,0,1,.4,1,1s-.4,1-1,1H13ZM2,2v63c0,.6-.4,1-1,1s-1-.4-1-1V1C0,.4.4,0,1,0h56c.6,0,1,.4,1,1v64c0,.6-.4,1-1,1s-1-.4-1-1V2H2ZM13,55c-.6,0-1-.4-1-1s.4-1,1-1h32c.6,0,1,.4,1,1s-.4,1-1,1H13ZM13,66c-.6,0-1-.4-1-1s.4-1,1-1h16c.6,0,1,.4,1,1s-.4,1-1,1H13ZM29,22c-3.3,0-6-2.7-6-6s2.7-6,6-6,6,2.7,6,6-2.7,6-6,6h0M29,20c2.2,0,4-1.8,4-4s-1.8-4-4-4-4,1.8-4,4,1.8,4,4,4"/>
</svg>