<svg viewBox="0 0 83.2 83.3" xmlns="http://www.w3.org/2000/svg"><g fill="#fff"><path d="m33.7 3.8h.3c2.5-.5 5-.7 7.6-.7s1.5-.7 1.5-1.5-.7-1.5-1.5-1.5c-2.8 0-5.5.3-8.2.8-.8.2-1.3.9-1.2 1.8 0 .7.8 1.2 1.5 1.2z"/><path d="m4.4 14h8.4v8.4c0 .8.7 1.5 1.5 1.5s1.5-.7 1.5-1.5v-9.9c0-.8-.7-1.5-1.5-1.5h-9.9c-.8 0-1.5.7-1.5 1.5s.7 1.5 1.5 1.5z"/><path d="m17.5 11.1c.3 0 .6-.1.9-.3 2-1.5 4.2-2.9 6.6-4 .7-.4 1.1-1.2.7-2-.4-.7-1.2-1.1-2-.7-2.5 1.2-4.9 2.6-7.1 4.3-.7.5-.8 1.4-.3 2.1.3.4.8.6 1.2.6z"/><path d="m79.3 33.1c.2.7.8 1.2 1.5 1.2h.3c.8-.2 1.3-1 1.1-1.8-.6-2.7-1.5-5.3-2.6-7.9-.3-.8-1.2-1.1-2-.8s-1.1 1.2-.8 2c1.1 2.3 1.9 4.8 2.4 7.3z"/><path d="m1.5 42c.8 0 1.5-.7 1.5-1.5 0-2.6.4-5.1 1-7.6.2-.8-.3-1.6-1.1-1.8s-1.6.3-1.8 1.1c-.7 2.7-1.1 5.5-1.1 8.3s.6 1.5 1.5 1.5z"/><path d="m72 67.8c.3.2.6.3.9.3s.9-.2 1.2-.6c1.7-2.2 3.2-4.5 4.5-7 .4-.7 0-1.6-.6-2s-1.6 0-2 .7c-1.2 2.3-2.6 4.4-4.2 6.5-.5.6-.4 1.6.2 2.1z"/><path d="m71.9 17.6c.3.4.7.6 1.2.6s.6 0 .9-.3c.6-.5.8-1.5.2-2.1-1.7-2.2-3.7-4.2-5.8-5.9-.6-.5-1.6-.4-2.1.2s-.5 1.6.2 2.1c2 1.6 3.8 3.5 5.4 5.5z"/><path d="m51.2 4.2c2.5.6 4.9 1.5 7.2 2.7.2 0 .4.2.7.2.6 0 1.1-.3 1.3-.9.4-.7 0-1.6-.7-2-2.5-1.2-5.1-2.2-7.8-2.8-.8-.2-1.6.3-1.8 1.1s.3 1.6 1.1 1.8z"/><path d="m69.7 41.6c0-15.5-12.6-28-28.1-28s-28.1 12.6-28.1 28 12.6 28 28.1 28 28.1-12.6 28.1-28zm-53.1 0c0-13.8 11.2-25 25.1-25s25.1 11.2 25.1 25-2.6 12.7-6.9 17.2c-1.2-4.7-4.1-8.8-8.2-11.4 2.2-2.4 3.5-5.5 3.5-8.9 0-7.2-5.9-13.1-13.1-13.1s-13.1 5.9-13.1 13.1 1.2 6.3 3.2 8.6c-4.3 2.6-7.5 6.8-8.7 11.6-4.3-4.5-6.9-10.5-6.9-17.2zm9.4 19.6c.7-5.4 4.2-10.1 9.2-12.3.5-.2.8-.6.9-1.2 0-.5 0-1-.5-1.4-2.4-1.9-3.7-4.8-3.7-7.8 0-5.6 4.5-10.1 10.1-10.1s10.1 4.5 10.1 10.1-1.4 6.1-4 8c-.4.3-.6.8-.6 1.3s.4 1 .9 1.2c4.8 2.2 8.1 6.9 8.8 12.1-4.4 3.5-9.9 5.5-15.6 5.5s-11.3-2-15.6-5.5z"/><path d="m49.3 79.5c-2.5.5-5.1.8-7.7.8h-.2c-.8 0-1.5.7-1.5 1.5s.7 1.5 1.5 1.5h.2c2.8 0 5.5-.3 8.2-.8.8-.2 1.3-1 1.2-1.8-.2-.8-1-1.3-1.8-1.2z"/><path d="m79.1 69.2h-8.4v-8.5c0-.8-.7-1.5-1.5-1.5s-1.5.7-1.5 1.5v10c0 .8.7 1.5 1.5 1.5h9.9c.8 0 1.5-.7 1.5-1.5s-.7-1.5-1.5-1.5z"/><path d="m32 79c-2.5-.6-4.9-1.5-7.2-2.7-.7-.4-1.6 0-2 .7s0 1.6.7 2c2.5 1.2 5.1 2.2 7.8 2.9h.4c.7 0 1.3-.5 1.5-1.1.2-.8-.3-1.6-1.1-1.8z"/><path d="m64.9 72.4c-2 1.6-4.2 2.9-6.6 4-.8.4-1.1 1.2-.7 2 .3.5.8.9 1.4.9s.4 0 .7-.2c2.5-1.2 4.9-2.7 7.1-4.3.7-.5.8-1.4.3-2.1s-1.4-.8-2.1-.3z"/><path d="m81.8 41.2c-.8 0-1.5.6-1.5 1.5 0 2.6-.4 5.1-1 7.6v.3c0 .8.7 1.5 1.5 1.5s1.3-.5 1.5-1.2c.6-2.7 1-5.4 1-8.2s-.6-1.5-1.5-1.5z"/><path d="m11.3 15.4c-.7-.5-1.6-.4-2.1.2-1.7 2.2-3.2 4.5-4.5 6.9-.4.7 0 1.6.6 2 .2.1.5.2.7.2.5 0 1.1-.3 1.3-.8 1.2-2.3 2.6-4.4 4.2-6.4.5-.6.4-1.6-.2-2.1z"/><path d="m3.9 50.1c-.2-.8-1-1.3-1.8-1.1s-1.3 1-1.1 1.8c.6 2.7 1.5 5.3 2.6 7.9.2.6.8.9 1.4.9s.4 0 .6 0c.8-.3 1.1-1.2.8-2-1.1-2.3-1.9-4.8-2.4-7.3z"/><path d="m11.4 65.6c-.5-.6-1.5-.8-2.1-.2-.6.5-.8 1.5-.2 2.1 1.7 2.2 3.6 4.2 5.8 6 .3.2.6.3 1 .3s.9-.2 1.2-.5c.5-.6.5-1.6-.2-2.1-2-1.6-3.8-3.5-5.4-5.5h-.1z"/></g></svg>