<?xml version="1.0" encoding="UTF-8"?>
<svg id="Layer_1" xmlns="http://www.w3.org/2000/svg" version="1.1" viewBox="0 0 60 95">
  <!-- Generator: Adobe Illustrator 29.1.0, SVG Export Plug-In . SVG Version: 2.1.0 Build 142)  -->
  <path d="M46.2,0H13.8C6.2,0,0,6.2,0,13.8v67.5c0,7.6,6.2,13.8,13.8,13.8h32.5c7.6,0,13.8-6.2,13.8-13.8V13.8c0-7.6-6.2-13.8-13.8-13.8M55,81.2c0,4.8-3.9,8.8-8.8,8.8H13.8c-4.8,0-8.8-3.9-8.8-8.8V13.8c0-4.8,3.9-8.8,8.8-8.8h32.5c4.8,0,8.8,3.9,8.8,8.8v67.5Z"/>
  <path d="M39.5,78.5h-19c-1.4,0-2.5,1.1-2.5,2.5s1.1,2.5,2.5,2.5h19c1.4,0,2.5-1.1,2.5-2.5s-1.1-2.5-2.5-2.5"/>
</svg>