<svg viewBox="0 0 14.9 13.8" xmlns="http://www.w3.org/2000/svg"><path d="m.3 0c-.2 0-.3.1-.3.3v1.2c0 .1.1.3.3.3h.4v8.5h-.4c-.1 0-.3.1-.3.3 0 .1.1.3.3.3h5l-.7 2.7c0 .1 0 .3.2.3.1 0 .3 0 .3-.2l.7-2.8s1.4 0 1.4 0v2.7c0 .1.1.3.3.3s.3-.1.3-.3v-2.7h1.4s.7 2.8.7 2.8c0 .1.2.2.3.2s.2-.2.2-.3l-.7-2.7h5c.1 0 .3-.1.3-.2s-.1-.3-.2-.3h-.4v-8.7h.4c.1 0 .3-.1.3-.3v-1.1c-.3-.2-.4-.3-.5-.3zm.2.5h13.8v.7h-13.8zm.7 1.2h12.5v8.5h-12.5zm2.1 2.2c-.1 0-.3.1-.3.3 0 .1.1.3.3.3h1.3c.1 0 .3-.1.3-.3 0-.1-.1-.3-.3-.3zm2.5 0c-.1 0-.3.1-.3.3 0 .1.1.3.3.3h5.6c.1 0 .3-.1.3-.3 0-.1-.1-.3-.3-.3zm-2.5 1.8c-.1 0-.3.1-.3.3 0 .1.1.3.3.3h1.3c.1 0 .3-.1.3-.3 0-.1-.1-.3-.3-.3zm2.5 0c-.1 0-.3.1-.3.3 0 .1.1.3.3.3h5.6c.1 0 .3-.1.3-.3 0-.1-.1-.3-.3-.3zm-2.5 1.9c-.1 0-.3.1-.3.3 0 .1.1.3.3.3h1.3c.1 0 .3-.1.3-.3 0-.1-.1-.3-.3-.3zm2.5 0c-.1 0-.3.1-.3.3 0 .1.1.3.3.3h5.6c.1 0 .3-.1.3-.3s-.1-.3-.3-.3z"/></svg>