<svg xmlns="http://www.w3.org/2000/svg" viewBox="-5 -10 79.994 79.787"><path d="m66.755 7.279-15.121-.196a5.3 5.3 0 0 0 .273-3.437 5.3 5.3 0 0 0-3.93-3.875 5.354 5.354 0 0 0-5.832 2.465l-2.789 4.691-9.62-.125q.276-1.32.296-2.703c.098-7.676-6.066-13.996-13.738-14.098C8.618-10.097 2.29-3.936 2.192 3.74q-.016 1.385.227 2.711l-5.73-.074a1.126 1.126 0 0 0-1.142 1.113l-.546 42.5c-.051 3.906 3.086 7.125 6.992 7.176l39.805.512.89.914c.801.812 2.004.886 3.145.191l1.687-1.031.41.004q.704.345 1.454.61l.457 2.14c.277 1.312 1.164 2.136 2.312 2.148l.14.004-.073 5.828a1.126 1.126 0 0 0 1.113 1.14l12.602.161c4.61.059 8.41-3.645 8.469-8.254l.152-11.805.438-33.977c.058-4.613-3.645-8.414-8.254-8.473zm-18.438-4.97a3.06 3.06 0 0 1 1.406 1.892 3.065 3.065 0 0 1-.332 2.328l-1.774 2.984-5.293-3.148 1.77-2.98a3.09 3.09 0 0 1 4.226-1.079zm-7.149 5.997 5.293 3.148-16.625 27.961-5.293-3.148zM28.055 40.978l-4.312 2.66.277-5.058 4.031 2.398zM16.275-7.741c6.429.082 11.593 5.383 11.511 11.812a11.56 11.56 0 0 1-3.683 8.363c-1.297 1.215-2.16 2.184-2.743 3.133q-.299-.06-.609-.066l-1.508-.02.078-5.969 1.22.016c2.194.027 3.866-1.523 3.894-3.61a3.66 3.66 0 0 0-3.614-3.706c-2.086-.028-3.683 1.609-3.71 3.808l-.016 1.211-2.027-.027.015-1.211c.028-2.2-1.523-3.879-3.61-3.902a3.66 3.66 0 0 0-3.706 3.613c-.028 2.086 1.605 3.683 3.8 3.71l1.22.016-.079 5.97-1.511-.02a3 3 0 0 0-.614.05c-.554-.96-1.394-1.953-2.656-3.203a11.58 11.58 0 0 1-3.473-8.453C4.536-2.656 9.837-7.82 16.27-7.738zm4.187 32.047-9.2-.117a1.09 1.09 0 0 1-1.058-1.09 1.073 1.073 0 0 1 1.086-1.059l9.199.118c.594.007 1.07.496 1.063 1.086a1.077 1.077 0 0 1-1.09 1.062m-1.2 2.238a2.35 2.35 0 0 1-2.367 2.114l-2.172-.028a2.353 2.353 0 0 1-2.312-2.176zm-7.94-6.761-.18-.004a1.076 1.076 0 0 1-1.06-1.09 1.073 1.073 0 0 1 1.087-1.059l9.554.121c.594.008 1.07.497 1.063 1.086a1.077 1.077 0 0 1-1.09 1.063l-.18-.004-9.199-.117zM12.816 7.17l-1.219-.016c-.734-.008-1.59-.39-1.574-1.426a1.41 1.41 0 0 1 1.426-1.387c1.04.012 1.395.883 1.387 1.622l-.016 1.21zm2.227 2.285 2.027.027-.078 5.969-2.027-.027zm4.308-2.2.016-1.21c.008-.739.39-1.598 1.426-1.586a1.41 1.41 0 0 1 1.387 1.426c-.012 1.039-.875 1.394-1.61 1.386zm32.863 53.146c-.03-.036-.105-.149-.152-.368l-.594-2.777a1.13 1.13 0 0 0-.785-.848 10.7 10.7 0 0 1-2.426-1.043 1.13 1.13 0 0 0-1.16.012l-2.422 1.485c-.191.117-.324.14-.37.14l-1.747-1.793a.84.84 0 0 1 .149-.363l1.55-2.387c.227-.351.243-.797.04-1.16a10.4 10.4 0 0 1-.977-2.45 1.13 1.13 0 0 0-.828-.812l-2.766-.664c-.21-.05-.32-.125-.36-.16l.032-2.508a.9.9 0 0 1 .363-.152l2.785-.598c.407-.086.73-.39.848-.789.242-.843.594-1.656 1.04-2.418.21-.36.206-.804-.013-1.16l-1.488-2.426a.9.9 0 0 1-.14-.367l1.796-1.75c.051.004.18.031.364.152l2.386 1.547c.348.227.797.242 1.16.04.774-.43 1.598-.758 2.45-.981.402-.106.715-.422.812-.828l.664-2.766a.85.85 0 0 1 .16-.36l2.508.032c.032.035.106.148.153.367l.593 2.778c.086.406.391.734.793.847.844.242 1.657.594 2.422 1.04.36.21.805.206 1.16-.012l2.43-1.489a.86.86 0 0 1 .364-.14l1.75 1.8c-.004.051-.036.18-.153.36l-1.547 2.39a1.13 1.13 0 0 0-.039 1.16c.43.774.758 1.598.98 2.446.106.402.423.715.825.812l2.77.672c.21.051.32.125.359.16l-.031 2.508a.9.9 0 0 1-.36.153l-2.781.593c-.406.086-.734.391-.848.793-.238.84-.59 1.657-1.039 2.426-.207.36-.203.8.012 1.156l1.48 2.426c.114.184.141.317.141.367l-1.793 1.75c-.05-.004-.18-.027-.367-.148l-2.39-1.547a1.13 1.13 0 0 0-1.161-.04c-.766.423-1.59.755-2.45.981-.401.106-.71.422-.808.825l-.664 2.765a.85.85 0 0 1-.16.36l-2.508-.032zM72.32 49.7l-.152 11.806a6.113 6.113 0 0 1-6.187 6.027l-11.477-.149.058-4.703.14.004c1.15.016 2.055-.785 2.368-2.09l.512-2.128a13 13 0 0 0 1.703-.68l1.844 1.191c1.12.723 2.324.68 3.152-.117l1.812-1.77c.825-.796.903-2.007.204-3.152l-1.141-1.867q.422-.821.723-1.687l2.144-.457c1.29-.278 2.129-1.184 2.145-2.309l.03-2.543c.016-1.129-.804-2.055-2.081-2.363l-2.133-.516a13 13 0 0 0-.684-1.703l1.188-1.836c.723-1.11.676-2.348-.113-3.152l-1.774-1.82c-.789-.813-2.027-.887-3.148-.196l-1.867 1.14a13 13 0 0 0-1.688-.726l-.457-2.137c-.277-1.312-1.164-2.136-2.312-2.148l-.141-.004.074-5.75 11.477.149a8.34 8.34 0 0 0 6.14-2.578l-.362 28.27zm-5.75-27.944-12.602-.16a1.126 1.126 0 0 0-1.14 1.113l-.09 6.879-.14-.004c-1.149-.016-2.055.785-2.368 2.09l-.512 2.125c-.582.183-1.152.414-1.707.683l-1.832-1.187c-1.105-.723-2.343-.676-3.156.113l-1.82 1.773c-.816.797-.895 2-.195 3.145l1.144 1.87c-.281.544-.523 1.11-.726 1.685l-2.145.46c-1.289.278-2.129 1.184-2.144 2.31l-.032 2.542c-.015 1.129.805 2.055 2.086 2.363l2.13.512q.276.875.683 1.703l-1.196 1.844c-.382.598-.546 1.215-.5 1.785L2.042 54.91a4.83 4.83 0 0 1-4.765-4.89l.531-41.372 5.246.067a13.86 13.86 0 0 0 3.297 5.113c1.121 1.11 1.836 1.902 2.29 2.707a3.3 3.3 0 0 0-.806 2.125c-.011.895.333 1.711.899 2.317a3.32 3.32 0 0 0-.777 2.093 3.33 3.33 0 0 0 2.195 3.172 4.613 4.613 0 0 0 4.547 4.649l2.172.027a4.61 4.61 0 0 0 4.664-4.531 3.34 3.34 0 0 0 2.277-3.114 3.28 3.28 0 0 0-.726-2.109c.582-.594.949-1.398.96-2.289a3.3 3.3 0 0 0-.753-2.145c.472-.789 1.207-1.566 2.359-2.644a13.85 13.85 0 0 0 3.426-5.027l8.965.113-16.004 26.918q-.022.042-.043.078c-.004.008-.008.012-.008.02q-.028.06-.051.125c-.004.007-.004.015-.008.023q-.017.052-.027.106c-.004.011-.004.023-.008.03-.008.04-.012.075-.016.114l-.003.016v.019l-.5 9.055a1.125 1.125 0 0 0 1.718 1.02l7.73-4.774.016-.012q.049-.032.09-.062c.012-.008.02-.016.032-.028q.034-.03.07-.066l.027-.027a.7.7 0 0 0 .082-.102q.004-.006.008-.012c.02-.027.035-.054.055-.082L48.98 11.635v-.004l1.379-2.316 16.37.211c3.368.043 6.07 2.82 6.028 6.191a6.117 6.117 0 0 1-6.188 6.036zM61.04 46.23c.05-4.07-3.22-7.43-7.29-7.48-4.07-.052-7.43 3.218-7.48 7.288s3.218 7.43 7.289 7.48c4.07.052 7.43-3.218 7.48-7.288m-7.45 5.035a5.14 5.14 0 0 1-5.066-5.195 5.14 5.14 0 0 1 5.195-5.067 5.133 5.133 0 0 1 5.062 5.195 5.14 5.14 0 0 1-5.195 5.067zm-30.039.765a1.13 1.13 0 0 1-1.14 1.114c-4.086-.051-7.368-3.418-7.313-7.504a1.13 1.13 0 0 1 1.14-1.113c.622.007 1.122.52 1.114 1.14a5.16 5.16 0 0 0 5.086 5.219c.62.008 1.12.52 1.113 1.14z"/></svg>