<svg viewBox="0 0 98 98" xmlns="http://www.w3.org/2000/svg"><path d="m30.9 41.9c.4.7 1.3 1 2 .5l61.2-35.2-1.6 6.1s0 0 0 0c-.2.8.3 1.6 1.1 1.8s1.6-.3 1.8-1.1l2.6-9.6s0 0 0 0v-.2s0 0 0-.1c0 0 0-.1 0-.2 0 0 0-.1 0-.2 0 0 0 0 0-.1 0 0 0-.2-.1-.3 0 0-.1-.2-.2-.2s0 0-.1-.1c0 0 0 0-.1 0 0 0 0 0-.1 0 0 0-.2 0-.3-.1l-9.8-2.9c-.8-.2-1.6.3-1.8 1.1s.3 1.6 1.1 1.8l6 1.6-61.2 35.4s0 0 0 0c-.7.4-1 1.3-.5 2z"/><path d="m66.5 27.2c-.8 0-1.5.7-1.5 1.5v38.6c0 .8.7 1.5 1.5 1.5h11c.8 0 1.5-.7 1.5-1.5v-38.6c0-.8-.7-1.5-1.5-1.5zm9.5 38.6h-8v-35.6h8z"/><path d="m83.6 17.9c-.8 0-1.5.7-1.5 1.5v47.8c0 .8.7 1.5 1.5 1.5h11c.8 0 1.5-.7 1.5-1.5v-47.8c0-.8-.7-1.5-1.5-1.5zm9.6 47.9h-8v-44.9h8v44.8z"/><path d="m89.6 81.1s-17.2 0-17.2 0c0-.6-.1-1.2-.3-1.8-.6-2.2-2-4-3.9-5.1l-9.4-5.4h1.6c.8 0 1.5-.7 1.5-1.5v-31.7c0-.8-.7-1.5-1.5-1.5h-11c-.8 0-1.5.7-1.5 1.5v26.9l-3.1-1.8v-15.5c0-.8-.7-1.5-1.5-1.5h-11c-.8 0-1.5.7-1.5 1.5v13.1h-13c-.4-2.3-2.4-4.1-4.9-4.1h-7.9c-2.7 0-5 2.2-5 5v29.1c0 2.8 2.2 5 5 5h7.9c2.4 0 4.4-1.8 4.9-4.1h6.1c3.4 0 6.3 1.2 8.7 3.6l.7.7c3 3 6.7 4.5 10.9 4.5h45.4c4.6 0 8.4-3.8 8.4-8.4s-3.8-8.4-8.4-8.4zm-38.8-44.1h8v28.7h-5.3l-2.8-1.6v-27.1zm-9.1 9.6v12.5c-1.7-.6-3.4-.9-5.2-.9h-2.8v-11.6s8 0 8 0zm47.9 48.4h-45.4c-3.4 0-6.3-1.2-8.7-3.6l-.7-.7c-3-3-6.6-4.5-10.9-4.5h-6v-12.7c0-.8-.7-1.5-1.5-1.5s-1.5.7-1.5 1.5v14.8c0 1.1-.9 2-2 2h-7.9c-1.1 0-2-.9-2-2v-29.1c0-1.1.9-2 2-2h7.9c1.1 0 2 .9 2 2v6.6c0 .8.7 1.5 1.5 1.5s1.5-.7 1.5-1.5v-4.5h18.7c2.3 0 4.2.5 6.2 1.7l9.7 5.6s.1 0 .2 0l14.2 8.2c1.2.7 2.2 1.9 2.5 3.3.4 1.4.2 2.9-.5 4.1-.7 1.3-1.9 2.2-3.3 2.5-1.4.4-2.9.2-4.1-.5l-19.6-11.3c-.7-.4-1.6-.2-2.1.6-.4.7-.2 1.6.6 2.1l19.6 11.3c1.3.7 2.7 1.1 4.2 1.1.7 0 1.5 0 2.2-.3 2.2-.6 4-2 5.1-3.9.3-.5.5-1 .7-1.6h17.6c3 0 5.4 2.4 5.4 5.4s-2.4 5.4-5.4 5.4z"/></svg>