<svg xmlns="http://www.w3.org/2000/svg" viewBox="-5 -10 48.016 90.035"><path fill-rule="evenodd" d="M18.96-6.656a71 71 0 0 0-4.147 4.918 73 73 0 0 0-4.305 6.273 36.6 36.6 0 0 0 8.473 1.008 36.3 36.3 0 0 0 8.406-.976 74 74 0 0 0-4.364-6.38 70 70 0 0 0-4.058-4.839zm-6.3 3.266a74 74 0 0 1 5.32-6.192l.04-.039a1.358 1.358 0 0 1 1.922.04 72 72 0 0 1 5.242 6.116 77 77 0 0 1 4.636 6.813 35.6 35.6 0 0 1 4.387 11.051c.828 3.852.98 7.812.453 11.711l-.852 5.242 5.852 6.32.067.067a12.27 12.27 0 0 1 2.94 5.5c.49 2.027.462 4.14-.073 6.156l-.024.102-3.531 12.98c-.125.449-.469.804-.914.941-.45.137-.934.035-1.285-.27l-9.07-7.859-1.747-.004 2.918 6.024.004.004a1.36 1.36 0 0 1-.004 1.363c-.242.422-.691.68-1.18.68H10.365c-.465 0-.899-.239-1.149-.63a1.36 1.36 0 0 1-.082-1.304l2.875-6.137h-1.77l-8.882 7.801a1.361 1.361 0 0 1-2.266-.602l-3.656-12.992a12.16 12.16 0 0 1-.058-6.218 12.75 12.75 0 0 1 3.019-5.536l5.879-6.34-.805-5.265v-.02h-.004a35.7 35.7 0 0 1 .36-11.866A33.9 33.9 0 0 1 8.05 3.352a75 75 0 0 1 4.61-6.739zM9.14 6.993a31.4 31.4 0 0 0-2.652 7.78 33 33 0 0 0-.332 10.954L8.301 39.7l2.547 12.855h16.3l2.563-12.934 2.25-13.871a31.4 31.4 0 0 0-.418-10.785 32.9 32.9 0 0 0-2.789-7.942 39 39 0 0 1-9.777 1.239 39.4 39.4 0 0 1-9.836-1.27zM5.61 40.13l-.813-5.301-4.414 4.765a10 10 0 0 0-2.367 4.34 9.4 9.4 0 0 0 .03 4.832l3.075 10.91 7.117-6.25zM23 55.286h-7.992l-2.5 5.343H25.59l-2.586-5.343zm9.375-15.102-2.62 13.23 7.218 6.257 2.961-10.898.031-.093.004-.004a9.85 9.85 0 0 0 .059-4.817 9.5 9.5 0 0 0-2.293-4.27l-.07-.077-4.41-4.766-.86 5.305q-.004.067-.02.133m-8.12 25.34a1.365 1.365 0 0 1 1.363-1.328c.738 0 1.343.59 1.363 1.328v8.449a1.37 1.37 0 0 1-.383.988 1.374 1.374 0 0 1-1.957 0 1.37 1.37 0 0 1-.387-.988zm-13.239 0c0-.754.61-1.368 1.364-1.368s1.363.614 1.363 1.368v8.449a1.365 1.365 0 0 1-2.727 0zm6.684 0a1.365 1.365 0 0 1 1.363-1.328c.738 0 1.344.59 1.364 1.328v13.113c.007.367-.13.722-.387.988a1.37 1.37 0 0 1-1.957 0 1.37 1.37 0 0 1-.383-.988zm7.187-40.16a5.89 5.89 0 0 0-4.742-5.774 5.88 5.88 0 0 0-6.582 3.52 5.88 5.88 0 0 0 2.168 7.148 5.88 5.88 0 0 0 7.43-.734 5.88 5.88 0 0 0 1.727-4.16m.2-6.09a8.61 8.61 0 0 0-10.875-1.07A8.61 8.61 0 0 0 11.04 28.66a8.613 8.613 0 0 0 16.57-3.297 8.58 8.58 0 0 0-2.52-6.09z"/></svg>