<svg viewBox="0 0 95 95" xmlns="http://www.w3.org/2000/svg"><path d="m88.9 0h-83c-3.2 0-5.9 2.7-5.9 5.9v73.8c0 3.3 2.7 5.9 5.9 5.9h3.5v4.3c0 2.8 2.3 5 5 5h14.5c2.8 0 5-2.3 5-5v-4.3h27v4.3c0 2.8 2.3 5 5 5h14.5c2.8 0 5-2.3 5-5v-4.3h3.5c3.3 0 5.9-2.7 5.9-5.9v-73.8c0-3.3-2.7-5.9-5.9-5.9zm-57.8 89.9c0 1.2-1 2.2-2.2 2.2h-14.5c-1.2 0-2.2-1-2.2-2.2v-4.3h18.9zm49.3 2.3h-14.5c-1.2 0-2.2-1-2.2-2.2v-4.3h18.8v4.3c0 1.2-1 2.2-2.2 2.2zm11.7-12.5c0 1.7-1.4 3.1-3.1 3.1h-83.1c-1.7 0-3.1-1.4-3.1-3.1v-73.8c0-1.7 1.4-3.1 3.1-3.1h83.1c1.7 0 3.1 1.4 3.1 3.1z"/><path d="m30 25.3c-9.7 9.7-9.7 25.4 0 35.1s25.4 9.7 35.1 0 9.7-25.4 0-35.1-25.4-9.7-35.1 0zm21.7 7.3-1.8 3.1c-.7-.2-1.5-.4-2.3-.4s-1.7.2-2.5.4l-1.8-3.1c2.7-1.1 5.7-1.2 8.4 0zm-.9 13.4c-2.9 3-7.9.9-7.9-3.2s5-6.2 7.9-3.3c1.8 1.8 1.8 4.7 0 6.5zm1.2 7c-2.7 1.1-5.7 1.2-8.4 0h-.1l1.8-3.1c1.6.5 3.3.5 4.9 0zm-11.7-8.5c.3 1.5 1.2 3 2.5 4.1s-1.8 3.1-1.8 3.1c-2.3-1.8-3.9-4.4-4.3-7.2zm-3.6-3c.4-2.9 1.8-5.5 4.1-7.3l1.8 3.1c-1.2 1.1-2.1 2.6-2.4 4.2s-3.5 0-3.5 0zm-1.4-16.9h.1l1.9 3.4c.4.7 1.3.9 2 .5s.9-1.3.5-2l-2-3.4c2.6-1.3 5.4-2 8.3-2.2v8.1c-3.9.4-7.5 2.4-9.8 5.6l-7-4c1.6-2.4 3.6-4.4 6-6zm-9.7 19.6h4.1c.8 0 1.4-.6 1.4-1.4s-.6-1.4-1.4-1.4h-4c.2-2.9.9-5.7 2.2-8.2l7 4c-.8 1.8-1.2 3.8-1.2 5.9s.4 3.6 1.1 5.3l-7 4c-1.2-2.6-2-5.4-2.2-8.2zm20.5 20.5c-2.9-.2-5.7-1-8.2-2.3l2-3.4c.4-.7.2-1.6-.5-2s-1.6-.2-2 .5l-1.9 3.4c-2.4-1.6-4.4-3.7-6-6.1l7-4c2.3 3.2 5.8 5.3 9.7 5.8v8.1zm13.5-3.5-2-3.5c-.4-.7-1.3-.9-2-.5s-.9 1.3-.5 2l2 3.4c-2.6 1.3-5.4 2-8.3 2.2s0-8.1 0-8.1c3.9-.4 7.5-2.4 9.9-5.6l7 4.1c-1.6 2.4-3.7 4.4-6.1 6zm-4.7-20c-.3-1.5-1.2-3-2.5-4.1l1.8-3.1c2.3 1.7 3.9 4.4 4.3 7.2zm3.6 2.9c-.3 2.7-1.9 5.6-4.1 7.3l-1.8-3.1c1.2-1.1 2.1-2.6 2.4-4.2zm11-2.6h-4c-.8 0-1.4.6-1.4 1.4s.6 1.4 1.4 1.4h4c-.2 2.9-1 5.7-2.3 8.3l-7-4c.9-1.9 1.3-3.8 1.3-6s-.4-3.7-1.2-5.4l7-4c1.3 2.6 2 5.4 2.2 8.3zm-10.6-6.8h-.1c-2.3-3.2-5.9-5.3-9.8-5.7v-8.1c2.9.2 5.7.9 8.3 2.2l-2 3.5c-.4.7-.2 1.6.5 2s1.6.2 2-.5l2-3.5c2.4 1.6 4.5 3.7 6.1 6.1z"/><path d="m80.3 9.6h-65.4c-2.3 0-4.1 1.9-4.1 4.1v3.4h-.2c-2.3 0-4.1 1.9-4.1 4.1v14.2c0 1.1.4 2.1 1.2 2.9.9.9 1.9 1.2 3.1 1.2v6.5h-.2c-2.3 0-4.1 1.9-4.1 4.1v14.2c0 1.1.4 2.1 1.2 2.9.9.9 1.9 1.2 3.1 1.2v3.4c0 2.3 1.9 4.1 4.1 4.1h65.4c2.3 0 4.1-1.9 4.1-4.1v-58.1c0-2.3-1.9-4.1-4.1-4.1zm-71 11.7c0-.7.6-1.3 1.3-1.3h3c.7 0 1.2.6 1.2 1.3v2.3h-5.5zm0 5.1h5.5v3.9h-5.5zm1.2 10.3c-.7 0-1.3-.6-1.3-1.3v-2.3h5.5v2.3c0 .7-.6 1.3-1.2 1.3zm-1.2 13.5c0-.7.6-1.3 1.3-1.3h3c.7 0 1.2.6 1.2 1.3v2.3h-5.5zm0 5.2h5.5v3.9h-5.5zm1.2 10.2c-.7 0-1.3-.6-1.3-1.3v-2.3h5.5v2.3c0 .7-.6 1.3-1.2 1.3zm71.1 6.4c0 .6-.6 1.2-1.3 1.2h-65.4c-.7 0-1.3-.6-1.3-1.3v-3.4c2.3 0 4.1-1.9 4.1-4.1v-14.2c0-2.3-1.8-4.1-4.1-4.1v-6.5c2.3 0 4.1-1.9 4.1-4.1v-14.2c0-2.3-1.8-4.1-4.1-4.1v-3.4c0-.7.6-1.3 1.3-1.3h65.4c.7 0 1.3.6 1.3 1.3z"/></svg>