<svg viewBox="0 0 94 94" xmlns="http://www.w3.org/2000/svg"><path d="m89 0h-68.7c-2.7 0-5 2.2-5 5v50.1h-11.3c-2.2 0-4 1.8-4 4v31c0 2.2 1.8 4 4 4h31c2.2 0 4-1.8 4-4v-11.3h50c2.7 0 5-2.2 5-5v-68.8c0-2.7-2.2-5-5-5zm-52.3 90c0 .9-.8 1.7-1.7 1.7h-31c-1 0-1.7-.8-1.7-1.7v-31c0-1 .8-1.7 1.7-1.7h31c1 0 1.7.8 1.7 1.7zm55-16.3c0 1.5-1.2 2.7-2.7 2.7h-50.1v-17.4c0-2.2-1.8-4-4-4h-17.4v-50c0-1.5 1.2-2.7 2.7-2.7h68.8c1.5 0 2.7 1.2 2.7 2.7z"/><path d="m81.4 11.4h-10.7c-.7 0-1.2.4-1.2 1.1s.6 1.2 1.2 1.2h8l-34.9 34.8c-.5.4-.4 1.2 0 1.6s.5.3.8.3.6-.1.8-.3l34.8-34.9v8c0 .7.5 1.2 1.2 1.2s1.2-.6 1.2-1.2v-10.7c0-.6-.6-1.1-1.2-1.1z"/></svg>