<svg viewBox="0 0 87.4 67.7" xmlns="http://www.w3.org/2000/svg"><path d="m86.4 35.7c-3.6 0-6.5 2.9-6.5 6.5v5.8h-12.8c-.4 0-.7-.2-.9-.5l-5.1-8.8 17.2-9.9c1.8-1 2.4-3.3 1.3-5.1-1-1.8-3.3-2.4-5.1-1.4l-43.7 25.2c-1.8 1-2.4 3.3-1.4 5.1s3.3 2.4 5.1 1.4l20-11.6 5.5 9.6c1.3 2.2 3.6 3.5 6.1 3.5h13.7v5.8c0 3.6 2.9 6.5 6.5 6.5.6 0 1-.4 1-1v-30c0-.6-.4-1-1-1m-.9 29.8c-2-.5-3.5-2.3-3.5-4.4v-6.8c0-.6-.4-1-1-1h-14.7c-1.8 0-3.4-1-4.3-2.5l-6-10.4c-.3-.5-.9-.6-1.4-.4l-20.9 12.1c-.8.5-1.9.2-2.4-.6s-.2-1.9.6-2.4l43.7-25.2c.8-.5 1.9-.2 2.4.6s.2 1.9-.6 2.4l-18 10.4c-.5.3-.6.9-.4 1.4l5.6 9.7c.5.9 1.5 1.5 2.6 1.5h13.8c.6 0 1-.4 1-1v-6.8c0-2.1 1.5-3.9 3.5-4.4zm-65.2-25.1c-1-1.8-3.3-2.4-5.1-1.3-1.8 1-2.4 3.3-1.4 5.1l6 10.4c1 1.8 3.3 2.4 5.1 1.4s2.4-3.3 1.4-5.1l-6-10.4zm4.5 12.8c-.2.9-1.2 1.5-2.1 1.2-.4-.1-.8-.4-1.1-.8l-6-10.4c-.5-.8-.2-1.9.6-2.4s1.9-.2 2.4.6l6 10.4c.2.4.3.9.2 1.3m-10.4-19.8 16.5 11.1c.3.2.7.2 1.1 0l47.1-27.2c.5-.3.6-.9.4-1.4l-9.1-15.4c-.3-.5-.9-.6-1.4-.4l-54.5 31.6c-.5.3-.6.9-.4 1.4 0 .1.2.2.3.3m54.8-31 7.9 13.7-45.7 26.4-14.6-9.9zm-55.8 50.2-8.3 4.8c-.5.3-1.1.1-1.4-.4s-.1-1.1.4-1.4l8.3-4.8c.5-.3 1.1-.1 1.4.4s.1 1.1-.4 1.4zm2.5 2.4c.4.3.5 1 .2 1.4l-5.9 7.5c-.3.4-1 .5-1.4.2s-.5-1-.2-1.4l5.9-7.5c.3-.4 1-.5 1.4-.2zm-5.2-6.4-9.4 1.3c-.5 0-1.1-.3-1.1-.8s.3-1.1.9-1.1l9.4-1.3c.5 0 1 .3 1.1.9 0 .5-.3 1-.8 1.1m33.3-27.1c-.3-.5-.1-1.1.4-1.4l22.8-13.2c.5-.3 1.1-.1 1.4.4s.1 1.1-.4 1.4l-22.8 13.2c-.5.3-1.1.1-1.4-.4"/></svg>