<svg xmlns="http://www.w3.org/2000/svg" viewBox="-5 -10 84.493 76.828"><path fill-rule="evenodd" d="M76.84 61.145 70.117 49.5a.703.703 0 0 0-.953-.254l-3.598 2.078a.703.703 0 0 0-.253.953l6.722 11.645a.704.704 0 0 0 .953.254l3.598-2.078a.704.704 0 0 0 .254-.953m-6.3-35.61A21.26 21.26 0 0 0 68.401 9.31c-5.894-10.211-19-13.723-29.21-7.829-10.216 5.895-13.724 19-7.829 29.211s19 13.72 29.211 7.825a21.24 21.24 0 0 0 9.965-12.98M52.04 43.86v18.695a1.71 1.71 0 0 1-1.712 1.71H-.727a1.71 1.71 0 0 1-1.71-1.71l-.005-68.281c0-.946.77-1.711 1.711-1.711h51.055c.946 0 1.711.77 1.711 1.71v1.887a23.95 23.95 0 0 0-19.98 7.832H15.797a1.282 1.282 0 0 0 0 2.563h14.258a24.17 24.17 0 0 0-4.12 12.867H15.796a1.282 1.282 0 0 0 0 2.562h10.207c.383 4.656 2.16 9.152 5.086 12.867l-15.293-.004a1.282 1.282 0 0 0 0 2.562h17.63a23.76 23.76 0 0 0 10.257 5.72 23.8 23.8 0 0 0 8.356.73zm27.34 18.477a3.23 3.23 0 0 1-1.516 1.976l-3.598 2.078a3.26 3.26 0 0 1-4.45-1.195L63.095 53.55a3.26 3.26 0 0 1 1.191-4.45l.692-.398-4.246-7.355c-1.957 1-4.02 1.715-6.13 2.14v19.066a4.28 4.28 0 0 1-4.273 4.274H-.727A4.28 4.28 0 0 1-5 62.554v-68.28A4.28 4.28 0 0 1-.727-10h51.055a4.28 4.28 0 0 1 4.274 4.273v2.262c13.465 2.715 22.016 16.207 18.41 29.66-1.543 5.766-5.098 10.645-10.066 13.871l4.246 7.356.691-.399a3.264 3.264 0 0 1 4.453 1.195l6.723 11.645c.43.75.547 1.63.32 2.473zM39.456 50.275h-23.66a1.282 1.282 0 0 0 0 2.562h23.656c.711 0 1.281-.57 1.281-1.281a1.276 1.276 0 0 0-1.277-1.281zm16.25-29.633v6.168a.97.97 0 0 1-.969.968H45.02a.97.97 0 0 1-.965-.968v-6.168c0-.536.433-.97.965-.97h9.718c.536 0 .97.434.97.97m-8.46-3.528V14.86a2.637 2.637 0 0 1 2.636-2.632 2.637 2.637 0 0 1 2.633 2.632v2.254zm11.022 3.528v6.168a3.53 3.53 0 0 1-3.527 3.527h-9.719a3.53 3.53 0 0 1-3.527-3.527v-6.168a3.533 3.533 0 0 1 3.191-3.512v-2.274a5.203 5.203 0 0 1 5.196-5.195 5.2 5.2 0 0 1 5.195 5.195v2.274a3.536 3.536 0 0 1 3.191 3.512M11.63 46a1.28 1.28 0 0 0-1.747.468l-4.3 7.45-2.149-2.149c-.5-.5-1.309-.5-1.813 0a1.29 1.29 0 0 0 0 1.813l3.332 3.328a1.28 1.28 0 0 0 2.016-.266l5.133-8.894a1.283 1.283 0 0 0-.473-1.75m52.397-34.168c4.504 7.8 1.82 17.809-5.976 22.312-7.817 4.511-17.797 1.84-22.312-5.977-4.504-7.8-1.82-17.81 5.976-22.312 7.801-4.5 17.81-1.82 22.312 5.977M59.327 36.36c-9.012 5.203-20.57 2.16-25.809-6.915-5.21-9.02-2.105-20.598 6.914-25.809 9.024-5.21 20.602-2.105 25.81 6.915 5.21 9.023 2.109 20.602-6.915 25.809m-47.699-5.79a1.28 1.28 0 0 0-1.746.47l-4.3 7.448-2.15-2.152c-.5-.5-1.308-.5-1.812 0a1.29 1.29 0 0 0 0 1.813l3.332 3.328a1.28 1.28 0 0 0 2.016-.266l5.133-8.89a1.284 1.284 0 0 0-.473-1.75m0-30.852a1.28 1.28 0 0 0-1.746.47l-4.3 7.448-2.15-2.148c-.5-.5-1.308-.5-1.812 0a1.29 1.29 0 0 0 0 1.812l3.332 3.329c.598.597 1.594.46 2.016-.266L12.1 1.468a1.284 1.284 0 0 0-.473-1.75m.469 17.176a1.28 1.28 0 1 0-2.215-1.28l-4.3 7.448-2.15-2.148c-.5-.5-1.308-.5-1.812 0a1.29 1.29 0 0 0 0 1.812l3.332 3.329a1.28 1.28 0 0 0 2.016-.266z"/></svg>