<svg xmlns="http://www.w3.org/2000/svg" viewBox="-5 -10 86.075 99.004"><path d="M73.742-10H2.328C-1.71-10-5-6.715-5-2.676v66.031c0 4.04 3.285 7.324 7.328 7.324h33.723q.075.182.18.364l9.129 15.809a4.3 4.3 0 0 0 2.617 2.004c.371.101.75.148 1.125.148.746 0 1.48-.195 2.14-.578a4.27 4.27 0 0 0 2.004-2.61 4.29 4.29 0 0 0-.425-3.277l-6.844-11.855h27.77c4.039 0 7.328-3.285 7.328-7.324L81.07-2.675c0-4.04-3.29-7.324-7.328-7.324zM2.328-6.906h71.414a4.24 4.24 0 0 1 4.238 4.23V4.07H-1.91v-6.746a4.24 4.24 0 0 1 4.238-4.23zM27.36 49.426q.012.004.024.008c.285.097.578.144.863.144a2.57 2.57 0 0 0 2.012-.969l7.273-8.996h2.7c.202.305.394.606.562.907a14.8 14.8 0 0 1 1.488 11.312 14.8 14.8 0 0 1-6.95 9.054 14.8 14.8 0 0 1-11.308 1.489 14.8 14.8 0 0 1-9.055-6.95 14.8 14.8 0 0 1-1.492-11.312 14.81 14.81 0 0 1 6.945-9.054c1.61-.93 3.383-1.551 5.207-1.828v13.742a2.59 2.59 0 0 0 1.73 2.453zM37.507 36.52c-.93 0-1.77.398-2.363 1.125l-.008.008-6.41 7.93V14.893c0-.304.258-.558.566-.558h33.246c.305 0 .559.258.559.558V35.96a.566.566 0 0 1-.559.559zm.04 3.074-.005.004-1.203-.973zm12.71 45.414a1.202 1.202 0 0 1-1.484.852 1.23 1.23 0 0 1-.742-.563l-9.125-15.805a.233.233 0 0 1 .082-.312l.808-.47.051-.023c.023-.011.039-.027.062-.039l.79-.457a.234.234 0 0 1 .32.086l.906 1.57q.023.047.05.09l8.165 14.145c.16.278.203.61.117.926zm23.484-17.422H44.186l-.492-.855s0-.004-.004-.004a3.34 3.34 0 0 0-4.031-1.45l-1.477-2.554a17.85 17.85 0 0 0 7.082-10.098 17.86 17.86 0 0 0-1.445-13.016h18.715a3.653 3.653 0 0 0 3.648-3.649l.004-21.066a3.653 3.653 0 0 0-3.648-3.648h-33.25a3.657 3.657 0 0 0-3.656 3.648v15.211a18 18 0 0 0-6.754 2.274 17.87 17.87 0 0 0-8.387 10.93 17.89 17.89 0 0 0 1.805 13.66 17.87 17.87 0 0 0 10.93 8.386c1.55.414 3.125.622 4.687.622 2.614 0 5.196-.579 7.598-1.704l1.477 2.555a3.4 3.4 0 0 0-.676.762l-33.984-.004a4.24 4.24 0 0 1-4.239-4.23V7.16h79.887v56.191a4.235 4.235 0 0 1-4.234 4.235zM7.371 2.289a3.714 3.714 0 0 0 3.71-3.71 3.714 3.714 0 0 0-3.71-3.712 3.714 3.714 0 0 0-3.712 3.711A3.714 3.714 0 0 0 7.37 2.29m0-4.328c.335 0 .616.285.616.617a.626.626 0 0 1-.617.617.62.62 0 0 1-.617-.617.62.62 0 0 1 .617-.617m8.386 4.328a3.714 3.714 0 0 0 3.71-3.71 3.714 3.714 0 0 0-3.71-3.712 3.714 3.714 0 0 0-3.711 3.711 3.714 3.714 0 0 0 3.71 3.711m0-4.328a.616.616 0 1 1-.617.617.62.62 0 0 1 .617-.617m8.39 4.328a3.71 3.71 0 0 0 3.704-3.71 3.71 3.71 0 0 0-3.704-3.712 3.714 3.714 0 0 0-3.71 3.711 3.714 3.714 0 0 0 3.71 3.711m0-4.328c.332 0 .614.285.614.617a.613.613 0 0 1-.614.617.62.62 0 0 1-.617-.617.62.62 0 0 1 .617-.617m7.739.617c0-.855.691-1.547 1.547-1.547h37.43c.855 0 1.547.692 1.547 1.547 0 .856-.692 1.547-1.547 1.547h-37.43a1.55 1.55 0 0 1-1.547-1.547m28.25 20.816c0 .856-.692 1.547-1.547 1.547H33.234a1.545 1.545 0 0 1-1.547-1.547c0-.855.691-1.547 1.547-1.547h25.355a1.55 1.55 0 0 1 1.547 1.547m0 6.035c0 .856-.692 1.547-1.547 1.547H33.234a1.545 1.545 0 0 1-1.547-1.547c0-.855.691-1.547 1.547-1.547h25.355a1.55 1.55 0 0 1 1.547 1.547M47.46 31.46c0 .856-.692 1.547-1.547 1.547h-12.68a1.545 1.545 0 0 1-1.547-1.547c0-.855.691-1.546 1.547-1.546h12.68c.855 0 1.547.691 1.547 1.546"/></svg>