<svg viewBox="0 0 139.1 135.7" xmlns="http://www.w3.org/2000/svg"><path d="m10.7 0c-5.9 0-10.7 4.8-10.7 10.7v82.5c0 5.9 4.8 10.7 10.7 10.7h31.7c.5.6 1 1.2 1.6 1.7 11.1 11.1 28 13 41.1 5.7l21.5 21.5c3.6 3.6 9.6 3.6 13.2 0s3.6-9.6 0-13.3l-15.7-15.7h24.2c5.9 0 10.7-4.8 10.7-10.7v-82.4c.1-5.9-4.8-10.7-10.7-10.7zm0 4.8h117.6c3.3 0 5.9 2.6 5.9 5.9v12.7h-129.4v-12.7c0-3.3 2.6-5.9 5.9-5.9zm8 6.2c-1.7 0-3 1.4-3 3.1s1.4 3.1 3.1 3.1 3.1-1.4 3.1-3.1-1.4-3.1-3.1-3.1 0 0 0 0zm14.2 0c-1.7 0-3 1.4-3 3.1s1.4 3.1 3.1 3.1 3.1-1.4 3.1-3.1-1.4-3.1-3.1-3.1 0 0 0 0zm14.2 0c-1.7 0-3 1.4-3 3.1s1.4 3.1 3.1 3.1 3.1-1.4 3.1-3.1-1.4-3.1-3.1-3.1 0 0 0 0zm-42.3 17.2h129.5v65c0 3.3-2.6 5.9-5.9 5.9h-29l-1-1c5.6-10.1 5.8-22.5.5-32.7l17-17.3-.2 6.6c0 1.3 1 2.4 2.3 2.5 1.3 0 2.4-1 2.5-2.3l.4-12.7c0-.3 0-.6-.1-.9 0 0 0 0 0-.1 0 0 0 0 0-.1s0-.1 0-.2c-.1-.1-.3-.3-.5-.4-.2 0-.3-.2-.5-.2-.2 0-.3 0-.5 0l-13 .4c-1.3 0-2.3 1.2-2.3 2.5s1.2 2.4 2.5 2.3l6.9-.2-16.2 16.5c-1.1-1.5-2.2-2.9-3.6-4.2-13.4-13.4-35.2-13.4-48.6 0-11.4 11.4-13.1 28.9-5.1 42.1h-29.2c-3.3 0-5.9-2.6-5.9-5.9zm63.5 23.6c7.6 0 15.1 2.9 20.9 8.7 1.3 1.3 2.5 2.8 3.5 4.3l-14.3 14.5-8-9.4c-.9-1-2.4-1.1-3.4-.3 0 0-.2.2-.2.2l-15.8 18.1c-.9 1-.8 2.5.2 3.4s2.5.8 3.4-.2l13.9-16 7.9 9.3c.9 1 2.4 1.1 3.4.3 0 0 .1 0 .2-.1l15.2-15.4c4.1 9 3.5 19.5-1.8 28 0 0-.1.2-.2.3-1.1 1.7-2.4 3.4-4 4.9-1.5 1.5-3.2 2.9-5 4 0 0 0 0-.1 0-11.4 7.3-26.7 5.9-36.7-4.1-.7-.7-1.3-1.4-1.9-2.1 0 0 0 0 0-.1-9.5-11.6-8.8-28.8 2-39.6 5.8-5.8 13.3-8.7 20.9-8.7zm27.3 50.5 20.8 20.8c1.8 1.8 1.8 4.6 0 6.5-1.8 1.8-4.6 1.8-6.5 0l-20.8-20.8c1.2-.9 2.4-1.9 3.4-3 1.1-1.1 2.1-2.2 3-3.4z"/></svg>