<svg viewBox="0 0 205 229.6" xmlns="http://www.w3.org/2000/svg"><path d="m30.4 0c-1.5 0-2.8.9-3.4 2.3l-21.5 56.7c-.1.4-.2.9-.2 1.4-3.3 2.8-5.3 6.8-5.3 11.4v32.3c0 4.6 2.1 8.7 5.3 11.4-3.3 2.8-5.3 6.9-5.3 11.4v32.3c0 4.6 2.1 8.7 5.3 11.4-3.3 2.8-5.3 6.9-5.3 11.4v32.3c0 8.3 6.8 15.1 15.1 15.1h174.8c8.3 0 15.1-6.8 15.1-15.1v-32.3c0-4.6-2.1-8.7-5.3-11.4 3.3-2.8 5.3-6.9 5.3-11.4v-32.3c0-4.6-2.1-8.7-5.3-11.4 3.3-2.8 5.3-6.9 5.3-11.4v-32.3c0-4.7-2.2-8.9-5.6-11.6 0-.4 0-.8-.2-1.1l-21.4-56.8c-.6-1.4-1.9-2.3-3.4-2.3zm2.4 7.2h139.1l18.8 49.6h-175.6c-.4 0-.7 0-1 0zm-17.7 56.8h174.8c4.4 0 7.9 3.4 7.9 7.8v32.3c0 4.3-3.4 7.8-7.7 7.9 0 0-.1 0-.2 0h-174.8c-4.3 0-7.8-3.4-7.9-7.6 0 0 0-.1 0-.2v-32.3c0-4.4 3.5-7.8 7.9-7.8m23.4 10.5c-7.3.2-13.1 6.2-13.1 13.4 0 7.4 6.1 13.4 13.4 13.4s13.4-6 13.4-13.4-6-13.4-13.4-13.4h-.4zm.3 7.2c3.5 0 6.3 2.8 6.3 6.2s-2.7 6.2-6.2 6.2c0 0 0 0-.1 0-3.4 0-6.2-2.7-6.2-6.1 0 0 0 0 0-.1 0-3.5 2.7-6.2 6.2-6.2m66.9 2.6c-2 0-3.6 1.6-3.6 3.6s1.6 3.6 3.6 3.6h70.3c2 0 3.6-1.6 3.6-3.6s-1.6-3.6-3.6-3.6zm-90.6 34.8h174.8c4.4 0 7.9 3.5 7.9 7.9v32.3c0 4.3-3.4 7.8-7.7 7.8 0 0-.1 0-.2 0h-174.8c-4.3 0-7.8-3.3-7.9-7.6 0 0 0-.2 0-.3v-32.3c0-4.4 3.5-7.9 7.9-7.9m23.4 10.7c-7.3.2-13.1 6.1-13.1 13.4 0 7.4 6.1 13.4 13.4 13.4s13.4-6 13.4-13.4-6-13.4-13.4-13.4h-.4zm.3 7.2c3.4 0 6.2 2.8 6.2 6.2s-2.8 6.2-6.2 6.2-6.2-2.7-6.2-6.2c0 0 0 0 0-.1 0-3.5 2.7-6.2 6.2-6.2m66.9 2.7c-2 0-3.6 1.6-3.6 3.6s1.6 3.6 3.6 3.6h70.3c2 0 3.6-1.6 3.6-3.6s-1.6-3.6-3.6-3.6zm-90.6 34.8h174.8c4.4 0 7.9 3.5 7.9 7.9v32.3c0 4.4-3.5 7.9-7.9 7.9h-174.8c-4.3 0-7.8-3.4-7.9-7.7 0 0 0-.1 0-.2v-32.3c0-4.4 3.5-7.9 7.9-7.9m23.7 10.6c-7.4 0-13.4 6-13.4 13.4s6 13.4 13.4 13.4 13.4-6.1 13.4-13.4c0-7.4-6-13.4-13.4-13.4m0 7.2c3.5 0 6.3 2.7 6.3 6.2s-2.8 6.2-6.3 6.2c-3.4 0-6.2-2.7-6.2-6.2s2.7-6.2 6.2-6.2m66.9 2.6c-2 0-3.6 1.6-3.6 3.6s1.6 3.6 3.6 3.6h70.3c2 0 3.6-1.6 3.6-3.6s-1.6-3.6-3.6-3.6z" fill-rule="evenodd"/></svg>