<svg xmlns="http://www.w3.org/2000/svg" viewBox="-5 -10 97.609 100"><path d="M30.875 52a1.507 1.507 0 0 1-1.516-1.515V27.532c0-3.781 3.078-6.844 6.844-6.844H66.5c.844 0 1.516.672 1.516 1.516 0 .843-.672 1.515-1.516 1.515H36.203a3.82 3.82 0 0 0-3.812 3.813v22.953c0 .828-.672 1.515-1.516 1.515zM78.969 74.141c-.344 0-.703-.125-.969-.36L66 63.689H38.422a1.507 1.507 0 0 1-1.515-1.516c0-.843.672-1.515 1.515-1.515h28.11c.359 0 .702.125.968.36l9.938 8.359v-7.188c0-.844.671-1.516 1.515-1.516h6.813a3.82 3.82 0 0 0 3.812-3.812V27.532a3.82 3.82 0 0 0-3.812-3.813h-10.5a1.507 1.507 0 0 1-1.516-1.515c0-.844.672-1.516 1.516-1.516h10.5c3.78 0 6.843 3.078 6.843 6.844V56.86c0 3.781-3.078 6.844-6.843 6.844h-5.297v8.937c0 .594-.344 1.125-.875 1.375a1.7 1.7 0 0 1-.625.125z"/><path d="M76.579 37.938H45.407a1.507 1.507 0 0 1-1.516-1.515c0-.844.672-1.516 1.516-1.516h31.172a1.517 1.517 0 0 1 0 3.031M76.579 48.36H45.407a1.507 1.507 0 0 1-1.516-1.516c0-.844.672-1.516 1.516-1.516h31.172c.844 0 1.516.672 1.516 1.516 0 .843-.672 1.515-1.516 1.515M70.875 28.11c-.39 0-.781-.141-1.078-.438L59.094 16.969c-3.547-3.547-3.547-9.313 0-12.86 3.203-3.202 8.234-3.5 11.78-.905C74.438.61 79.454.907 82.657 4.11c3.547 3.547 3.531 9.312-.016 12.859L71.921 27.688c-.265.281-.656.422-1.047.422zm-5.36-23.642a6.09 6.09 0 0 0-4.28 1.766c-2.36 2.36-2.36 6.219 0 8.578l9.64 9.625 9.64-9.64a6.083 6.083 0 0 0 .016-8.579c-2.36-2.36-6.203-2.36-8.578.016a1.51 1.51 0 0 1-2.14 0 6.1 6.1 0 0 0-4.297-1.766M30.875 31.062H3.5a4.355 4.355 0 0 1-4.344-4.344V-5.687A4.35 4.35 0 0 1 3.5-10h43.438c2.39 0 4.344 1.938 4.344 4.313v27.875c0 .843-.672 1.515-1.516 1.515a1.507 1.507 0 0 1-1.515-1.516V-5.686c0-.704-.594-1.282-1.313-1.282H3.5c-.719 0-1.312.578-1.312 1.282v32.405A1.32 1.32 0 0 0 3.5 28.031h27.375c.844 0 1.516.672 1.516 1.516 0 .843-.672 1.515-1.516 1.515z"/><path d="M17.766 20.656c-.266 0-.516-.062-.75-.203a1.5 1.5 0 0 1-.75-1.312V1.92c0-.546.281-1.046.75-1.312a1.54 1.54 0 0 1 1.516 0l14.906 8.61c.468.265.75.765.75 1.312s-.282 1.047-.75 1.313l-14.906 8.609c-.235.125-.5.203-.766.203zm1.516-16.109v11.97l10.359-5.985zM17.766 90C5.219 90-5 79.781-5 67.22c0-12.563 10.219-22.767 22.766-22.767 12.562 0 22.781 10.22 22.781 22.781C40.547 79.796 30.328 90 17.766 90m0-42.516c-10.891 0-19.75 8.86-19.75 19.75s8.86 19.75 19.75 19.75 19.75-8.86 19.75-19.75-8.86-19.75-19.75-19.75"/><path d="M31.391 85.062a1.514 1.514 0 0 1-1.469-1.094c-.625-1.437-1.562-2.796-2.765-4.03a13.2 13.2 0 0 0-9.391-3.876c-5.36 0-10.172 3.172-12.219 8.063-.328.765-1.219 1.14-1.984.812-.766-.328-1.141-1.218-.813-1.984 2.531-6.031 8.422-9.922 15.016-9.922a16.24 16.24 0 0 1 11.547 4.781c1.531 1.563 2.688 3.297 3.469 5.14.078.188.125.391.125.595 0 .812-.672 1.515-1.516 1.515zM17.766 69.547c-3.953 0-7.172-3.218-7.172-7.172s3.219-7.171 7.172-7.171 7.172 3.218 7.172 7.171-3.219 7.172-7.172 7.172m0-11.297a4.15 4.15 0 0 0-4.14 4.14c0 2.282 1.859 4.142 4.14 4.142s4.14-1.86 4.14-4.141c0-2.297-1.859-4.14-4.14-4.14"/></svg>