<svg xmlns="http://www.w3.org/2000/svg" viewBox="-5 -10 92.004 92.001"><path d="M87.002-6a3.86 3.86 0 0 0-1.14-2.85 3.86 3.86 0 0 0-2.86-1.15c-22.52.512-41.25 19.239-49.238 27.239a71 71 0 0 0-3.738 4.05c-8.05-.03-16.03 3.7-23.12 10.81-5.423 5.44-8.38 10.87-8.513 11.102-.25.46-.14 1.039.25 1.378.211.18.47.27.73.27.24 0 .47-.07.673-.219 5.449-4.07 11.39-5.98 17.672-5.699-.282.46-.559.922-.82 1.34a5.75 5.75 0 0 0 .828 7.11l1.98 1.98c-2.012 3.578-3.531 7.289-4.48 11.039-.102.379.011.789.289 1.07.21.21.5.328.789.328.09 0 .18-.012.28-.031 3.75-.95 7.462-2.469 11.04-4.48l1.98 1.98a5.74 5.74 0 0 0 4.07 1.691c1.04 0 2.09-.281 3.032-.87.422-.263.879-.54 1.34-.821.28 6.281-1.63 12.219-5.7 17.672-.32.422-.289 1.012.051 1.398a1.136 1.136 0 0 0 1.383.262c.23-.121 5.66-3.09 11.102-8.512 7.121-7.09 10.84-15.07 10.81-23.12a73 73 0 0 0 4.05-3.739c8.023-7.977 26.75-26.707 27.262-49.227zM83.053-7.76c.48-.012.871.14 1.211.488.34.34.5.73.488 1.211-.09 3.961-.78 7.809-1.89 11.512-5.64-1.199-10.11-5.68-11.32-11.32 3.699-1.098 7.55-1.8 11.512-1.89zM3.113 40.04a53 53 0 0 1 5.421-6.39c4.328-4.34 11.121-9.38 19.578-10.04-3.7 4.649-6.719 9.372-9.07 13.18-5.578-.488-10.918.59-15.93 3.25zm27.651-1.43c2.461-2.351 5.801-2.5 7.961-.34 2.172 2.172 2.031 5.52-.32 7.981-6.18 6.191-13.211 10.59-20.45 12.82 2.22-7.25 6.618-14.281 12.81-20.461zm12.598 29.86c-2.25 2.25-4.531 4.07-6.39 5.421 2.648-5 3.73-10.34 3.25-15.93 3.808-2.351 8.53-5.36 13.18-9.07-.66 8.46-5.7 15.25-10.04 19.578zM37.264 57.14q-.901.555-1.71 1.051c-1.422.879-3.16.672-4.34-.512l-1.578-1.578c3.629-2.261 7.11-5.03 10.359-8.289-.004-.004.007-.004.007-.012 3.192-3.32 3.32-8.109.301-11.12-3.011-3.012-7.781-2.872-11.102.32l-.02.02c-3.25 3.25-6.03 6.73-8.288 10.358l-1.578-1.578c-1.18-1.18-1.38-2.922-.512-4.34q.494-.809 1.05-1.71c3.41-5.579 8.57-14.012 15.48-20.922C41.436 12.727 53.913.25 69.386-5.16c1.441 6.32 6.449 11.328 12.77 12.77-5.41 15.469-17.891 27.949-23.988 34.05-6.903 6.91-15.336 12.07-20.902 15.48zm24.488-52.46a10.47 10.47 0 0 0-7.468 3.1c-2 2-3.102 4.65-3.102 7.47s1.102 5.48 3.102 7.469a10.54 10.54 0 0 0 7.468 3.09c2.711 0 5.41-1.032 7.47-3.09 2-2 3.1-4.649 3.1-7.47s-1.1-5.48-3.1-7.468a10.47 10.47 0 0 0-7.47-3.102m5.891 16.46a8.26 8.26 0 0 1-5.89 2.43 8.33 8.33 0 0 1-5.891-2.43c-3.25-3.25-3.25-8.53 0-11.78a8.31 8.31 0 0 1 5.89-2.43c2.13 0 4.262.808 5.891 2.43 3.25 3.25 3.25 8.53 0 11.78m-72.312 47.13a1.12 1.12 0 0 1 0-1.59L9.132 52.88a1.12 1.12 0 0 1 1.59 0 1.12 1.12 0 0 1 0 1.59L-3.08 68.27a1.119 1.119 0 0 1-1.59 0m28.781-1.981a1.12 1.12 0 0 1 0 1.59l-13.8 13.8c-.22.212-.5.32-.79.32s-.57-.108-.79-.327a1.12 1.12 0 0 1 0-1.59l13.802-13.801a1.12 1.12 0 0 1 1.578.008m-13.129 1.32-13.8 13.79a1.13 1.13 0 0 1-.79.327c-.29 0-.57-.11-.79-.328a1.12 1.12 0 0 1 0-1.59l13.802-13.8a1.12 1.12 0 0 1 1.59 0c.43.452.43 1.163-.012 1.6z"/></svg>