<svg xmlns="http://www.w3.org/2000/svg" viewBox="-5 -10 95.274 95.275"><path fill-rule="evenodd" d="M24.247 25.775c-.797-3.512-2.187-6.86-3.882-10.191l-3.56 2.055c-.71.41-1.597.164-2.01-.606l-2.169-3.758a1.443 1.443 0 0 1 .531-1.964l3.563-2.055c-2.195-3.379-4.45-6.168-6.422-8.035C8.51-.467 7.181-1.353 6.685-1.07v-.003c-.574.336-.395 2.21.36 5.008 1.944 7.207 7.839 17.406 13.093 22.684 1.992 2.003 3.52 3.097 4.117 2.828.493-.25.438-1.602-.007-3.672zm.512-7.594h56.45c4.987 0 9.065 4.078 9.065 9.067v48.96c0 4.989-4.074 9.067-9.066 9.067l-69.777-.004c-4.988 0-9.066-4.078-9.066-9.066v-29.7H-1.69a2.67 2.67 0 0 1-2.656-2.652v-2.785a2.664 2.664 0 0 1 2.656-2.656H.841l1.54-8.469A20.52 20.52 0 0 1-4.304 8.888 20.4 20.4 0 0 1 5.122-3.475a1.4 1.4 0 0 1 .258-.148c1.739-.875 4.207.222 6.89 2.758 2.153 2.03 4.59 5.054 6.946 8.691l.406-.23c1.22-.66 2.766-.5 3.86.32l1.41-.813c-.184-2.289 1.969-4.082 4.191-3.488 2.844.762 3.387 4.625.809 6.113a3.33 3.33 0 0 1-3.559-.136l-1.41.812a3.65 3.65 0 0 1-1.797 3.594l-.254.148a69 69 0 0 1 1.887 4.036zM5.251 46.505h2.39v25.312c0 4.239 3.462 7.7 7.7 7.7h61.957c4.238 0 7.7-3.461 7.7-7.7v-40.18c0-4.238-3.462-7.699-7.7-7.699H26.775a36 36 0 0 0-.89-2.867h55.32c3.394 0 6.179 2.785 6.179 6.18v48.96c0 3.395-2.781 6.18-6.18 6.18l-69.773-.004c-3.394 0-6.18-2.78-6.18-6.18zm11.535 5.328 6.387-11.25 7.23 27.38c.364 1.37 2.328 1.468 2.778.03l7.183-21.503 6.496 9.671c.645.961 2.09.801 2.524-.25h.004l6.597-15.824 6.957 22.551c.407 1.325 2.29 1.372 2.742.024l6.82-19.457 3.25 8.496a1.446 1.446 0 0 0 1.86.836 1.446 1.446 0 0 0 .836-1.86l-4.656-12.171h-.004c-.477-1.243-2.262-1.23-2.703.039l-6.684 19.07-6.824-22.117c-.39-1.38-2.215-1.426-2.726-.192L47.755 52.33l-6.625-9.863c-.672-1.016-2.192-.8-2.57.328l-6.606 19.77-6.898-26.133c-.325-1.238-2.008-1.469-2.645-.344l-4.398 7.746v-2.77a2.66 2.66 0 0 0-2.656-2.655h-2.532l-.73-4.016c4.496.754 9.27.02 13.535-2.418 1.433-.762 1.945-2.613 1.687-5.152h49.977c2.645 0 4.813 2.168 4.813 4.812v40.18c0 2.645-2.168 4.813-4.813 4.813H15.341c-2.644 0-4.812-2.168-4.812-4.813V46.505h4.832c.492 0 .953-.136 1.351-.375l-2.43 4.281c-.39.692-.148 1.57.54 1.961a1.44 1.44 0 0 0 1.965-.539zm18.45-59.05c7.628 2.843 11.218 11.608 7.702 19.026a1.442 1.442 0 0 0 2.606 1.23c4.218-8.901-.063-19.507-9.305-22.948a1.44 1.44 0 0 0-1.852.848 1.44 1.44 0 0 0 .848 1.843m-1.821 4.886C38.18-.554 40.43 4.927 38.23 9.567a1.442 1.442 0 0 0 2.606 1.23c2.906-6.14-.047-13.448-6.418-15.823a1.44 1.44 0 0 0-1.852.847c-.273.742.106 1.57.848 1.848zm-1.848 4.957a3.413 3.413 0 0 1 1.887 4.664 1.442 1.442 0 0 0 2.605 1.23 6.29 6.29 0 0 0-3.488-8.59 1.44 1.44 0 0 0-1.852.849c-.273.742.106 1.57.848 1.847zm-3.234 3.773c-.578-.152-.817.723-.239.88.579.152.82-.723.239-.88M3.763 38.411h6.144l-.867-4.773a20.5 20.5 0 0 1-4.074-1.863zm11.363 2.887H-1.46v2.32h16.586ZM3.618 1.17C4.204 9.486 13.915 26.3 20.825 30.97c-7.79 2.485-16.398-.734-20.594-7.98-4.176-7.215-2.66-16.316 3.386-21.82Zm16.574 11.188-3.586 2.07-.774-1.335 5.067-2.926a.76.76 0 0 1 .59-.07c.726.195.718 1.12.183 1.41z"/></svg>