<svg xmlns="http://www.w3.org/2000/svg" viewBox="-5 -10 93.75 81.251"><path d="M29.375 7.187h14.094c2.05-.032 2.058-3.09 0-3.125H29.374c-2.05.031-2.058 3.09 0 3.125M2.813 69.687H17.03c2.051-.04 2.06-3.086 0-3.125H2.814a4.69 4.69 0 0 1-4.688-4.688V13.421c-.023-2.023-3.09-2.078-3.125 0v48.453c0 4.309 3.504 7.813 7.813 7.813M66.719 69.687h1.718c4.309 0 7.813-3.504 7.813-7.813V38.436c-.031-2.043-3.09-2.062-3.125 0v23.438a4.69 4.69 0 0 1-4.688 4.688H66.72c-2.051.027-2.055 3.094 0 3.125"/><path d="M2.813 13.437c-.864 0-1.563.699-1.563 1.562v14.062a4.69 4.69 0 0 0 4.688 4.688h7.812a4.69 4.69 0 0 0 4.688-4.688V16.092a1.562 1.562 0 1 0-3.125 0v12.97c0 .862-.7 1.562-1.563 1.562H5.938c-.864 0-1.563-.7-1.563-1.563V15c0-.863-.7-1.562-1.562-1.562M1.25 43.125a4.69 4.69 0 0 0 4.687 4.687h7.813a4.69 4.69 0 0 0 4.687-4.687V40a4.69 4.69 0 0 0-4.687-4.688H5.937A4.69 4.69 0 0 0 1.25 40zM4.375 40c0-.864.699-1.563 1.562-1.563h7.813c.863 0 1.562.7 1.562 1.563v3.125c0 .863-.7 1.562-1.562 1.562H5.937c-.863 0-1.562-.699-1.562-1.562zM1.25 58.75a4.69 4.69 0 0 0 4.687 4.687h7.813c.746 0 1.453-.168 2.093-.504 1.805-.98.403-3.687-1.441-2.773.137.305-8.262.094-8.469.152a1.565 1.565 0 0 1-1.562-1.562v-4.688c0-.863.699-1.562 1.562-1.562h7.813c.507 0 .972.242 1.28.668.509.699 1.481.855 2.184.347 2.102-1.968-1.55-4.285-3.464-4.14H5.933a4.69 4.69 0 0 0-4.687 4.687v4.688zM66.875 63.297c1.812-.211 3.132-1.98 3.124-3.766V38.437c-.03-2.043-3.09-2.062-3.124 0v21.094a.78.78 0 0 1-.508.727c-1.653.543-1.207 3.07.507 3.039M84.063 5.625H49.688A4.69 4.69 0 0 0 45 10.312v7.63l-3.824 1.91a1.566 1.566 0 0 0 0 2.797L45 24.558v6.066a4.69 4.69 0 0 0 4.688 4.687h34.375a4.69 4.69 0 0 0 4.687-4.687V10.313a4.69 4.69 0 0 0-4.687-4.688zm1.562 25c0 .863-.7 1.562-1.562 1.562H49.688c-.864 0-1.563-.699-1.563-1.562v-7.031c.078-1.364-1.855-1.801-2.754-2.344.914-.551 2.832-.98 2.754-2.344v-8.594c0-.863.7-1.562 1.563-1.562h34.375c.863 0 1.562.699 1.562 1.562z"/><path d="M1.25 11.875h7.628l1.91 3.824a1.566 1.566 0 0 0 2.797 0l1.91-3.824c1.122-.078 6.56.218 7.524-.254-.863.812-1.394 1.984-1.457 3.223v23.75c.035 2.043 3.09 2.062 3.125 0V15.063c-.004-.88.664-1.63 1.562-1.625h15.625c2.047-.032 2.06-3.09 0-3.125-.66.085-16.973-.239-17.066.246a4.66 4.66 0 0 0 1.442-3.371v-12.5A4.69 4.69 0 0 0 21.562-10H1.25a4.69 4.69 0 0 0-4.687 4.688v12.5a4.69 4.69 0 0 0 4.687 4.687zM-.313-5.313c0-.864.7-1.563 1.563-1.563h20.312c.863 0 1.562.7 1.562 1.563v12.5c0 .863-.7 1.562-1.562 1.562H14.53c-1.363-.078-1.8 1.86-2.343 2.758-.547-.906-.981-2.836-2.344-2.758H1.249c-.863 0-1.563-.699-1.563-1.562zM52.813 15h28.124c2.047-.032 2.063-3.09 0-3.125H52.814c-2.047.031-2.06 3.09 0 3.125M80.937 18.125H52.81c-2.046.031-2.058 3.09 0 3.125h28.125c2.047-.032 2.063-3.09 0-3.125M80.937 24.375H69.998c-2.05.035-2.054 3.09 0 3.125h10.938c2.051-.035 2.055-3.09 0-3.125M63.75 66.563V46.25a4.69 4.69 0 0 0-4.688-4.688H24.687a4.69 4.69 0 0 0-4.688 4.688v7.629l-3.824 1.91a1.566 1.566 0 0 0 0 2.797L20 60.497v6.066a4.69 4.69 0 0 0 4.688 4.688h34.375a4.69 4.69 0 0 0 4.688-4.688zm-40.625 0v-7.031c.078-1.364-1.86-1.801-2.754-2.344.914-.547 2.832-.985 2.753-2.344V46.25c0-.863.7-1.562 1.563-1.562h34.375c.863 0 1.563.699 1.563 1.562v20.312c0 .863-.7 1.563-1.563 1.563H24.687c-.863 0-1.563-.7-1.563-1.563z"/><path d="M27.813 50.937h28.125c2.046-.032 2.062-3.09 0-3.125H27.812c-2.046.031-2.058 3.09 0 3.125M55.937 54.063H27.812c-2.047.031-2.06 3.09 0 3.125h28.125c2.046-.032 2.062-3.09 0-3.125M55.937 60.313H44.999c-2.051.035-2.055 3.09 0 3.125h10.937c2.051-.035 2.055-3.09 0-3.125M4.375-.625h14.061c2.051-.032 2.06-3.09 0-3.125H4.375c-2.051.031-2.06 3.09 0 3.125M4.375 5.625h14.061c2.051-.032 2.06-3.09 0-3.125H4.375c-2.051.031-2.06 3.09 0 3.125"/></svg>