<svg viewBox="0 0 24.4 25.1" xmlns="http://www.w3.org/2000/svg"><path d="m6 8.4c-.8 0-1.4.6-1.4 1.4s.6 1.4 1.4 1.4 1.4-.6 1.4-1.4-.6-1.4-1.4-1.4m0 2.3c-.5 0-.9-.4-.8-.9 0-.4.4-.8.8-.8.5 0 .9.4.8.9 0 .4-.4.8-.8.8m6 2.6v5h-.4v-3.7c0-.1-.1-.2-.2-.2h-2c-.1 0-.2.1-.2.2v3.7h-.9c-.1 0-.2.1-.2.2s.1.2.2.2h12.9c.1 0 .2-.1.2-.2s-.1-.2-.2-.2h-.9v-5c0-.1-.1-.2-.2-.2h-2c-.1 0-.2.1-.2.2v5h-.4v-6.3c0-.1-.1-.2-.2-.2h-2c-.1 0-.2.1-.2.2v6.3h-.4v-5c0-.1-.1-.2-.2-.2h-2c-.1 0-.2.1-.2.2m5.9.3h1.5v4.7h-1.5zm-2.9-1.4h1.5v6.1h-1.5zm-5.7 6.1v-3.5h1.5v3.5zm2.9-4.7h1.5v4.7h-1.5zm8.6 6.7h-12.9c-.1 0-.2.1-.2.2s.1.2.2.2h12.9c.1 0 .2-.1.2-.2s-.1-.2-.2-.2m-12.9-17.5h5c.1 0 .2-.1.2-.2s-.1-.2-.2-.2h-5c-.1 0-.2.1-.2.2s.1.2.2.2m0 2.1h5c.1 0 .2-.1.2-.2s-.1-.2-.2-.2h-5c-.1 0-.2.1-.2.2s.1.2.2.2m12.9 17.3h-12.9c-.1 0-.2.1-.2.2s.1.2.2.2h12.9c.1 0 .2-.1.2-.2s-.1-.2-.2-.2"/><path d="m5.7 24.9c0 .1.1.2.2.2h18.1c.1 0 .2-.1.2-.2v-18.5s0 0 0-.1l-6-6.3s-.1 0-.2 0h-12c-.1 0-.2.1-.2.2v6.5c-3.2.1-5.6 2.8-5.8 2.9v.3c.1.1 2.6 2.8 5.7 2.9zm-2.3-15.1c0-1.4 1.2-2.6 2.6-2.6s2.6 1.2 2.6 2.6-1.2 2.6-2.6 2.6-2.6-1.2-2.6-2.6m4.8-2.1c1.5.6 2.7 1.7 3.1 2.1-.4.4-1.6 1.5-3.1 2.1.5-.6.8-1.3.8-2.1s-.3-1.5-.8-2.1m10-6.8 5.3 5.3h-5.3zm-.5-.4v5.9c0 .1.1.2.2.2h5.9v18h-17.6v-11.8c3.1-.1 5.6-2.8 5.7-2.9 0 0 0-.2 0-.3-.1-.1-2.5-2.8-5.7-2.9v-6.2zm-14 7.2c-.5.6-.8 1.3-.8 2.1s.3 1.5.8 2.1c-1.5-.6-2.7-1.7-3.2-2.1.4-.4 1.6-1.5 3.2-2.1"/></svg>