<svg viewBox="0 0 79.5 79.5" xmlns="http://www.w3.org/2000/svg"><path d="m24.5 7.3c-1.9 3.5-3.5 7.6-4.7 12.1-3-.6-5.7-1.3-8.1-2.1 3.4-4.2 7.8-7.7 12.7-10zm30.4 0c5 2.3 9.3 5.8 12.7 10-2.4.8-5.1 1.5-8.1 2.1-1.2-4.5-2.8-8.6-4.7-12.1zm-13.2-3.4c2.4.1 4.8.5 7.1 1.1 2.8 3.5 5.3 8.6 7 14.9-4.3.6-9 1-14.1 1.1zm-3.9 17.2c-5.1 0-9.8-.5-14.1-1.1 1.7-6.3 4.2-11.4 7-14.9 2.3-.6 4.6-1 7.1-1.1v17.2zm-28.4-.5s0 0 0 0c2.9 1 6.1 1.9 9.6 2.5-.9 4.6-1.5 9.6-1.6 14.7h-13.5c.3-6.3 2.3-12.2 5.5-17.2s0 0 0 0zm13.4 3.2c4.8.7 9.8 1.1 15 1.2v12.8h-16.5c.1-5.1.6-9.8 1.5-14zm33.9 0c.9 4.3 1.4 9 1.5 14h-16.5v-12.8c5.1 0 10.2-.5 15-1.2zm13.3-3.2c3.2 5 5.2 10.9 5.5 17.2h-13.4c-.1-5.1-.7-10.1-1.6-14.7 3.5-.7 6.7-1.5 9.6-2.5zm-32.2 33.9c-5.2 0-10.2.5-15 1.2-.9-4.3-1.4-9-1.5-14h16.5s0 12.8 0 12.8zm20.4-12.8c-.1 5.1-.7 9.8-1.5 14-4.8-.7-9.8-1.1-15-1.2v-12.8s16.5 0 16.5 0zm-40.8 0c.1 5.1.7 10 1.6 14.7-3.4.7-6.7 1.5-9.6 2.5-3.2-5-5.2-10.9-5.5-17.2h13.4zm58.1 0c-.3 6.3-2.3 12.2-5.5 17.2-2.9-1-6.1-1.9-9.6-2.5 1-4.6 1.5-9.6 1.6-14.7h13.4zm-15.9 18.5c3 .6 5.7 1.3 8.1 2.1-3.4 4.2-7.8 7.7-12.7 10 1.9-3.5 3.5-7.6 4.7-12.1zm-39.7 0c1.2 4.5 2.8 8.6 4.7 12.1-5-2.3-9.3-5.8-12.7-10 2.4-.8 5.1-1.5 8.1-2.1zm21.8-1.8c5.1 0 9.8.5 14.1 1.1-1.7 6.3-4.2 11.4-7 14.9-2.3.6-4.6 1-7.1 1.1v-17.2zm-3.9 17.1c-2.4-.1-4.8-.5-7.1-1.1-2.8-3.5-5.3-8.6-7-14.9 4.3-.6 9-1 14.1-1.1v17.2zm1.9-75.5c-21.9 0-39.7 17.8-39.7 39.7s17.8 39.7 39.7 39.7 39.7-17.8 39.7-39.7-17.7-39.7-39.7-39.7z" fill="#fff"/></svg>