<?xml version="1.0" encoding="UTF-8"?>
<svg id="Layer_1" xmlns="http://www.w3.org/2000/svg" version="1.1" viewBox="0 0 79.5 79.5">
  <!-- Generator: Adobe Illustrator 29.1.0, SVG Export Plug-In . SVG Version: 2.1.0 Build 142)  -->
  <defs>
    <style>
      .st0 {
        fill: #fff;
      }
    </style>
  </defs>
  <path class="st0" d="M24.5,7.3c-1.9,3.5-3.5,7.6-4.7,12.1-3-.6-5.7-1.3-8.1-2.1,3.4-4.2,7.8-7.7,12.7-10h0ZM54.9,7.3h0c5,2.3,9.3,5.8,12.7,10h0c-2.4.8-5.1,1.5-8.1,2.1-1.2-4.5-2.8-8.6-4.7-12.1h0ZM41.7,3.9h0c2.4.1,4.8.5,7.1,1.1h0c2.8,3.5,5.3,8.6,7,14.9h0c-4.3.6-9,1-14.1,1.1V3.9ZM37.8,21.1h0c-5.1,0-9.8-.5-14.1-1.1h0c1.7-6.3,4.2-11.4,7-14.9,2.3-.6,4.6-1,7.1-1.1v17.2ZM9.4,20.6h0s0,0,0,0h0c2.9,1,6.1,1.9,9.6,2.5-.9,4.6-1.5,9.6-1.6,14.7H3.9c.3-6.3,2.3-12.2,5.5-17.2h0s0,0,0,0ZM22.8,23.8h0c4.8.7,9.8,1.1,15,1.2v12.8h-16.5c.1-5.1.6-9.8,1.5-14h0ZM56.7,23.8h0c.9,4.3,1.4,9,1.5,14h-16.5v-12.8c5.1,0,10.2-.5,15-1.2h0ZM70,20.6h0c3.2,5,5.2,10.9,5.5,17.2h-13.4c-.1-5.1-.7-10.1-1.6-14.7,3.5-.7,6.7-1.5,9.6-2.5h0ZM37.8,54.5h0c-5.2,0-10.2.5-15,1.2-.9-4.3-1.4-9-1.5-14h16.5s0,12.8,0,12.8ZM58.2,41.7c-.1,5.1-.7,9.8-1.5,14-4.8-.7-9.8-1.1-15-1.2v-12.8s16.5,0,16.5,0ZM17.4,41.7c.1,5.1.7,10,1.6,14.7h0c-3.4.7-6.7,1.5-9.6,2.5-3.2-5-5.2-10.9-5.5-17.2h13.4ZM75.5,41.7c-.3,6.3-2.3,12.2-5.5,17.2-2.9-1-6.1-1.9-9.6-2.5,1-4.6,1.5-9.6,1.6-14.7h13.4ZM59.6,60.2c3,.6,5.7,1.3,8.1,2.1-3.4,4.2-7.8,7.7-12.7,10h0c1.9-3.5,3.5-7.6,4.7-12.1h0ZM19.9,60.2c1.2,4.5,2.8,8.6,4.7,12.1-5-2.3-9.3-5.8-12.7-10,2.4-.8,5.1-1.5,8.1-2.1h0ZM41.7,58.4h0c5.1,0,9.8.5,14.1,1.1h0c-1.7,6.3-4.2,11.4-7,14.9h0c-2.3.6-4.6,1-7.1,1.1v-17.2ZM37.8,75.5c-2.4-.1-4.8-.5-7.1-1.1h0c-2.8-3.5-5.3-8.6-7-14.9h0c4.3-.6,9-1,14.1-1.1v17.2ZM39.7,0C17.8,0,0,17.8,0,39.7s17.8,39.7,39.7,39.7c21.9,0,39.7-17.8,39.7-39.7S61.7,0,39.7,0h0Z"/>
</svg>