<svg xmlns="http://www.w3.org/2000/svg" viewBox="-5 -10 66.166 68.883"><path d="M40.352 23.821c-1.96-1.648-4.91-1.422-6.57.531l-1.371 1.61a.19.19 0 0 1-.192.05c-1.808-.609-5.18-2.32-7.398-6.94a.16.16 0 0 1 .031-.161l1.711-1.98c1.649-1.91 1.469-4.84-.41-6.52l-3.82-3.45a4.62 4.62 0 0 0-3.39-1.19 4.67 4.67 0 0 0-3.24 1.57l-2.3 2.601a7.15 7.15 0 0 0-1.762 4.211c-.23 3.32.211 11.79 9.18 18.828.762.68 7.23 6.25 14.488 6.25 1.422 0 2.879-.21 4.32-.719a7.14 7.14 0 0 0 3.02-2.058l2.25-2.61a4.66 4.66 0 0 0 1.12-3.421 4.64 4.64 0 0 0-1.64-3.2zm1.52 7.422-2.25 2.61c-.352.41-.809.718-1.309.898-6.852 2.398-14.78-4.7-14.859-4.762l-.113-.105c-7.238-5.66-7.942-12.102-7.711-15.45.05-.679.32-1.327.77-1.827l2.3-2.602c.16-.18.36-.219.469-.23h.04c.108 0 .288.03.448.171l3.82 3.45c.27.238.29.66.06.941l-1.712 1.98c-1.078 1.262-1.328 3.032-.61 4.512 2.852 5.942 7.321 8.18 9.731 9a4.17 4.17 0 0 0 4.512-1.238l1.371-1.61a.676.676 0 0 1 .942-.078l4.03 3.41c.192.16.231.36.24.462a.72.72 0 0 1-.169.468z"/><path d="M28.63-9.999c-8.692 0-16.86 3.39-23.013 9.531-10.78 10.781-12.602 27.621-4.488 40.41L-5 58.883l18.078-7.75c12.621 6.88 28.34 4.649 38.57-5.578 12.691-12.69 12.691-33.328 0-46.02C45.5-6.617 37.328-10 28.628-10zm20.19 52.723c-9.18 9.18-23.422 11.02-34.602 4.461l-.879-.523-11.82 5.07 4.012-12.398-.55-.809c-7.65-11.289-6.192-26.5 3.468-36.16 5.39-5.39 12.559-8.36 20.18-8.36s14.789 2.97 20.18 8.36c11.133 11.117 11.133 29.23.012 40.36z"/></svg>