<svg viewBox="0 0 75 78.8" xmlns="http://www.w3.org/2000/svg"><g fill="#fff"><path d="m50.3 54.6c3.6-2.8 6.6-6.1 9.1-9.9 3.1-1.1 15-6.8 15.7-29.6 0-1-.3-2-1.1-2.7-.7-.7-1.7-1.1-2.7-1.1h-7.5v-5.6c0-3.1-2.5-5.6-5.6-5.6h-41.3c-3.1 0-5.6 2.5-5.6 5.6v5.6h-7.5c-1 0-2 .4-2.7 1.1s-1.1 1.7-1.1 2.7c.7 22.8 12.6 28.5 15.7 29.6 2.4 3.8 5.5 7.1 9.1 9.9 1.6 1.3 3.4 2.3 5.3 3v4.2c0 2.1-1.7 3.7-3.8 3.8h-5.6c-5.2 0-9.4 4.2-9.4 9.4s1.7 3.7 3.8 3.8h45c2.1 0 3.7-1.7 3.8-3.8 0-5.2-4.2-9.4-9.4-9.4h-5.6c-2.1 0-3.7-1.7-3.8-3.8v-4.2c1.9-.7 3.7-1.8 5.3-3m20.9-39.6c-.4 14-5.3 20.7-9.1 23.8 1-3 1.6-6.1 1.6-9.2v-14.6zm-67.5 0h7.5v14.5c0 3.1.5 6.3 1.6 9.2-3.8-3.1-8.7-9.8-9.1-23.8zm11.2 14.5v-23.9c0-1 .8-1.9 1.9-1.9h41.2c1 0 1.9.8 1.9 1.9v23.9c0 8.4-4.1 15.8-12.1 22.1-6.1 4.9-14.8 4.9-20.9 0-8-6.3-12.1-13.8-12.1-22.1m33.9 39.9h5.6c3.1 0 5.6 2.5 5.6 5.6h-45c0-3.1 2.5-5.6 5.6-5.6h5.6c4.1 0 7.5-3.4 7.5-7.5v-3.2c2.5.5 5 .5 7.5 0v3.2c0 4.1 3.4 7.5 7.5 7.5"/><path d="m43.8 38.7h.6c1 0 1.9-.8 1.9-1.9l-.2-6.7 4.1-5.3c.6-.8.5-2-.3-2.6l-.6-.3-6.4-1.9-3.8-5.5c-.7-.9-1.9-1-2.7-.4 0 .1-.3.2-.4.4l-3.8 5.5-6.4 1.9c-1 .3-1.6 1.3-1.3 2.3 0 .2.2.4.3.6l4.1 5.3-.2 6.7c0 1 .8 1.9 1.8 1.9s.5 0 .7 0l6.3-2.2zm-11.3-4.4v-4.6c0-.4 0-.9-.3-1.2l-2.8-3.7 4.5-1.3c.4-.1.8-.4 1-.7l2.6-3.8 2.6 3.8c.2.4.6.6 1 .7l4.5 1.3-2.8 3.7c-.3.3-.4.8-.4 1.2v4.6s-4.3-1.6-4.3-1.6c-.4 0-.8 0-1.3 0l-4.4 1.6z"/></g></svg>