<svg xmlns="http://www.w3.org/2000/svg" viewBox="-5 -10 93.476 87.648"><path d="M-1.988 58.441a1.5 1.5 0 0 1-3 0v-.316a1.5 1.5 0 0 1 3 0zm43.734-6.8a8.97 8.97 0 0 1 6.363 2.636 8.97 8.97 0 0 1 2.637 6.363 8.97 8.97 0 0 1-2.637 6.364 8.97 8.97 0 0 1-6.363 2.636 8.97 8.97 0 0 1-6.363-2.636 8.97 8.97 0 0 1-2.637-6.364 8.97 8.97 0 0 1 2.637-6.363 8.97 8.97 0 0 1 6.363-2.637m4.242 4.757a6 6 0 0 0-4.242-1.758c-1.656 0-3.16.672-4.242 1.758a6 6 0 0 0-1.758 4.242c0 1.657.672 3.16 1.758 4.242a6 6 0 0 0 4.242 1.758c1.656 0 3.16-.672 4.242-1.758a6 6 0 0 0 1.758-4.242c0-1.656-.672-3.16-1.758-4.242M49.758.503a1.503 1.503 0 0 1-.664-2.012 1.503 1.503 0 0 1 2.011-.664 11.95 11.95 0 0 1 4.774 4.395 11.8 11.8 0 0 1 1.765 6.226c0 2.278-.644 4.414-1.757 6.227l-.075.11a11.96 11.96 0 0 1-4.707 4.285 1.5 1.5 0 0 1-2.011-.665 1.5 1.5 0 0 1 .664-2.011 9 9 0 0 0 3.52-3.196l.054-.097a8.85 8.85 0 0 0 1.312-4.652c0-1.707-.48-3.305-1.312-4.653A8.94 8.94 0 0 0 49.758.503zm1.07 26.34a1.5 1.5 0 0 1-1.84-1.043 1.5 1.5 0 0 1 1.043-1.84 16.1 16.1 0 0 0 8.524-5.777 16.04 16.04 0 0 0 3.27-9.73c0-3.66-1.22-7.032-3.27-9.731l-.059-.078a16.12 16.12 0 0 0-8.465-5.707 1.495 1.495 0 1 1 .797-2.883 19.13 19.13 0 0 1 10.04 6.766l.07.086a19 19 0 0 1 3.89 11.543 19 19 0 0 1-3.89 11.543 19.12 19.12 0 0 1-10.106 6.847zM32.656-9.942a1.5 1.5 0 0 1 1.84 1.043 1.5 1.5 0 0 1-1.043 1.84 16.1 16.1 0 0 0-8.524 5.777 16.05 16.05 0 0 0-3.269 9.735c0 3.66 1.219 7.03 3.27 9.73l.058.078a16.1 16.1 0 0 0 8.465 5.703 1.495 1.495 0 1 1-.797 2.883 19.1 19.1 0 0 1-10.039-6.766l-.07-.085a19 19 0 0 1-3.89-11.543 19 19 0 0 1 3.89-11.543 19.12 19.12 0 0 1 10.105-6.848zm1.07 26.34a1.503 1.503 0 0 1 .664 2.012 1.503 1.503 0 0 1-2.011.664 11.96 11.96 0 0 1-4.778-4.395 11.86 11.86 0 0 1-1.757-6.226c0-2.282.644-4.418 1.757-6.227a11.97 11.97 0 0 1 4.778-4.394 1.5 1.5 0 0 1 2.011.664 1.5 1.5 0 0 1-.664 2.011A8.96 8.96 0 0 0 30.152 3.8a8.85 8.85 0 0 0-1.312 4.653 8.907 8.907 0 0 0 4.887 7.945m6.512 27.242V8.449a1.5 1.5 0 0 1 3 0V43.64H62.59a1.5 1.5 0 0 1 0 3H1.891c-1.066 0-2.039.438-2.742 1.145a3.88 3.88 0 0 0-1.145 2.742v2.617a1.5 1.5 0 0 1-3 0v-2.617c0-1.895.774-3.617 2.024-4.864A6.87 6.87 0 0 1 1.89 43.64zm27.336 3a1.5 1.5 0 0 1 0-3h.317a1.5 1.5 0 0 1 0 3zm5.3 0a1.5 1.5 0 0 1 0-3h8.716c1.894 0 3.617.773 4.863 2.023a6.87 6.87 0 0 1 2.023 4.864v20.238a6.84 6.84 0 0 1-2.023 4.86 6.87 6.87 0 0 1-4.863 2.023H1.887a6.85 6.85 0 0 1-4.864-2.024A6.87 6.87 0 0 1-5 70.764V63.43a1.5 1.5 0 0 1 3 0v7.336c0 1.066.438 2.035 1.145 2.738a3.88 3.88 0 0 0 2.742 1.145H81.59a3.87 3.87 0 0 0 2.742-1.145 3.88 3.88 0 0 0 1.144-2.738V50.527c0-1.067-.437-2.04-1.144-2.742a3.88 3.88 0 0 0-2.742-1.145z"/></svg>